solid OpenSCAD_Model
  facet normal -0.0103441 -0.999946 0
    outer loop
      vertex 0.353 0.995 20
      vertex 0.353 0.995 0
      vertex 61.931 0.358 0
    endloop
  endfacet
  facet normal -0.0103441 -0.999946 0
    outer loop
      vertex 61.931 0.358 20
      vertex 0.353 0.995 20
      vertex 61.931 0.358 0
    endloop
  endfacet
  facet normal 0 0 -1
    outer loop
      vertex 0.353 0.995 0
      vertex 0.422 7.713 0
      vertex 61.931 0.358 0
    endloop
  endfacet
  facet normal 0 0 -1
    outer loop
      vertex 61.931 0.358 0
      vertex 0.422 7.713 0
      vertex 0.881 7.723 0
    endloop
  endfacet
  facet normal 0 0 -1
    outer loop
      vertex 61.931 0.358 0
      vertex 0.881 7.723 0
      vertex 3.524 7.853 0
    endloop
  endfacet
  facet normal 0 0 -1
    outer loop
      vertex 3.524 7.853 0
      vertex 6.627 8.095 0
      vertex 61.931 0.358 0
    endloop
  endfacet
  facet normal 0 0 -1
    outer loop
      vertex 6.627 8.095 0
      vertex 7.317 8.159 0
      vertex 61.931 0.358 0
    endloop
  endfacet
  facet normal 0 0 -1
    outer loop
      vertex 7.317 8.159 0
      vertex 7.791 8.203 0
      vertex 61.931 0.358 0
    endloop
  endfacet
  facet normal 0 0 -1
    outer loop
      vertex 7.791 8.203 0
      vertex 9.214 8.366 0
      vertex 61.931 0.358 0
    endloop
  endfacet
  facet normal 0 0 -1
    outer loop
      vertex 9.214 8.366 0
      vertex 10.767 8.598 0
      vertex 61.931 0.358 0
    endloop
  endfacet
  facet normal 0 0 -1
    outer loop
      vertex 10.767 8.598 0
      vertex 11.975 8.854 0
      vertex 61.931 0.358 0
    endloop
  endfacet
  facet normal 0 0 -1
    outer loop
      vertex 11.975 8.854 0
      vertex 12.631 9.047 0
      vertex 61.931 0.358 0
    endloop
  endfacet
  facet normal 0 0 -1
    outer loop
      vertex 12.631 9.047 0
      vertex 12.841 9.135 0
      vertex 61.931 0.358 0
    endloop
  endfacet
  facet normal 0 0 -1
    outer loop
      vertex 61.931 0.358 0
      vertex 12.841 9.135 0
      vertex 13.359 9.346 0
    endloop
  endfacet
  facet normal 0 0 -1
    outer loop
      vertex 13.359 9.346 0
      vertex 15.482 10.627 0
      vertex 61.931 0.358 0
    endloop
  endfacet
  facet normal 0 0 -1
    outer loop
      vertex 15.482 10.627 0
      vertex 16.977 12.215 0
      vertex 61.931 0.358 0
    endloop
  endfacet
  facet normal 0 0 -1
    outer loop
      vertex 16.977 12.215 0
      vertex 17.183 12.579 0
      vertex 61.931 0.358 0
    endloop
  endfacet
  facet normal 0 0 -1
    outer loop
      vertex 17.183 12.579 0
      vertex 17.387 12.943 0
      vertex 61.931 0.358 0
    endloop
  endfacet
  facet normal 0 0 -1
    outer loop
      vertex 17.387 12.943 0
      vertex 18.112 14.992 0
      vertex 61.931 0.358 0
    endloop
  endfacet
  facet normal 0 0 -1
    outer loop
      vertex 18.112 14.992 0
      vertex 18.437 17.347 0
      vertex 61.931 0.358 0
    endloop
  endfacet
  facet normal 0 0 -1
    outer loop
      vertex 18.437 17.347 0
      vertex 18.442 17.862 0
      vertex 61.931 0.358 0
    endloop
  endfacet
  facet normal 0 0 -1
    outer loop
      vertex 49.059 21.766 0
      vertex 18.442 17.862 0
      vertex 19.338 104.502 0
    endloop
  endfacet
  facet normal 0 0 -1
    outer loop
      vertex 67.203 114.446 0
      vertex 68.203 122.516 0
      vertex 71.553 113.675 0
    endloop
  endfacet
  facet normal 0 0 -1
    outer loop
      vertex 18.274 109.81 0
      vertex 66.467 122.534 0
      vertex 18.456 109.415 0
    endloop
  endfacet
  facet normal 0 0 -1
    outer loop
      vertex 18.136 110.109 0
      vertex 66.467 122.534 0
      vertex 18.274 109.81 0
    endloop
  endfacet
  facet normal 0 0 -1
    outer loop
      vertex 17.591 110.946 0
      vertex 66.467 122.534 0
      vertex 18.136 110.109 0
    endloop
  endfacet
  facet normal 0 0 -1
    outer loop
      vertex 16.637 111.97 0
      vertex 66.467 122.534 0
      vertex 17.591 110.946 0
    endloop
  endfacet
  facet normal 0 0 -1
    outer loop
      vertex 14.304 113.512 0
      vertex 13.921 113.688 0
      vertex 13.378 113.939 0
    endloop
  endfacet
  facet normal 0 0 -1
    outer loop
      vertex 14.304 113.512 0
      vertex 1.444 123.206 0
      vertex 15.413 112.885 0
    endloop
  endfacet
  facet normal 0 0 -1
    outer loop
      vertex 13.378 113.939 0
      vertex 1.444 123.206 0
      vertex 14.304 113.512 0
    endloop
  endfacet
  facet normal 0 0 -1
    outer loop
      vertex 7.618 115.649 0
      vertex 7.009 115.741 0
      vertex 6.4 115.834 0
    endloop
  endfacet
  facet normal 0 0 -1
    outer loop
      vertex 7.618 115.649 0
      vertex 1.444 123.206 0
      vertex 13.378 113.939 0
    endloop
  endfacet
  facet normal 0 0 -1
    outer loop
      vertex 6.4 115.834 0
      vertex 1.444 123.206 0
      vertex 7.618 115.649 0
    endloop
  endfacet
  facet normal 0 0 -1
    outer loop
      vertex 3.772 116.206 0
      vertex 1.444 123.206 0
      vertex 6.4 115.834 0
    endloop
  endfacet
  facet normal 0 0 -1
    outer loop
      vertex 1.705 116.457 0
      vertex 1.375 116.488 0
      vertex 1.444 123.206 0
    endloop
  endfacet
  facet normal 0 0 -1
    outer loop
      vertex 1.705 116.457 0
      vertex 1.444 123.206 0
      vertex 3.772 116.206 0
    endloop
  endfacet
  facet normal 0 0 -1
    outer loop
      vertex 15.413 112.885 0
      vertex 1.444 123.206 0
      vertex 66.467 122.534 0
    endloop
  endfacet
  facet normal 0 0 -1
    outer loop
      vertex 15.413 112.885 0
      vertex 66.467 122.534 0
      vertex 16.637 111.97 0
    endloop
  endfacet
  facet normal 0 0 -1
    outer loop
      vertex 67.203 114.446 0
      vertex 66.467 122.534 0
      vertex 68.203 122.516 0
    endloop
  endfacet
  facet normal 0 0 -1
    outer loop
      vertex 75.645 112.422 0
      vertex 68.203 122.516 0
      vertex 77.246 121.755 0
    endloop
  endfacet
  facet normal 0 0 -1
    outer loop
      vertex 83.028 108.512 0
      vertex 77.246 121.755 0
      vertex 86.768 120.099 0
    endloop
  endfacet
  facet normal 0 0 -1
    outer loop
      vertex 99.213 82.488 0
      vertex 111.551 109.492 0
      vertex 99.627 80.819 0
    endloop
  endfacet
  facet normal 0 0 -1
    outer loop
      vertex 86.266 105.942 0
      vertex 88.746 119.633 0
      vertex 90.722 119.169 0
    endloop
  endfacet
  facet normal 0 0 -1
    outer loop
      vertex 92.63 98.433 0
      vertex 90.722 119.169 0
      vertex 100.375 115.702 0
    endloop
  endfacet
  facet normal 0 0 -1
    outer loop
      vertex 96.122 91.78 0
      vertex 100.375 115.702 0
      vertex 109.725 110.717 0
    endloop
  endfacet
  facet normal 0 0 -1
    outer loop
      vertex 99.213 82.488 0
      vertex 109.725 110.717 0
      vertex 111.551 109.492 0
    endloop
  endfacet
  facet normal 0 0 -1
    outer loop
      vertex 99.627 80.819 0
      vertex 111.551 109.492 0
      vertex 112.927 108.572 0
    endloop
  endfacet
  facet normal 0 0 -1
    outer loop
      vertex 99.627 80.819 0
      vertex 116.838 105.474 0
      vertex 101.042 71.941 0
    endloop
  endfacet
  facet normal 0 0 -1
    outer loop
      vertex 101.042 71.941 0
      vertex 116.838 105.474 0
      vertex 121.582 100.85 0
    endloop
  endfacet
  facet normal 0 0 -1
    outer loop
      vertex 101.568 60.328 0
      vertex 121.582 100.85 0
      vertex 125.78 95.626 0
    endloop
  endfacet
  facet normal 0 0 -1
    outer loop
      vertex 101.546 58.261 0
      vertex 125.78 95.626 0
      vertex 128.605 91.302 0
    endloop
  endfacet
  facet normal 0 0 -1
    outer loop
      vertex 101.546 58.261 0
      vertex 130.289 88.248 0
      vertex 100.962 48.653 0
    endloop
  endfacet
  facet normal 0 0 -1
    outer loop
      vertex 100.962 48.653 0
      vertex 130.289 88.248 0
      vertex 132.383 83.333 0
    endloop
  endfacet
  facet normal 0 0 -1
    outer loop
      vertex 99.742 40.013 0
      vertex 132.383 83.333 0
      vertex 134.462 76.192 0
    endloop
  endfacet
  facet normal 0 0 -1
    outer loop
      vertex 99.063 36.847 0
      vertex 134.462 76.192 0
      vertex 135.673 68.377 0
    endloop
  endfacet
  facet normal 0 0 -1
    outer loop
      vertex 96.803 29.596 0
      vertex 135.673 68.377 0
      vertex 136.037 62.008 0
    endloop
  endfacet
  facet normal 0 0 -1
    outer loop
      vertex 96.803 29.596 0
      vertex 135.997 58.011 0
      vertex 93.792 23.228 0
    endloop
  endfacet
  facet normal 0 0 -1
    outer loop
      vertex 93.792 23.228 0
      vertex 135.997 58.011 0
      vertex 135.553 52.389 0
    endloop
  endfacet
  facet normal 0 0 -1
    outer loop
      vertex 90.722 18.834 0
      vertex 135.553 52.389 0
      vertex 134.327 45.401 0
    endloop
  endfacet
  facet normal 0 0 -1
    outer loop
      vertex 88.039 16.002 0
      vertex 134.327 45.401 0
      vertex 132.336 38.921 0
    endloop
  endfacet
  facet normal 0 0 -1
    outer loop
      vertex 61.931 0.358 0
      vertex 132.336 38.921 0
      vertex 130.368 34.388 0
    endloop
  endfacet
  facet normal 0 0 -1
    outer loop
      vertex 61.931 0.358 0
      vertex 130.368 34.388 0
      vertex 129.58 32.949 0
    endloop
  endfacet
  facet normal 0 0 -1
    outer loop
      vertex 61.931 0.358 0
      vertex 129.58 32.949 0
      vertex 128.808 31.545 0
    endloop
  endfacet
  facet normal 0 0 -1
    outer loop
      vertex 61.931 0.358 0
      vertex 128.808 31.545 0
      vertex 126.192 27.496 0
    endloop
  endfacet
  facet normal 0 0 -1
    outer loop
      vertex 61.931 0.358 0
      vertex 126.192 27.496 0
      vertex 122.312 22.571 0
    endloop
  endfacet
  facet normal 0 0 -1
    outer loop
      vertex 61.931 0.358 0
      vertex 122.312 22.571 0
      vertex 117.935 18.172 0
    endloop
  endfacet
  facet normal 0 0 -1
    outer loop
      vertex 61.931 0.358 0
      vertex 117.935 18.172 0
      vertex 114.335 15.194 0
    endloop
  endfacet
  facet normal 0 0 -1
    outer loop
      vertex 61.931 0.358 0
      vertex 114.335 15.194 0
      vertex 113.065 14.3 0
    endloop
  endfacet
  facet normal 0 0 -1
    outer loop
      vertex 61.931 0.358 0
      vertex 113.065 14.3 0
      vertex 111.762 13.399 0
    endloop
  endfacet
  facet normal 0 0 -1
    outer loop
      vertex 61.931 0.358 0
      vertex 111.762 13.399 0
      vertex 107.687 10.931 0
    endloop
  endfacet
  facet normal 0 0 -1
    outer loop
      vertex 61.931 0.358 0
      vertex 107.687 10.931 0
      vertex 101.964 8.031 0
    endloop
  endfacet
  facet normal 0 0 -1
    outer loop
      vertex 61.931 0.358 0
      vertex 101.964 8.031 0
      vertex 95.896 5.604 0
    endloop
  endfacet
  facet normal 0 0 -1
    outer loop
      vertex 61.931 0.358 0
      vertex 95.896 5.604 0
      vertex 91.104 4.072 0
    endloop
  endfacet
  facet normal 0 0 -1
    outer loop
      vertex 61.931 0.358 0
      vertex 91.104 4.072 0
      vertex 89.484 3.649 0
    endloop
  endfacet
  facet normal 0 0 -1
    outer loop
      vertex 61.931 0.358 0
      vertex 89.484 3.649 0
      vertex 87.289 3.076 0
    endloop
  endfacet
  facet normal 0 0 -1
    outer loop
      vertex 61.931 0.358 0
      vertex 87.289 3.076 0
      vertex 76.01 1.108 0
    endloop
  endfacet
  facet normal 0 0 -1
    outer loop
      vertex 61.931 0.358 0
      vertex 76.01 1.108 0
      vertex 64.327 0.335 0
    endloop
  endfacet
  facet normal 0 0 -1
    outer loop
      vertex 49.054 21.249 0
      vertex 18.442 17.862 0
      vertex 49.059 21.766 0
    endloop
  endfacet
  facet normal 0 0 -1
    outer loop
      vertex 54.767 10.458 0
      vertex 61.931 0.358 0
      vertex 52.904 11.78 0
    endloop
  endfacet
  facet normal 0 0 -1
    outer loop
      vertex 49.233 18.847 0
      vertex 18.442 17.862 0
      vertex 49.054 21.249 0
    endloop
  endfacet
  facet normal 0 0 -1
    outer loop
      vertex 49.69 16.687 0
      vertex 18.442 17.862 0
      vertex 49.233 18.847 0
    endloop
  endfacet
  facet normal 0 0 -1
    outer loop
      vertex 63.748 114.724 0
      vertex 66.467 122.534 0
      vertex 67.203 114.446 0
    endloop
  endfacet
  facet normal 0 0 -1
    outer loop
      vertex 49.822 16.29 0
      vertex 18.442 17.862 0
      vertex 49.69 16.687 0
    endloop
  endfacet
  facet normal 0 0 -1
    outer loop
      vertex 49.954 15.894 0
      vertex 18.442 17.862 0
      vertex 49.822 16.29 0
    endloop
  endfacet
  facet normal 0 0 -1
    outer loop
      vertex 50.906 14.051 0
      vertex 18.442 17.862 0
      vertex 49.954 15.894 0
    endloop
  endfacet
  facet normal 0 0 -1
    outer loop
      vertex 61.931 0.358 0
      vertex 18.442 17.862 0
      vertex 50.906 14.051 0
    endloop
  endfacet
  facet normal 0 0 -1
    outer loop
      vertex 61.931 0.358 0
      vertex 50.906 14.051 0
      vertex 52.25 12.389 0
    endloop
  endfacet
  facet normal 0 0 -1
    outer loop
      vertex 61.931 0.358 0
      vertex 52.25 12.389 0
      vertex 52.578 12.084 0
    endloop
  endfacet
  facet normal 0 0 -1
    outer loop
      vertex 61.931 0.358 0
      vertex 52.578 12.084 0
      vertex 52.904 11.78 0
    endloop
  endfacet
  facet normal 0 0 -1
    outer loop
      vertex 56.935 9.405 0
      vertex 61.931 0.358 0
      vertex 54.767 10.458 0
    endloop
  endfacet
  facet normal 0 0 -1
    outer loop
      vertex 64.164 8.175 0
      vertex 61.931 0.358 0
      vertex 60.733 8.457 0
    endloop
  endfacet
  facet normal 0 0 -1
    outer loop
      vertex 61.931 0.358 0
      vertex 56.935 9.405 0
      vertex 57.415 9.234 0
    endloop
  endfacet
  facet normal 0 0 -1
    outer loop
      vertex 61.931 0.358 0
      vertex 57.415 9.234 0
      vertex 57.893 9.065 0
    endloop
  endfacet
  facet normal 0 0 -1
    outer loop
      vertex 64.94 8.166 0
      vertex 61.931 0.358 0
      vertex 64.164 8.175 0
    endloop
  endfacet
  facet normal 0 0 -1
    outer loop
      vertex 66.113 8.155 0
      vertex 61.931 0.358 0
      vertex 64.94 8.166 0
    endloop
  endfacet
  facet normal 0 0 -1
    outer loop
      vertex 69.635 8.344 0
      vertex 61.931 0.358 0
      vertex 66.113 8.155 0
    endloop
  endfacet
  facet normal 0 0 -1
    outer loop
      vertex 73.991 8.977 0
      vertex 61.931 0.358 0
      vertex 69.635 8.344 0
    endloop
  endfacet
  facet normal 0 0 -1
    outer loop
      vertex 78.008 10.067 0
      vertex 61.931 0.358 0
      vertex 73.991 8.977 0
    endloop
  endfacet
  facet normal 0 0 -1
    outer loop
      vertex 85.027 13.594 0
      vertex 132.336 38.921 0
      vertex 82.549 12.048 0
    endloop
  endfacet
  facet normal 0 0 -1
    outer loop
      vertex 61.931 0.358 0
      vertex 78.008 10.067 0
      vertex 80.797 11.162 0
    endloop
  endfacet
  facet normal 0 0 -1
    outer loop
      vertex 61.931 0.358 0
      vertex 80.797 11.162 0
      vertex 81.685 11.61 0
    endloop
  endfacet
  facet normal 0 0 -1
    outer loop
      vertex 61.931 0.358 0
      vertex 81.685 11.61 0
      vertex 82.549 12.048 0
    endloop
  endfacet
  facet normal 0 0 -1
    outer loop
      vertex 61.931 0.358 0
      vertex 82.549 12.048 0
      vertex 132.336 38.921 0
    endloop
  endfacet
  facet normal 0 0 -1
    outer loop
      vertex 88.039 16.002 0
      vertex 132.336 38.921 0
      vertex 85.027 13.594 0
    endloop
  endfacet
  facet normal 0 0 -1
    outer loop
      vertex 90.722 18.834 0
      vertex 134.327 45.401 0
      vertex 88.039 16.002 0
    endloop
  endfacet
  facet normal 0 0 -1
    outer loop
      vertex 92.541 21.241 0
      vertex 135.553 52.389 0
      vertex 90.722 18.834 0
    endloop
  endfacet
  facet normal 0 0 -1
    outer loop
      vertex 93.077 22.087 0
      vertex 135.553 52.389 0
      vertex 92.541 21.241 0
    endloop
  endfacet
  facet normal 0 0 -1
    outer loop
      vertex 96.803 29.596 0
      vertex 136.017 59.885 0
      vertex 135.997 58.011 0
    endloop
  endfacet
  facet normal 0 0 -1
    outer loop
      vertex 93.792 23.228 0
      vertex 135.553 52.389 0
      vertex 93.077 22.087 0
    endloop
  endfacet
  facet normal 0 0 -1
    outer loop
      vertex 99.403 38.43 0
      vertex 134.462 76.192 0
      vertex 99.063 36.847 0
    endloop
  endfacet
  facet normal 0 0 -1
    outer loop
      vertex 99.742 40.013 0
      vertex 134.462 76.192 0
      vertex 99.403 38.43 0
    endloop
  endfacet
  facet normal 0 0 -1
    outer loop
      vertex 96.803 29.596 0
      vertex 136.037 62.008 0
      vertex 136.017 59.885 0
    endloop
  endfacet
  facet normal 0 0 -1
    outer loop
      vertex 99.063 36.847 0
      vertex 135.673 68.377 0
      vertex 96.803 29.596 0
    endloop
  endfacet
  facet normal 0 0 -1
    outer loop
      vertex 101.589 62.352 0
      vertex 121.582 100.85 0
      vertex 101.568 60.328 0
    endloop
  endfacet
  facet normal 0 0 -1
    outer loop
      vertex 99.627 80.819 0
      vertex 112.927 108.572 0
      vertex 116.838 105.474 0
    endloop
  endfacet
  facet normal 0 0 -1
    outer loop
      vertex 101.042 71.941 0
      vertex 121.582 100.85 0
      vertex 101.589 62.352 0
    endloop
  endfacet
  facet normal 0 0 -1
    outer loop
      vertex 98.8 84.158 0
      vertex 109.725 110.717 0
      vertex 99.213 82.488 0
    endloop
  endfacet
  facet normal 0 0 -1
    outer loop
      vertex 101.568 60.328 0
      vertex 125.78 95.626 0
      vertex 101.546 58.261 0
    endloop
  endfacet
  facet normal 0 0 -1
    outer loop
      vertex 92.63 98.433 0
      vertex 100.375 115.702 0
      vertex 96.122 91.78 0
    endloop
  endfacet
  facet normal 0 0 -1
    outer loop
      vertex 91.81 99.618 0
      vertex 90.722 119.169 0
      vertex 92.63 98.433 0
    endloop
  endfacet
  facet normal 0 0 -1
    outer loop
      vertex 86.266 105.942 0
      vertex 90.722 119.169 0
      vertex 89.194 102.978 0
    endloop
  endfacet
  facet normal 0 0 -1
    outer loop
      vertex 91.205 100.493 0
      vertex 90.722 119.169 0
      vertex 91.81 99.618 0
    endloop
  endfacet
  facet normal 0 0 -1
    outer loop
      vertex 89.194 102.978 0
      vertex 90.722 119.169 0
      vertex 91.205 100.493 0
    endloop
  endfacet
  facet normal 0 0 -1
    outer loop
      vertex 80.395 110.198 0
      vertex 77.246 121.755 0
      vertex 83.028 108.512 0
    endloop
  endfacet
  facet normal 0 0 -1
    outer loop
      vertex 79.48 110.685 0
      vertex 77.246 121.755 0
      vertex 80.395 110.198 0
    endloop
  endfacet
  facet normal 0 0 -1
    outer loop
      vertex 96.122 91.78 0
      vertex 109.725 110.717 0
      vertex 98.8 84.158 0
    endloop
  endfacet
  facet normal 0 0 -1
    outer loop
      vertex 78.552 111.18 0
      vertex 77.246 121.755 0
      vertex 79.48 110.685 0
    endloop
  endfacet
  facet normal 0 0 -1
    outer loop
      vertex 71.553 113.675 0
      vertex 68.203 122.516 0
      vertex 75.645 112.422 0
    endloop
  endfacet
  facet normal 0 0 -1
    outer loop
      vertex 101.546 58.261 0
      vertex 128.605 91.302 0
      vertex 129.435 89.799 0
    endloop
  endfacet
  facet normal 0 0 -1
    outer loop
      vertex 100.962 48.653 0
      vertex 132.383 83.333 0
      vertex 99.742 40.013 0
    endloop
  endfacet
  facet normal 0 0 -1
    outer loop
      vertex 101.546 58.261 0
      vertex 129.435 89.799 0
      vertex 130.289 88.248 0
    endloop
  endfacet
  facet normal 0 0 -1
    outer loop
      vertex 62.596 114.735 0
      vertex 66.467 122.534 0
      vertex 63.748 114.724 0
    endloop
  endfacet
  facet normal 0 0 -1
    outer loop
      vertex 62.093 114.741 0
      vertex 66.467 122.534 0
      vertex 62.596 114.735 0
    endloop
  endfacet
  facet normal 0 0 -1
    outer loop
      vertex 56.387 114.693 0
      vertex 66.467 122.534 0
      vertex 62.093 114.741 0
    endloop
  endfacet
  facet normal 0 0 -1
    outer loop
      vertex 75.645 112.422 0
      vertex 77.246 121.755 0
      vertex 78.552 111.18 0
    endloop
  endfacet
  facet normal 0 0 -1
    outer loop
      vertex 55.748 114.677 0
      vertex 66.467 122.534 0
      vertex 56.387 114.693 0
    endloop
  endfacet
  facet normal 0 0 -1
    outer loop
      vertex 55.109 114.662 0
      vertex 66.467 122.534 0
      vertex 55.748 114.677 0
    endloop
  endfacet
  facet normal 0 0 -1
    outer loop
      vertex 52.398 114.594 0
      vertex 66.467 122.534 0
      vertex 55.109 114.662 0
    endloop
  endfacet
  facet normal 0 0 -1
    outer loop
      vertex 83.028 108.512 0
      vertex 86.768 120.099 0
      vertex 88.746 119.633 0
    endloop
  endfacet
  facet normal 0 0 -1
    outer loop
      vertex 50.334 114.531 0
      vertex 66.467 122.534 0
      vertex 52.398 114.594 0
    endloop
  endfacet
  facet normal 0 0 -1
    outer loop
      vertex 83.028 108.512 0
      vertex 88.746 119.633 0
      vertex 86.266 105.942 0
    endloop
  endfacet
  facet normal 0 0 -1
    outer loop
      vertex 50.019 114.52 0
      vertex 66.467 122.534 0
      vertex 50.334 114.531 0
    endloop
  endfacet
  facet normal 0 0 -1
    outer loop
      vertex 18.456 109.415 0
      vertex 66.467 122.534 0
      vertex 50.019 114.52 0
    endloop
  endfacet
  facet normal 0 0 -1
    outer loop
      vertex 49.059 21.766 0
      vertex 19.338 104.502 0
      vertex 19.342 104.991 0
    endloop
  endfacet
  facet normal 0 0 -1
    outer loop
      vertex 49.059 21.766 0
      vertex 19.342 104.991 0
      vertex 19.087 107.294 0
    endloop
  endfacet
  facet normal 0 0 -1
    outer loop
      vertex 49.059 21.766 0
      vertex 19.087 107.294 0
      vertex 18.456 109.415 0
    endloop
  endfacet
  facet normal 0 0 -1
    outer loop
      vertex 49.059 21.766 0
      vertex 18.456 109.415 0
      vertex 50.019 114.52 0
    endloop
  endfacet
  facet normal 0 0 -1
    outer loop
      vertex 60.733 8.457 0
      vertex 61.931 0.358 0
      vertex 57.893 9.065 0
    endloop
  endfacet
  facet normal -0.999947 0.0102704 0
    outer loop
      vertex 0.353 0.995 0
      vertex 0.353 0.995 20
      vertex 0.422 7.713 0
    endloop
  endfacet
  facet normal -0.999947 0.0102704 0
    outer loop
      vertex 0.422 7.713 0
      vertex 0.353 0.995 20
      vertex 0.422 7.713 20
    endloop
  endfacet
  facet normal 0 0 1
    outer loop
      vertex 61.931 0.358 20
      vertex 64.327 0.335 20
      vertex 76.01 1.108 20
    endloop
  endfacet
  facet normal 0 0 1
    outer loop
      vertex 89.484 3.649 20
      vertex 61.931 0.358 20
      vertex 87.289 3.076 20
    endloop
  endfacet
  facet normal 0 0 1
    outer loop
      vertex 87.289 3.076 20
      vertex 61.931 0.358 20
      vertex 76.01 1.108 20
    endloop
  endfacet
  facet normal 0 0 1
    outer loop
      vertex 91.104 4.072 20
      vertex 61.931 0.358 20
      vertex 89.484 3.649 20
    endloop
  endfacet
  facet normal 0 0 1
    outer loop
      vertex 95.896 5.604 20
      vertex 61.931 0.358 20
      vertex 91.104 4.072 20
    endloop
  endfacet
  facet normal 0 0 1
    outer loop
      vertex 101.964 8.031 20
      vertex 61.931 0.358 20
      vertex 95.896 5.604 20
    endloop
  endfacet
  facet normal 0 0 1
    outer loop
      vertex 107.687 10.931 20
      vertex 61.931 0.358 20
      vertex 101.964 8.031 20
    endloop
  endfacet
  facet normal 0 0 1
    outer loop
      vertex 111.762 13.399 20
      vertex 61.931 0.358 20
      vertex 107.687 10.931 20
    endloop
  endfacet
  facet normal 0 0 1
    outer loop
      vertex 113.065 14.3 20
      vertex 61.931 0.358 20
      vertex 111.762 13.399 20
    endloop
  endfacet
  facet normal 0 0 1
    outer loop
      vertex 114.335 15.194 20
      vertex 61.931 0.358 20
      vertex 113.065 14.3 20
    endloop
  endfacet
  facet normal 0 0 1
    outer loop
      vertex 117.935 18.172 20
      vertex 61.931 0.358 20
      vertex 114.335 15.194 20
    endloop
  endfacet
  facet normal 0 0 1
    outer loop
      vertex 122.312 22.571 20
      vertex 61.931 0.358 20
      vertex 117.935 18.172 20
    endloop
  endfacet
  facet normal 0 0 1
    outer loop
      vertex 126.192 27.496 20
      vertex 61.931 0.358 20
      vertex 122.312 22.571 20
    endloop
  endfacet
  facet normal 0 0 1
    outer loop
      vertex 128.808 31.545 20
      vertex 61.931 0.358 20
      vertex 126.192 27.496 20
    endloop
  endfacet
  facet normal 0 0 1
    outer loop
      vertex 129.58 32.949 20
      vertex 61.931 0.358 20
      vertex 128.808 31.545 20
    endloop
  endfacet
  facet normal 0 0 1
    outer loop
      vertex 130.368 34.388 20
      vertex 61.931 0.358 20
      vertex 129.58 32.949 20
    endloop
  endfacet
  facet normal 0 0 1
    outer loop
      vertex 132.336 38.921 20
      vertex 61.931 0.358 20
      vertex 130.368 34.388 20
    endloop
  endfacet
  facet normal 0 0 1
    outer loop
      vertex 82.549 12.048 20
      vertex 61.931 0.358 20
      vertex 132.336 38.921 20
    endloop
  endfacet
  facet normal 0 0 1
    outer loop
      vertex 80.797 11.162 20
      vertex 78.008 10.067 20
      vertex 61.931 0.358 20
    endloop
  endfacet
  facet normal 0 0 1
    outer loop
      vertex 93.792 23.228 20
      vertex 93.077 22.087 20
      vertex 135.553 52.389 20
    endloop
  endfacet
  facet normal 0 0 1
    outer loop
      vertex 78.008 10.067 20
      vertex 73.991 8.977 20
      vertex 61.931 0.358 20
    endloop
  endfacet
  facet normal 0 0 1
    outer loop
      vertex 96.803 29.596 20
      vertex 136.017 59.885 20
      vertex 136.037 62.008 20
    endloop
  endfacet
  facet normal 0 0 1
    outer loop
      vertex 96.803 29.596 20
      vertex 135.997 58.011 20
      vertex 136.017 59.885 20
    endloop
  endfacet
  facet normal 0 0 1
    outer loop
      vertex 100.962 48.653 20
      vertex 99.742 40.013 20
      vertex 132.383 83.333 20
    endloop
  endfacet
  facet normal 0 0 1
    outer loop
      vertex 99.742 40.013 20
      vertex 99.403 38.43 20
      vertex 134.462 76.192 20
    endloop
  endfacet
  facet normal 0 0 1
    outer loop
      vertex 96.803 29.596 20
      vertex 93.792 23.228 20
      vertex 135.997 58.011 20
    endloop
  endfacet
  facet normal 0 0 1
    outer loop
      vertex 101.546 58.261 20
      vertex 129.435 89.799 20
      vertex 128.605 91.302 20
    endloop
  endfacet
  facet normal 0 0 1
    outer loop
      vertex 101.568 60.328 20
      vertex 101.546 58.261 20
      vertex 125.78 95.626 20
    endloop
  endfacet
  facet normal 0 0 1
    outer loop
      vertex 101.546 58.261 20
      vertex 130.289 88.248 20
      vertex 129.435 89.799 20
    endloop
  endfacet
  facet normal 0 0 1
    outer loop
      vertex 101.546 58.261 20
      vertex 100.962 48.653 20
      vertex 130.289 88.248 20
    endloop
  endfacet
  facet normal 0 0 1
    outer loop
      vertex 99.213 82.488 20
      vertex 99.627 80.819 20
      vertex 111.551 109.492 20
    endloop
  endfacet
  facet normal 0 0 1
    outer loop
      vertex 92.63 98.433 20
      vertex 96.122 91.78 20
      vertex 100.375 115.702 20
    endloop
  endfacet
  facet normal 0 0 1
    outer loop
      vertex 86.266 105.942 20
      vertex 89.194 102.978 20
      vertex 90.722 119.169 20
    endloop
  endfacet
  facet normal 0 0 1
    outer loop
      vertex 96.122 91.78 20
      vertex 98.8 84.158 20
      vertex 109.725 110.717 20
    endloop
  endfacet
  facet normal 0 0 1
    outer loop
      vertex 83.028 108.512 20
      vertex 88.746 119.633 20
      vertex 86.768 120.099 20
    endloop
  endfacet
  facet normal 0 0 1
    outer loop
      vertex 75.645 112.422 20
      vertex 78.552 111.18 20
      vertex 77.246 121.755 20
    endloop
  endfacet
  facet normal 0 0 1
    outer loop
      vertex 67.203 114.446 20
      vertex 71.553 113.675 20
      vertex 68.203 122.516 20
    endloop
  endfacet
  facet normal 0 0 1
    outer loop
      vertex 1.375 116.488 20
      vertex 1.705 116.457 20
      vertex 1.444 123.206 20
    endloop
  endfacet
  facet normal 0 0 1
    outer loop
      vertex 1.705 116.457 20
      vertex 3.772 116.206 20
      vertex 1.444 123.206 20
    endloop
  endfacet
  facet normal 0 0 1
    outer loop
      vertex 49.059 21.766 20
      vertex 19.087 107.294 20
      vertex 19.342 104.991 20
    endloop
  endfacet
  facet normal 0 0 1
    outer loop
      vertex 1.444 123.206 20
      vertex 6.4 115.834 20
      vertex 66.467 122.534 20
    endloop
  endfacet
  facet normal 0 0 1
    outer loop
      vertex 6.4 115.834 20
      vertex 7.009 115.741 20
      vertex 66.467 122.534 20
    endloop
  endfacet
  facet normal 0 0 1
    outer loop
      vertex 49.059 21.766 20
      vertex 50.019 114.52 20
      vertex 18.456 109.415 20
    endloop
  endfacet
  facet normal 0 0 1
    outer loop
      vertex 7.009 115.741 20
      vertex 7.618 115.649 20
      vertex 66.467 122.534 20
    endloop
  endfacet
  facet normal 0 0 1
    outer loop
      vertex 7.618 115.649 20
      vertex 13.378 113.939 20
      vertex 66.467 122.534 20
    endloop
  endfacet
  facet normal 0 0 1
    outer loop
      vertex 13.378 113.939 20
      vertex 13.921 113.688 20
      vertex 66.467 122.534 20
    endloop
  endfacet
  facet normal 0 0 1
    outer loop
      vertex 13.921 113.688 20
      vertex 14.304 113.512 20
      vertex 66.467 122.534 20
    endloop
  endfacet
  facet normal 0 0 1
    outer loop
      vertex 14.304 113.512 20
      vertex 15.413 112.885 20
      vertex 66.467 122.534 20
    endloop
  endfacet
  facet normal 0 0 1
    outer loop
      vertex 15.413 112.885 20
      vertex 16.637 111.97 20
      vertex 66.467 122.534 20
    endloop
  endfacet
  facet normal 0 0 1
    outer loop
      vertex 16.637 111.97 20
      vertex 17.591 110.946 20
      vertex 66.467 122.534 20
    endloop
  endfacet
  facet normal 0 0 1
    outer loop
      vertex 17.591 110.946 20
      vertex 18.136 110.109 20
      vertex 66.467 122.534 20
    endloop
  endfacet
  facet normal 0 0 1
    outer loop
      vertex 18.136 110.109 20
      vertex 18.274 109.81 20
      vertex 66.467 122.534 20
    endloop
  endfacet
  facet normal 0 0 1
    outer loop
      vertex 18.274 109.81 20
      vertex 18.456 109.415 20
      vertex 66.467 122.534 20
    endloop
  endfacet
  facet normal 0 0 1
    outer loop
      vertex 99.627 80.819 20
      vertex 101.042 71.941 20
      vertex 116.838 105.474 20
    endloop
  endfacet
  facet normal 0 0 1
    outer loop
      vertex 73.991 8.977 20
      vertex 69.635 8.344 20
      vertex 61.931 0.358 20
    endloop
  endfacet
  facet normal 0 0 1
    outer loop
      vertex 18.437 17.347 20
      vertex 61.931 0.358 20
      vertex 18.442 17.862 20
    endloop
  endfacet
  facet normal 0 0 1
    outer loop
      vertex 18.112 14.992 20
      vertex 61.931 0.358 20
      vertex 18.437 17.347 20
    endloop
  endfacet
  facet normal 0 0 1
    outer loop
      vertex 17.387 12.943 20
      vertex 61.931 0.358 20
      vertex 18.112 14.992 20
    endloop
  endfacet
  facet normal 0 0 1
    outer loop
      vertex 17.183 12.579 20
      vertex 61.931 0.358 20
      vertex 17.387 12.943 20
    endloop
  endfacet
  facet normal 0 0 1
    outer loop
      vertex 16.977 12.215 20
      vertex 61.931 0.358 20
      vertex 17.183 12.579 20
    endloop
  endfacet
  facet normal 0 0 1
    outer loop
      vertex 15.482 10.627 20
      vertex 61.931 0.358 20
      vertex 16.977 12.215 20
    endloop
  endfacet
  facet normal 0 0 1
    outer loop
      vertex 13.359 9.346 20
      vertex 61.931 0.358 20
      vertex 15.482 10.627 20
    endloop
  endfacet
  facet normal 0 0 1
    outer loop
      vertex 12.841 9.135 20
      vertex 61.931 0.358 20
      vertex 13.359 9.346 20
    endloop
  endfacet
  facet normal 0 0 1
    outer loop
      vertex 12.631 9.047 20
      vertex 61.931 0.358 20
      vertex 12.841 9.135 20
    endloop
  endfacet
  facet normal 0 0 1
    outer loop
      vertex 11.975 8.854 20
      vertex 61.931 0.358 20
      vertex 12.631 9.047 20
    endloop
  endfacet
  facet normal 0 0 1
    outer loop
      vertex 10.767 8.598 20
      vertex 61.931 0.358 20
      vertex 11.975 8.854 20
    endloop
  endfacet
  facet normal 0 0 1
    outer loop
      vertex 9.214 8.366 20
      vertex 61.931 0.358 20
      vertex 10.767 8.598 20
    endloop
  endfacet
  facet normal 0 0 1
    outer loop
      vertex 7.791 8.203 20
      vertex 61.931 0.358 20
      vertex 9.214 8.366 20
    endloop
  endfacet
  facet normal 0 0 1
    outer loop
      vertex 7.317 8.159 20
      vertex 61.931 0.358 20
      vertex 7.791 8.203 20
    endloop
  endfacet
  facet normal 0 0 1
    outer loop
      vertex 6.627 8.095 20
      vertex 61.931 0.358 20
      vertex 7.317 8.159 20
    endloop
  endfacet
  facet normal 0 0 1
    outer loop
      vertex 3.524 7.853 20
      vertex 61.931 0.358 20
      vertex 6.627 8.095 20
    endloop
  endfacet
  facet normal 0 0 1
    outer loop
      vertex 0.881 7.723 20
      vertex 61.931 0.358 20
      vertex 3.524 7.853 20
    endloop
  endfacet
  facet normal 0 0 1
    outer loop
      vertex 0.422 7.713 20
      vertex 61.931 0.358 20
      vertex 0.881 7.723 20
    endloop
  endfacet
  facet normal 0 0 1
    outer loop
      vertex 0.353 0.995 20
      vertex 61.931 0.358 20
      vertex 0.422 7.713 20
    endloop
  endfacet
  facet normal 0 0 1
    outer loop
      vertex 60.733 8.457 20
      vertex 57.893 9.065 20
      vertex 61.931 0.358 20
    endloop
  endfacet
  facet normal 0 0 1
    outer loop
      vertex 18.456 109.415 20
      vertex 50.019 114.52 20
      vertex 66.467 122.534 20
    endloop
  endfacet
  facet normal 0 0 1
    outer loop
      vertex 50.019 114.52 20
      vertex 50.334 114.531 20
      vertex 66.467 122.534 20
    endloop
  endfacet
  facet normal 0 0 1
    outer loop
      vertex 56.935 9.405 20
      vertex 54.767 10.458 20
      vertex 61.931 0.358 20
    endloop
  endfacet
  facet normal 0 0 1
    outer loop
      vertex 50.334 114.531 20
      vertex 52.398 114.594 20
      vertex 66.467 122.534 20
    endloop
  endfacet
  facet normal 0 0 1
    outer loop
      vertex 52.398 114.594 20
      vertex 55.109 114.662 20
      vertex 66.467 122.534 20
    endloop
  endfacet
  facet normal 0 0 1
    outer loop
      vertex 55.109 114.662 20
      vertex 55.748 114.677 20
      vertex 66.467 122.534 20
    endloop
  endfacet
  facet normal 0 0 1
    outer loop
      vertex 55.748 114.677 20
      vertex 56.387 114.693 20
      vertex 66.467 122.534 20
    endloop
  endfacet
  facet normal 0 0 1
    outer loop
      vertex 56.387 114.693 20
      vertex 62.093 114.741 20
      vertex 66.467 122.534 20
    endloop
  endfacet
  facet normal 0 0 1
    outer loop
      vertex 62.093 114.741 20
      vertex 62.596 114.735 20
      vertex 66.467 122.534 20
    endloop
  endfacet
  facet normal 0 0 1
    outer loop
      vertex 62.596 114.735 20
      vertex 63.748 114.724 20
      vertex 66.467 122.534 20
    endloop
  endfacet
  facet normal 0 0 1
    outer loop
      vertex 66.467 122.534 20
      vertex 67.203 114.446 20
      vertex 68.203 122.516 20
    endloop
  endfacet
  facet normal 0 0 1
    outer loop
      vertex 68.203 122.516 20
      vertex 71.553 113.675 20
      vertex 77.246 121.755 20
    endloop
  endfacet
  facet normal 0 0 1
    outer loop
      vertex 71.553 113.675 20
      vertex 75.645 112.422 20
      vertex 77.246 121.755 20
    endloop
  endfacet
  facet normal 0 0 1
    outer loop
      vertex 77.246 121.755 20
      vertex 78.552 111.18 20
      vertex 86.768 120.099 20
    endloop
  endfacet
  facet normal 0 0 1
    outer loop
      vertex 78.552 111.18 20
      vertex 79.48 110.685 20
      vertex 86.768 120.099 20
    endloop
  endfacet
  facet normal 0 0 1
    outer loop
      vertex 79.48 110.685 20
      vertex 80.395 110.198 20
      vertex 86.768 120.099 20
    endloop
  endfacet
  facet normal 0 0 1
    outer loop
      vertex 80.395 110.198 20
      vertex 83.028 108.512 20
      vertex 86.768 120.099 20
    endloop
  endfacet
  facet normal 0 0 1
    outer loop
      vertex 88.746 119.633 20
      vertex 86.266 105.942 20
      vertex 90.722 119.169 20
    endloop
  endfacet
  facet normal 0 0 1
    outer loop
      vertex 90.722 119.169 20
      vertex 89.194 102.978 20
      vertex 100.375 115.702 20
    endloop
  endfacet
  facet normal 0 0 1
    outer loop
      vertex 89.194 102.978 20
      vertex 91.205 100.493 20
      vertex 100.375 115.702 20
    endloop
  endfacet
  facet normal 0 0 1
    outer loop
      vertex 91.205 100.493 20
      vertex 91.81 99.618 20
      vertex 100.375 115.702 20
    endloop
  endfacet
  facet normal 0 0 1
    outer loop
      vertex 91.81 99.618 20
      vertex 92.63 98.433 20
      vertex 100.375 115.702 20
    endloop
  endfacet
  facet normal 0 0 1
    outer loop
      vertex 100.375 115.702 20
      vertex 96.122 91.78 20
      vertex 109.725 110.717 20
    endloop
  endfacet
  facet normal 0 0 1
    outer loop
      vertex 109.725 110.717 20
      vertex 98.8 84.158 20
      vertex 111.551 109.492 20
    endloop
  endfacet
  facet normal 0 0 1
    outer loop
      vertex 98.8 84.158 20
      vertex 99.213 82.488 20
      vertex 111.551 109.492 20
    endloop
  endfacet
  facet normal 0 0 1
    outer loop
      vertex 111.551 109.492 20
      vertex 99.627 80.819 20
      vertex 112.927 108.572 20
    endloop
  endfacet
  facet normal 0 0 1
    outer loop
      vertex 116.838 105.474 20
      vertex 101.042 71.941 20
      vertex 121.582 100.85 20
    endloop
  endfacet
  facet normal 0 0 1
    outer loop
      vertex 121.582 100.85 20
      vertex 101.589 62.352 20
      vertex 125.78 95.626 20
    endloop
  endfacet
  facet normal 0 0 1
    outer loop
      vertex 66.113 8.155 20
      vertex 64.94 8.166 20
      vertex 61.931 0.358 20
    endloop
  endfacet
  facet normal 0 0 1
    outer loop
      vertex 101.589 62.352 20
      vertex 101.568 60.328 20
      vertex 125.78 95.626 20
    endloop
  endfacet
  facet normal 0 0 1
    outer loop
      vertex 125.78 95.626 20
      vertex 101.546 58.261 20
      vertex 128.605 91.302 20
    endloop
  endfacet
  facet normal 0 0 1
    outer loop
      vertex 64.94 8.166 20
      vertex 64.164 8.175 20
      vertex 61.931 0.358 20
    endloop
  endfacet
  facet normal 0 0 1
    outer loop
      vertex 130.289 88.248 20
      vertex 100.962 48.653 20
      vertex 132.383 83.333 20
    endloop
  endfacet
  facet normal 0 0 1
    outer loop
      vertex 132.383 83.333 20
      vertex 99.742 40.013 20
      vertex 134.462 76.192 20
    endloop
  endfacet
  facet normal 0 0 1
    outer loop
      vertex 134.462 76.192 20
      vertex 99.403 38.43 20
      vertex 135.673 68.377 20
    endloop
  endfacet
  facet normal 0 0 1
    outer loop
      vertex 99.403 38.43 20
      vertex 99.063 36.847 20
      vertex 135.673 68.377 20
    endloop
  endfacet
  facet normal 0 0 1
    outer loop
      vertex 135.673 68.377 20
      vertex 96.803 29.596 20
      vertex 136.037 62.008 20
    endloop
  endfacet
  facet normal 0 0 1
    outer loop
      vertex 135.997 58.011 20
      vertex 93.792 23.228 20
      vertex 135.553 52.389 20
    endloop
  endfacet
  facet normal 0 0 1
    outer loop
      vertex 135.553 52.389 20
      vertex 93.077 22.087 20
      vertex 134.327 45.401 20
    endloop
  endfacet
  facet normal 0 0 1
    outer loop
      vertex 93.077 22.087 20
      vertex 92.541 21.241 20
      vertex 134.327 45.401 20
    endloop
  endfacet
  facet normal 0 0 1
    outer loop
      vertex 92.541 21.241 20
      vertex 90.722 18.834 20
      vertex 134.327 45.401 20
    endloop
  endfacet
  facet normal 0 0 1
    outer loop
      vertex 134.327 45.401 20
      vertex 88.039 16.002 20
      vertex 132.336 38.921 20
    endloop
  endfacet
  facet normal 0 0 1
    outer loop
      vertex 88.039 16.002 20
      vertex 85.027 13.594 20
      vertex 132.336 38.921 20
    endloop
  endfacet
  facet normal 0 0 1
    outer loop
      vertex 85.027 13.594 20
      vertex 82.549 12.048 20
      vertex 132.336 38.921 20
    endloop
  endfacet
  facet normal 0 0 1
    outer loop
      vertex 81.685 11.61 20
      vertex 61.931 0.358 20
      vertex 82.549 12.048 20
    endloop
  endfacet
  facet normal 0 0 1
    outer loop
      vertex 80.797 11.162 20
      vertex 61.931 0.358 20
      vertex 81.685 11.61 20
    endloop
  endfacet
  facet normal 0 0 1
    outer loop
      vertex 90.722 18.834 20
      vertex 88.039 16.002 20
      vertex 134.327 45.401 20
    endloop
  endfacet
  facet normal 0 0 1
    outer loop
      vertex 99.063 36.847 20
      vertex 96.803 29.596 20
      vertex 135.673 68.377 20
    endloop
  endfacet
  facet normal 0 0 1
    outer loop
      vertex 101.042 71.941 20
      vertex 101.589 62.352 20
      vertex 121.582 100.85 20
    endloop
  endfacet
  facet normal 0 0 1
    outer loop
      vertex 99.627 80.819 20
      vertex 116.838 105.474 20
      vertex 112.927 108.572 20
    endloop
  endfacet
  facet normal 0 0 1
    outer loop
      vertex 63.748 114.724 20
      vertex 67.203 114.446 20
      vertex 66.467 122.534 20
    endloop
  endfacet
  facet normal 0 0 1
    outer loop
      vertex 49.059 21.766 20
      vertex 19.342 104.991 20
      vertex 19.338 104.502 20
    endloop
  endfacet
  facet normal 0 0 1
    outer loop
      vertex 18.442 17.862 20
      vertex 61.931 0.358 20
      vertex 54.767 10.458 20
    endloop
  endfacet
  facet normal 0 0 1
    outer loop
      vertex 18.442 17.862 20
      vertex 54.767 10.458 20
      vertex 52.904 11.78 20
    endloop
  endfacet
  facet normal 0 0 1
    outer loop
      vertex 18.442 17.862 20
      vertex 52.904 11.78 20
      vertex 52.578 12.084 20
    endloop
  endfacet
  facet normal 0 0 1
    outer loop
      vertex 18.442 17.862 20
      vertex 52.578 12.084 20
      vertex 52.25 12.389 20
    endloop
  endfacet
  facet normal 0 0 1
    outer loop
      vertex 18.442 17.862 20
      vertex 52.25 12.389 20
      vertex 50.906 14.051 20
    endloop
  endfacet
  facet normal 0 0 1
    outer loop
      vertex 18.442 17.862 20
      vertex 50.906 14.051 20
      vertex 49.954 15.894 20
    endloop
  endfacet
  facet normal 0 0 1
    outer loop
      vertex 18.442 17.862 20
      vertex 49.954 15.894 20
      vertex 49.822 16.29 20
    endloop
  endfacet
  facet normal 0 0 1
    outer loop
      vertex 18.442 17.862 20
      vertex 49.822 16.29 20
      vertex 49.69 16.687 20
    endloop
  endfacet
  facet normal 0 0 1
    outer loop
      vertex 18.442 17.862 20
      vertex 49.69 16.687 20
      vertex 49.233 18.847 20
    endloop
  endfacet
  facet normal 0 0 1
    outer loop
      vertex 18.442 17.862 20
      vertex 49.054 21.249 20
      vertex 49.059 21.766 20
    endloop
  endfacet
  facet normal 0 0 1
    outer loop
      vertex 18.442 17.862 20
      vertex 49.233 18.847 20
      vertex 49.054 21.249 20
    endloop
  endfacet
  facet normal 0 0 1
    outer loop
      vertex 49.059 21.766 20
      vertex 18.456 109.415 20
      vertex 19.087 107.294 20
    endloop
  endfacet
  facet normal 0 0 1
    outer loop
      vertex 3.772 116.206 20
      vertex 6.4 115.834 20
      vertex 1.444 123.206 20
    endloop
  endfacet
  facet normal 0 0 1
    outer loop
      vertex 83.028 108.512 20
      vertex 86.266 105.942 20
      vertex 88.746 119.633 20
    endloop
  endfacet
  facet normal 0 0 1
    outer loop
      vertex 57.893 9.065 20
      vertex 57.415 9.234 20
      vertex 61.931 0.358 20
    endloop
  endfacet
  facet normal 0 0 1
    outer loop
      vertex 69.635 8.344 20
      vertex 66.113 8.155 20
      vertex 61.931 0.358 20
    endloop
  endfacet
  facet normal 0 0 1
    outer loop
      vertex 57.415 9.234 20
      vertex 56.935 9.405 20
      vertex 61.931 0.358 20
    endloop
  endfacet
  facet normal 0 0 1
    outer loop
      vertex 19.338 104.502 20
      vertex 18.442 17.862 20
      vertex 49.059 21.766 20
    endloop
  endfacet
  facet normal 0 0 1
    outer loop
      vertex 64.164 8.175 20
      vertex 60.733 8.457 20
      vertex 61.931 0.358 20
    endloop
  endfacet
  facet normal -0.00959889 -0.999954 0
    outer loop
      vertex 61.931 0.358 20
      vertex 61.931 0.358 0
      vertex 64.327 0.335 0
    endloop
  endfacet
  facet normal -0.00959889 -0.999954 0
    outer loop
      vertex 64.327 0.335 20
      vertex 61.931 0.358 20
      vertex 64.327 0.335 0
    endloop
  endfacet
  facet normal 0.0660202 -0.997818 0
    outer loop
      vertex 64.327 0.335 20
      vertex 64.327 0.335 0
      vertex 76.01 1.108 0
    endloop
  endfacet
  facet normal 0.0660202 -0.997818 0
    outer loop
      vertex 76.01 1.108 20
      vertex 64.327 0.335 20
      vertex 76.01 1.108 0
    endloop
  endfacet
  facet normal 0.171887 -0.985117 0
    outer loop
      vertex 76.01 1.108 20
      vertex 76.01 1.108 0
      vertex 87.289 3.076 0
    endloop
  endfacet
  facet normal 0.171887 -0.985117 0
    outer loop
      vertex 87.289 3.076 20
      vertex 76.01 1.108 20
      vertex 87.289 3.076 0
    endloop
  endfacet
  facet normal 0.252583 -0.967575 0
    outer loop
      vertex 87.289 3.076 20
      vertex 87.289 3.076 0
      vertex 89.484 3.649 0
    endloop
  endfacet
  facet normal 0.252583 -0.967575 0
    outer loop
      vertex 89.484 3.649 20
      vertex 87.289 3.076 20
      vertex 89.484 3.649 0
    endloop
  endfacet
  facet normal 0.252641 -0.96756 0
    outer loop
      vertex 89.484 3.649 20
      vertex 89.484 3.649 0
      vertex 91.104 4.072 0
    endloop
  endfacet
  facet normal 0.252641 -0.96756 0
    outer loop
      vertex 91.104 4.072 20
      vertex 89.484 3.649 20
      vertex 91.104 4.072 0
    endloop
  endfacet
  facet normal 0.304516 -0.952507 0
    outer loop
      vertex 91.104 4.072 20
      vertex 91.104 4.072 0
      vertex 95.896 5.604 0
    endloop
  endfacet
  facet normal 0.304516 -0.952507 0
    outer loop
      vertex 95.896 5.604 20
      vertex 91.104 4.072 20
      vertex 95.896 5.604 0
    endloop
  endfacet
  facet normal 0.371364 -0.928487 0
    outer loop
      vertex 95.896 5.604 20
      vertex 95.896 5.604 0
      vertex 101.964 8.031 0
    endloop
  endfacet
  facet normal 0.371364 -0.928487 0
    outer loop
      vertex 101.964 8.031 20
      vertex 95.896 5.604 20
      vertex 101.964 8.031 0
    endloop
  endfacet
  facet normal 0.452008 -0.892014 0
    outer loop
      vertex 101.964 8.031 20
      vertex 101.964 8.031 0
      vertex 107.687 10.931 0
    endloop
  endfacet
  facet normal 0.452008 -0.892014 0
    outer loop
      vertex 107.687 10.931 20
      vertex 101.964 8.031 20
      vertex 107.687 10.931 0
    endloop
  endfacet
  facet normal 0.518041 -0.855356 0
    outer loop
      vertex 107.687 10.931 20
      vertex 107.687 10.931 0
      vertex 111.762 13.399 0
    endloop
  endfacet
  facet normal 0.518041 -0.855356 0
    outer loop
      vertex 111.762 13.399 20
      vertex 107.687 10.931 20
      vertex 111.762 13.399 0
    endloop
  endfacet
  facet normal 0.56875 -0.82251 0
    outer loop
      vertex 111.762 13.399 20
      vertex 111.762 13.399 0
      vertex 113.065 14.3 0
    endloop
  endfacet
  facet normal 0.56875 -0.82251 0
    outer loop
      vertex 113.065 14.3 20
      vertex 111.762 13.399 20
      vertex 113.065 14.3 0
    endloop
  endfacet
  facet normal 0.575621 -0.817717 0
    outer loop
      vertex 113.065 14.3 20
      vertex 113.065 14.3 0
      vertex 114.335 15.194 0
    endloop
  endfacet
  facet normal 0.575621 -0.817717 0
    outer loop
      vertex 114.335 15.194 20
      vertex 113.065 14.3 20
      vertex 114.335 15.194 0
    endloop
  endfacet
  facet normal 0.637401 -0.770532 0
    outer loop
      vertex 114.335 15.194 20
      vertex 114.335 15.194 0
      vertex 117.935 18.172 0
    endloop
  endfacet
  facet normal 0.637401 -0.770532 0
    outer loop
      vertex 117.935 18.172 20
      vertex 114.335 15.194 20
      vertex 117.935 18.172 0
    endloop
  endfacet
  facet normal 0.708877 -0.705332 0
    outer loop
      vertex 117.935 18.172 20
      vertex 117.935 18.172 0
      vertex 122.312 22.571 0
    endloop
  endfacet
  facet normal 0.708877 -0.705332 0
    outer loop
      vertex 122.312 22.571 20
      vertex 117.935 18.172 20
      vertex 122.312 22.571 0
    endloop
  endfacet
  facet normal 0.785515 -0.618842 0
    outer loop
      vertex 122.312 22.571 20
      vertex 122.312 22.571 0
      vertex 126.192 27.496 0
    endloop
  endfacet
  facet normal 0.785515 -0.618842 0
    outer loop
      vertex 126.192 27.496 20
      vertex 122.312 22.571 20
      vertex 126.192 27.496 0
    endloop
  endfacet
  facet normal 0.839943 -0.542675 0
    outer loop
      vertex 126.192 27.496 20
      vertex 126.192 27.496 0
      vertex 128.808 31.545 0
    endloop
  endfacet
  facet normal 0.839943 -0.542675 0
    outer loop
      vertex 128.808 31.545 20
      vertex 126.192 27.496 20
      vertex 128.808 31.545 0
    endloop
  endfacet
  facet normal 0.876269 -0.481823 0
    outer loop
      vertex 128.808 31.545 20
      vertex 128.808 31.545 0
      vertex 129.58 32.949 0
    endloop
  endfacet
  facet normal 0.876269 -0.481823 0
    outer loop
      vertex 129.58 32.949 20
      vertex 128.808 31.545 20
      vertex 129.58 32.949 0
    endloop
  endfacet
  facet normal 0.877102 -0.480303 0
    outer loop
      vertex 129.58 32.949 20
      vertex 129.58 32.949 0
      vertex 130.368 34.388 0
    endloop
  endfacet
  facet normal 0.877102 -0.480303 0
    outer loop
      vertex 130.368 34.388 20
      vertex 129.58 32.949 20
      vertex 130.368 34.388 0
    endloop
  endfacet
  facet normal 0.917282 -0.398238 0
    outer loop
      vertex 130.368 34.388 20
      vertex 130.368 34.388 0
      vertex 132.336 38.921 0
    endloop
  endfacet
  facet normal 0.917282 -0.398238 0
    outer loop
      vertex 132.336 38.921 20
      vertex 130.368 34.388 20
      vertex 132.336 38.921 0
    endloop
  endfacet
  facet normal 0.955897 -0.293702 0
    outer loop
      vertex 132.336 38.921 20
      vertex 132.336 38.921 0
      vertex 134.327 45.401 0
    endloop
  endfacet
  facet normal 0.955897 -0.293702 0
    outer loop
      vertex 134.327 45.401 20
      vertex 132.336 38.921 20
      vertex 134.327 45.401 0
    endloop
  endfacet
  facet normal 0.984956 -0.172804 0
    outer loop
      vertex 134.327 45.401 20
      vertex 134.327 45.401 0
      vertex 135.553 52.389 0
    endloop
  endfacet
  facet normal 0.984956 -0.172804 0
    outer loop
      vertex 135.553 52.389 20
      vertex 134.327 45.401 20
      vertex 135.553 52.389 0
    endloop
  endfacet
  facet normal 0.996896 -0.0787303 0
    outer loop
      vertex 135.553 52.389 20
      vertex 135.553 52.389 0
      vertex 135.997 58.011 0
    endloop
  endfacet
  facet normal 0.996896 -0.0787303 0
    outer loop
      vertex 135.997 58.011 20
      vertex 135.553 52.389 20
      vertex 135.997 58.011 0
    endloop
  endfacet
  facet normal 0.999943 -0.0106718 0
    outer loop
      vertex 135.997 58.011 20
      vertex 135.997 58.011 0
      vertex 136.017 59.885 0
    endloop
  endfacet
  facet normal 0.999943 -0.0106718 0
    outer loop
      vertex 136.017 59.885 20
      vertex 135.997 58.011 20
      vertex 136.017 59.885 0
    endloop
  endfacet
  facet normal 0.999956 -0.00942021 0
    outer loop
      vertex 136.017 59.885 20
      vertex 136.017 59.885 0
      vertex 136.037 62.008 0
    endloop
  endfacet
  facet normal 0.999956 -0.00942021 0
    outer loop
      vertex 136.037 62.008 20
      vertex 136.017 59.885 20
      vertex 136.037 62.008 0
    endloop
  endfacet
  facet normal 0.998371 0.0570587 0
    outer loop
      vertex 136.037 62.008 0
      vertex 135.673 68.377 0
      vertex 135.673 68.377 20
    endloop
  endfacet
  facet normal 0.998371 0.0570587 0
    outer loop
      vertex 136.037 62.008 20
      vertex 136.037 62.008 0
      vertex 135.673 68.377 20
    endloop
  endfacet
  facet normal 0.988206 0.153131 0
    outer loop
      vertex 135.673 68.377 0
      vertex 134.462 76.192 0
      vertex 134.462 76.192 20
    endloop
  endfacet
  facet normal 0.988206 0.153131 0
    outer loop
      vertex 135.673 68.377 20
      vertex 135.673 68.377 0
      vertex 134.462 76.192 20
    endloop
  endfacet
  facet normal 0.960137 0.27953 0
    outer loop
      vertex 134.462 76.192 0
      vertex 132.383 83.333 0
      vertex 132.383 83.333 20
    endloop
  endfacet
  facet normal 0.960137 0.27953 0
    outer loop
      vertex 134.462 76.192 20
      vertex 134.462 76.192 0
      vertex 132.383 83.333 20
    endloop
  endfacet
  facet normal 0.919985 0.391953 0
    outer loop
      vertex 132.383 83.333 0
      vertex 130.289 88.248 0
      vertex 130.289 88.248 20
    endloop
  endfacet
  facet normal 0.919985 0.391953 0
    outer loop
      vertex 132.383 83.333 20
      vertex 132.383 83.333 0
      vertex 130.289 88.248 20
    endloop
  endfacet
  facet normal 0.875989 0.482331 0
    outer loop
      vertex 130.289 88.248 0
      vertex 129.435 89.799 0
      vertex 129.435 89.799 20
    endloop
  endfacet
  facet normal 0.875989 0.482331 0
    outer loop
      vertex 130.289 88.248 20
      vertex 130.289 88.248 0
      vertex 129.435 89.799 20
    endloop
  endfacet
  facet normal 0.875391 0.483416 0
    outer loop
      vertex 129.435 89.799 0
      vertex 128.605 91.302 0
      vertex 128.605 91.302 20
    endloop
  endfacet
  facet normal 0.875391 0.483416 0
    outer loop
      vertex 129.435 89.799 20
      vertex 129.435 89.799 0
      vertex 128.605 91.302 20
    endloop
  endfacet
  facet normal 0.837167 0.546947 0
    outer loop
      vertex 128.605 91.302 0
      vertex 125.78 95.626 0
      vertex 125.78 95.626 20
    endloop
  endfacet
  facet normal 0.837167 0.546947 0
    outer loop
      vertex 128.605 91.302 20
      vertex 128.605 91.302 0
      vertex 125.78 95.626 20
    endloop
  endfacet
  facet normal 0.779499 0.626404 0
    outer loop
      vertex 125.78 95.626 0
      vertex 121.582 100.85 0
      vertex 121.582 100.85 20
    endloop
  endfacet
  facet normal 0.779499 0.626404 0
    outer loop
      vertex 125.78 95.626 20
      vertex 125.78 95.626 0
      vertex 121.582 100.85 20
    endloop
  endfacet
  facet normal 0.697992 0.716106 0
    outer loop
      vertex 116.838 105.474 0
      vertex 116.838 105.474 20
      vertex 121.582 100.85 0
    endloop
  endfacet
  facet normal 0.697992 0.716106 0
    outer loop
      vertex 121.582 100.85 0
      vertex 116.838 105.474 20
      vertex 121.582 100.85 20
    endloop
  endfacet
  facet normal 0.620924 0.783871 0
    outer loop
      vertex 112.927 108.572 0
      vertex 112.927 108.572 20
      vertex 116.838 105.474 0
    endloop
  endfacet
  facet normal 0.620924 0.783871 0
    outer loop
      vertex 116.838 105.474 0
      vertex 112.927 108.572 20
      vertex 116.838 105.474 20
    endloop
  endfacet
  facet normal 0.555815 0.831306 0
    outer loop
      vertex 111.551 109.492 0
      vertex 111.551 109.492 20
      vertex 112.927 108.572 0
    endloop
  endfacet
  facet normal 0.555815 0.831306 0
    outer loop
      vertex 112.927 108.572 0
      vertex 111.551 109.492 20
      vertex 112.927 108.572 20
    endloop
  endfacet
  facet normal 0.557112 0.830438 0
    outer loop
      vertex 109.725 110.717 0
      vertex 109.725 110.717 20
      vertex 111.551 109.492 0
    endloop
  endfacet
  facet normal 0.557112 0.830438 0
    outer loop
      vertex 111.551 109.492 0
      vertex 109.725 110.717 20
      vertex 111.551 109.492 20
    endloop
  endfacet
  facet normal 0.470466 0.882418 0
    outer loop
      vertex 100.375 115.702 0
      vertex 100.375 115.702 20
      vertex 109.725 110.717 0
    endloop
  endfacet
  facet normal 0.470466 0.882418 0
    outer loop
      vertex 109.725 110.717 0
      vertex 100.375 115.702 20
      vertex 109.725 110.717 20
    endloop
  endfacet
  facet normal 0.338022 0.941138 0
    outer loop
      vertex 90.722 119.169 0
      vertex 90.722 119.169 20
      vertex 100.375 115.702 0
    endloop
  endfacet
  facet normal 0.338022 0.941138 0
    outer loop
      vertex 100.375 115.702 0
      vertex 90.722 119.169 20
      vertex 100.375 115.702 20
    endloop
  endfacet
  facet normal 0.2286 0.97352 0
    outer loop
      vertex 88.746 119.633 0
      vertex 88.746 119.633 20
      vertex 90.722 119.169 0
    endloop
  endfacet
  facet normal 0.2286 0.97352 0
    outer loop
      vertex 90.722 119.169 0
      vertex 88.746 119.633 20
      vertex 90.722 119.169 20
    endloop
  endfacet
  facet normal 0.229314 0.973353 0
    outer loop
      vertex 86.768 120.099 0
      vertex 86.768 120.099 20
      vertex 88.746 119.633 0
    endloop
  endfacet
  facet normal 0.229314 0.973353 0
    outer loop
      vertex 88.746 119.633 0
      vertex 86.768 120.099 20
      vertex 88.746 119.633 20
    endloop
  endfacet
  facet normal 0.171341 0.985212 0
    outer loop
      vertex 77.246 121.755 0
      vertex 77.246 121.755 20
      vertex 86.768 120.099 0
    endloop
  endfacet
  facet normal 0.171341 0.985212 0
    outer loop
      vertex 86.768 120.099 0
      vertex 77.246 121.755 20
      vertex 86.768 120.099 20
    endloop
  endfacet
  facet normal 0.0838571 0.996478 0
    outer loop
      vertex 68.203 122.516 0
      vertex 68.203 122.516 20
      vertex 77.246 121.755 0
    endloop
  endfacet
  facet normal 0.0838571 0.996478 0
    outer loop
      vertex 77.246 121.755 0
      vertex 68.203 122.516 20
      vertex 77.246 121.755 20
    endloop
  endfacet
  facet normal 0.0103681 0.999946 0
    outer loop
      vertex 66.467 122.534 0
      vertex 66.467 122.534 20
      vertex 68.203 122.516 0
    endloop
  endfacet
  facet normal 0.0103681 0.999946 0
    outer loop
      vertex 68.203 122.516 0
      vertex 66.467 122.534 20
      vertex 68.203 122.516 20
    endloop
  endfacet
  facet normal 0.0103343 0.999947 0
    outer loop
      vertex 1.444 123.206 0
      vertex 1.444 123.206 20
      vertex 66.467 122.534 0
    endloop
  endfacet
  facet normal 0.0103343 0.999947 0
    outer loop
      vertex 66.467 122.534 0
      vertex 1.444 123.206 20
      vertex 66.467 122.534 20
    endloop
  endfacet
  facet normal -0.999947 0.0102704 0
    outer loop
      vertex 1.375 116.488 0
      vertex 1.375 116.488 20
      vertex 1.444 123.206 0
    endloop
  endfacet
  facet normal -0.999947 0.0102704 0
    outer loop
      vertex 1.444 123.206 0
      vertex 1.375 116.488 20
      vertex 1.444 123.206 20
    endloop
  endfacet
  facet normal -0.0935276 -0.995617 0
    outer loop
      vertex 1.375 116.488 20
      vertex 1.375 116.488 0
      vertex 1.705 116.457 0
    endloop
  endfacet
  facet normal -0.0935276 -0.995617 0
    outer loop
      vertex 1.705 116.457 20
      vertex 1.375 116.488 20
      vertex 1.705 116.457 0
    endloop
  endfacet
  facet normal -0.120547 -0.992708 0
    outer loop
      vertex 1.705 116.457 20
      vertex 1.705 116.457 0
      vertex 3.772 116.206 0
    endloop
  endfacet
  facet normal -0.120547 -0.992708 0
    outer loop
      vertex 3.772 116.206 20
      vertex 1.705 116.457 20
      vertex 3.772 116.206 0
    endloop
  endfacet
  facet normal -0.140155 -0.99013 0
    outer loop
      vertex 3.772 116.206 20
      vertex 3.772 116.206 0
      vertex 6.4 115.834 0
    endloop
  endfacet
  facet normal -0.140155 -0.99013 0
    outer loop
      vertex 6.4 115.834 20
      vertex 3.772 116.206 20
      vertex 6.4 115.834 0
    endloop
  endfacet
  facet normal -0.150959 -0.98854 0
    outer loop
      vertex 6.4 115.834 20
      vertex 6.4 115.834 0
      vertex 7.009 115.741 0
    endloop
  endfacet
  facet normal -0.150959 -0.98854 0
    outer loop
      vertex 7.009 115.741 20
      vertex 6.4 115.834 20
      vertex 7.009 115.741 0
    endloop
  endfacet
  facet normal -0.149372 -0.988781 0
    outer loop
      vertex 7.009 115.741 20
      vertex 7.009 115.741 0
      vertex 7.618 115.649 0
    endloop
  endfacet
  facet normal -0.149372 -0.988781 0
    outer loop
      vertex 7.618 115.649 20
      vertex 7.009 115.741 20
      vertex 7.618 115.649 0
    endloop
  endfacet
  facet normal -0.284598 -0.958647 0
    outer loop
      vertex 7.618 115.649 20
      vertex 7.618 115.649 0
      vertex 13.378 113.939 0
    endloop
  endfacet
  facet normal -0.284598 -0.958647 0
    outer loop
      vertex 13.378 113.939 20
      vertex 7.618 115.649 20
      vertex 13.378 113.939 0
    endloop
  endfacet
  facet normal -0.419588 -0.907715 0
    outer loop
      vertex 13.378 113.939 20
      vertex 13.378 113.939 0
      vertex 13.921 113.688 0
    endloop
  endfacet
  facet normal -0.419588 -0.907715 0
    outer loop
      vertex 13.921 113.688 20
      vertex 13.378 113.939 20
      vertex 13.921 113.688 0
    endloop
  endfacet
  facet normal -0.417553 -0.908653 0
    outer loop
      vertex 13.921 113.688 20
      vertex 13.921 113.688 0
      vertex 14.304 113.512 0
    endloop
  endfacet
  facet normal -0.417553 -0.908653 0
    outer loop
      vertex 14.304 113.512 20
      vertex 13.921 113.688 20
      vertex 14.304 113.512 0
    endloop
  endfacet
  facet normal -0.492161 -0.870504 0
    outer loop
      vertex 14.304 113.512 20
      vertex 14.304 113.512 0
      vertex 15.413 112.885 0
    endloop
  endfacet
  facet normal -0.492161 -0.870504 0
    outer loop
      vertex 15.413 112.885 20
      vertex 14.304 113.512 20
      vertex 15.413 112.885 0
    endloop
  endfacet
  facet normal -0.598743 -0.800941 0
    outer loop
      vertex 15.413 112.885 20
      vertex 15.413 112.885 0
      vertex 16.637 111.97 0
    endloop
  endfacet
  facet normal -0.598743 -0.800941 0
    outer loop
      vertex 16.637 111.97 20
      vertex 15.413 112.885 20
      vertex 16.637 111.97 0
    endloop
  endfacet
  facet normal -0.731673 -0.681656 0
    outer loop
      vertex 16.637 111.97 0
      vertex 17.591 110.946 0
      vertex 16.637 111.97 20
    endloop
  endfacet
  facet normal -0.731673 -0.681656 0
    outer loop
      vertex 16.637 111.97 20
      vertex 17.591 110.946 0
      vertex 17.591 110.946 20
    endloop
  endfacet
  facet normal -0.838009 -0.545657 0
    outer loop
      vertex 17.591 110.946 0
      vertex 18.136 110.109 0
      vertex 17.591 110.946 20
    endloop
  endfacet
  facet normal -0.838009 -0.545657 0
    outer loop
      vertex 17.591 110.946 20
      vertex 18.136 110.109 0
      vertex 18.136 110.109 20
    endloop
  endfacet
  facet normal -0.907959 -0.419058 0
    outer loop
      vertex 18.136 110.109 0
      vertex 18.274 109.81 0
      vertex 18.136 110.109 20
    endloop
  endfacet
  facet normal -0.907959 -0.419058 0
    outer loop
      vertex 18.136 110.109 20
      vertex 18.274 109.81 0
      vertex 18.274 109.81 20
    endloop
  endfacet
  facet normal -0.908228 -0.418475 0
    outer loop
      vertex 18.274 109.81 0
      vertex 18.456 109.415 0
      vertex 18.274 109.81 20
    endloop
  endfacet
  facet normal -0.908228 -0.418475 0
    outer loop
      vertex 18.274 109.81 20
      vertex 18.456 109.415 0
      vertex 18.456 109.415 20
    endloop
  endfacet
  facet normal -0.958483 -0.28515 0
    outer loop
      vertex 18.456 109.415 0
      vertex 19.087 107.294 0
      vertex 18.456 109.415 20
    endloop
  endfacet
  facet normal -0.958483 -0.28515 0
    outer loop
      vertex 18.456 109.415 20
      vertex 19.087 107.294 0
      vertex 19.087 107.294 20
    endloop
  endfacet
  facet normal -0.993926 -0.110053 0
    outer loop
      vertex 19.087 107.294 0
      vertex 19.342 104.991 0
      vertex 19.087 107.294 20
    endloop
  endfacet
  facet normal -0.993926 -0.110053 0
    outer loop
      vertex 19.087 107.294 20
      vertex 19.342 104.991 0
      vertex 19.342 104.991 20
    endloop
  endfacet
  facet normal -0.999967 0.00817969 0
    outer loop
      vertex 19.338 104.502 0
      vertex 19.338 104.502 20
      vertex 19.342 104.991 0
    endloop
  endfacet
  facet normal -0.999967 0.00817969 0
    outer loop
      vertex 19.342 104.991 0
      vertex 19.338 104.502 20
      vertex 19.342 104.991 20
    endloop
  endfacet
  facet normal -0.999947 0.0103411 0
    outer loop
      vertex 18.442 17.862 0
      vertex 18.442 17.862 20
      vertex 19.338 104.502 0
    endloop
  endfacet
  facet normal -0.999947 0.0103411 0
    outer loop
      vertex 19.338 104.502 0
      vertex 18.442 17.862 20
      vertex 19.338 104.502 20
    endloop
  endfacet
  facet normal -0.999953 0.00970828 0
    outer loop
      vertex 18.437 17.347 0
      vertex 18.437 17.347 20
      vertex 18.442 17.862 0
    endloop
  endfacet
  facet normal -0.999953 0.00970828 0
    outer loop
      vertex 18.442 17.862 0
      vertex 18.437 17.347 20
      vertex 18.442 17.862 20
    endloop
  endfacet
  facet normal -0.990611 0.136709 0
    outer loop
      vertex 18.112 14.992 0
      vertex 18.112 14.992 20
      vertex 18.437 17.347 0
    endloop
  endfacet
  facet normal -0.990611 0.136709 0
    outer loop
      vertex 18.437 17.347 0
      vertex 18.112 14.992 20
      vertex 18.437 17.347 20
    endloop
  endfacet
  facet normal -0.942727 0.333566 0
    outer loop
      vertex 17.387 12.943 0
      vertex 17.387 12.943 20
      vertex 18.112 14.992 0
    endloop
  endfacet
  facet normal -0.942727 0.333566 0
    outer loop
      vertex 18.112 14.992 0
      vertex 17.387 12.943 20
      vertex 18.112 14.992 20
    endloop
  endfacet
  facet normal -0.872342 0.488895 0
    outer loop
      vertex 17.183 12.579 0
      vertex 17.183 12.579 20
      vertex 17.387 12.943 0
    endloop
  endfacet
  facet normal -0.872342 0.488895 0
    outer loop
      vertex 17.387 12.943 0
      vertex 17.183 12.579 20
      vertex 17.387 12.943 20
    endloop
  endfacet
  facet normal -0.870296 0.49253 0
    outer loop
      vertex 16.977 12.215 0
      vertex 16.977 12.215 20
      vertex 17.183 12.579 0
    endloop
  endfacet
  facet normal -0.870296 0.49253 0
    outer loop
      vertex 17.183 12.579 0
      vertex 16.977 12.215 20
      vertex 17.183 12.579 20
    endloop
  endfacet
  facet normal -0.728106 0.685465 0
    outer loop
      vertex 15.482 10.627 0
      vertex 15.482 10.627 20
      vertex 16.977 12.215 0
    endloop
  endfacet
  facet normal -0.728106 0.685465 0
    outer loop
      vertex 16.977 12.215 0
      vertex 15.482 10.627 20
      vertex 16.977 12.215 20
    endloop
  endfacet
  facet normal -0.516629 0.856209 0
    outer loop
      vertex 13.359 9.346 0
      vertex 13.359 9.346 20
      vertex 15.482 10.627 0
    endloop
  endfacet
  facet normal -0.516629 0.856209 0
    outer loop
      vertex 15.482 10.627 0
      vertex 13.359 9.346 20
      vertex 15.482 10.627 20
    endloop
  endfacet
  facet normal -0.37724 0.926115 0
    outer loop
      vertex 12.841 9.135 0
      vertex 12.841 9.135 20
      vertex 13.359 9.346 0
    endloop
  endfacet
  facet normal -0.37724 0.926115 0
    outer loop
      vertex 13.359 9.346 0
      vertex 12.841 9.135 20
      vertex 13.359 9.346 20
    endloop
  endfacet
  facet normal -0.386486 0.922295 0
    outer loop
      vertex 12.631 9.047 0
      vertex 12.631 9.047 20
      vertex 12.841 9.135 0
    endloop
  endfacet
  facet normal -0.386486 0.922295 0
    outer loop
      vertex 12.841 9.135 0
      vertex 12.631 9.047 20
      vertex 12.841 9.135 20
    endloop
  endfacet
  facet normal -0.282245 0.959342 0
    outer loop
      vertex 11.975 8.854 0
      vertex 11.975 8.854 20
      vertex 12.631 9.047 0
    endloop
  endfacet
  facet normal -0.282245 0.959342 0
    outer loop
      vertex 12.631 9.047 0
      vertex 11.975 8.854 20
      vertex 12.631 9.047 20
    endloop
  endfacet
  facet normal -0.207316 0.978274 0
    outer loop
      vertex 10.767 8.598 0
      vertex 10.767 8.598 20
      vertex 11.975 8.854 0
    endloop
  endfacet
  facet normal -0.207316 0.978274 0
    outer loop
      vertex 11.975 8.854 0
      vertex 10.767 8.598 20
      vertex 11.975 8.854 20
    endloop
  endfacet
  facet normal -0.147749 0.989025 0
    outer loop
      vertex 9.214 8.366 0
      vertex 9.214 8.366 20
      vertex 10.767 8.598 0
    endloop
  endfacet
  facet normal -0.147749 0.989025 0
    outer loop
      vertex 10.767 8.598 0
      vertex 9.214 8.366 20
      vertex 10.767 8.598 20
    endloop
  endfacet
  facet normal -0.113803 0.993503 0
    outer loop
      vertex 7.791 8.203 0
      vertex 7.791 8.203 20
      vertex 9.214 8.366 0
    endloop
  endfacet
  facet normal -0.113803 0.993503 0
    outer loop
      vertex 9.214 8.366 0
      vertex 7.791 8.203 20
      vertex 9.214 8.366 20
    endloop
  endfacet
  facet normal -0.0924296 0.995719 0
    outer loop
      vertex 7.317 8.159 0
      vertex 7.317 8.159 20
      vertex 7.791 8.203 0
    endloop
  endfacet
  facet normal -0.0924296 0.995719 0
    outer loop
      vertex 7.791 8.203 0
      vertex 7.317 8.159 20
      vertex 7.791 8.203 20
    endloop
  endfacet
  facet normal -0.0923572 0.995726 0
    outer loop
      vertex 6.627 8.095 0
      vertex 6.627 8.095 20
      vertex 7.317 8.159 0
    endloop
  endfacet
  facet normal -0.0923572 0.995726 0
    outer loop
      vertex 7.317 8.159 0
      vertex 6.627 8.095 20
      vertex 7.317 8.159 20
    endloop
  endfacet
  facet normal -0.0777529 0.996973 0
    outer loop
      vertex 3.524 7.853 0
      vertex 3.524 7.853 20
      vertex 6.627 8.095 0
    endloop
  endfacet
  facet normal -0.0777529 0.996973 0
    outer loop
      vertex 6.627 8.095 0
      vertex 3.524 7.853 20
      vertex 6.627 8.095 20
    endloop
  endfacet
  facet normal -0.0491271 0.998793 0
    outer loop
      vertex 0.881 7.723 0
      vertex 0.881 7.723 20
      vertex 3.524 7.853 0
    endloop
  endfacet
  facet normal -0.0491271 0.998793 0
    outer loop
      vertex 3.524 7.853 0
      vertex 0.881 7.723 20
      vertex 3.524 7.853 20
    endloop
  endfacet
  facet normal -0.0217813 0.999763 0
    outer loop
      vertex 0.422 7.713 0
      vertex 0.422 7.713 20
      vertex 0.881 7.723 0
    endloop
  endfacet
  facet normal -0.0217813 0.999763 0
    outer loop
      vertex 0.881 7.723 0
      vertex 0.422 7.713 20
      vertex 0.881 7.723 20
    endloop
  endfacet
  facet normal 0.999946 -0.0103494 0
    outer loop
      vertex 49.059 21.766 20
      vertex 49.059 21.766 0
      vertex 50.019 114.52 0
    endloop
  endfacet
  facet normal 0.999946 -0.0103494 0
    outer loop
      vertex 50.019 114.52 20
      vertex 49.059 21.766 20
      vertex 50.019 114.52 0
    endloop
  endfacet
  facet normal 0.999953 -0.00967073 0
    outer loop
      vertex 49.054 21.249 20
      vertex 49.054 21.249 0
      vertex 49.059 21.766 0
    endloop
  endfacet
  facet normal 0.999953 -0.00967073 0
    outer loop
      vertex 49.059 21.766 20
      vertex 49.054 21.249 20
      vertex 49.059 21.766 0
    endloop
  endfacet
  facet normal 0.0348994 -0.999391 0
    outer loop
      vertex 50.019 114.52 20
      vertex 50.019 114.52 0
      vertex 50.334 114.531 0
    endloop
  endfacet
  facet normal 0.0348994 -0.999391 0
    outer loop
      vertex 50.334 114.531 20
      vertex 50.019 114.52 20
      vertex 50.334 114.531 0
    endloop
  endfacet
  facet normal 0.030509 -0.999534 0
    outer loop
      vertex 50.334 114.531 20
      vertex 50.334 114.531 0
      vertex 52.398 114.594 0
    endloop
  endfacet
  facet normal 0.030509 -0.999534 0
    outer loop
      vertex 52.398 114.594 20
      vertex 50.334 114.531 20
      vertex 52.398 114.594 0
    endloop
  endfacet
  facet normal 0.0250751 -0.999686 0
    outer loop
      vertex 52.398 114.594 20
      vertex 52.398 114.594 0
      vertex 55.109 114.662 0
    endloop
  endfacet
  facet normal 0.0250751 -0.999686 0
    outer loop
      vertex 55.109 114.662 20
      vertex 52.398 114.594 20
      vertex 55.109 114.662 0
    endloop
  endfacet
  facet normal 0.0234677 -0.999725 0
    outer loop
      vertex 55.109 114.662 20
      vertex 55.109 114.662 0
      vertex 55.748 114.677 0
    endloop
  endfacet
  facet normal 0.0234677 -0.999725 0
    outer loop
      vertex 55.748 114.677 20
      vertex 55.109 114.662 20
      vertex 55.748 114.677 0
    endloop
  endfacet
  facet normal 0.0250313 -0.999687 0
    outer loop
      vertex 55.748 114.677 20
      vertex 55.748 114.677 0
      vertex 56.387 114.693 0
    endloop
  endfacet
  facet normal 0.0250313 -0.999687 0
    outer loop
      vertex 56.387 114.693 20
      vertex 55.748 114.677 20
      vertex 56.387 114.693 0
    endloop
  endfacet
  facet normal 0.0084119 -0.999965 0
    outer loop
      vertex 56.387 114.693 20
      vertex 56.387 114.693 0
      vertex 62.093 114.741 0
    endloop
  endfacet
  facet normal 0.0084119 -0.999965 0
    outer loop
      vertex 62.093 114.741 20
      vertex 56.387 114.693 20
      vertex 62.093 114.741 0
    endloop
  endfacet
  facet normal -0.0119276 -0.999929 0
    outer loop
      vertex 62.093 114.741 20
      vertex 62.093 114.741 0
      vertex 62.596 114.735 0
    endloop
  endfacet
  facet normal -0.0119276 -0.999929 0
    outer loop
      vertex 62.596 114.735 20
      vertex 62.093 114.741 20
      vertex 62.596 114.735 0
    endloop
  endfacet
  facet normal -0.00954818 -0.999954 0
    outer loop
      vertex 62.596 114.735 20
      vertex 62.596 114.735 0
      vertex 63.748 114.724 0
    endloop
  endfacet
  facet normal -0.00954818 -0.999954 0
    outer loop
      vertex 63.748 114.724 20
      vertex 62.596 114.735 20
      vertex 63.748 114.724 0
    endloop
  endfacet
  facet normal -0.0802039 -0.996778 0
    outer loop
      vertex 63.748 114.724 20
      vertex 63.748 114.724 0
      vertex 67.203 114.446 0
    endloop
  endfacet
  facet normal -0.0802039 -0.996778 0
    outer loop
      vertex 67.203 114.446 20
      vertex 63.748 114.724 20
      vertex 67.203 114.446 0
    endloop
  endfacet
  facet normal -0.174521 -0.984653 0
    outer loop
      vertex 67.203 114.446 20
      vertex 67.203 114.446 0
      vertex 71.553 113.675 0
    endloop
  endfacet
  facet normal -0.174521 -0.984653 0
    outer loop
      vertex 71.553 113.675 20
      vertex 67.203 114.446 20
      vertex 71.553 113.675 0
    endloop
  endfacet
  facet normal -0.292788 -0.956177 0
    outer loop
      vertex 71.553 113.675 20
      vertex 71.553 113.675 0
      vertex 75.645 112.422 0
    endloop
  endfacet
  facet normal -0.292788 -0.956177 0
    outer loop
      vertex 75.645 112.422 20
      vertex 71.553 113.675 20
      vertex 75.645 112.422 0
    endloop
  endfacet
  facet normal -0.392888 -0.919586 0
    outer loop
      vertex 75.645 112.422 20
      vertex 75.645 112.422 0
      vertex 78.552 111.18 0
    endloop
  endfacet
  facet normal -0.392888 -0.919586 0
    outer loop
      vertex 78.552 111.18 20
      vertex 75.645 112.422 20
      vertex 78.552 111.18 0
    endloop
  endfacet
  facet normal -0.470638 -0.882327 0
    outer loop
      vertex 78.552 111.18 20
      vertex 78.552 111.18 0
      vertex 79.48 110.685 0
    endloop
  endfacet
  facet normal -0.470638 -0.882327 0
    outer loop
      vertex 79.48 110.685 20
      vertex 78.552 111.18 20
      vertex 79.48 110.685 0
    endloop
  endfacet
  facet normal -0.469837 -0.882753 0
    outer loop
      vertex 79.48 110.685 20
      vertex 79.48 110.685 0
      vertex 80.395 110.198 0
    endloop
  endfacet
  facet normal -0.469837 -0.882753 0
    outer loop
      vertex 80.395 110.198 20
      vertex 79.48 110.685 20
      vertex 80.395 110.198 0
    endloop
  endfacet
  facet normal -0.539253 -0.842144 0
    outer loop
      vertex 80.395 110.198 20
      vertex 80.395 110.198 0
      vertex 83.028 108.512 0
    endloop
  endfacet
  facet normal -0.539253 -0.842144 0
    outer loop
      vertex 83.028 108.512 20
      vertex 80.395 110.198 20
      vertex 83.028 108.512 0
    endloop
  endfacet
  facet normal -0.621681 -0.78327 0
    outer loop
      vertex 83.028 108.512 20
      vertex 83.028 108.512 0
      vertex 86.266 105.942 0
    endloop
  endfacet
  facet normal -0.621681 -0.78327 0
    outer loop
      vertex 86.266 105.942 20
      vertex 83.028 108.512 20
      vertex 86.266 105.942 0
    endloop
  endfacet
  facet normal -0.711414 -0.702773 0
    outer loop
      vertex 86.266 105.942 0
      vertex 89.194 102.978 0
      vertex 86.266 105.942 20
    endloop
  endfacet
  facet normal -0.711414 -0.702773 0
    outer loop
      vertex 86.266 105.942 20
      vertex 89.194 102.978 0
      vertex 89.194 102.978 20
    endloop
  endfacet
  facet normal -0.777347 -0.629072 0
    outer loop
      vertex 89.194 102.978 0
      vertex 91.205 100.493 0
      vertex 89.194 102.978 20
    endloop
  endfacet
  facet normal -0.777347 -0.629072 0
    outer loop
      vertex 89.194 102.978 20
      vertex 91.205 100.493 0
      vertex 91.205 100.493 20
    endloop
  endfacet
  facet normal -0.82253 -0.568721 0
    outer loop
      vertex 91.205 100.493 0
      vertex 91.81 99.618 0
      vertex 91.205 100.493 20
    endloop
  endfacet
  facet normal -0.82253 -0.568721 0
    outer loop
      vertex 91.205 100.493 20
      vertex 91.81 99.618 0
      vertex 91.81 99.618 20
    endloop
  endfacet
  facet normal -0.822317 -0.56903 0
    outer loop
      vertex 91.81 99.618 0
      vertex 92.63 98.433 0
      vertex 91.81 99.618 20
    endloop
  endfacet
  facet normal -0.822317 -0.56903 0
    outer loop
      vertex 91.81 99.618 20
      vertex 92.63 98.433 0
      vertex 92.63 98.433 20
    endloop
  endfacet
  facet normal -0.885443 -0.464748 0
    outer loop
      vertex 92.63 98.433 0
      vertex 96.122 91.78 0
      vertex 92.63 98.433 20
    endloop
  endfacet
  facet normal -0.885443 -0.464748 0
    outer loop
      vertex 92.63 98.433 20
      vertex 96.122 91.78 0
      vertex 96.122 91.78 20
    endloop
  endfacet
  facet normal -0.94346 -0.331486 0
    outer loop
      vertex 96.122 91.78 0
      vertex 98.8 84.158 0
      vertex 96.122 91.78 20
    endloop
  endfacet
  facet normal -0.94346 -0.331486 0
    outer loop
      vertex 96.122 91.78 20
      vertex 98.8 84.158 0
      vertex 98.8 84.158 20
    endloop
  endfacet
  facet normal -0.970755 -0.240073 0
    outer loop
      vertex 98.8 84.158 0
      vertex 99.213 82.488 0
      vertex 98.8 84.158 20
    endloop
  endfacet
  facet normal -0.970755 -0.240073 0
    outer loop
      vertex 98.8 84.158 20
      vertex 99.213 82.488 0
      vertex 99.213 82.488 20
    endloop
  endfacet
  facet normal -0.970586 -0.240756 0
    outer loop
      vertex 99.213 82.488 0
      vertex 99.627 80.819 0
      vertex 99.213 82.488 20
    endloop
  endfacet
  facet normal -0.970586 -0.240756 0
    outer loop
      vertex 99.213 82.488 20
      vertex 99.627 80.819 0
      vertex 99.627 80.819 20
    endloop
  endfacet
  facet normal -0.987536 -0.157396 0
    outer loop
      vertex 99.627 80.819 0
      vertex 101.042 71.941 0
      vertex 99.627 80.819 20
    endloop
  endfacet
  facet normal -0.987536 -0.157396 0
    outer loop
      vertex 99.627 80.819 20
      vertex 101.042 71.941 0
      vertex 101.042 71.941 20
    endloop
  endfacet
  facet normal -0.998377 -0.0569519 0
    outer loop
      vertex 101.042 71.941 0
      vertex 101.589 62.352 0
      vertex 101.042 71.941 20
    endloop
  endfacet
  facet normal -0.998377 -0.0569519 0
    outer loop
      vertex 101.042 71.941 20
      vertex 101.589 62.352 0
      vertex 101.589 62.352 20
    endloop
  endfacet
  facet normal -0.999946 0.0103749 0
    outer loop
      vertex 101.568 60.328 0
      vertex 101.568 60.328 20
      vertex 101.589 62.352 0
    endloop
  endfacet
  facet normal -0.999946 0.0103749 0
    outer loop
      vertex 101.589 62.352 0
      vertex 101.568 60.328 20
      vertex 101.589 62.352 20
    endloop
  endfacet
  facet normal -0.999943 0.0106428 0
    outer loop
      vertex 101.546 58.261 0
      vertex 101.546 58.261 20
      vertex 101.568 60.328 0
    endloop
  endfacet
  facet normal -0.999943 0.0106428 0
    outer loop
      vertex 101.568 60.328 0
      vertex 101.546 58.261 20
      vertex 101.568 60.328 20
    endloop
  endfacet
  facet normal -0.998158 0.0606707 0
    outer loop
      vertex 100.962 48.653 0
      vertex 100.962 48.653 20
      vertex 101.546 58.261 0
    endloop
  endfacet
  facet normal -0.998158 0.0606707 0
    outer loop
      vertex 101.546 58.261 0
      vertex 100.962 48.653 20
      vertex 101.546 58.261 20
    endloop
  endfacet
  facet normal -0.990177 0.139817 0
    outer loop
      vertex 99.742 40.013 0
      vertex 99.742 40.013 20
      vertex 100.962 48.653 0
    endloop
  endfacet
  facet normal -0.990177 0.139817 0
    outer loop
      vertex 100.962 48.653 0
      vertex 99.742 40.013 20
      vertex 100.962 48.653 20
    endloop
  endfacet
  facet normal -0.97783 0.209403 0
    outer loop
      vertex 99.403 38.43 0
      vertex 99.403 38.43 20
      vertex 99.742 40.013 0
    endloop
  endfacet
  facet normal -0.97783 0.209403 0
    outer loop
      vertex 99.742 40.013 0
      vertex 99.403 38.43 20
      vertex 99.742 40.013 20
    endloop
  endfacet
  facet normal -0.977703 0.209993 0
    outer loop
      vertex 99.063 36.847 0
      vertex 99.063 36.847 20
      vertex 99.403 38.43 0
    endloop
  endfacet
  facet normal -0.977703 0.209993 0
    outer loop
      vertex 99.403 38.43 0
      vertex 99.063 36.847 20
      vertex 99.403 38.43 20
    endloop
  endfacet
  facet normal -0.954702 0.297563 0
    outer loop
      vertex 96.803 29.596 0
      vertex 96.803 29.596 20
      vertex 99.063 36.847 0
    endloop
  endfacet
  facet normal -0.954702 0.297563 0
    outer loop
      vertex 99.063 36.847 0
      vertex 96.803 29.596 20
      vertex 99.063 36.847 20
    endloop
  endfacet
  facet normal -0.904035 0.427458 0
    outer loop
      vertex 93.792 23.228 0
      vertex 93.792 23.228 20
      vertex 96.803 29.596 0
    endloop
  endfacet
  facet normal -0.904035 0.427458 0
    outer loop
      vertex 96.803 29.596 0
      vertex 93.792 23.228 20
      vertex 96.803 29.596 20
    endloop
  endfacet
  facet normal -0.847372 0.531 0
    outer loop
      vertex 93.077 22.087 0
      vertex 93.077 22.087 20
      vertex 93.792 23.228 0
    endloop
  endfacet
  facet normal -0.847372 0.531 0
    outer loop
      vertex 93.792 23.228 0
      vertex 93.077 22.087 20
      vertex 93.792 23.228 20
    endloop
  endfacet
  facet normal -0.844729 0.535195 0
    outer loop
      vertex 92.541 21.241 0
      vertex 92.541 21.241 20
      vertex 93.077 22.087 0
    endloop
  endfacet
  facet normal -0.844729 0.535195 0
    outer loop
      vertex 93.077 22.087 0
      vertex 92.541 21.241 20
      vertex 93.077 22.087 20
    endloop
  endfacet
  facet normal -0.797807 0.602913 0
    outer loop
      vertex 90.722 18.834 0
      vertex 90.722 18.834 20
      vertex 92.541 21.241 0
    endloop
  endfacet
  facet normal -0.797807 0.602913 0
    outer loop
      vertex 92.541 21.241 0
      vertex 90.722 18.834 20
      vertex 92.541 21.241 20
    endloop
  endfacet
  facet normal -0.725946 0.687752 0
    outer loop
      vertex 88.039 16.002 0
      vertex 88.039 16.002 20
      vertex 90.722 18.834 0
    endloop
  endfacet
  facet normal -0.725946 0.687752 0
    outer loop
      vertex 90.722 18.834 0
      vertex 88.039 16.002 20
      vertex 90.722 18.834 20
    endloop
  endfacet
  facet normal -0.624442 0.781071 0
    outer loop
      vertex 85.027 13.594 0
      vertex 85.027 13.594 20
      vertex 88.039 16.002 0
    endloop
  endfacet
  facet normal -0.624442 0.781071 0
    outer loop
      vertex 88.039 16.002 0
      vertex 85.027 13.594 20
      vertex 88.039 16.002 20
    endloop
  endfacet
  facet normal -0.529322 0.848421 0
    outer loop
      vertex 82.549 12.048 0
      vertex 82.549 12.048 20
      vertex 85.027 13.594 0
    endloop
  endfacet
  facet normal -0.529322 0.848421 0
    outer loop
      vertex 85.027 13.594 0
      vertex 82.549 12.048 20
      vertex 85.027 13.594 20
    endloop
  endfacet
  facet normal -0.452162 0.891936 0
    outer loop
      vertex 81.685 11.61 0
      vertex 81.685 11.61 20
      vertex 82.549 12.048 0
    endloop
  endfacet
  facet normal -0.452162 0.891936 0
    outer loop
      vertex 82.549 12.048 0
      vertex 81.685 11.61 20
      vertex 82.549 12.048 20
    endloop
  endfacet
  facet normal -0.450428 0.892813 0
    outer loop
      vertex 80.797 11.162 0
      vertex 80.797 11.162 20
      vertex 81.685 11.61 0
    endloop
  endfacet
  facet normal -0.450428 0.892813 0
    outer loop
      vertex 81.685 11.61 0
      vertex 80.797 11.162 20
      vertex 81.685 11.61 20
    endloop
  endfacet
  facet normal -0.365456 0.930829 0
    outer loop
      vertex 78.008 10.067 0
      vertex 78.008 10.067 20
      vertex 80.797 11.162 0
    endloop
  endfacet
  facet normal -0.365456 0.930829 0
    outer loop
      vertex 80.797 11.162 0
      vertex 78.008 10.067 20
      vertex 80.797 11.162 20
    endloop
  endfacet
  facet normal -0.261877 0.965101 0
    outer loop
      vertex 73.991 8.977 0
      vertex 73.991 8.977 20
      vertex 78.008 10.067 0
    endloop
  endfacet
  facet normal -0.261877 0.965101 0
    outer loop
      vertex 78.008 10.067 0
      vertex 73.991 8.977 20
      vertex 78.008 10.067 20
    endloop
  endfacet
  facet normal -0.143806 0.989606 0
    outer loop
      vertex 69.635 8.344 0
      vertex 69.635 8.344 20
      vertex 73.991 8.977 0
    endloop
  endfacet
  facet normal -0.143806 0.989606 0
    outer loop
      vertex 73.991 8.977 0
      vertex 69.635 8.344 20
      vertex 73.991 8.977 20
    endloop
  endfacet
  facet normal -0.0535856 0.998563 0
    outer loop
      vertex 66.113 8.155 0
      vertex 66.113 8.155 20
      vertex 69.635 8.344 0
    endloop
  endfacet
  facet normal -0.0535856 0.998563 0
    outer loop
      vertex 69.635 8.344 0
      vertex 66.113 8.155 20
      vertex 69.635 8.344 20
    endloop
  endfacet
  facet normal 0.00937725 0.999956 0
    outer loop
      vertex 64.94 8.166 0
      vertex 64.94 8.166 20
      vertex 66.113 8.155 0
    endloop
  endfacet
  facet normal 0.00937725 0.999956 0
    outer loop
      vertex 66.113 8.155 0
      vertex 64.94 8.166 20
      vertex 66.113 8.155 20
    endloop
  endfacet
  facet normal 0.0115972 0.999933 0
    outer loop
      vertex 64.164 8.175 0
      vertex 64.164 8.175 20
      vertex 64.94 8.166 0
    endloop
  endfacet
  facet normal 0.0115972 0.999933 0
    outer loop
      vertex 64.94 8.166 0
      vertex 64.164 8.175 20
      vertex 64.94 8.166 20
    endloop
  endfacet
  facet normal 0.0819156 0.996639 0
    outer loop
      vertex 60.733 8.457 0
      vertex 60.733 8.457 20
      vertex 64.164 8.175 0
    endloop
  endfacet
  facet normal 0.0819156 0.996639 0
    outer loop
      vertex 64.164 8.175 0
      vertex 60.733 8.457 20
      vertex 64.164 8.175 20
    endloop
  endfacet
  facet normal 0.209341 0.977843 0
    outer loop
      vertex 57.893 9.065 0
      vertex 57.893 9.065 20
      vertex 60.733 8.457 0
    endloop
  endfacet
  facet normal 0.209341 0.977843 0
    outer loop
      vertex 60.733 8.457 0
      vertex 57.893 9.065 20
      vertex 60.733 8.457 20
    endloop
  endfacet
  facet normal 0.333336 0.942808 0
    outer loop
      vertex 57.415 9.234 0
      vertex 57.415 9.234 20
      vertex 57.893 9.065 0
    endloop
  endfacet
  facet normal 0.333336 0.942808 0
    outer loop
      vertex 57.893 9.065 0
      vertex 57.415 9.234 20
      vertex 57.893 9.065 20
    endloop
  endfacet
  facet normal 0.33559 0.942008 0
    outer loop
      vertex 56.935 9.405 0
      vertex 56.935 9.405 20
      vertex 57.415 9.234 0
    endloop
  endfacet
  facet normal 0.33559 0.942008 0
    outer loop
      vertex 57.415 9.234 0
      vertex 56.935 9.405 20
      vertex 57.415 9.234 20
    endloop
  endfacet
  facet normal 0.436894 0.899513 0
    outer loop
      vertex 54.767 10.458 0
      vertex 54.767 10.458 20
      vertex 56.935 9.405 0
    endloop
  endfacet
  facet normal 0.436894 0.899513 0
    outer loop
      vertex 56.935 9.405 0
      vertex 54.767 10.458 20
      vertex 56.935 9.405 20
    endloop
  endfacet
  facet normal 0.578709 0.815534 0
    outer loop
      vertex 52.904 11.78 0
      vertex 52.904 11.78 20
      vertex 54.767 10.458 0
    endloop
  endfacet
  facet normal 0.578709 0.815534 0
    outer loop
      vertex 54.767 10.458 0
      vertex 52.904 11.78 20
      vertex 54.767 10.458 20
    endloop
  endfacet
  facet normal 0.681998 0.731354 0
    outer loop
      vertex 52.578 12.084 0
      vertex 52.578 12.084 20
      vertex 52.904 11.78 0
    endloop
  endfacet
  facet normal 0.681998 0.731354 0
    outer loop
      vertex 52.904 11.78 0
      vertex 52.578 12.084 20
      vertex 52.904 11.78 20
    endloop
  endfacet
  facet normal 0.680965 0.732316 0
    outer loop
      vertex 52.25 12.389 0
      vertex 52.25 12.389 20
      vertex 52.578 12.084 0
    endloop
  endfacet
  facet normal 0.680965 0.732316 0
    outer loop
      vertex 52.578 12.084 0
      vertex 52.25 12.389 20
      vertex 52.578 12.084 20
    endloop
  endfacet
  facet normal 0.777572 0.628794 0
    outer loop
      vertex 52.25 12.389 0
      vertex 50.906 14.051 0
      vertex 50.906 14.051 20
    endloop
  endfacet
  facet normal 0.777572 0.628794 0
    outer loop
      vertex 52.25 12.389 20
      vertex 52.25 12.389 0
      vertex 50.906 14.051 20
    endloop
  endfacet
  facet normal 0.888468 0.458938 0
    outer loop
      vertex 50.906 14.051 0
      vertex 49.954 15.894 0
      vertex 49.954 15.894 20
    endloop
  endfacet
  facet normal 0.888468 0.458938 0
    outer loop
      vertex 50.906 14.051 20
      vertex 50.906 14.051 0
      vertex 49.954 15.894 20
    endloop
  endfacet
  facet normal 0.948683 0.316228 0
    outer loop
      vertex 49.954 15.894 0
      vertex 49.822 16.29 0
      vertex 49.822 16.29 20
    endloop
  endfacet
  facet normal 0.948683 0.316228 0
    outer loop
      vertex 49.954 15.894 20
      vertex 49.954 15.894 0
      vertex 49.822 16.29 20
    endloop
  endfacet
  facet normal 0.948922 0.315511 0
    outer loop
      vertex 49.822 16.29 0
      vertex 49.69 16.687 0
      vertex 49.69 16.687 20
    endloop
  endfacet
  facet normal 0.948922 0.315511 0
    outer loop
      vertex 49.822 16.29 20
      vertex 49.822 16.29 0
      vertex 49.69 16.687 20
    endloop
  endfacet
  facet normal 0.978343 0.206992 0
    outer loop
      vertex 49.69 16.687 0
      vertex 49.233 18.847 0
      vertex 49.233 18.847 20
    endloop
  endfacet
  facet normal 0.978343 0.206992 0
    outer loop
      vertex 49.69 16.687 20
      vertex 49.69 16.687 0
      vertex 49.233 18.847 20
    endloop
  endfacet
  facet normal 0.997235 0.0743152 0
    outer loop
      vertex 49.233 18.847 0
      vertex 49.054 21.249 0
      vertex 49.054 21.249 20
    endloop
  endfacet
  facet normal 0.997235 0.0743152 0
    outer loop
      vertex 49.233 18.847 20
      vertex 49.233 18.847 0
      vertex 49.054 21.249 20
    endloop
  endfacet
endsolid OpenSCAD_Model
