  0
SECTION
  2
HEADER
  9
$ACADVER
  1
AC1009
  9
$EXTMIN
 10
0.0
 20
0.0
 30
0.0
  9
$EXTMAX
 10
1000.0
 20
1000.0
 30
0.0
  9
$FILLMODE
 70
 0
  9
$SPLFRAME
 70
 1
  0
ENDSEC
  0
SECTION
  2
TABLES
  0
TABLE
  2
LAYER
 70
1
  0
LAYER
  2
0
 70
     0
 62
     7
  6
CONTINUOUS
  0
ENDTAB
  0
ENDSEC
  0
SECTION
  2
ENTITIES
  0
LINE
  8
0
 62
     0
 10
111.551
 20
109.492
 30
0.0
 11
112.927
 21
108.572
 31
0.0
  0
LINE
  8
0
 62
     0
 10
112.927
 20
108.572
 30
0.0
 11
116.838
 21
105.474
 31
0.0
  0
LINE
  8
0
 62
     0
 10
116.838
 20
105.474
 30
0.0
 11
121.582
 21
100.85
 31
0.0
  0
LINE
  8
0
 62
     0
 10
121.582
 20
100.85
 30
0.0
 11
125.78
 21
95.6261
 31
0.0
  0
LINE
  8
0
 62
     0
 10
125.78
 20
95.6261
 30
0.0
 11
128.605
 21
91.3021
 31
0.0
  0
LINE
  8
0
 62
     0
 10
128.605
 20
91.3021
 30
0.0
 11
129.435
 21
89.7985
 31
0.0
  0
LINE
  8
0
 62
     0
 10
129.435
 20
89.7985
 30
0.0
 11
130.289
 21
88.2481
 31
0.0
  0
LINE
  8
0
 62
     0
 10
130.289
 20
88.2481
 30
0.0
 11
132.383
 21
83.3328
 31
0.0
  0
LINE
  8
0
 62
     0
 10
132.383
 20
83.3328
 30
0.0
 11
134.462
 21
76.1919
 31
0.0
  0
LINE
  8
0
 62
     0
 10
134.462
 20
76.1919
 30
0.0
 11
135.673
 21
68.3768
 31
0.0
  0
LINE
  8
0
 62
     0
 10
135.673
 20
68.3768
 30
0.0
 11
136.037
 21
62.0078
 31
0.0
  0
LINE
  8
0
 62
     0
 10
136.037
 20
62.0078
 30
0.0
 11
136.017
 21
59.8854
 31
0.0
  0
LINE
  8
0
 62
     0
 10
136.017
 20
59.8854
 30
0.0
 11
135.997
 21
58.0111
 31
0.0
  0
LINE
  8
0
 62
     0
 10
135.997
 20
58.0111
 30
0.0
 11
135.553
 21
52.3889
 31
0.0
  0
LINE
  8
0
 62
     0
 10
135.553
 20
52.3889
 30
0.0
 11
134.327
 21
45.4007
 31
0.0
  0
LINE
  8
0
 62
     0
 10
134.327
 20
45.4007
 30
0.0
 11
132.336
 21
38.9213
 31
0.0
  0
LINE
  8
0
 62
     0
 10
132.336
 20
38.9213
 30
0.0
 11
130.368
 21
34.3876
 31
0.0
  0
LINE
  8
0
 62
     0
 10
130.368
 20
34.3876
 30
0.0
 11
129.58
 21
32.9489
 31
0.0
  0
LINE
  8
0
 62
     0
 10
129.58
 20
32.9489
 30
0.0
 11
128.808
 21
31.5447
 31
0.0
  0
LINE
  8
0
 62
     0
 10
128.808
 20
31.5447
 30
0.0
 11
126.192
 21
27.496
 31
0.0
  0
LINE
  8
0
 62
     0
 10
126.192
 20
27.496
 30
0.0
 11
122.312
 21
22.5709
 31
0.0
  0
LINE
  8
0
 62
     0
 10
122.312
 20
22.5709
 30
0.0
 11
117.935
 21
18.1722
 31
0.0
  0
LINE
  8
0
 62
     0
 10
117.935
 20
18.1722
 30
0.0
 11
114.335
 21
15.1942
 31
0.0
  0
LINE
  8
0
 62
     0
 10
114.335
 20
15.1942
 30
0.0
 11
113.065
 21
14.2999
 31
0.0
  0
LINE
  8
0
 62
     0
 10
113.065
 20
14.2999
 30
0.0
 11
111.762
 21
13.3987
 31
0.0
  0
LINE
  8
0
 62
     0
 10
111.762
 20
13.3987
 30
0.0
 11
107.687
 21
10.9306
 31
0.0
  0
LINE
  8
0
 62
     0
 10
107.687
 20
10.9306
 30
0.0
 11
101.964
 21
8.0312
 31
0.0
  0
LINE
  8
0
 62
     0
 10
101.964
 20
8.0312
 30
0.0
 11
95.8963
 21
5.60447
 31
0.0
  0
LINE
  8
0
 62
     0
 10
95.8963
 20
5.60447
 30
0.0
 11
91.1035
 21
4.07211
 31
0.0
  0
LINE
  8
0
 62
     0
 10
91.1035
 20
4.07211
 30
0.0
 11
89.4842
 21
3.64906
 31
0.0
  0
LINE
  8
0
 62
     0
 10
89.4842
 20
3.64906
 30
0.0
 11
87.2892
 21
3.07578
 31
0.0
  0
LINE
  8
0
 62
     0
 10
87.2892
 20
3.07578
 30
0.0
 11
76.0099
 21
1.10794
 31
0.0
  0
LINE
  8
0
 62
     0
 10
76.0099
 20
1.10794
 30
0.0
 11
64.3269
 21
0.334863
 31
0.0
  0
LINE
  8
0
 62
     0
 10
64.3269
 20
0.334863
 30
0.0
 11
61.9305
 21
0.358288
 31
0.0
  0
LINE
  8
0
 62
     0
 10
61.9305
 20
0.358288
 30
0.0
 11
0.352778
 21
0.994943
 31
0.0
  0
LINE
  8
0
 62
     0
 10
0.352778
 20
0.994943
 30
0.0
 11
0.421679
 21
7.71289
 31
0.0
  0
LINE
  8
0
 62
     0
 10
0.421679
 20
7.71289
 30
0.0
 11
0.880565
 21
7.72252
 31
0.0
  0
LINE
  8
0
 62
     0
 10
0.880565
 20
7.72252
 30
0.0
 11
3.52364
 21
7.85343
 31
0.0
  0
LINE
  8
0
 62
     0
 10
3.52364
 20
7.85343
 30
0.0
 11
6.627
 21
8.09459
 31
0.0
  0
LINE
  8
0
 62
     0
 10
6.627
 20
8.09459
 30
0.0
 11
7.31739
 21
8.15936
 31
0.0
  0
LINE
  8
0
 62
     0
 10
7.31739
 20
8.15936
 30
0.0
 11
7.79141
 21
8.20346
 31
0.0
  0
LINE
  8
0
 62
     0
 10
7.79141
 20
8.20346
 30
0.0
 11
9.21357
 21
8.36605
 31
0.0
  0
LINE
  8
0
 62
     0
 10
9.21357
 20
8.36605
 30
0.0
 11
10.7666
 21
8.59758
 31
0.0
  0
LINE
  8
0
 62
     0
 10
10.7666
 20
8.59758
 30
0.0
 11
11.9751
 21
8.85391
 31
0.0
  0
LINE
  8
0
 62
     0
 10
11.9751
 20
8.85391
 30
0.0
 11
12.6311
 21
9.04681
 31
0.0
  0
LINE
  8
0
 62
     0
 10
12.6311
 20
9.04681
 30
0.0
 11
12.8405
 21
9.135
 31
0.0
  0
LINE
  8
0
 62
     0
 10
12.8405
 20
9.135
 30
0.0
 11
13.3587
 21
9.34586
 31
0.0
  0
LINE
  8
0
 62
     0
 10
13.3587
 20
9.34586
 30
0.0
 11
15.4823
 21
10.6274
 31
0.0
  0
LINE
  8
0
 62
     0
 10
15.4823
 20
10.6274
 30
0.0
 11
16.9774
 21
12.2149
 31
0.0
  0
LINE
  8
0
 62
     0
 10
16.9774
 20
12.2149
 30
0.0
 11
17.1827
 21
12.5787
 31
0.0
  0
LINE
  8
0
 62
     0
 10
17.1827
 20
12.5787
 30
0.0
 11
17.3867
 21
12.9425
 31
0.0
  0
LINE
  8
0
 62
     0
 10
17.3867
 20
12.9425
 30
0.0
 11
18.1115
 21
14.9917
 31
0.0
  0
LINE
  8
0
 62
     0
 10
18.1115
 20
14.9917
 30
0.0
 11
18.4368
 21
17.3468
 31
0.0
  0
LINE
  8
0
 62
     0
 10
18.4368
 20
17.3468
 30
0.0
 11
18.4423
 21
17.8621
 31
0.0
  0
LINE
  8
0
 62
     0
 10
18.4423
 20
17.8621
 30
0.0
 11
19.338
 21
104.502
 31
0.0
  0
LINE
  8
0
 62
     0
 10
19.338
 20
104.502
 30
0.0
 11
19.3421
 21
104.991
 31
0.0
  0
LINE
  8
0
 62
     0
 10
19.3421
 20
104.991
 30
0.0
 11
19.0872
 21
107.294
 31
0.0
  0
LINE
  8
0
 62
     0
 10
19.0872
 20
107.294
 30
0.0
 11
18.4561
 21
109.415
 31
0.0
  0
LINE
  8
0
 62
     0
 10
18.4561
 20
109.415
 30
0.0
 11
18.2742
 21
109.81
 31
0.0
  0
LINE
  8
0
 62
     0
 10
18.2742
 20
109.81
 30
0.0
 11
18.1364
 21
110.109
 31
0.0
  0
LINE
  8
0
 62
     0
 10
18.1364
 20
110.109
 30
0.0
 11
17.5907
 21
110.946
 31
0.0
  0
LINE
  8
0
 62
     0
 10
17.5907
 20
110.946
 30
0.0
 11
16.6371
 21
111.97
 31
0.0
  0
LINE
  8
0
 62
     0
 10
16.6371
 20
111.97
 30
0.0
 11
15.4134
 21
112.885
 31
0.0
  0
LINE
  8
0
 62
     0
 10
15.4134
 20
112.885
 30
0.0
 11
14.304
 21
113.512
 31
0.0
  0
LINE
  8
0
 62
     0
 10
14.304
 20
113.512
 30
0.0
 11
13.9209
 21
113.688
 31
0.0
  0
LINE
  8
0
 62
     0
 10
13.9209
 20
113.688
 30
0.0
 11
13.378
 21
113.939
 31
0.0
  0
LINE
  8
0
 62
     0
 10
13.378
 20
113.939
 30
0.0
 11
7.61781
 21
115.649
 31
0.0
  0
LINE
  8
0
 62
     0
 10
7.61781
 20
115.649
 30
0.0
 11
7.00871
 21
115.741
 31
0.0
  0
LINE
  8
0
 62
     0
 10
7.00871
 20
115.741
 30
0.0
 11
6.3996
 21
115.834
 31
0.0
  0
LINE
  8
0
 62
     0
 10
6.3996
 20
115.834
 30
0.0
 11
3.77169
 21
116.206
 31
0.0
  0
LINE
  8
0
 62
     0
 10
3.77169
 20
116.206
 30
0.0
 11
1.70463
 21
116.457
 31
0.0
  0
LINE
  8
0
 62
     0
 10
1.70463
 20
116.457
 30
0.0
 11
1.37528
 21
116.488
 31
0.0
  0
LINE
  8
0
 62
     0
 10
1.37528
 20
116.488
 30
0.0
 11
1.44418
 21
123.206
 31
0.0
  0
LINE
  8
0
 62
     0
 10
1.44418
 20
123.206
 30
0.0
 11
66.4669
 21
122.534
 31
0.0
  0
LINE
  8
0
 62
     0
 10
66.4669
 20
122.534
 30
0.0
 11
68.2032
 21
122.516
 31
0.0
  0
LINE
  8
0
 62
     0
 10
68.2032
 20
122.516
 30
0.0
 11
77.246
 21
121.755
 31
0.0
  0
LINE
  8
0
 62
     0
 10
77.246
 20
121.755
 30
0.0
 11
86.7682
 21
120.099
 31
0.0
  0
LINE
  8
0
 62
     0
 10
86.7682
 20
120.099
 30
0.0
 11
88.7455
 21
119.633
 31
0.0
  0
LINE
  8
0
 62
     0
 10
88.7455
 20
119.633
 30
0.0
 11
90.7217
 21
119.169
 31
0.0
  0
LINE
  8
0
 62
     0
 10
90.7217
 20
119.169
 30
0.0
 11
100.375
 21
115.702
 31
0.0
  0
LINE
  8
0
 62
     0
 10
100.375
 20
115.702
 30
0.0
 11
109.725
 21
110.717
 31
0.0
  0
LINE
  8
0
 62
     0
 10
109.725
 20
110.717
 30
0.0
 11
111.551
 21
109.492
 31
0.0
  0
LINE
  8
0
 62
     0
 10
93.0769
 20
22.0872
 30
0.0
 11
93.792
 21
23.2282
 31
0.0
  0
LINE
  8
0
 62
     0
 10
93.792
 20
23.2282
 30
0.0
 11
96.8029
 21
29.5961
 31
0.0
  0
LINE
  8
0
 62
     0
 10
96.8029
 20
29.5961
 30
0.0
 11
99.0632
 21
36.8473
 31
0.0
  0
LINE
  8
0
 62
     0
 10
99.0632
 20
36.8473
 30
0.0
 11
99.4033
 21
38.4295
 31
0.0
  0
LINE
  8
0
 62
     0
 10
99.4033
 20
38.4295
 30
0.0
 11
99.7423
 21
40.0128
 31
0.0
  0
LINE
  8
0
 62
     0
 10
99.7423
 20
40.0128
 30
0.0
 11
100.962
 21
48.653
 31
0.0
  0
LINE
  8
0
 62
     0
 10
100.962
 20
48.653
 30
0.0
 11
101.546
 21
58.2605
 31
0.0
  0
LINE
  8
0
 62
     0
 10
101.546
 20
58.2605
 30
0.0
 11
101.568
 21
60.3278
 31
0.0
  0
LINE
  8
0
 62
     0
 10
101.568
 20
60.3278
 30
0.0
 11
101.589
 21
62.3521
 31
0.0
  0
LINE
  8
0
 62
     0
 10
101.589
 20
62.3521
 30
0.0
 11
101.042
 21
71.9406
 31
0.0
  0
LINE
  8
0
 62
     0
 10
101.042
 20
71.9406
 30
0.0
 11
99.6266
 21
80.8193
 31
0.0
  0
LINE
  8
0
 62
     0
 10
99.6266
 20
80.8193
 30
0.0
 11
99.2131
 21
82.4879
 31
0.0
  0
LINE
  8
0
 62
     0
 10
99.2131
 20
82.4879
 30
0.0
 11
98.7997
 21
84.1583
 31
0.0
  0
LINE
  8
0
 62
     0
 10
98.7997
 20
84.1583
 30
0.0
 11
96.1224
 21
91.7801
 31
0.0
  0
LINE
  8
0
 62
     0
 10
96.1224
 20
91.7801
 30
0.0
 11
92.6303
 21
98.4331
 31
0.0
  0
LINE
  8
0
 62
     0
 10
92.6303
 20
98.4331
 30
0.0
 11
91.8104
 21
99.6184
 31
0.0
  0
LINE
  8
0
 62
     0
 10
91.8104
 20
99.6184
 30
0.0
 11
91.2054
 21
100.493
 31
0.0
  0
LINE
  8
0
 62
     0
 10
91.2054
 20
100.493
 30
0.0
 11
89.1935
 21
102.978
 31
0.0
  0
LINE
  8
0
 62
     0
 10
89.1935
 20
102.978
 30
0.0
 11
86.2665
 21
105.942
 31
0.0
  0
LINE
  8
0
 62
     0
 10
86.2665
 20
105.942
 30
0.0
 11
83.028
 21
108.512
 31
0.0
  0
LINE
  8
0
 62
     0
 10
83.028
 20
108.512
 30
0.0
 11
80.3949
 21
110.198
 31
0.0
  0
LINE
  8
0
 62
     0
 10
80.3949
 20
110.198
 30
0.0
 11
79.4798
 21
110.685
 31
0.0
  0
LINE
  8
0
 62
     0
 10
79.4798
 20
110.685
 30
0.0
 11
78.5523
 21
111.18
 31
0.0
  0
LINE
  8
0
 62
     0
 10
78.5523
 20
111.18
 30
0.0
 11
75.6447
 21
112.422
 31
0.0
  0
LINE
  8
0
 62
     0
 10
75.6447
 20
112.422
 30
0.0
 11
71.5532
 21
113.675
 31
0.0
  0
LINE
  8
0
 62
     0
 10
71.5532
 20
113.675
 30
0.0
 11
67.2028
 21
114.446
 31
0.0
  0
LINE
  8
0
 62
     0
 10
67.2028
 20
114.446
 30
0.0
 11
63.748
 21
114.724
 31
0.0
  0
LINE
  8
0
 62
     0
 10
63.748
 20
114.724
 30
0.0
 11
62.5962
 21
114.735
 31
0.0
  0
LINE
  8
0
 62
     0
 10
62.5962
 20
114.735
 30
0.0
 11
62.0931
 21
114.741
 31
0.0
  0
LINE
  8
0
 62
     0
 10
62.0931
 20
114.741
 30
0.0
 11
56.3866
 21
114.693
 31
0.0
  0
LINE
  8
0
 62
     0
 10
56.3866
 20
114.693
 30
0.0
 11
55.7484
 21
114.677
 31
0.0
  0
LINE
  8
0
 62
     0
 10
55.7484
 20
114.677
 30
0.0
 11
55.1092
 21
114.662
 31
0.0
  0
LINE
  8
0
 62
     0
 10
55.1092
 20
114.662
 30
0.0
 11
52.3984
 21
114.594
 31
0.0
  0
LINE
  8
0
 62
     0
 10
52.3984
 20
114.594
 30
0.0
 11
50.3343
 21
114.531
 31
0.0
  0
LINE
  8
0
 62
     0
 10
50.3343
 20
114.531
 30
0.0
 11
50.0186
 21
114.52
 31
0.0
  0
LINE
  8
0
 62
     0
 10
50.0186
 20
114.52
 30
0.0
 11
49.0594
 21
21.7661
 31
0.0
  0
LINE
  8
0
 62
     0
 10
49.0594
 20
21.7661
 30
0.0
 11
49.0541
 21
21.2494
 31
0.0
  0
LINE
  8
0
 62
     0
 10
49.0541
 20
21.2494
 30
0.0
 11
49.2333
 21
18.8474
 31
0.0
  0
LINE
  8
0
 62
     0
 10
49.2333
 20
18.8474
 30
0.0
 11
49.6895
 21
16.6867
 31
0.0
  0
LINE
  8
0
 62
     0
 10
49.6895
 20
16.6867
 30
0.0
 11
49.8217
 21
16.2898
 31
0.0
  0
LINE
  8
0
 62
     0
 10
49.8217
 20
16.2898
 30
0.0
 11
49.954
 21
15.8943
 31
0.0
  0
LINE
  8
0
 62
     0
 10
49.954
 20
15.8943
 30
0.0
 11
50.9062
 21
14.0505
 31
0.0
  0
LINE
  8
0
 62
     0
 10
50.9062
 20
14.0505
 30
0.0
 11
52.2496
 21
12.3886
 31
0.0
  0
LINE
  8
0
 62
     0
 10
52.2496
 20
12.3886
 30
0.0
 11
52.5776
 21
12.084
 31
0.0
  0
LINE
  8
0
 62
     0
 10
52.5776
 20
12.084
 30
0.0
 11
52.9043
 21
11.7795
 31
0.0
  0
LINE
  8
0
 62
     0
 10
52.9043
 20
11.7795
 30
0.0
 11
54.7673
 21
10.4579
 31
0.0
  0
LINE
  8
0
 62
     0
 10
54.7673
 20
10.4579
 30
0.0
 11
56.9352
 21
9.40513
 31
0.0
  0
LINE
  8
0
 62
     0
 10
56.9352
 20
9.40513
 30
0.0
 11
57.4146
 21
9.23424
 31
0.0
  0
LINE
  8
0
 62
     0
 10
57.4146
 20
9.23424
 30
0.0
 11
57.8926
 21
9.06473
 31
0.0
  0
LINE
  8
0
 62
     0
 10
57.8926
 20
9.06473
 30
0.0
 11
60.7328
 21
8.45704
 31
0.0
  0
LINE
  8
0
 62
     0
 10
60.7328
 20
8.45704
 30
0.0
 11
64.1643
 21
8.17453
 31
0.0
  0
LINE
  8
0
 62
     0
 10
64.1643
 20
8.17453
 30
0.0
 11
64.94
 21
8.16624
 31
0.0
  0
LINE
  8
0
 62
     0
 10
64.94
 20
8.16624
 30
0.0
 11
66.1127
 21
8.15523
 31
0.0
  0
LINE
  8
0
 62
     0
 10
66.1127
 20
8.15523
 30
0.0
 11
69.6352
 21
8.34401
 31
0.0
  0
LINE
  8
0
 62
     0
 10
69.6352
 20
8.34401
 30
0.0
 11
73.9909
 21
8.97654
 31
0.0
  0
LINE
  8
0
 62
     0
 10
73.9909
 20
8.97654
 30
0.0
 11
78.008
 21
10.0666
 31
0.0
  0
LINE
  8
0
 62
     0
 10
78.008
 20
10.0666
 30
0.0
 11
80.797
 21
11.1621
 31
0.0
  0
LINE
  8
0
 62
     0
 10
80.797
 20
11.1621
 30
0.0
 11
81.6846
 21
11.61
 31
0.0
  0
LINE
  8
0
 62
     0
 10
81.6846
 20
11.61
 30
0.0
 11
82.5486
 21
12.0482
 31
0.0
  0
LINE
  8
0
 62
     0
 10
82.5486
 20
12.0482
 30
0.0
 11
85.0265
 21
13.5944
 31
0.0
  0
LINE
  8
0
 62
     0
 10
85.0265
 20
13.5944
 30
0.0
 11
88.0389
 21
16.0018
 31
0.0
  0
LINE
  8
0
 62
     0
 10
88.0389
 20
16.0018
 30
0.0
 11
90.7217
 21
18.8336
 31
0.0
  0
LINE
  8
0
 62
     0
 10
90.7217
 20
18.8336
 30
0.0
 11
92.5407
 21
21.2411
 31
0.0
  0
LINE
  8
0
 62
     0
 10
92.5407
 20
21.2411
 30
0.0
 11
93.0769
 21
22.0872
 31
0.0
  0
ENDSEC
  0
EOF
