  0
SECTION
  2
HEADER
  9
$ACADVER
  1
AC1009
  9
$EXTMIN
 10
0.0
 20
0.0
 30
0.0
  9
$EXTMAX
 10
1000.0
 20
1000.0
 30
0.0
  9
$FILLMODE
 70
 0
  9
$SPLFRAME
 70
 1
  0
ENDSEC
  0
SECTION
  2
TABLES
  0
TABLE
  2
LAYER
 70
1
  0
LAYER
  2
0
 70
     0
 62
     7
  6
CONTINUOUS
  0
ENDTAB
  0
ENDSEC
  0
SECTION
  2
ENTITIES
  0
LINE
  8
0
 62
     0
 10
136.153
 20
52.6673
 30
0.0
 11
135.708
 21
52.6288
 31
0.0
  0
LINE
  8
0
 62
     0
 10
135.708
 20
52.6288
 30
0.0
 11
131.755
 21
52.167
 31
0.0
  0
LINE
  8
0
 62
     0
 10
131.755
 20
52.167
 30
0.0
 11
131.411
 21
52.1134
 31
0.0
  0
LINE
  8
0
 62
     0
 10
131.411
 20
52.1134
 30
0.0
 11
131.065
 21
52.0594
 31
0.0
  0
LINE
  8
0
 62
     0
 10
131.065
 20
52.0594
 30
0.0
 11
129.08
 21
51.6213
 31
0.0
  0
LINE
  8
0
 62
     0
 10
129.08
 20
51.6213
 30
0.0
 11
126.746
 21
50.9556
 31
0.0
  0
LINE
  8
0
 62
     0
 10
126.746
 20
50.9556
 30
0.0
 11
126.228
 21
50.7891
 31
0.0
  0
LINE
  8
0
 62
     0
 10
126.228
 20
50.7891
 30
0.0
 11
125.814
 21
50.6621
 31
0.0
  0
LINE
  8
0
 62
     0
 10
125.814
 20
50.6621
 30
0.0
 11
124.606
 21
50.1551
 31
0.0
  0
LINE
  8
0
 62
     0
 10
124.606
 20
50.1551
 30
0.0
 11
123.285
 21
49.3339
 31
0.0
  0
LINE
  8
0
 62
     0
 10
123.285
 20
49.3339
 30
0.0
 11
122.262
 21
48.3277
 31
0.0
  0
LINE
  8
0
 62
     0
 10
122.262
 20
48.3277
 30
0.0
 11
121.681
 21
47.45
 31
0.0
  0
LINE
  8
0
 62
     0
 10
121.681
 20
47.45
 30
0.0
 11
121.54
 21
47.1329
 31
0.0
  0
LINE
  8
0
 62
     0
 10
121.54
 20
47.1329
 30
0.0
 11
121.349
 21
46.7046
 31
0.0
  0
LINE
  8
0
 62
     0
 10
121.349
 20
46.7046
 30
0.0
 11
120.672
 21
44.4955
 31
0.0
  0
LINE
  8
0
 62
     0
 10
120.672
 20
44.4955
 30
0.0
 11
120.369
 21
42.194
 31
0.0
  0
LINE
  8
0
 62
     0
 10
120.369
 20
42.194
 30
0.0
 11
120.365
 21
41.7202
 31
0.0
  0
LINE
  8
0
 62
     0
 10
120.365
 20
41.7202
 30
0.0
 11
120.217
 21
27.5098
 31
0.0
  0
LINE
  8
0
 62
     0
 10
120.217
 20
27.5098
 30
0.0
 11
120.209
 21
26.7918
 31
0.0
  0
LINE
  8
0
 62
     0
 10
120.209
 20
26.7918
 30
0.0
 11
120.198
 21
23.6237
 31
0.0
  0
LINE
  8
0
 62
     0
 10
120.198
 20
23.6237
 30
0.0
 11
120.221
 21
21.0137
 31
0.0
  0
LINE
  8
0
 62
     0
 10
120.221
 20
21.0137
 30
0.0
 11
120.232
 21
20.5755
 31
0.0
  0
LINE
  8
0
 62
     0
 10
120.232
 20
20.5755
 30
0.0
 11
120.242
 21
20.1386
 31
0.0
  0
LINE
  8
0
 62
     0
 10
120.242
 20
20.1386
 30
0.0
 11
120.401
 21
14.7175
 31
0.0
  0
LINE
  8
0
 62
     0
 10
120.401
 20
14.7175
 30
0.0
 11
120.422
 21
14.0711
 31
0.0
  0
LINE
  8
0
 62
     0
 10
120.422
 20
14.0711
 30
0.0
 11
119.248
 21
13.3835
 31
0.0
  0
LINE
  8
0
 62
     0
 10
119.248
 20
13.3835
 30
0.0
 11
115.576
 21
11.5755
 31
0.0
  0
LINE
  8
0
 62
     0
 10
115.576
 20
11.5755
 30
0.0
 11
109.702
 21
9.16534
 31
0.0
  0
LINE
  8
0
 62
     0
 10
109.702
 20
9.16534
 30
0.0
 11
102.8
 21
6.84057
 31
0.0
  0
LINE
  8
0
 62
     0
 10
102.8
 20
6.84057
 30
0.0
 11
96.865
 21
5.11941
 31
0.0
  0
LINE
  8
0
 62
     0
 10
96.865
 20
5.11941
 30
0.0
 11
94.8725
 21
4.60128
 31
0.0
  0
LINE
  8
0
 62
     0
 10
94.8725
 20
4.60128
 30
0.0
 11
92.819
 21
4.06795
 31
0.0
  0
LINE
  8
0
 62
     0
 10
92.819
 20
4.06795
 30
0.0
 11
86.6027
 21
2.68993
 31
0.0
  0
LINE
  8
0
 62
     0
 10
86.6027
 20
2.68993
 30
0.0
 11
78.6776
 21
1.34634
 31
0.0
  0
LINE
  8
0
 62
     0
 10
78.6776
 20
1.34634
 30
0.0
 11
71.0985
 21
0.569129
 31
0.0
  0
LINE
  8
0
 62
     0
 10
71.0985
 20
0.569129
 30
0.0
 11
65.6717
 21
0.338998
 31
0.0
  0
LINE
  8
0
 62
     0
 10
65.6717
 20
0.338998
 30
0.0
 11
63.8651
 21
0.356912
 31
0.0
  0
LINE
  8
0
 62
     0
 10
63.8651
 20
0.356912
 30
0.0
 11
62.2321
 21
0.374826
 31
0.0
  0
LINE
  8
0
 62
     0
 10
62.2321
 20
0.374826
 30
0.0
 11
57.3373
 21
0.677997
 31
0.0
  0
LINE
  8
0
 62
     0
 10
57.3373
 20
0.677997
 30
0.0
 11
51.0205
 21
1.50344
 31
0.0
  0
LINE
  8
0
 62
     0
 10
51.0205
 20
1.50344
 30
0.0
 11
44.9128
 21
2.83049
 31
0.0
  0
LINE
  8
0
 62
     0
 10
44.9128
 20
2.83049
 30
0.0
 11
40.4675
 21
4.14101
 31
0.0
  0
LINE
  8
0
 62
     0
 10
40.4675
 20
4.14101
 30
0.0
 11
39.0165
 21
4.66189
 31
0.0
  0
LINE
  8
0
 62
     0
 10
39.0165
 20
4.66189
 30
0.0
 11
37.5874
 21
5.17592
 31
0.0
  0
LINE
  8
0
 62
     0
 10
37.5874
 20
5.17592
 30
0.0
 11
33.4036
 21
6.99766
 31
0.0
  0
LINE
  8
0
 62
     0
 10
33.4036
 20
6.99766
 30
0.0
 11
28.1519
 21
9.83506
 31
0.0
  0
LINE
  8
0
 62
     0
 10
28.1519
 20
9.83506
 30
0.0
 11
23.2613
 21
13.1754
 31
0.0
  0
LINE
  8
0
 62
     0
 10
23.2613
 20
13.1754
 30
0.0
 11
19.8107
 21
16.0018
 31
0.0
  0
LINE
  8
0
 62
     0
 10
19.8107
 20
16.0018
 30
0.0
 11
18.7317
 21
17.0174
 31
0.0
  0
LINE
  8
0
 62
     0
 10
18.7317
 20
17.0174
 30
0.0
 11
17.6458
 21
18.0289
 31
0.0
  0
LINE
  8
0
 62
     0
 10
17.6458
 20
18.0289
 30
0.0
 11
14.6169
 21
21.3072
 31
0.0
  0
LINE
  8
0
 62
     0
 10
14.6169
 20
21.3072
 30
0.0
 11
10.9761
 21
26.0766
 31
0.0
  0
LINE
  8
0
 62
     0
 10
10.9761
 20
26.0766
 30
0.0
 11
7.80796
 21
31.3256
 31
0.0
  0
LINE
  8
0
 62
     0
 10
7.80796
 20
31.3256
 30
0.0
 11
5.71472
 21
35.5935
 31
0.0
  0
LINE
  8
0
 62
     0
 10
5.71472
 20
35.5935
 30
0.0
 11
5.1139
 21
37.054
 31
0.0
  0
LINE
  8
0
 62
     0
 10
5.1139
 20
37.054
 30
0.0
 11
4.49241
 21
38.5643
 31
0.0
  0
LINE
  8
0
 62
     0
 10
4.49241
 20
38.5643
 30
0.0
 11
2.97381
 21
43.2361
 31
0.0
  0
LINE
  8
0
 62
     0
 10
2.97381
 20
43.2361
 30
0.0
 11
1.46761
 21
49.8408
 31
0.0
  0
LINE
  8
0
 62
     0
 10
1.46761
 20
49.8408
 30
0.0
 11
0.595313
 21
56.8688
 31
0.0
  0
LINE
  8
0
 62
     0
 10
0.595313
 20
56.8688
 30
0.0
 11
0.338998
 21
62.4597
 31
0.0
  0
LINE
  8
0
 62
     0
 10
0.338998
 20
62.4597
 30
0.0
 11
0.358288
 21
64.3213
 31
0.0
  0
LINE
  8
0
 62
     0
 10
0.358288
 20
64.3213
 30
0.0
 11
0.376206
 21
66.0756
 31
0.0
  0
LINE
  8
0
 62
     0
 10
0.376206
 20
66.0756
 30
0.0
 11
0.726225
 21
71.3327
 31
0.0
  0
LINE
  8
0
 62
     0
 10
0.726225
 20
71.3327
 30
0.0
 11
1.68396
 21
78.0673
 31
0.0
  0
LINE
  8
0
 62
     0
 10
1.68396
 20
78.0673
 30
0.0
 11
3.23012
 21
84.5273
 31
0.0
  0
LINE
  8
0
 62
     0
 10
3.23012
 20
84.5273
 30
0.0
 11
4.75837
 21
89.1963
 31
0.0
  0
LINE
  8
0
 62
     0
 10
4.75837
 20
89.1963
 30
0.0
 11
5.36744
 21
90.7122
 31
0.0
  0
LINE
  8
0
 62
     0
 10
5.36744
 20
90.7122
 30
0.0
 11
5.96554
 21
92.2002
 31
0.0
  0
LINE
  8
0
 62
     0
 10
5.96554
 20
92.2002
 30
0.0
 11
8.06016
 21
96.5468
 31
0.0
  0
LINE
  8
0
 62
     0
 10
8.06016
 20
96.5468
 30
0.0
 11
11.2765
 21
101.957
 31
0.0
  0
LINE
  8
0
 62
     0
 10
11.2765
 20
101.957
 30
0.0
 11
15.0151
 21
106.94
 31
0.0
  0
LINE
  8
0
 62
     0
 10
15.0151
 20
106.94
 30
0.0
 11
18.1529
 21
110.419
 31
0.0
  0
LINE
  8
0
 62
     0
 10
18.1529
 20
110.419
 30
0.0
 11
19.2774
 21
111.499
 31
0.0
  0
LINE
  8
0
 62
     0
 10
19.2774
 20
111.499
 30
0.0
 11
20.3853
 21
112.573
 31
0.0
  0
LINE
  8
0
 62
     0
 10
20.3853
 20
112.573
 30
0.0
 11
23.9517
 21
115.553
 31
0.0
  0
LINE
  8
0
 62
     0
 10
23.9517
 20
115.553
 30
0.0
 11
29.1
 21
119.107
 31
0.0
  0
LINE
  8
0
 62
     0
 10
29.1
 20
119.107
 30
0.0
 11
34.7224
 21
122.159
 31
0.0
  0
LINE
  8
0
 62
     0
 10
34.7224
 20
122.159
 30
0.0
 11
39.2673
 21
124.149
 31
0.0
  0
LINE
  8
0
 62
     0
 10
39.2673
 20
124.149
 30
0.0
 11
40.8189
 21
124.713
 31
0.0
  0
LINE
  8
0
 62
     0
 10
40.8189
 20
124.713
 30
0.0
 11
42.4145
 21
125.293
 31
0.0
  0
LINE
  8
0
 62
     0
 10
42.4145
 20
125.293
 30
0.0
 11
47.3177
 21
126.717
 31
0.0
  0
LINE
  8
0
 62
     0
 10
47.3177
 20
126.717
 30
0.0
 11
54.15
 21
128.127
 31
0.0
  0
LINE
  8
0
 62
     0
 10
54.15
 20
128.127
 30
0.0
 11
61.3145
 21
128.942
 31
0.0
  0
LINE
  8
0
 62
     0
 10
61.3145
 20
128.942
 30
0.0
 11
66.9396
 21
129.179
 31
0.0
  0
LINE
  8
0
 62
     0
 10
66.9396
 20
129.179
 30
0.0
 11
68.8135
 21
129.159
 31
0.0
  0
LINE
  8
0
 62
     0
 10
68.8135
 20
129.159
 30
0.0
 11
70.5499
 21
129.141
 31
0.0
  0
LINE
  8
0
 62
     0
 10
70.5499
 20
129.141
 30
0.0
 11
78.8402
 21
128.421
 31
0.0
  0
LINE
  8
0
 62
     0
 10
78.8402
 20
128.421
 30
0.0
 11
86.6041
 21
126.86
 31
0.0
  0
LINE
  8
0
 62
     0
 10
86.6041
 20
126.86
 30
0.0
 11
88.0787
 21
126.42
 31
0.0
  0
LINE
  8
0
 62
     0
 10
88.0787
 20
126.42
 30
0.0
 11
89.5519
 21
125.982
 31
0.0
  0
LINE
  8
0
 62
     0
 10
89.5519
 20
125.982
 30
0.0
 11
96.1471
 21
123.698
 31
0.0
  0
LINE
  8
0
 62
     0
 10
96.1471
 20
123.698
 30
0.0
 11
101.706
 21
121.298
 31
0.0
  0
LINE
  8
0
 62
     0
 10
101.706
 20
121.298
 30
0.0
 11
102.664
 21
120.799
 31
0.0
  0
LINE
  8
0
 62
     0
 10
102.664
 20
120.799
 30
0.0
 11
108.052
 21
125.481
 31
0.0
  0
LINE
  8
0
 62
     0
 10
108.052
 20
125.481
 30
0.0
 11
115.544
 21
125.404
 31
0.0
  0
LINE
  8
0
 62
     0
 10
115.544
 20
125.404
 30
0.0
 11
115.859
 21
80.7833
 31
0.0
  0
LINE
  8
0
 62
     0
 10
115.859
 20
80.7833
 30
0.0
 11
108.279
 21
80.862
 31
0.0
  0
LINE
  8
0
 62
     0
 10
108.279
 20
80.862
 30
0.0
 11
107.53
 21
83.2446
 31
0.0
  0
LINE
  8
0
 62
     0
 10
107.53
 20
83.2446
 30
0.0
 11
104.942
 21
90.2864
 31
0.0
  0
LINE
  8
0
 62
     0
 10
104.942
 20
90.2864
 30
0.0
 11
101.268
 21
98.4208
 31
0.0
  0
LINE
  8
0
 62
     0
 10
101.268
 20
98.4208
 30
0.0
 11
97.2591
 21
105.267
 31
0.0
  0
LINE
  8
0
 62
     0
 10
97.2591
 20
105.267
 30
0.0
 11
94.1021
 21
109.529
 31
0.0
  0
LINE
  8
0
 62
     0
 10
94.1021
 20
109.529
 30
0.0
 11
92.9143
 21
110.823
 31
0.0
  0
LINE
  8
0
 62
     0
 10
92.9143
 20
110.823
 30
0.0
 11
91.8256
 21
112.008
 31
0.0
  0
LINE
  8
0
 62
     0
 10
91.8256
 20
112.008
 30
0.0
 11
88.0911
 21
115.131
 31
0.0
  0
LINE
  8
0
 62
     0
 10
88.0911
 20
115.131
 30
0.0
 11
82.6534
 21
118.229
 31
0.0
  0
LINE
  8
0
 62
     0
 10
82.6534
 20
118.229
 30
0.0
 11
76.6011
 21
120.117
 31
0.0
  0
LINE
  8
0
 62
     0
 10
76.6011
 20
120.117
 30
0.0
 11
71.6001
 21
120.777
 31
0.0
  0
LINE
  8
0
 62
     0
 10
71.6001
 20
120.777
 30
0.0
 11
69.9325
 21
120.793
 31
0.0
  0
LINE
  8
0
 62
     0
 10
69.9325
 20
120.793
 30
0.0
 11
67.9827
 21
120.814
 31
0.0
  0
LINE
  8
0
 62
     0
 10
67.9827
 20
120.814
 30
0.0
 11
62.1259
 21
119.971
 31
0.0
  0
LINE
  8
0
 62
     0
 10
62.1259
 20
119.971
 30
0.0
 11
55.2443
 21
117.329
 31
0.0
  0
LINE
  8
0
 62
     0
 10
55.2443
 20
117.329
 30
0.0
 11
49.2841
 21
112.868
 31
0.0
  0
LINE
  8
0
 62
     0
 10
49.2841
 20
112.868
 30
0.0
 11
45.3224
 21
108.277
 31
0.0
  0
LINE
  8
0
 62
     0
 10
45.3224
 20
108.277
 30
0.0
 11
44.2489
 21
106.589
 31
0.0
  0
LINE
  8
0
 62
     0
 10
44.2489
 20
106.589
 30
0.0
 11
43.0664
 21
104.732
 31
0.0
  0
LINE
  8
0
 62
     0
 10
43.0664
 20
104.732
 30
0.0
 11
40.229
 21
98.7129
 31
0.0
  0
LINE
  8
0
 62
     0
 10
40.229
 20
98.7129
 30
0.0
 11
37.32
 21
89.4567
 31
0.0
  0
LINE
  8
0
 62
     0
 10
37.32
 20
89.4567
 30
0.0
 11
35.523
 21
78.8211
 31
0.0
  0
LINE
  8
0
 62
     0
 10
35.523
 20
78.8211
 30
0.0
 11
34.8671
 21
69.813
 31
0.0
  0
LINE
  8
0
 62
     0
 10
34.8671
 20
69.813
 30
0.0
 11
34.8368
 21
66.8073
 31
0.0
  0
LINE
  8
0
 62
     0
 10
34.8368
 20
66.8073
 30
0.0
 11
34.8037
 21
63.6214
 31
0.0
  0
LINE
  8
0
 62
     0
 10
34.8037
 20
63.6214
 30
0.0
 11
35.2557
 21
54.0561
 31
0.0
  0
LINE
  8
0
 62
     0
 10
35.2557
 20
54.0561
 30
0.0
 11
36.7951
 21
42.7563
 31
0.0
  0
LINE
  8
0
 62
     0
 10
36.7951
 20
42.7563
 30
0.0
 11
39.4518
 21
32.9103
 31
0.0
  0
LINE
  8
0
 62
     0
 10
39.4518
 20
32.9103
 30
0.0
 11
42.0991
 21
26.5107
 31
0.0
  0
LINE
  8
0
 62
     0
 10
42.0991
 20
26.5107
 30
0.0
 11
43.2276
 21
24.5153
 31
0.0
  0
LINE
  8
0
 62
     0
 10
43.2276
 20
24.5153
 30
0.0
 11
43.7501
 21
23.5893
 31
0.0
  0
LINE
  8
0
 62
     0
 10
43.7501
 20
23.5893
 30
0.0
 11
45.5126
 21
20.9186
 31
0.0
  0
LINE
  8
0
 62
     0
 10
45.5126
 20
20.9186
 30
0.0
 11
48.0314
 21
17.796
 31
0.0
  0
LINE
  8
0
 62
     0
 10
48.0314
 20
17.796
 30
0.0
 11
50.7877
 21
15.1474
 31
0.0
  0
LINE
  8
0
 62
     0
 10
50.7877
 20
15.1474
 30
0.0
 11
53.7767
 21
12.9728
 31
0.0
  0
LINE
  8
0
 62
     0
 10
53.7767
 20
12.9728
 30
0.0
 11
57.0025
 21
11.2723
 31
0.0
  0
LINE
  8
0
 62
     0
 10
57.0025
 20
11.2723
 30
0.0
 11
60.4629
 21
10.0459
 31
0.0
  0
LINE
  8
0
 62
     0
 10
60.4629
 20
10.0459
 30
0.0
 11
64.1572
 21
9.29351
 31
0.0
  0
LINE
  8
0
 62
     0
 10
64.1572
 20
9.29351
 30
0.0
 11
67.105
 21
9.02476
 31
0.0
  0
LINE
  8
0
 62
     0
 10
67.105
 20
9.02476
 30
0.0
 11
68.0889
 21
9.01375
 31
0.0
  0
LINE
  8
0
 62
     0
 10
68.0889
 20
9.01375
 30
0.0
 11
69.3512
 21
9.00134
 31
0.0
  0
LINE
  8
0
 62
     0
 10
69.3512
 20
9.00134
 30
0.0
 11
75.2531
 21
9.51121
 31
0.0
  0
LINE
  8
0
 62
     0
 10
75.2531
 20
9.51121
 30
0.0
 11
80.6027
 21
10.7873
 31
0.0
  0
LINE
  8
0
 62
     0
 10
80.6027
 20
10.7873
 30
0.0
 11
81.5908
 21
11.1566
 31
0.0
  0
LINE
  8
0
 62
     0
 10
81.5908
 20
11.1566
 30
0.0
 11
82.5775
 21
11.5273
 31
0.0
  0
LINE
  8
0
 62
     0
 10
82.5775
 20
11.5273
 30
0.0
 11
86.8578
 21
13.5668
 31
0.0
  0
LINE
  8
0
 62
     0
 10
86.8578
 20
13.5668
 30
0.0
 11
90.2656
 21
15.8612
 31
0.0
  0
LINE
  8
0
 62
     0
 10
90.2656
 20
15.8612
 30
0.0
 11
90.817
 21
16.3573
 31
0.0
  0
LINE
  8
0
 62
     0
 10
90.817
 20
16.3573
 30
0.0
 11
91.0731
 21
41.1607
 31
0.0
  0
LINE
  8
0
 62
     0
 10
91.0731
 20
41.1607
 30
0.0
 11
91.0788
 21
41.6775
 31
0.0
  0
LINE
  8
0
 62
     0
 10
91.0788
 20
41.6775
 30
0.0
 11
90.8223
 21
44.0171
 31
0.0
  0
LINE
  8
0
 62
     0
 10
90.8223
 20
44.0171
 30
0.0
 11
90.1898
 21
46.0304
 31
0.0
  0
LINE
  8
0
 62
     0
 10
90.1898
 20
46.0304
 30
0.0
 11
90.0081
 21
46.3832
 31
0.0
  0
LINE
  8
0
 62
     0
 10
90.0081
 20
46.3832
 30
0.0
 11
89.8246
 21
46.7374
 31
0.0
  0
LINE
  8
0
 62
     0
 10
89.8246
 20
46.7374
 30
0.0
 11
88.349
 21
48.3718
 31
0.0
  0
LINE
  8
0
 62
     0
 10
88.349
 20
48.3718
 30
0.0
 11
86.1247
 21
49.827
 31
0.0
  0
LINE
  8
0
 62
     0
 10
86.1247
 20
49.827
 30
0.0
 11
85.568
 21
50.0902
 31
0.0
  0
LINE
  8
0
 62
     0
 10
85.568
 20
50.0902
 30
0.0
 11
85.1394
 21
50.2955
 31
0.0
  0
LINE
  8
0
 62
     0
 10
85.1394
 20
50.2955
 30
0.0
 11
82.6714
 21
51.2191
 31
0.0
  0
LINE
  8
0
 62
     0
 10
82.6714
 20
51.2191
 30
0.0
 11
79.7719
 21
52.0016
 31
0.0
  0
LINE
  8
0
 62
     0
 10
79.7719
 20
52.0016
 30
0.0
 11
79.1284
 21
52.1367
 31
0.0
  0
LINE
  8
0
 62
     0
 10
79.1284
 20
52.1367
 30
0.0
 11
78.4835
 21
52.2732
 31
0.0
  0
LINE
  8
0
 62
     0
 10
78.4835
 20
52.2732
 30
0.0
 11
75.5826
 21
52.8422
 31
0.0
  0
LINE
  8
0
 62
     0
 10
75.5826
 20
52.8422
 30
0.0
 11
73.1104
 21
53.2624
 31
0.0
  0
LINE
  8
0
 62
     0
 10
73.1104
 20
53.2624
 30
0.0
 11
72.6803
 21
53.3231
 31
0.0
  0
LINE
  8
0
 62
     0
 10
72.6803
 20
53.3231
 30
0.0
 11
72.7509
 21
60.041
 31
0.0
  0
LINE
  8
0
 62
     0
 10
72.7509
 20
60.041
 30
0.0
 11
136.223
 21
59.3852
 31
0.0
  0
LINE
  8
0
 62
     0
 10
136.223
 20
59.3852
 30
0.0
 11
136.153
 21
52.6673
 31
0.0
  0
ENDSEC
  0
EOF
