solid OpenSCAD_Model
  facet normal -0.727587 0.00747409 0.685975
    outer loop
      vertex 0.353 1.054 20
      vertex 2.25779 2.91992 22
      vertex 0.422 7.771 20
    endloop
  endfacet
  facet normal -0.727587 0.00747409 0.685975
    outer loop
      vertex 0.809 7.40524 20.4145
      vertex 2.25779 2.91992 22
      vertex 2.28949 6.00615 22
    endloop
  endfacet
  facet normal -0.727587 0.00747409 0.685975
    outer loop
      vertex 0.422 7.771 20
      vertex 2.25779 2.91992 22
      vertex 0.809 7.40524 20.4145
    endloop
  endfacet
  facet normal -0.00752501 -0.727586 0.685975
    outer loop
      vertex 2.25779 2.91992 22
      vertex 0.353 1.054 20
      vertex 68.132 0.353 20
    endloop
  endfacet
  facet normal -0.00752501 -0.727586 0.685975
    outer loop
      vertex 66.2657 2.25792 22
      vertex 2.25779 2.91992 22
      vertex 68.132 0.353 20
    endloop
  endfacet
  facet normal 0 0 -1
    outer loop
      vertex 0.809 7.796 20
      vertex 53.724 10.373 20
      vertex 0.422 7.771 20
    endloop
  endfacet
  facet normal 0 0 -1
    outer loop
      vertex 7.275 8.217 20
      vertex 3.298 7.957 20
      vertex 6.52 8.168 20
    endloop
  endfacet
  facet normal 0 0 -1
    outer loop
      vertex 0.809 7.796 20
      vertex 3.298 7.957 20
      vertex 53.724 10.373 20
    endloop
  endfacet
  facet normal 0 0 -1
    outer loop
      vertex 3.298 7.957 20
      vertex 7.275 8.217 20
      vertex 53.724 10.373 20
    endloop
  endfacet
  facet normal 0 0 -1
    outer loop
      vertex 51.525 12.183 20
      vertex 8.028 8.267 20
      vertex 50.967 12.958 20
    endloop
  endfacet
  facet normal 0 0 -1
    outer loop
      vertex 50.633 13.604 20
      vertex 11.1 8.609 20
      vertex 49.976 15.667 20
    endloop
  endfacet
  facet normal 0 0 -1
    outer loop
      vertex 49.71 18.028 20
      vertex 13.24 9.074 20
      vertex 49.716 18.544 20
    endloop
  endfacet
  facet normal 0 0 -1
    outer loop
      vertex 13.24 9.074 20
      vertex 13.53 9.186 20
      vertex 49.716 18.544 20
    endloop
  endfacet
  facet normal 0 0 -1
    outer loop
      vertex 13.53 9.186 20
      vertex 13.906 9.335 20
      vertex 49.716 18.544 20
    endloop
  endfacet
  facet normal 0 0 -1
    outer loop
      vertex 13.906 9.335 20
      vertex 15.003 9.868 20
      vertex 49.716 18.544 20
    endloop
  endfacet
  facet normal 0 0 -1
    outer loop
      vertex 15.003 9.868 20
      vertex 16.225 10.655 20
      vertex 49.716 18.544 20
    endloop
  endfacet
  facet normal 0 0 -1
    outer loop
      vertex 16.225 10.655 20
      vertex 17.194 11.547 20
      vertex 49.716 18.544 20
    endloop
  endfacet
  facet normal 0 0 -1
    outer loop
      vertex 17.194 11.547 20
      vertex 17.763 12.278 20
      vertex 49.716 18.544 20
    endloop
  endfacet
  facet normal 0 0 -1
    outer loop
      vertex 17.763 12.278 20
      vertex 17.913 12.543 20
      vertex 49.716 18.544 20
    endloop
  endfacet
  facet normal 0 0 -1
    outer loop
      vertex 19.126 17.369 20
      vertex 19.131 17.913 20
      vertex 20.027 104.553 20
    endloop
  endfacet
  facet normal 0 0 -1
    outer loop
      vertex 56.746 114.051 20
      vertex 20.027 104.553 20
      vertex 69.395 122.561 20
    endloop
  endfacet
  facet normal 0 0 -1
    outer loop
      vertex 20.027 104.553 20
      vertex 20.031 105.042 20
      vertex 69.395 122.561 20
    endloop
  endfacet
  facet normal 0 0 -1
    outer loop
      vertex 20.031 105.042 20
      vertex 19.775 107.312 20
      vertex 69.395 122.561 20
    endloop
  endfacet
  facet normal 0 0 -1
    outer loop
      vertex 19.775 107.312 20
      vertex 19.144 109.357 20
      vertex 69.395 122.561 20
    endloop
  endfacet
  facet normal 0 0 -1
    outer loop
      vertex 19.144 109.357 20
      vertex 18.962 109.732 20
      vertex 69.395 122.561 20
    endloop
  endfacet
  facet normal 0 0 -1
    outer loop
      vertex 18.962 109.732 20
      vertex 18.823 110.017 20
      vertex 69.395 122.561 20
    endloop
  endfacet
  facet normal 0 0 -1
    outer loop
      vertex 18.823 110.017 20
      vertex 18.277 110.805 20
      vertex 69.395 122.561 20
    endloop
  endfacet
  facet normal 0 0 -1
    outer loop
      vertex 69.395 122.561 20
      vertex 17.323 111.774 20
      vertex 1.616 123.261 20
    endloop
  endfacet
  facet normal 0 0 -1
    outer loop
      vertex 17.323 111.774 20
      vertex 16.1 112.637 20
      vertex 1.616 123.261 20
    endloop
  endfacet
  facet normal 0 0 -1
    outer loop
      vertex 16.1 112.637 20
      vertex 14.989 113.229 20
      vertex 1.616 123.261 20
    endloop
  endfacet
  facet normal 0 0 -1
    outer loop
      vertex 14.989 113.229 20
      vertex 14.606 113.395 20
      vertex 1.616 123.261 20
    endloop
  endfacet
  facet normal 0 0 -1
    outer loop
      vertex 14.606 113.395 20
      vertex 14.263 113.542 20
      vertex 1.616 123.261 20
    endloop
  endfacet
  facet normal 0 0 -1
    outer loop
      vertex 14.263 113.542 20
      vertex 12.052 114.293 20
      vertex 1.616 123.261 20
    endloop
  endfacet
  facet normal 0 0 -1
    outer loop
      vertex 12.052 114.293 20
      vertex 9.182 115.066 20
      vertex 1.616 123.261 20
    endloop
  endfacet
  facet normal 0 0 -1
    outer loop
      vertex 9.182 115.066 20
      vertex 8.509 115.223 20
      vertex 7.836 115.382 20
    endloop
  endfacet
  facet normal 0 0 -1
    outer loop
      vertex 9.182 115.066 20
      vertex 7.836 115.382 20
      vertex 1.616 123.261 20
    endloop
  endfacet
  facet normal 0 0 -1
    outer loop
      vertex 7.836 115.382 20
      vertex 4.749 116.027 20
      vertex 1.616 123.261 20
    endloop
  endfacet
  facet normal 0 0 -1
    outer loop
      vertex 4.749 116.027 20
      vertex 2.034 116.483 20
      vertex 1.616 123.261 20
    endloop
  endfacet
  facet normal 0 0 -1
    outer loop
      vertex 2.034 116.483 20
      vertex 1.548 116.545 20
      vertex 1.616 123.261 20
    endloop
  endfacet
  facet normal 0 0 -1
    outer loop
      vertex 18.277 110.805 20
      vertex 17.323 111.774 20
      vertex 69.395 122.561 20
    endloop
  endfacet
  facet normal 0 0 -1
    outer loop
      vertex 69.325 115.843 20
      vertex 68.894 115.805 20
      vertex 69.395 122.561 20
    endloop
  endfacet
  facet normal 0 0 -1
    outer loop
      vertex 68.894 115.805 20
      vertex 66.415 115.562 20
      vertex 69.395 122.561 20
    endloop
  endfacet
  facet normal 0 0 -1
    outer loop
      vertex 50.919 107.949 20
      vertex 19.126 17.369 20
      vertex 51.594 110.076 20
    endloop
  endfacet
  facet normal 0 0 -1
    outer loop
      vertex 54.752 113.29 20
      vertex 20.027 104.553 20
      vertex 55.903 113.785 20
    endloop
  endfacet
  facet normal 0 0 -1
    outer loop
      vertex 63.506 115.251 20
      vertex 62.859 115.178 20
      vertex 69.395 122.561 20
    endloop
  endfacet
  facet normal 0 0 -1
    outer loop
      vertex 62.859 115.178 20
      vertex 62.212 115.106 20
      vertex 69.395 122.561 20
    endloop
  endfacet
  facet normal 0 0 -1
    outer loop
      vertex 53.484 112.509 20
      vertex 20.027 104.553 20
      vertex 54.752 113.29 20
    endloop
  endfacet
  facet normal 0 0 -1
    outer loop
      vertex 62.212 115.106 20
      vertex 59.278 114.645 20
      vertex 69.395 122.561 20
    endloop
  endfacet
  facet normal 0 0 -1
    outer loop
      vertex 56.3 113.911 20
      vertex 20.027 104.553 20
      vertex 56.746 114.051 20
    endloop
  endfacet
  facet normal 0 0 -1
    outer loop
      vertex 59.278 114.645 20
      vertex 56.746 114.051 20
      vertex 69.395 122.561 20
    endloop
  endfacet
  facet normal 0 0 -1
    outer loop
      vertex 55.903 113.785 20
      vertex 20.027 104.553 20
      vertex 56.3 113.911 20
    endloop
  endfacet
  facet normal 0 0 -1
    outer loop
      vertex 52.495 111.569 20
      vertex 20.027 104.553 20
      vertex 53.484 112.509 20
    endloop
  endfacet
  facet normal 0 0 -1
    outer loop
      vertex 51.926 110.761 20
      vertex 20.027 104.553 20
      vertex 52.495 111.569 20
    endloop
  endfacet
  facet normal 0 0 -1
    outer loop
      vertex 51.785 110.469 20
      vertex 20.027 104.553 20
      vertex 51.926 110.761 20
    endloop
  endfacet
  facet normal 0 0 -1
    outer loop
      vertex 49.716 18.544 20
      vertex 18.809 14.935 20
      vertex 19.126 17.369 20
    endloop
  endfacet
  facet normal 0 0 -1
    outer loop
      vertex 51.594 110.076 20
      vertex 20.027 104.553 20
      vertex 51.785 110.469 20
    endloop
  endfacet
  facet normal 0 0 -1
    outer loop
      vertex 19.126 17.369 20
      vertex 20.027 104.553 20
      vertex 51.594 110.076 20
    endloop
  endfacet
  facet normal 0 0 -1
    outer loop
      vertex 50.614 105.602 20
      vertex 19.126 17.369 20
      vertex 50.919 107.949 20
    endloop
  endfacet
  facet normal 0 0 -1
    outer loop
      vertex 49.716 18.544 20
      vertex 19.126 17.369 20
      vertex 50.61 105.099 20
    endloop
  endfacet
  facet normal 0 0 -1
    outer loop
      vertex 49.716 18.544 20
      vertex 18.11 12.893 20
      vertex 18.809 14.935 20
    endloop
  endfacet
  facet normal 0 0 -1
    outer loop
      vertex 19.126 17.369 20
      vertex 50.614 105.602 20
      vertex 50.61 105.099 20
    endloop
  endfacet
  facet normal 0 0 -1
    outer loop
      vertex 17.913 12.543 20
      vertex 18.11 12.893 20
      vertex 49.716 18.544 20
    endloop
  endfacet
  facet normal 0 0 -1
    outer loop
      vertex 11.1 8.609 20
      vertex 13.24 9.074 20
      vertex 49.976 15.667 20
    endloop
  endfacet
  facet normal 0 0 -1
    outer loop
      vertex 13.24 9.074 20
      vertex 49.71 18.028 20
      vertex 49.976 15.667 20
    endloop
  endfacet
  facet normal 0 0 -1
    outer loop
      vertex 50.967 12.958 20
      vertex 11.1 8.609 20
      vertex 50.823 13.236 20
    endloop
  endfacet
  facet normal 0 0 -1
    outer loop
      vertex 11.1 8.609 20
      vertex 50.633 13.604 20
      vertex 50.823 13.236 20
    endloop
  endfacet
  facet normal 0 0 -1
    outer loop
      vertex 8.028 8.267 20
      vertex 11.1 8.609 20
      vertex 50.967 12.958 20
    endloop
  endfacet
  facet normal 0 0 -1
    outer loop
      vertex 53.724 10.373 20
      vertex 8.028 8.267 20
      vertex 52.492 11.228 20
    endloop
  endfacet
  facet normal 0 0 -1
    outer loop
      vertex 8.028 8.267 20
      vertex 51.525 12.183 20
      vertex 52.492 11.228 20
    endloop
  endfacet
  facet normal 0 0 -1
    outer loop
      vertex 7.275 8.217 20
      vertex 8.028 8.267 20
      vertex 53.724 10.373 20
    endloop
  endfacet
  facet normal 0 0 -1
    outer loop
      vertex 53.724 10.373 20
      vertex 54.836 9.783 20
      vertex 0.422 7.771 20
    endloop
  endfacet
  facet normal 0 0 -1
    outer loop
      vertex 54.836 9.783 20
      vertex 55.221 9.616 20
      vertex 0.422 7.771 20
    endloop
  endfacet
  facet normal 0 0 -1
    outer loop
      vertex 55.221 9.616 20
      vertex 55.52 9.484 20
      vertex 0.422 7.771 20
    endloop
  endfacet
  facet normal 0 0 -1
    outer loop
      vertex 55.52 9.484 20
      vertex 57.613 8.828 20
      vertex 0.422 7.771 20
    endloop
  endfacet
  facet normal 0 0 -1
    outer loop
      vertex 57.613 8.828 20
      vertex 60.496 8.177 20
      vertex 0.422 7.771 20
    endloop
  endfacet
  facet normal 0 0 -1
    outer loop
      vertex 60.496 8.177 20
      vertex 61.192 8.048 20
      vertex 0.422 7.771 20
    endloop
  endfacet
  facet normal 0 0 -1
    outer loop
      vertex 61.192 8.048 20
      vertex 61.886 7.92 20
      vertex 0.422 7.771 20
    endloop
  endfacet
  facet normal 0 0 -1
    outer loop
      vertex 61.886 7.92 20
      vertex 65.028 7.417 20
      vertex 0.422 7.771 20
    endloop
  endfacet
  facet normal 0 0 -1
    outer loop
      vertex 65.028 7.417 20
      vertex 67.726 7.105 20
      vertex 0.422 7.771 20
    endloop
  endfacet
  facet normal 0 0 -1
    outer loop
      vertex 67.726 7.105 20
      vertex 68.2 7.071 20
      vertex 0.422 7.771 20
    endloop
  endfacet
  facet normal 0 0 -1
    outer loop
      vertex 68.2 7.071 20
      vertex 68.132 0.353 20
      vertex 0.422 7.771 20
    endloop
  endfacet
  facet normal 0 0 -1
    outer loop
      vertex 68.132 0.353 20
      vertex 0.353 1.054 20
      vertex 0.422 7.771 20
    endloop
  endfacet
  facet normal 0 0 -1
    outer loop
      vertex 63.506 115.251 20
      vertex 69.395 122.561 20
      vertex 66.415 115.562 20
    endloop
  endfacet
  facet normal -0.0469512 0.726804 0.685238
    outer loop
      vertex 0.809 7.796 20
      vertex 0.422 7.771 20
      vertex 0.809 7.40524 20.4145
    endloop
  endfacet
  facet normal -0.0470129 0.726802 0.685236
    outer loop
      vertex 0.809 7.40524 20.4145
      vertex 2.28949 6.00615 22
      vertex 0.809 7.796 20
    endloop
  endfacet
  facet normal -0.0470129 0.726802 0.685236
    outer loop
      vertex 0.809 7.796 20
      vertex 2.28949 6.00615 22
      vertex 3.298 6.07138 22
    endloop
  endfacet
  facet normal -0.0470129 0.726802 0.685236
    outer loop
      vertex 0.809 7.796 20
      vertex 3.298 6.07138 22
      vertex 3.298 7.957 20
    endloop
  endfacet
  facet normal 0 0 1
    outer loop
      vertex 2.28949 6.00615 22
      vertex 2.25779 2.91992 22
      vertex 66.2657 2.25792 22
    endloop
  endfacet
  facet normal 0 0 1
    outer loop
      vertex 64.6601 5.56761 22
      vertex 2.28949 6.00615 22
      vertex 66.2972 5.3783 22
    endloop
  endfacet
  facet normal 0 0 1
    outer loop
      vertex 66.2972 5.3783 22
      vertex 2.28949 6.00615 22
      vertex 66.2657 2.25792 22
    endloop
  endfacet
  facet normal 0 0 1
    outer loop
      vertex 61.5181 6.07061 22
      vertex 2.28949 6.00615 22
      vertex 64.6601 5.56761 22
    endloop
  endfacet
  facet normal 0 0 1
    outer loop
      vertex 60.8241 6.19861 22
      vertex 2.28949 6.00615 22
      vertex 61.5181 6.07061 22
    endloop
  endfacet
  facet normal 0 0 1
    outer loop
      vertex 60.1281 6.32761 22
      vertex 2.28949 6.00615 22
      vertex 60.8241 6.19861 22
    endloop
  endfacet
  facet normal 0 0 1
    outer loop
      vertex 57.2451 6.97861 22
      vertex 2.28949 6.00615 22
      vertex 60.1281 6.32761 22
    endloop
  endfacet
  facet normal 0 0 1
    outer loop
      vertex 56.8914 7.08592 22
      vertex 2.28949 6.00615 22
      vertex 57.2451 6.97861 22
    endloop
  endfacet
  facet normal 0 0 1
    outer loop
      vertex 54.7984 7.74192 22
      vertex 2.28949 6.00615 22
      vertex 56.8914 7.08592 22
    endloop
  endfacet
  facet normal 0 0 1
    outer loop
      vertex 54.4994 7.87392 22
      vertex 2.28949 6.00615 22
      vertex 54.7984 7.74192 22
    endloop
  endfacet
  facet normal 0 0 1
    outer loop
      vertex 54.1144 8.04092 22
      vertex 2.28949 6.00615 22
      vertex 54.4994 7.87392 22
    endloop
  endfacet
  facet normal 0 0 1
    outer loop
      vertex 53.0024 8.63092 22
      vertex 2.28949 6.00615 22
      vertex 54.1144 8.04092 22
    endloop
  endfacet
  facet normal 0 0 1
    outer loop
      vertex 52.6764 8.80517 22
      vertex 2.28949 6.00615 22
      vertex 53.0024 8.63092 22
    endloop
  endfacet
  facet normal 0 0 1
    outer loop
      vertex 3.298 6.07138 22
      vertex 2.28949 6.00615 22
      vertex 52.6764 8.80517 22
    endloop
  endfacet
  facet normal 0 0 1
    outer loop
      vertex 6.52 6.28238 22
      vertex 3.298 6.07138 22
      vertex 7.275 6.33138 22
    endloop
  endfacet
  facet normal 0 0 1
    outer loop
      vertex 11.4679 6.75961 22
      vertex 51.4444 9.66017 22
      vertex 51.1587 9.89467 22
    endloop
  endfacet
  facet normal 0 0 1
    outer loop
      vertex 11.4679 6.75961 22
      vertex 8.39587 6.41761 22
      vertex 51.4444 9.66017 22
    endloop
  endfacet
  facet normal 0 0 1
    outer loop
      vertex 13.6079 7.22461 22
      vertex 50.1917 10.8497 22
      vertex 49.9572 11.1354 22
    endloop
  endfacet
  facet normal 0 0 1
    outer loop
      vertex 14.6276 7.59292 22
      vertex 14.2516 7.44392 22
      vertex 49.3992 11.9104 22
    endloop
  endfacet
  facet normal 0 0 1
    outer loop
      vertex 13.6079 7.22461 22
      vertex 11.4679 6.75961 22
      vertex 50.1917 10.8497 22
    endloop
  endfacet
  facet normal 0 0 1
    outer loop
      vertex 15.7246 8.12592 22
      vertex 49.0809 12.5144 22
      vertex 48.8909 12.8824 22
    endloop
  endfacet
  facet normal 0 0 1
    outer loop
      vertex 15.7246 8.12592 22
      vertex 49.2249 12.2364 22
      vertex 49.0809 12.5144 22
    endloop
  endfacet
  facet normal 0 0 1
    outer loop
      vertex 17.2726 9.08717 22
      vertex 48.2339 14.9454 22
      vertex 48.1266 15.2991 22
    endloop
  endfacet
  facet normal 0 0 1
    outer loop
      vertex 18.5273 10.2137 22
      vertex 17.5583 9.32167 22
      vertex 47.8606 17.6601 22
    endloop
  endfacet
  facet normal 0 0 1
    outer loop
      vertex 18.7618 10.4994 22
      vertex 18.5273 10.2137 22
      vertex 47.8244 18.028 22
    endloop
  endfacet
  facet normal 0 0 1
    outer loop
      vertex 19.3308 11.2304 22
      vertex 18.7618 10.4994 22
      vertex 47.8304 18.544 22
    endloop
  endfacet
  facet normal 0 0 1
    outer loop
      vertex 17.2726 9.08717 22
      vertex 16.0506 8.30017 22
      vertex 48.2339 14.9454 22
    endloop
  endfacet
  facet normal 0 0 1
    outer loop
      vertex 15.7246 8.12592 22
      vertex 14.6276 7.59292 22
      vertex 49.2249 12.2364 22
    endloop
  endfacet
  facet normal 0 0 1
    outer loop
      vertex 50.1839 111.483 22
      vertex 49.8519 110.798 22
      vertex 50.0429 111.191 22
    endloop
  endfacet
  facet normal 0 0 1
    outer loop
      vertex 3.48233 121.356 22
      vertex 49.8519 110.798 22
      vertex 50.1839 111.483 22
    endloop
  endfacet
  facet normal 0 0 1
    outer loop
      vertex 3.48233 121.356 22
      vertex 50.1839 111.483 22
      vertex 50.3582 111.809 22
    endloop
  endfacet
  facet normal 0 0 1
    outer loop
      vertex 3.48233 121.356 22
      vertex 50.3582 111.809 22
      vertex 50.9272 112.617 22
    endloop
  endfacet
  facet normal 0 0 1
    outer loop
      vertex 3.48233 121.356 22
      vertex 50.9272 112.617 22
      vertex 51.1617 112.902 22
    endloop
  endfacet
  facet normal 0 0 1
    outer loop
      vertex 3.48233 121.356 22
      vertex 51.1617 112.902 22
      vertex 52.1507 113.842 22
    endloop
  endfacet
  facet normal 0 0 1
    outer loop
      vertex 3.48233 121.356 22
      vertex 52.1507 113.842 22
      vertex 52.4364 114.077 22
    endloop
  endfacet
  facet normal 0 0 1
    outer loop
      vertex 3.48233 121.356 22
      vertex 52.4364 114.077 22
      vertex 53.7044 114.858 22
    endloop
  endfacet
  facet normal 0 0 1
    outer loop
      vertex 3.48233 121.356 22
      vertex 53.7044 114.858 22
      vertex 54.0304 115.032 22
    endloop
  endfacet
  facet normal 0 0 1
    outer loop
      vertex 3.48233 121.356 22
      vertex 54.0304 115.032 22
      vertex 55.1814 115.527 22
    endloop
  endfacet
  facet normal 0 0 1
    outer loop
      vertex 67.4899 120.695 22
      vertex 55.1814 115.527 22
      vertex 55.5784 115.653 22
    endloop
  endfacet
  facet normal 0 0 1
    outer loop
      vertex 67.4899 120.695 22
      vertex 55.5784 115.653 22
      vertex 56.0244 115.793 22
    endloop
  endfacet
  facet normal 0 0 1
    outer loop
      vertex 67.4899 120.695 22
      vertex 56.0244 115.793 22
      vertex 56.3781 115.9 22
    endloop
  endfacet
  facet normal 0 0 1
    outer loop
      vertex 67.4899 120.695 22
      vertex 56.3781 115.9 22
      vertex 58.9101 116.494 22
    endloop
  endfacet
  facet normal 0 0 1
    outer loop
      vertex 67.4899 120.695 22
      vertex 58.9101 116.494 22
      vertex 61.8441 116.955 22
    endloop
  endfacet
  facet normal 0 0 1
    outer loop
      vertex 63.1381 117.1 22
      vertex 61.8441 116.955 22
      vertex 62.4911 117.027 22
    endloop
  endfacet
  facet normal 0 0 1
    outer loop
      vertex 67.4899 120.695 22
      vertex 61.8441 116.955 22
      vertex 63.1381 117.1 22
    endloop
  endfacet
  facet normal 0 0 1
    outer loop
      vertex 67.4899 120.695 22
      vertex 63.1381 117.1 22
      vertex 66.0471 117.411 22
    endloop
  endfacet
  facet normal 0 0 1
    outer loop
      vertex 67.4899 120.695 22
      vertex 66.0471 117.411 22
      vertex 66.415 117.448 22
    endloop
  endfacet
  facet normal 0 0 1
    outer loop
      vertex 67.4899 120.695 22
      vertex 66.415 117.448 22
      vertex 67.4572 117.55 22
    endloop
  endfacet
  facet normal 0 0 1
    outer loop
      vertex 3.48233 121.356 22
      vertex 55.1814 115.527 22
      vertex 67.4899 120.695 22
    endloop
  endfacet
  facet normal 0 0 1
    outer loop
      vertex 3.48233 121.356 22
      vertex 3.44993 118.156 22
      vertex 49.8519 110.798 22
    endloop
  endfacet
  facet normal 0 0 1
    outer loop
      vertex 3.44993 118.156 22
      vertex 5.11687 117.876 22
      vertex 49.8519 110.798 22
    endloop
  endfacet
  facet normal 0 0 1
    outer loop
      vertex 5.11687 117.876 22
      vertex 8.20387 117.231 22
      vertex 49.8519 110.798 22
    endloop
  endfacet
  facet normal 0 0 1
    outer loop
      vertex 8.20387 117.231 22
      vertex 8.87687 117.072 22
      vertex 49.8519 110.798 22
    endloop
  endfacet
  facet normal 0 0 1
    outer loop
      vertex 8.87687 117.072 22
      vertex 9.54987 116.915 22
      vertex 49.8519 110.798 22
    endloop
  endfacet
  facet normal 0 0 1
    outer loop
      vertex 9.54987 116.915 22
      vertex 12.4199 116.142 22
      vertex 49.8519 110.798 22
    endloop
  endfacet
  facet normal 0 0 1
    outer loop
      vertex 12.4199 116.142 22
      vertex 12.7736 116.035 22
      vertex 49.8519 110.798 22
    endloop
  endfacet
  facet normal 0 0 1
    outer loop
      vertex 12.7736 116.035 22
      vertex 14.9846 115.284 22
      vertex 49.8519 110.798 22
    endloop
  endfacet
  facet normal 0 0 1
    outer loop
      vertex 14.9846 115.284 22
      vertex 15.3276 115.137 22
      vertex 49.8519 110.798 22
    endloop
  endfacet
  facet normal 0 0 1
    outer loop
      vertex 15.3276 115.137 22
      vertex 15.7106 114.971 22
      vertex 49.8519 110.798 22
    endloop
  endfacet
  facet normal 0 0 1
    outer loop
      vertex 15.7106 114.971 22
      vertex 16.8216 114.379 22
      vertex 49.8519 110.798 22
    endloop
  endfacet
  facet normal 0 0 1
    outer loop
      vertex 16.8216 114.379 22
      vertex 17.1476 114.205 22
      vertex 49.8519 110.798 22
    endloop
  endfacet
  facet normal 0 0 1
    outer loop
      vertex 17.1476 114.205 22
      vertex 18.3706 113.342 22
      vertex 49.8519 110.798 22
    endloop
  endfacet
  facet normal 0 0 1
    outer loop
      vertex 18.3706 113.342 22
      vertex 18.6563 113.107 22
      vertex 49.8519 110.798 22
    endloop
  endfacet
  facet normal 0 0 1
    outer loop
      vertex 18.6563 113.107 22
      vertex 19.6103 112.138 22
      vertex 49.8519 110.798 22
    endloop
  endfacet
  facet normal 0 0 1
    outer loop
      vertex 19.6103 112.138 22
      vertex 19.8448 111.853 22
      vertex 49.8519 110.798 22
    endloop
  endfacet
  facet normal 0 0 1
    outer loop
      vertex 19.8448 111.853 22
      vertex 20.3908 111.065 22
      vertex 49.8519 110.798 22
    endloop
  endfacet
  facet normal 0 0 1
    outer loop
      vertex 20.3908 111.065 22
      vertex 20.5651 110.739 22
      vertex 49.8519 110.798 22
    endloop
  endfacet
  facet normal 0 0 1
    outer loop
      vertex 20.5651 110.739 22
      vertex 20.7041 110.454 22
      vertex 49.8519 110.798 22
    endloop
  endfacet
  facet normal 0 0 1
    outer loop
      vertex 20.7041 110.454 22
      vertex 20.8861 110.079 22
      vertex 49.8519 110.798 22
    endloop
  endfacet
  facet normal 0 0 1
    outer loop
      vertex 20.8861 110.079 22
      vertex 21.5171 108.034 22
      vertex 49.8519 110.798 22
    endloop
  endfacet
  facet normal 0 0 1
    outer loop
      vertex 21.5171 108.034 22
      vertex 21.6244 107.68 22
      vertex 49.8519 110.798 22
    endloop
  endfacet
  facet normal 0 0 1
    outer loop
      vertex 21.6244 107.68 22
      vertex 21.8804 105.41 22
      vertex 49.8519 110.798 22
    endloop
  endfacet
  facet normal 0 0 1
    outer loop
      vertex 21.8804 105.41 22
      vertex 21.9166 105.042 22
      vertex 49.8519 110.798 22
    endloop
  endfacet
  facet normal 0 0 1
    outer loop
      vertex 21.9166 105.042 22
      vertex 21.9126 104.553 22
      vertex 49.8519 110.798 22
    endloop
  endfacet
  facet normal 0 0 1
    outer loop
      vertex 48.7244 105.099 22
      vertex 21.0166 17.913 22
      vertex 47.8304 18.544 22
    endloop
  endfacet
  facet normal 0 0 1
    outer loop
      vertex 21.0166 17.913 22
      vertex 21.0116 17.369 22
      vertex 47.8304 18.544 22
    endloop
  endfacet
  facet normal 0 0 1
    outer loop
      vertex 21.0116 17.369 22
      vertex 20.9754 17.0011 22
      vertex 47.8304 18.544 22
    endloop
  endfacet
  facet normal 0 0 1
    outer loop
      vertex 20.9754 17.0011 22
      vertex 20.6584 14.5671 22
      vertex 47.8304 18.544 22
    endloop
  endfacet
  facet normal 0 0 1
    outer loop
      vertex 20.6584 14.5671 22
      vertex 20.5511 14.2134 22
      vertex 47.8304 18.544 22
    endloop
  endfacet
  facet normal 0 0 1
    outer loop
      vertex 20.5511 14.2134 22
      vertex 19.8521 12.1714 22
      vertex 47.8304 18.544 22
    endloop
  endfacet
  facet normal 0 0 1
    outer loop
      vertex 19.8521 12.1714 22
      vertex 19.6778 11.8454 22
      vertex 47.8304 18.544 22
    endloop
  endfacet
  facet normal 0 0 1
    outer loop
      vertex 19.6778 11.8454 22
      vertex 19.4808 11.4954 22
      vertex 47.8304 18.544 22
    endloop
  endfacet
  facet normal 0 0 1
    outer loop
      vertex 19.4808 11.4954 22
      vertex 19.3308 11.2304 22
      vertex 47.8304 18.544 22
    endloop
  endfacet
  facet normal 0 0 1
    outer loop
      vertex 47.8304 18.544 22
      vertex 18.7618 10.4994 22
      vertex 47.8244 18.028 22
    endloop
  endfacet
  facet normal 0 0 1
    outer loop
      vertex 47.8244 18.028 22
      vertex 18.5273 10.2137 22
      vertex 47.8606 17.6601 22
    endloop
  endfacet
  facet normal 0 0 1
    outer loop
      vertex 47.8606 17.6601 22
      vertex 17.5583 9.32167 22
      vertex 48.1266 15.2991 22
    endloop
  endfacet
  facet normal 0 0 1
    outer loop
      vertex 17.5583 9.32167 22
      vertex 17.2726 9.08717 22
      vertex 48.1266 15.2991 22
    endloop
  endfacet
  facet normal 0 0 1
    outer loop
      vertex 48.2339 14.9454 22
      vertex 16.0506 8.30017 22
      vertex 48.8909 12.8824 22
    endloop
  endfacet
  facet normal 0 0 1
    outer loop
      vertex 16.0506 8.30017 22
      vertex 15.7246 8.12592 22
      vertex 48.8909 12.8824 22
    endloop
  endfacet
  facet normal 0 0 1
    outer loop
      vertex 49.2249 12.2364 22
      vertex 14.6276 7.59292 22
      vertex 49.3992 11.9104 22
    endloop
  endfacet
  facet normal 0 0 1
    outer loop
      vertex 49.3992 11.9104 22
      vertex 14.2516 7.44392 22
      vertex 49.9572 11.1354 22
    endloop
  endfacet
  facet normal 0 0 1
    outer loop
      vertex 14.2516 7.44392 22
      vertex 13.9616 7.33192 22
      vertex 49.9572 11.1354 22
    endloop
  endfacet
  facet normal 0 0 1
    outer loop
      vertex 13.9616 7.33192 22
      vertex 13.6079 7.22461 22
      vertex 49.9572 11.1354 22
    endloop
  endfacet
  facet normal 0 0 1
    outer loop
      vertex 50.1917 10.8497 22
      vertex 11.4679 6.75961 22
      vertex 51.1587 9.89467 22
    endloop
  endfacet
  facet normal 0 0 1
    outer loop
      vertex 51.4444 9.66017 22
      vertex 8.39587 6.41761 22
      vertex 52.6764 8.80517 22
    endloop
  endfacet
  facet normal 0 0 1
    outer loop
      vertex 8.39587 6.41761 22
      vertex 8.028 6.38138 22
      vertex 52.6764 8.80517 22
    endloop
  endfacet
  facet normal 0 0 1
    outer loop
      vertex 8.028 6.38138 22
      vertex 7.275 6.33138 22
      vertex 52.6764 8.80517 22
    endloop
  endfacet
  facet normal 0 0 1
    outer loop
      vertex 7.275 6.33138 22
      vertex 3.298 6.07138 22
      vertex 52.6764 8.80517 22
    endloop
  endfacet
  facet normal 0 0 1
    outer loop
      vertex 21.9126 104.553 22
      vertex 49.1769 108.671 22
      vertex 49.8519 110.798 22
    endloop
  endfacet
  facet normal 0 0 1
    outer loop
      vertex 21.9126 104.553 22
      vertex 49.0696 108.317 22
      vertex 49.1769 108.671 22
    endloop
  endfacet
  facet normal 0 0 1
    outer loop
      vertex 21.9126 104.553 22
      vertex 48.7646 105.97 22
      vertex 49.0696 108.317 22
    endloop
  endfacet
  facet normal 0 0 1
    outer loop
      vertex 21.9126 104.553 22
      vertex 48.7284 105.602 22
      vertex 48.7646 105.97 22
    endloop
  endfacet
  facet normal 0 0 1
    outer loop
      vertex 21.9126 104.553 22
      vertex 48.7244 105.099 22
      vertex 48.7284 105.602 22
    endloop
  endfacet
  facet normal 0 0 1
    outer loop
      vertex 21.9126 104.553 22
      vertex 21.0166 17.913 22
      vertex 48.7244 105.099 22
    endloop
  endfacet
  facet normal 0.727587 -0.00736468 0.685976
    outer loop
      vertex 66.2972 5.3783 22
      vertex 66.2657 2.25792 22
      vertex 68.132 0.353 20
    endloop
  endfacet
  facet normal 0.727587 -0.00736468 0.685976
    outer loop
      vertex 67.6124 6.53405 20.6174
      vertex 66.2972 5.3783 22
      vertex 68.132 0.353 20
    endloop
  endfacet
  facet normal 0.727587 -0.00736468 0.685976
    outer loop
      vertex 68.2 7.071 20
      vertex 67.726 6.63541 20.4981
      vertex 68.132 0.353 20
    endloop
  endfacet
  facet normal 0.727587 -0.00736468 0.685976
    outer loop
      vertex 67.726 6.63541 20.4981
      vertex 67.6124 6.53405 20.6174
      vertex 68.132 0.353 20
    endloop
  endfacet
  facet normal 0.0521203 0.726618 0.685062
    outer loop
      vertex 67.726 7.105 20
      vertex 67.726 6.63541 20.4981
      vertex 68.2 7.071 20
    endloop
  endfacet
  facet normal 0.0714791 0.725746 0.68424
    outer loop
      vertex 67.726 7.105 20
      vertex 67.6124 6.53405 20.6174
      vertex 67.726 6.63541 20.4981
    endloop
  endfacet
  facet normal 0.0837141 0.723912 0.684794
    outer loop
      vertex 64.6601 5.56761 22
      vertex 66.2972 5.3783 22
      vertex 65.028 7.417 20
    endloop
  endfacet
  facet normal 0.0837141 0.723912 0.684794
    outer loop
      vertex 65.028 7.417 20
      vertex 66.2972 5.3783 22
      vertex 67.6124 6.53405 20.6174
    endloop
  endfacet
  facet normal 0.0837141 0.723912 0.684794
    outer loop
      vertex 65.028 7.417 20
      vertex 67.6124 6.53405 20.6174
      vertex 67.726 7.105 20
    endloop
  endfacet
  facet normal 0.115056 0.718698 0.685737
    outer loop
      vertex 61.5181 6.07061 22
      vertex 64.6601 5.56761 22
      vertex 61.886 7.92 20
    endloop
  endfacet
  facet normal 0.115056 0.718698 0.685737
    outer loop
      vertex 61.886 7.92 20
      vertex 64.6601 5.56761 22
      vertex 65.028 7.417 20
    endloop
  endfacet
  facet normal 0.131979 0.715571 0.685959
    outer loop
      vertex 60.8241 6.19861 22
      vertex 61.5181 6.07061 22
      vertex 61.192 8.048 20
    endloop
  endfacet
  facet normal 0.131979 0.715571 0.685959
    outer loop
      vertex 61.192 8.048 20
      vertex 61.5181 6.07061 22
      vertex 61.886 7.92 20
    endloop
  endfacet
  facet normal 0.132605 0.715451 0.685963
    outer loop
      vertex 60.1281 6.32761 22
      vertex 60.8241 6.19861 22
      vertex 60.496 8.177 20
    endloop
  endfacet
  facet normal 0.132605 0.715451 0.685963
    outer loop
      vertex 60.496 8.177 20
      vertex 60.8241 6.19861 22
      vertex 61.192 8.048 20
    endloop
  endfacet
  facet normal 0.160288 0.709848 0.685874
    outer loop
      vertex 57.2451 6.97861 22
      vertex 60.1281 6.32761 22
      vertex 57.613 8.828 20
    endloop
  endfacet
  facet normal 0.160288 0.709848 0.685874
    outer loop
      vertex 57.613 8.828 20
      vertex 60.1281 6.32761 22
      vertex 60.496 8.177 20
    endloop
  endfacet
  facet normal 0.211693 0.697856 0.68424
    outer loop
      vertex 57.613 8.828 20
      vertex 56.8914 7.08592 22
      vertex 57.2451 6.97861 22
    endloop
  endfacet
  facet normal 0.218018 0.695596 0.684554
    outer loop
      vertex 54.7984 7.74192 22
      vertex 56.8914 7.08592 22
      vertex 55.52 9.484 20
    endloop
  endfacet
  facet normal 0.218018 0.695596 0.684554
    outer loop
      vertex 55.52 9.484 20
      vertex 56.8914 7.08592 22
      vertex 57.613 8.828 20
    endloop
  endfacet
  facet normal 0.293893 0.665711 0.685898
    outer loop
      vertex 55.221 9.616 20
      vertex 54.4994 7.87392 22
      vertex 54.7984 7.74192 22
    endloop
  endfacet
  facet normal 0.293893 0.665711 0.685898
    outer loop
      vertex 55.52 9.484 20
      vertex 55.221 9.616 20
      vertex 54.7984 7.74192 22
    endloop
  endfacet
  facet normal 0.289564 0.667557 0.685944
    outer loop
      vertex 54.836 9.783 20
      vertex 54.1144 8.04092 22
      vertex 54.4994 7.87392 22
    endloop
  endfacet
  facet normal 0.289564 0.667557 0.685944
    outer loop
      vertex 55.221 9.616 20
      vertex 54.836 9.783 20
      vertex 54.4994 7.87392 22
    endloop
  endfacet
  facet normal 0.341748 0.644109 0.684348
    outer loop
      vertex 53.724 10.373 20
      vertex 53.0024 8.63092 22
      vertex 54.1144 8.04092 22
    endloop
  endfacet
  facet normal 0.341748 0.644109 0.684348
    outer loop
      vertex 54.836 9.783 20
      vertex 53.724 10.373 20
      vertex 54.1144 8.04092 22
    endloop
  endfacet
  facet normal 0.34377 0.643147 0.68424
    outer loop
      vertex 53.724 10.373 20
      vertex 52.6764 8.80517 22
      vertex 53.0024 8.63092 22
    endloop
  endfacet
  facet normal 0.414872 0.597804 0.685938
    outer loop
      vertex 52.492 11.228 20
      vertex 51.4444 9.66017 22
      vertex 52.6764 8.80517 22
    endloop
  endfacet
  facet normal 0.414872 0.597804 0.685938
    outer loop
      vertex 53.724 10.373 20
      vertex 52.492 11.228 20
      vertex 52.6764 8.80517 22
    endloop
  endfacet
  facet normal 0.462636 0.563724 0.68424
    outer loop
      vertex 52.492 11.228 20
      vertex 51.1587 9.89467 22
      vertex 51.4444 9.66017 22
    endloop
  endfacet
  facet normal 0.511278 0.517703 0.685987
    outer loop
      vertex 51.525 12.183 20
      vertex 50.1917 10.8497 22
      vertex 51.1587 9.89467 22
    endloop
  endfacet
  facet normal 0.511278 0.517703 0.685987
    outer loop
      vertex 52.492 11.228 20
      vertex 51.525 12.183 20
      vertex 51.1587 9.89467 22
    endloop
  endfacet
  facet normal 0.563724 0.462636 0.68424
    outer loop
      vertex 51.525 12.183 20
      vertex 49.9572 11.1354 22
      vertex 50.1917 10.8497 22
    endloop
  endfacet
  facet normal 0.590648 0.425267 0.685772
    outer loop
      vertex 50.967 12.958 20
      vertex 49.3992 11.9104 22
      vertex 49.9572 11.1354 22
    endloop
  endfacet
  facet normal 0.590648 0.425267 0.685772
    outer loop
      vertex 51.525 12.183 20
      vertex 50.967 12.958 20
      vertex 49.9572 11.1354 22
    endloop
  endfacet
  facet normal 0.643147 0.34377 0.68424
    outer loop
      vertex 50.967 12.958 20
      vertex 49.2249 12.2364 22
      vertex 49.3992 11.9104 22
    endloop
  endfacet
  facet normal 0.647181 0.335231 0.684673
    outer loop
      vertex 50.823 13.236 20
      vertex 49.0809 12.5144 22
      vertex 49.2249 12.2364 22
    endloop
  endfacet
  facet normal 0.647181 0.335231 0.684673
    outer loop
      vertex 50.967 12.958 20
      vertex 50.823 13.236 20
      vertex 49.2249 12.2364 22
    endloop
  endfacet
  facet normal 0.647591 0.334354 0.684713
    outer loop
      vertex 50.633 13.604 20
      vertex 48.8909 12.8824 22
      vertex 49.0809 12.5144 22
    endloop
  endfacet
  facet normal 0.647591 0.334354 0.684713
    outer loop
      vertex 50.823 13.236 20
      vertex 50.633 13.604 20
      vertex 49.0809 12.5144 22
    endloop
  endfacet
  facet normal 0.69446 0.221163 0.684699
    outer loop
      vertex 49.976 15.667 20
      vertex 48.2339 14.9454 22
      vertex 48.8909 12.8824 22
    endloop
  endfacet
  facet normal 0.69446 0.221163 0.684699
    outer loop
      vertex 50.633 13.604 20
      vertex 49.976 15.667 20
      vertex 48.8909 12.8824 22
    endloop
  endfacet
  facet normal 0.697856 0.211693 0.68424
    outer loop
      vertex 49.976 15.667 20
      vertex 48.1266 15.2991 22
      vertex 48.2339 14.9454 22
    endloop
  endfacet
  facet normal 0.724238 0.0815956 0.684706
    outer loop
      vertex 49.71 18.028 20
      vertex 47.8606 17.6601 22
      vertex 48.1266 15.2991 22
    endloop
  endfacet
  facet normal 0.724238 0.0815956 0.684706
    outer loop
      vertex 49.976 15.667 20
      vertex 49.71 18.028 20
      vertex 48.1266 15.2991 22
    endloop
  endfacet
  facet normal 0.725746 0.0714791 0.68424
    outer loop
      vertex 49.71 18.028 20
      vertex 47.8244 18.028 22
      vertex 47.8606 17.6601 22
    endloop
  endfacet
  facet normal 0.727581 -0.00846024 0.68597
    outer loop
      vertex 47.8304 18.544 22
      vertex 47.8244 18.028 22
      vertex 49.71 18.028 20
    endloop
  endfacet
  facet normal 0.727581 -0.00846024 0.68597
    outer loop
      vertex 49.716 18.544 20
      vertex 47.8304 18.544 22
      vertex 49.71 18.028 20
    endloop
  endfacet
  facet normal 0.727586 -0.00751502 0.685975
    outer loop
      vertex 48.7244 105.099 22
      vertex 47.8304 18.544 22
      vertex 49.716 18.544 20
    endloop
  endfacet
  facet normal 0.727586 -0.00751502 0.685975
    outer loop
      vertex 50.61 105.099 20
      vertex 48.7244 105.099 22
      vertex 49.716 18.544 20
    endloop
  endfacet
  facet normal 0.727595 -0.00578604 0.685983
    outer loop
      vertex 48.7284 105.602 22
      vertex 48.7244 105.099 22
      vertex 50.61 105.099 20
    endloop
  endfacet
  facet normal 0.727595 -0.00578604 0.685983
    outer loop
      vertex 50.614 105.602 20
      vertex 48.7284 105.602 22
      vertex 50.61 105.099 20
    endloop
  endfacet
  facet normal 0.725746 -0.0714791 0.68424
    outer loop
      vertex 48.7646 105.97 22
      vertex 48.7284 105.602 22
      vertex 50.614 105.602 20
    endloop
  endfacet
  facet normal 0.722305 -0.0938658 0.685175
    outer loop
      vertex 49.0696 108.317 22
      vertex 48.7646 105.97 22
      vertex 50.614 105.602 20
    endloop
  endfacet
  facet normal 0.722305 -0.0938658 0.685175
    outer loop
      vertex 50.919 107.949 20
      vertex 49.0696 108.317 22
      vertex 50.614 105.602 20
    endloop
  endfacet
  facet normal 0.697856 -0.211693 0.68424
    outer loop
      vertex 49.1769 108.671 22
      vertex 49.0696 108.317 22
      vertex 50.919 107.949 20
    endloop
  endfacet
  facet normal 0.694713 -0.220466 0.684667
    outer loop
      vertex 49.8519 110.798 22
      vertex 49.1769 108.671 22
      vertex 50.919 107.949 20
    endloop
  endfacet
  facet normal 0.694713 -0.220466 0.684667
    outer loop
      vertex 51.594 110.076 20
      vertex 49.8519 110.798 22
      vertex 50.919 107.949 20
    endloop
  endfacet
  facet normal 0.654962 -0.318315 0.685347
    outer loop
      vertex 50.0429 111.191 22
      vertex 49.8519 110.798 22
      vertex 51.594 110.076 20
    endloop
  endfacet
  facet normal 0.654962 -0.318315 0.685347
    outer loop
      vertex 51.785 110.469 20
      vertex 50.0429 111.191 22
      vertex 51.594 110.076 20
    endloop
  endfacet
  facet normal 0.655721 -0.316632 0.685401
    outer loop
      vertex 50.1839 111.483 22
      vertex 50.0429 111.191 22
      vertex 51.785 110.469 20
    endloop
  endfacet
  facet normal 0.655721 -0.316632 0.685401
    outer loop
      vertex 51.926 110.761 20
      vertex 50.1839 111.483 22
      vertex 51.785 110.469 20
    endloop
  endfacet
  facet normal 0.643147 -0.34377 0.68424
    outer loop
      vertex 50.3582 111.809 22
      vertex 50.1839 111.483 22
      vertex 51.926 110.761 20
    endloop
  endfacet
  facet normal 0.594984 -0.418993 0.685885
    outer loop
      vertex 50.9272 112.617 22
      vertex 50.3582 111.809 22
      vertex 51.926 110.761 20
    endloop
  endfacet
  facet normal 0.594984 -0.418993 0.685885
    outer loop
      vertex 52.495 111.569 20
      vertex 50.9272 112.617 22
      vertex 51.926 110.761 20
    endloop
  endfacet
  facet normal 0.563724 -0.462636 0.68424
    outer loop
      vertex 51.1617 112.902 22
      vertex 50.9272 112.617 22
      vertex 52.495 111.569 20
    endloop
  endfacet
  facet normal 0.501341 -0.527475 0.685877
    outer loop
      vertex 52.1507 113.842 22
      vertex 51.1617 112.902 22
      vertex 52.495 111.569 20
    endloop
  endfacet
  facet normal 0.501341 -0.527475 0.685877
    outer loop
      vertex 53.484 112.509 20
      vertex 52.1507 113.842 22
      vertex 52.495 111.569 20
    endloop
  endfacet
  facet normal 0.462636 -0.563724 0.68424
    outer loop
      vertex 52.4364 114.077 22
      vertex 52.1507 113.842 22
      vertex 53.484 112.509 20
    endloop
  endfacet
  facet normal 0.381705 -0.619721 0.685746
    outer loop
      vertex 53.7044 114.858 22
      vertex 52.4364 114.077 22
      vertex 53.484 112.509 20
    endloop
  endfacet
  facet normal 0.381705 -0.619721 0.685746
    outer loop
      vertex 54.752 113.29 20
      vertex 53.7044 114.858 22
      vertex 53.484 112.509 20
    endloop
  endfacet
  facet normal 0.34377 -0.643147 0.68424
    outer loop
      vertex 54.0304 115.032 22
      vertex 53.7044 114.858 22
      vertex 54.752 113.29 20
    endloop
  endfacet
  facet normal 0.287471 -0.668444 0.685961
    outer loop
      vertex 55.1814 115.527 22
      vertex 54.0304 115.032 22
      vertex 54.752 113.29 20
    endloop
  endfacet
  facet normal 0.287471 -0.668444 0.685961
    outer loop
      vertex 55.903 113.785 20
      vertex 55.1814 115.527 22
      vertex 54.752 113.29 20
    endloop
  endfacet
  facet normal 0.220486 -0.694705 0.684668
    outer loop
      vertex 55.5784 115.653 22
      vertex 55.1814 115.527 22
      vertex 55.903 113.785 20
    endloop
  endfacet
  facet normal 0.220486 -0.694705 0.684668
    outer loop
      vertex 56.3 113.911 20
      vertex 55.5784 115.653 22
      vertex 55.903 113.785 20
    endloop
  endfacet
  facet normal 0.218315 -0.695489 0.684568
    outer loop
      vertex 56.0244 115.793 22
      vertex 55.5784 115.653 22
      vertex 56.3 113.911 20
    endloop
  endfacet
  facet normal 0.218315 -0.695489 0.684568
    outer loop
      vertex 56.746 114.051 20
      vertex 56.0244 115.793 22
      vertex 56.3 113.911 20
    endloop
  endfacet
  facet normal 0.211693 -0.697856 0.68424
    outer loop
      vertex 56.3781 115.9 22
      vertex 56.0244 115.793 22
      vertex 56.746 114.051 20
    endloop
  endfacet
  facet normal 0.166228 -0.708568 0.685783
    outer loop
      vertex 58.9101 116.494 22
      vertex 56.3781 115.9 22
      vertex 56.746 114.051 20
    endloop
  endfacet
  facet normal 0.166228 -0.708568 0.685783
    outer loop
      vertex 59.278 114.645 20
      vertex 58.9101 116.494 22
      vertex 56.746 114.051 20
    endloop
  endfacet
  facet normal 0.112982 -0.719066 0.685696
    outer loop
      vertex 61.8441 116.955 22
      vertex 58.9101 116.494 22
      vertex 59.278 114.645 20
    endloop
  endfacet
  facet normal 0.112982 -0.719066 0.685696
    outer loop
      vertex 62.212 115.106 20
      vertex 61.8441 116.955 22
      vertex 59.278 114.645 20
    endloop
  endfacet
  facet normal 0.0806119 -0.724388 0.684664
    outer loop
      vertex 62.4911 117.027 22
      vertex 61.8441 116.955 22
      vertex 62.212 115.106 20
    endloop
  endfacet
  facet normal 0.0806119 -0.724388 0.684664
    outer loop
      vertex 62.859 115.178 20
      vertex 62.4911 117.027 22
      vertex 62.212 115.106 20
    endloop
  endfacet
  facet normal 0.0817126 -0.72422 0.684711
    outer loop
      vertex 63.1381 117.1 22
      vertex 62.4911 117.027 22
      vertex 62.859 115.178 20
    endloop
  endfacet
  facet normal 0.0817126 -0.72422 0.684711
    outer loop
      vertex 63.506 115.251 20
      vertex 63.1381 117.1 22
      vertex 62.859 115.178 20
    endloop
  endfacet
  facet normal 0.0774943 -0.724858 0.684525
    outer loop
      vertex 66.0471 117.411 22
      vertex 63.1381 117.1 22
      vertex 63.506 115.251 20
    endloop
  endfacet
  facet normal 0.0774943 -0.724858 0.684525
    outer loop
      vertex 66.415 115.562 20
      vertex 66.0471 117.411 22
      vertex 63.506 115.251 20
    endloop
  endfacet
  facet normal 0.0714791 -0.725746 0.68424
    outer loop
      vertex 66.415 117.448 22
      vertex 66.0471 117.411 22
      vertex 66.415 115.562 20
    endloop
  endfacet
  facet normal 0.0711418 -0.725763 0.684256
    outer loop
      vertex 66.415 117.448 22
      vertex 66.415 115.562 20
      vertex 68.894 115.805 20
    endloop
  endfacet
  facet normal 0.0711418 -0.725763 0.684256
    outer loop
      vertex 67.4572 117.55 22
      vertex 66.415 117.448 22
      vertex 68.894 116.24 20.4615
    endloop
  endfacet
  facet normal 0.0711418 -0.725763 0.684256
    outer loop
      vertex 68.894 116.24 20.4615
      vertex 66.415 117.448 22
      vertex 68.894 115.805 20
    endloop
  endfacet
  facet normal 0.0640194 -0.726114 0.684587
    outer loop
      vertex 68.894 116.24 20.4615
      vertex 68.894 115.805 20
      vertex 69.325 115.843 20
    endloop
  endfacet
  facet normal 0.727586 -0.00758128 0.685975
    outer loop
      vertex 67.4899 120.695 22
      vertex 67.4572 117.55 22
      vertex 68.894 116.24 20.4615
    endloop
  endfacet
  facet normal 0.727586 -0.00758128 0.685975
    outer loop
      vertex 69.325 115.843 20
      vertex 67.4899 120.695 22
      vertex 68.894 116.24 20.4615
    endloop
  endfacet
  facet normal 0.727586 -0.00758128 0.685975
    outer loop
      vertex 69.325 115.843 20
      vertex 69.395 122.561 20
      vertex 67.4899 120.695 22
    endloop
  endfacet
  facet normal 0.00751428 0.727586 0.685975
    outer loop
      vertex 1.616 123.261 20
      vertex 3.48233 121.356 22
      vertex 69.395 122.561 20
    endloop
  endfacet
  facet normal 0.00751428 0.727586 0.685975
    outer loop
      vertex 69.395 122.561 20
      vertex 3.48233 121.356 22
      vertex 67.4899 120.695 22
    endloop
  endfacet
  facet normal -0.727587 0.00736687 0.685976
    outer loop
      vertex 1.548 116.545 20
      vertex 2.15051 117.069 20.6334
      vertex 1.616 123.261 20
    endloop
  endfacet
  facet normal -0.727587 0.00736687 0.685976
    outer loop
      vertex 1.616 123.261 20
      vertex 2.15051 117.069 20.6334
      vertex 3.44993 118.156 22
    endloop
  endfacet
  facet normal -0.727587 0.00736687 0.685976
    outer loop
      vertex 1.616 123.261 20
      vertex 3.44993 118.156 22
      vertex 3.48233 121.356 22
    endloop
  endfacet
  facet normal -0.0921806 -0.722577 0.685117
    outer loop
      vertex 2.15051 117.069 20.6334
      vertex 1.548 116.545 20
      vertex 2.034 116.483 20
    endloop
  endfacet
  facet normal -0.120543 -0.717708 0.685831
    outer loop
      vertex 2.15051 117.069 20.6334
      vertex 2.034 116.483 20
      vertex 4.749 116.027 20
    endloop
  endfacet
  facet normal -0.120543 -0.717708 0.685831
    outer loop
      vertex 3.44993 118.156 22
      vertex 2.15051 117.069 20.6334
      vertex 5.11687 117.876 22
    endloop
  endfacet
  facet normal -0.120543 -0.717708 0.685831
    outer loop
      vertex 5.11687 117.876 22
      vertex 2.15051 117.069 20.6334
      vertex 4.749 116.027 20
    endloop
  endfacet
  facet normal -0.148816 -0.712242 0.685978
    outer loop
      vertex 5.11687 117.876 22
      vertex 4.749 116.027 20
      vertex 7.836 115.382 20
    endloop
  endfacet
  facet normal -0.148816 -0.712242 0.685978
    outer loop
      vertex 8.20387 117.231 22
      vertex 5.11687 117.876 22
      vertex 7.836 115.382 20
    endloop
  endfacet
  facet normal -0.167346 -0.708325 0.685763
    outer loop
      vertex 8.20387 117.231 22
      vertex 7.836 115.382 20
      vertex 8.509 115.223 20
    endloop
  endfacet
  facet normal -0.167346 -0.708325 0.685763
    outer loop
      vertex 8.87687 117.072 22
      vertex 8.20387 117.231 22
      vertex 8.509 115.223 20
    endloop
  endfacet
  facet normal -0.165342 -0.708761 0.685799
    outer loop
      vertex 8.87687 117.072 22
      vertex 8.509 115.223 20
      vertex 9.182 115.066 20
    endloop
  endfacet
  facet normal -0.165342 -0.708761 0.685799
    outer loop
      vertex 9.54987 116.915 22
      vertex 8.87687 117.072 22
      vertex 9.182 115.066 20
    endloop
  endfacet
  facet normal -0.189427 -0.703306 0.685184
    outer loop
      vertex 9.54987 116.915 22
      vertex 9.182 115.066 20
      vertex 12.052 114.293 20
    endloop
  endfacet
  facet normal -0.189427 -0.703306 0.685184
    outer loop
      vertex 12.4199 116.142 22
      vertex 9.54987 116.915 22
      vertex 12.052 114.293 20
    endloop
  endfacet
  facet normal -0.211693 -0.697856 0.68424
    outer loop
      vertex 12.4199 116.142 22
      vertex 12.052 114.293 20
      vertex 12.7736 116.035 22
    endloop
  endfacet
  facet normal -0.234246 -0.689639 0.68522
    outer loop
      vertex 12.7736 116.035 22
      vertex 12.052 114.293 20
      vertex 14.263 113.542 20
    endloop
  endfacet
  facet normal -0.234246 -0.689639 0.68522
    outer loop
      vertex 14.9846 115.284 22
      vertex 12.7736 116.035 22
      vertex 14.263 113.542 20
    endloop
  endfacet
  facet normal -0.286628 -0.6688 0.685967
    outer loop
      vertex 14.9846 115.284 22
      vertex 14.263 113.542 20
      vertex 14.606 113.395 20
    endloop
  endfacet
  facet normal -0.286628 -0.6688 0.685967
    outer loop
      vertex 15.3276 115.137 22
      vertex 14.9846 115.284 22
      vertex 14.606 113.395 20
    endloop
  endfacet
  facet normal -0.289369 -0.66764 0.685946
    outer loop
      vertex 15.3276 115.137 22
      vertex 14.606 113.395 20
      vertex 14.989 113.229 20
    endloop
  endfacet
  facet normal -0.289369 -0.66764 0.685946
    outer loop
      vertex 15.7106 114.971 22
      vertex 15.3276 115.137 22
      vertex 14.989 113.229 20
    endloop
  endfacet
  facet normal -0.342919 -0.643552 0.684286
    outer loop
      vertex 15.7106 114.971 22
      vertex 14.989 113.229 20
      vertex 16.1 112.637 20
    endloop
  endfacet
  facet normal -0.342919 -0.643552 0.684286
    outer loop
      vertex 16.8216 114.379 22
      vertex 15.7106 114.971 22
      vertex 16.1 112.637 20
    endloop
  endfacet
  facet normal -0.34377 -0.643147 0.68424
    outer loop
      vertex 16.8216 114.379 22
      vertex 16.1 112.637 20
      vertex 17.1476 114.205 22
    endloop
  endfacet
  facet normal -0.419567 -0.594589 0.685877
    outer loop
      vertex 17.1476 114.205 22
      vertex 16.1 112.637 20
      vertex 17.323 111.774 20
    endloop
  endfacet
  facet normal -0.419567 -0.594589 0.685877
    outer loop
      vertex 18.3706 113.342 22
      vertex 17.1476 114.205 22
      vertex 17.323 111.774 20
    endloop
  endfacet
  facet normal -0.462636 -0.563724 0.68424
    outer loop
      vertex 18.3706 113.342 22
      vertex 17.323 111.774 20
      vertex 18.6563 113.107 22
    endloop
  endfacet
  facet normal -0.518501 -0.510474 0.685983
    outer loop
      vertex 18.6563 113.107 22
      vertex 17.323 111.774 20
      vertex 18.277 110.805 20
    endloop
  endfacet
  facet normal -0.518501 -0.510474 0.685983
    outer loop
      vertex 19.6103 112.138 22
      vertex 18.6563 113.107 22
      vertex 18.277 110.805 20
    endloop
  endfacet
  facet normal -0.563724 -0.462636 0.68424
    outer loop
      vertex 19.6103 112.138 22
      vertex 18.277 110.805 20
      vertex 19.8448 111.853 22
    endloop
  endfacet
  facet normal -0.598109 -0.414426 0.685943
    outer loop
      vertex 19.8448 111.853 22
      vertex 18.277 110.805 20
      vertex 18.823 110.017 20
    endloop
  endfacet
  facet normal -0.598109 -0.414426 0.685943
    outer loop
      vertex 20.3908 111.065 22
      vertex 19.8448 111.853 22
      vertex 18.823 110.017 20
    endloop
  endfacet
  facet normal -0.643147 -0.34377 0.68424
    outer loop
      vertex 20.3908 111.065 22
      vertex 18.823 110.017 20
      vertex 20.5651 110.739 22
    endloop
  endfacet
  facet normal -0.654546 -0.319235 0.685316
    outer loop
      vertex 20.5651 110.739 22
      vertex 18.823 110.017 20
      vertex 18.962 109.732 20
    endloop
  endfacet
  facet normal -0.654546 -0.319235 0.685316
    outer loop
      vertex 20.7041 110.454 22
      vertex 20.5651 110.739 22
      vertex 18.962 109.732 20
    endloop
  endfacet
  facet normal -0.655125 -0.317954 0.685358
    outer loop
      vertex 20.7041 110.454 22
      vertex 18.962 109.732 20
      vertex 19.144 109.357 20
    endloop
  endfacet
  facet normal -0.655125 -0.317954 0.685358
    outer loop
      vertex 20.8861 110.079 22
      vertex 20.7041 110.454 22
      vertex 19.144 109.357 20
    endloop
  endfacet
  facet normal -0.69669 -0.214969 0.684406
    outer loop
      vertex 19.144 109.357 20
      vertex 19.775 107.312 20
      vertex 20.8861 110.079 22
    endloop
  endfacet
  facet normal -0.69669 -0.214969 0.684406
    outer loop
      vertex 20.8861 110.079 22
      vertex 19.775 107.312 20
      vertex 21.5171 108.034 22
    endloop
  endfacet
  facet normal -0.697856 -0.211693 0.68424
    outer loop
      vertex 21.5171 108.034 22
      vertex 19.775 107.312 20
      vertex 21.6244 107.68 22
    endloop
  endfacet
  facet normal -0.724225 -0.0816748 0.684709
    outer loop
      vertex 19.775 107.312 20
      vertex 20.031 105.042 20
      vertex 21.6244 107.68 22
    endloop
  endfacet
  facet normal -0.724225 -0.0816748 0.684709
    outer loop
      vertex 21.6244 107.68 22
      vertex 20.031 105.042 20
      vertex 21.8804 105.41 22
    endloop
  endfacet
  facet normal -0.725746 -0.0714791 0.68424
    outer loop
      vertex 21.8804 105.41 22
      vertex 20.031 105.042 20
      vertex 21.9166 105.042 22
    endloop
  endfacet
  facet normal -0.727594 0.00595169 0.685982
    outer loop
      vertex 20.027 104.553 20
      vertex 21.9126 104.553 22
      vertex 20.031 105.042 20
    endloop
  endfacet
  facet normal -0.727594 0.00595169 0.685982
    outer loop
      vertex 20.031 105.042 20
      vertex 21.9126 104.553 22
      vertex 21.9166 105.042 22
    endloop
  endfacet
  facet normal -0.727586 0.00752444 0.685975
    outer loop
      vertex 19.131 17.913 20
      vertex 21.0166 17.913 22
      vertex 20.027 104.553 20
    endloop
  endfacet
  facet normal -0.727586 0.00752444 0.685975
    outer loop
      vertex 20.027 104.553 20
      vertex 21.0166 17.913 22
      vertex 21.9126 104.553 22
    endloop
  endfacet
  facet normal -0.727591 0.00668741 0.685979
    outer loop
      vertex 19.126 17.369 20
      vertex 21.0116 17.369 22
      vertex 19.131 17.913 20
    endloop
  endfacet
  facet normal -0.727591 0.00668741 0.685979
    outer loop
      vertex 19.131 17.913 20
      vertex 21.0116 17.369 22
      vertex 21.0166 17.913 22
    endloop
  endfacet
  facet normal -0.725746 0.0714791 0.68424
    outer loop
      vertex 21.0116 17.369 22
      vertex 19.126 17.369 20
      vertex 20.9754 17.0011 22
    endloop
  endfacet
  facet normal -0.722272 0.0940675 0.685182
    outer loop
      vertex 18.809 14.935 20
      vertex 20.6584 14.5671 22
      vertex 19.126 17.369 20
    endloop
  endfacet
  facet normal -0.722272 0.0940675 0.685182
    outer loop
      vertex 19.126 17.369 20
      vertex 20.6584 14.5671 22
      vertex 20.9754 17.0011 22
    endloop
  endfacet
  facet normal -0.697856 0.211693 0.68424
    outer loop
      vertex 20.6584 14.5671 22
      vertex 18.809 14.935 20
      vertex 20.5511 14.2134 22
    endloop
  endfacet
  facet normal -0.689033 0.235864 0.685275
    outer loop
      vertex 18.11 12.893 20
      vertex 19.8521 12.1714 22
      vertex 18.809 14.935 20
    endloop
  endfacet
  facet normal -0.689033 0.235864 0.685275
    outer loop
      vertex 18.809 14.935 20
      vertex 19.8521 12.1714 22
      vertex 20.5511 14.2134 22
    endloop
  endfacet
  facet normal -0.643147 0.34377 0.68424
    outer loop
      vertex 19.8521 12.1714 22
      vertex 18.11 12.893 20
      vertex 19.6778 11.8454 22
    endloop
  endfacet
  facet normal -0.634938 0.35738 0.684933
    outer loop
      vertex 18.11 12.893 20
      vertex 17.913 12.543 20
      vertex 19.4808 11.4954 22
    endloop
  endfacet
  facet normal -0.634938 0.35738 0.684933
    outer loop
      vertex 19.6778 11.8454 22
      vertex 18.11 12.893 20
      vertex 19.4808 11.4954 22
    endloop
  endfacet
  facet normal -0.63402 0.358879 0.684999
    outer loop
      vertex 17.913 12.543 20
      vertex 17.763 12.278 20
      vertex 19.3308 11.2304 22
    endloop
  endfacet
  facet normal -0.63402 0.358879 0.684999
    outer loop
      vertex 19.4808 11.4954 22
      vertex 17.913 12.543 20
      vertex 19.3308 11.2304 22
    endloop
  endfacet
  facet normal -0.574877 0.447476 0.685042
    outer loop
      vertex 17.763 12.278 20
      vertex 17.194 11.547 20
      vertex 18.7618 10.4994 22
    endloop
  endfacet
  facet normal -0.574877 0.447476 0.685042
    outer loop
      vertex 19.3308 11.2304 22
      vertex 17.763 12.278 20
      vertex 18.7618 10.4994 22
    endloop
  endfacet
  facet normal -0.563724 0.462636 0.68424
    outer loop
      vertex 18.7618 10.4994 22
      vertex 17.194 11.547 20
      vertex 18.5273 10.2137 22
    endloop
  endfacet
  facet normal -0.492985 0.535541 0.685684
    outer loop
      vertex 17.194 11.547 20
      vertex 16.225 10.655 20
      vertex 17.5583 9.32167 22
    endloop
  endfacet
  facet normal -0.492985 0.535541 0.685684
    outer loop
      vertex 18.5273 10.2137 22
      vertex 17.194 11.547 20
      vertex 17.5583 9.32167 22
    endloop
  endfacet
  facet normal -0.462636 0.563724 0.68424
    outer loop
      vertex 17.5583 9.32167 22
      vertex 16.225 10.655 20
      vertex 17.2726 9.08717 22
    endloop
  endfacet
  facet normal -0.393991 0.611763 0.685943
    outer loop
      vertex 16.225 10.655 20
      vertex 15.003 9.868 20
      vertex 16.0506 8.30017 22
    endloop
  endfacet
  facet normal -0.393991 0.611763 0.685943
    outer loop
      vertex 17.2726 9.08717 22
      vertex 16.225 10.655 20
      vertex 16.0506 8.30017 22
    endloop
  endfacet
  facet normal -0.34377 0.643147 0.68424
    outer loop
      vertex 16.0506 8.30017 22
      vertex 15.003 9.868 20
      vertex 15.7246 8.12592 22
    endloop
  endfacet
  facet normal -0.318243 0.654995 0.685349
    outer loop
      vertex 15.003 9.868 20
      vertex 13.906 9.335 20
      vertex 14.6276 7.59292 22
    endloop
  endfacet
  facet normal -0.318243 0.654995 0.685349
    outer loop
      vertex 15.7246 8.12592 22
      vertex 15.003 9.868 20
      vertex 14.6276 7.59292 22
    endloop
  endfacet
  facet normal -0.268069 0.676469 0.685951
    outer loop
      vertex 13.906 9.335 20
      vertex 13.53 9.186 20
      vertex 14.2516 7.44392 22
    endloop
  endfacet
  facet normal -0.268069 0.676469 0.685951
    outer loop
      vertex 14.6276 7.59292 22
      vertex 13.906 9.335 20
      vertex 14.2516 7.44392 22
    endloop
  endfacet
  facet normal -0.262172 0.678839 0.685889
    outer loop
      vertex 13.53 9.186 20
      vertex 13.24 9.074 20
      vertex 13.9616 7.33192 22
    endloop
  endfacet
  facet normal -0.262172 0.678839 0.685889
    outer loop
      vertex 14.2516 7.44392 22
      vertex 13.53 9.186 20
      vertex 13.9616 7.33192 22
    endloop
  endfacet
  facet normal -0.211693 0.697856 0.68424
    outer loop
      vertex 13.9616 7.33192 22
      vertex 13.24 9.074 20
      vertex 13.6079 7.22461 22
    endloop
  endfacet
  facet normal -0.154508 0.711067 0.685938
    outer loop
      vertex 11.1 8.609 20
      vertex 11.4679 6.75961 22
      vertex 13.24 9.074 20
    endloop
  endfacet
  facet normal -0.154508 0.711067 0.685938
    outer loop
      vertex 13.24 9.074 20
      vertex 11.4679 6.75961 22
      vertex 13.6079 7.22461 22
    endloop
  endfacet
  facet normal -0.0806442 0.724383 0.684665
    outer loop
      vertex 8.028 8.267 20
      vertex 8.39587 6.41761 22
      vertex 11.1 8.609 20
    endloop
  endfacet
  facet normal -0.0806442 0.724383 0.684665
    outer loop
      vertex 11.1 8.609 20
      vertex 8.39587 6.41761 22
      vertex 11.4679 6.75961 22
    endloop
  endfacet
  facet normal -0.0714791 0.725746 0.68424
    outer loop
      vertex 8.028 8.267 20
      vertex 8.028 6.38138 22
      vertex 8.39587 6.41761 22
    endloop
  endfacet
  facet normal -0.0482576 0.726759 0.685195
    outer loop
      vertex 7.275 6.33138 22
      vertex 8.028 6.38138 22
      vertex 7.275 8.217 20
    endloop
  endfacet
  facet normal -0.0482576 0.726759 0.685195
    outer loop
      vertex 7.275 8.217 20
      vertex 8.028 6.38138 22
      vertex 8.028 8.267 20
    endloop
  endfacet
  facet normal -0.0471696 0.726797 0.685231
    outer loop
      vertex 6.52 6.28238 22
      vertex 7.275 6.33138 22
      vertex 6.52 8.168 20
    endloop
  endfacet
  facet normal -0.0471696 0.726797 0.685231
    outer loop
      vertex 6.52 8.168 20
      vertex 7.275 6.33138 22
      vertex 7.275 8.217 20
    endloop
  endfacet
  facet normal -0.047595 0.726782 0.685217
    outer loop
      vertex 3.298 6.07138 22
      vertex 6.52 6.28238 22
      vertex 3.298 7.957 20
    endloop
  endfacet
  facet normal -0.047595 0.726782 0.685217
    outer loop
      vertex 3.298 7.957 20
      vertex 6.52 6.28238 22
      vertex 6.52 8.168 20
    endloop
  endfacet
endsolid OpenSCAD_Model
