solid Default
  facet normal -7.275869e-01 7.474089e-03 6.859749e-01
    outer loop
      vertex -3.452100e+01 -6.075300e+01 2.000000e+01
      vertex -3.261621e+01 -5.888708e+01 2.200000e+01
      vertex -3.445200e+01 -5.403600e+01 2.000000e+01
    endloop
  endfacet
  facet normal -7.275869e-01 7.474089e-03 6.859749e-01
    outer loop
      vertex -3.406500e+01 -5.440176e+01 2.041450e+01
      vertex -3.261621e+01 -5.888708e+01 2.200000e+01
      vertex -3.258451e+01 -5.580085e+01 2.200000e+01
    endloop
  endfacet
  facet normal -7.275869e-01 7.474089e-03 6.859749e-01
    outer loop
      vertex -3.445200e+01 -5.403600e+01 2.000000e+01
      vertex -3.261621e+01 -5.888708e+01 2.200000e+01
      vertex -3.406500e+01 -5.440176e+01 2.041450e+01
    endloop
  endfacet
  facet normal -7.525012e-03 -7.275862e-01 6.859752e-01
    outer loop
      vertex -3.261621e+01 -5.888708e+01 2.200000e+01
      vertex -3.452100e+01 -6.075300e+01 2.000000e+01
      vertex 3.325801e+01 -6.145400e+01 2.000000e+01
    endloop
  endfacet
  facet normal -7.525012e-03 -7.275862e-01 6.859752e-01
    outer loop
      vertex 3.139170e+01 -5.954908e+01 2.200000e+01
      vertex -3.261621e+01 -5.888708e+01 2.200000e+01
      vertex 3.325801e+01 -6.145400e+01 2.000000e+01
    endloop
  endfacet
  facet normal 0.000000e+00 0.000000e+00 -1.000000e+00
    outer loop
      vertex -3.406500e+01 -5.401100e+01 2.000000e+01
      vertex 1.885000e+01 -5.143400e+01 2.000000e+01
      vertex -3.445200e+01 -5.403600e+01 2.000000e+01
    endloop
  endfacet
  facet normal 0.000000e+00 0.000000e+00 -1.000000e+00
    outer loop
      vertex -2.759900e+01 -5.359000e+01 2.000000e+01
      vertex -3.157600e+01 -5.385000e+01 2.000000e+01
      vertex -2.835400e+01 -5.363900e+01 2.000000e+01
    endloop
  endfacet
  facet normal 0.000000e+00 0.000000e+00 -1.000000e+00
    outer loop
      vertex -3.406500e+01 -5.401100e+01 2.000000e+01
      vertex -3.157600e+01 -5.385000e+01 2.000000e+01
      vertex 1.885000e+01 -5.143400e+01 2.000000e+01
    endloop
  endfacet
  facet normal 0.000000e+00 0.000000e+00 -1.000000e+00
    outer loop
      vertex -3.157600e+01 -5.385000e+01 2.000000e+01
      vertex -2.759900e+01 -5.359000e+01 2.000000e+01
      vertex 1.885000e+01 -5.143400e+01 2.000000e+01
    endloop
  endfacet
  facet normal 0.000000e+00 0.000000e+00 -1.000000e+00
    outer loop
      vertex 1.665100e+01 -4.962400e+01 2.000000e+01
      vertex -2.684600e+01 -5.354000e+01 2.000000e+01
      vertex 1.609300e+01 -4.884900e+01 2.000000e+01
    endloop
  endfacet
  facet normal 0.000000e+00 0.000000e+00 -1.000000e+00
    outer loop
      vertex 1.575900e+01 -4.820300e+01 2.000000e+01
      vertex -2.377400e+01 -5.319800e+01 2.000000e+01
      vertex 1.510200e+01 -4.614000e+01 2.000000e+01
    endloop
  endfacet
  facet normal 0.000000e+00 0.000000e+00 -1.000000e+00
    outer loop
      vertex 1.483600e+01 -4.377900e+01 2.000000e+01
      vertex -2.163400e+01 -5.273300e+01 2.000000e+01
      vertex 1.484200e+01 -4.326300e+01 2.000000e+01
    endloop
  endfacet
  facet normal 0.000000e+00 0.000000e+00 -1.000000e+00
    outer loop
      vertex -2.163400e+01 -5.273300e+01 2.000000e+01
      vertex -2.134400e+01 -5.262100e+01 2.000000e+01
      vertex 1.484200e+01 -4.326300e+01 2.000000e+01
    endloop
  endfacet
  facet normal 0.000000e+00 0.000000e+00 -1.000000e+00
    outer loop
      vertex -2.134400e+01 -5.262100e+01 2.000000e+01
      vertex -2.096800e+01 -5.247200e+01 2.000000e+01
      vertex 1.484200e+01 -4.326300e+01 2.000000e+01
    endloop
  endfacet
  facet normal 0.000000e+00 0.000000e+00 -1.000000e+00
    outer loop
      vertex -2.096800e+01 -5.247200e+01 2.000000e+01
      vertex -1.987100e+01 -5.193900e+01 2.000000e+01
      vertex 1.484200e+01 -4.326300e+01 2.000000e+01
    endloop
  endfacet
  facet normal 0.000000e+00 0.000000e+00 -1.000000e+00
    outer loop
      vertex -1.987100e+01 -5.193900e+01 2.000000e+01
      vertex -1.864900e+01 -5.115200e+01 2.000000e+01
      vertex 1.484200e+01 -4.326300e+01 2.000000e+01
    endloop
  endfacet
  facet normal 0.000000e+00 0.000000e+00 -1.000000e+00
    outer loop
      vertex -1.864900e+01 -5.115200e+01 2.000000e+01
      vertex -1.768000e+01 -5.026000e+01 2.000000e+01
      vertex 1.484200e+01 -4.326300e+01 2.000000e+01
    endloop
  endfacet
  facet normal 0.000000e+00 0.000000e+00 -1.000000e+00
    outer loop
      vertex -1.768000e+01 -5.026000e+01 2.000000e+01
      vertex -1.711100e+01 -4.952900e+01 2.000000e+01
      vertex 1.484200e+01 -4.326300e+01 2.000000e+01
    endloop
  endfacet
  facet normal 0.000000e+00 0.000000e+00 -1.000000e+00
    outer loop
      vertex -1.711100e+01 -4.952900e+01 2.000000e+01
      vertex -1.696100e+01 -4.926400e+01 2.000000e+01
      vertex 1.484200e+01 -4.326300e+01 2.000000e+01
    endloop
  endfacet
  facet normal 0.000000e+00 0.000000e+00 -1.000000e+00
    outer loop
      vertex -1.574800e+01 -4.443800e+01 2.000000e+01
      vertex -1.574300e+01 -4.389400e+01 2.000000e+01
      vertex -1.484700e+01 4.274600e+01 2.000000e+01
    endloop
  endfacet
  facet normal 0.000000e+00 0.000000e+00 -1.000000e+00
    outer loop
      vertex 2.187200e+01 5.224400e+01 2.000000e+01
      vertex -1.484700e+01 4.274600e+01 2.000000e+01
      vertex 3.452100e+01 6.075400e+01 2.000000e+01
    endloop
  endfacet
  facet normal 0.000000e+00 0.000000e+00 -1.000000e+00
    outer loop
      vertex -1.484700e+01 4.274600e+01 2.000000e+01
      vertex -1.484300e+01 4.323500e+01 2.000000e+01
      vertex 3.452100e+01 6.075400e+01 2.000000e+01
    endloop
  endfacet
  facet normal 0.000000e+00 0.000000e+00 -1.000000e+00
    outer loop
      vertex -1.484300e+01 4.323500e+01 2.000000e+01
      vertex -1.509900e+01 4.550500e+01 2.000000e+01
      vertex 3.452100e+01 6.075400e+01 2.000000e+01
    endloop
  endfacet
  facet normal 0.000000e+00 0.000000e+00 -1.000000e+00
    outer loop
      vertex -1.509900e+01 4.550500e+01 2.000000e+01
      vertex -1.573000e+01 4.755000e+01 2.000000e+01
      vertex 3.452100e+01 6.075400e+01 2.000000e+01
    endloop
  endfacet
  facet normal 0.000000e+00 0.000000e+00 -1.000000e+00
    outer loop
      vertex -1.573000e+01 4.755000e+01 2.000000e+01
      vertex -1.591200e+01 4.792500e+01 2.000000e+01
      vertex 3.452100e+01 6.075400e+01 2.000000e+01
    endloop
  endfacet
  facet normal 0.000000e+00 0.000000e+00 -1.000000e+00
    outer loop
      vertex -1.591200e+01 4.792500e+01 2.000000e+01
      vertex -1.605100e+01 4.821000e+01 2.000000e+01
      vertex 3.452100e+01 6.075400e+01 2.000000e+01
    endloop
  endfacet
  facet normal 0.000000e+00 0.000000e+00 -1.000000e+00
    outer loop
      vertex -1.605100e+01 4.821000e+01 2.000000e+01
      vertex -1.659700e+01 4.899800e+01 2.000000e+01
      vertex 3.452100e+01 6.075400e+01 2.000000e+01
    endloop
  endfacet
  facet normal 0.000000e+00 0.000000e+00 -1.000000e+00
    outer loop
      vertex 3.452100e+01 6.075400e+01 2.000000e+01
      vertex -1.755100e+01 4.996700e+01 2.000000e+01
      vertex -3.325800e+01 6.145400e+01 2.000000e+01
    endloop
  endfacet
  facet normal 0.000000e+00 0.000000e+00 -1.000000e+00
    outer loop
      vertex -1.755100e+01 4.996700e+01 2.000000e+01
      vertex -1.877400e+01 5.083000e+01 2.000000e+01
      vertex -3.325800e+01 6.145400e+01 2.000000e+01
    endloop
  endfacet
  facet normal 0.000000e+00 0.000000e+00 -1.000000e+00
    outer loop
      vertex -1.877400e+01 5.083000e+01 2.000000e+01
      vertex -1.988500e+01 5.142200e+01 2.000000e+01
      vertex -3.325800e+01 6.145400e+01 2.000000e+01
    endloop
  endfacet
  facet normal 0.000000e+00 0.000000e+00 -1.000000e+00
    outer loop
      vertex -1.988500e+01 5.142200e+01 2.000000e+01
      vertex -2.026800e+01 5.158800e+01 2.000000e+01
      vertex -3.325800e+01 6.145400e+01 2.000000e+01
    endloop
  endfacet
  facet normal 0.000000e+00 0.000000e+00 -1.000000e+00
    outer loop
      vertex -2.026800e+01 5.158800e+01 2.000000e+01
      vertex -2.061100e+01 5.173500e+01 2.000000e+01
      vertex -3.325800e+01 6.145400e+01 2.000000e+01
    endloop
  endfacet
  facet normal 0.000000e+00 0.000000e+00 -1.000000e+00
    outer loop
      vertex -2.061100e+01 5.173500e+01 2.000000e+01
      vertex -2.282200e+01 5.248600e+01 2.000000e+01
      vertex -3.325800e+01 6.145400e+01 2.000000e+01
    endloop
  endfacet
  facet normal 0.000000e+00 0.000000e+00 -1.000000e+00
    outer loop
      vertex -2.282200e+01 5.248600e+01 2.000000e+01
      vertex -2.569200e+01 5.325900e+01 2.000000e+01
      vertex -3.325800e+01 6.145400e+01 2.000000e+01
    endloop
  endfacet
  facet normal 0.000000e+00 0.000000e+00 -1.000000e+00
    outer loop
      vertex -2.569200e+01 5.325900e+01 2.000000e+01
      vertex -2.636500e+01 5.341600e+01 2.000000e+01
      vertex -2.703800e+01 5.357500e+01 2.000000e+01
    endloop
  endfacet
  facet normal 0.000000e+00 0.000000e+00 -1.000000e+00
    outer loop
      vertex -2.569200e+01 5.325900e+01 2.000000e+01
      vertex -2.703800e+01 5.357500e+01 2.000000e+01
      vertex -3.325800e+01 6.145400e+01 2.000000e+01
    endloop
  endfacet
  facet normal 0.000000e+00 0.000000e+00 -1.000000e+00
    outer loop
      vertex -2.703800e+01 5.357500e+01 2.000000e+01
      vertex -3.012500e+01 5.422000e+01 2.000000e+01
      vertex -3.325800e+01 6.145400e+01 2.000000e+01
    endloop
  endfacet
  facet normal 0.000000e+00 0.000000e+00 -1.000000e+00
    outer loop
      vertex -3.012500e+01 5.422000e+01 2.000000e+01
      vertex -3.284000e+01 5.467600e+01 2.000000e+01
      vertex -3.325800e+01 6.145400e+01 2.000000e+01
    endloop
  endfacet
  facet normal 0.000000e+00 0.000000e+00 -1.000000e+00
    outer loop
      vertex -3.284000e+01 5.467600e+01 2.000000e+01
      vertex -3.332600e+01 5.473800e+01 2.000000e+01
      vertex -3.325800e+01 6.145400e+01 2.000000e+01
    endloop
  endfacet
  facet normal 0.000000e+00 0.000000e+00 -1.000000e+00
    outer loop
      vertex -1.659700e+01 4.899800e+01 2.000000e+01
      vertex -1.755100e+01 4.996700e+01 2.000000e+01
      vertex 3.452100e+01 6.075400e+01 2.000000e+01
    endloop
  endfacet
  facet normal 0.000000e+00 0.000000e+00 -1.000000e+00
    outer loop
      vertex 3.445100e+01 5.403600e+01 2.000000e+01
      vertex 3.402000e+01 5.399800e+01 2.000000e+01
      vertex 3.452100e+01 6.075400e+01 2.000000e+01
    endloop
  endfacet
  facet normal 0.000000e+00 0.000000e+00 -1.000000e+00
    outer loop
      vertex 3.402000e+01 5.399800e+01 2.000000e+01
      vertex 3.154100e+01 5.375500e+01 2.000000e+01
      vertex 3.452100e+01 6.075400e+01 2.000000e+01
    endloop
  endfacet
  facet normal 0.000000e+00 0.000000e+00 -1.000000e+00
    outer loop
      vertex 1.604500e+01 4.614200e+01 2.000000e+01
      vertex -1.574800e+01 -4.443800e+01 2.000000e+01
      vertex 1.672000e+01 4.826900e+01 2.000000e+01
    endloop
  endfacet
  facet normal 0.000000e+00 0.000000e+00 -1.000000e+00
    outer loop
      vertex 1.987800e+01 5.148300e+01 2.000000e+01
      vertex -1.484700e+01 4.274600e+01 2.000000e+01
      vertex 2.102900e+01 5.197800e+01 2.000000e+01
    endloop
  endfacet
  facet normal 0.000000e+00 0.000000e+00 -1.000000e+00
    outer loop
      vertex 2.863200e+01 5.344400e+01 2.000000e+01
      vertex 2.798500e+01 5.337100e+01 2.000000e+01
      vertex 3.452100e+01 6.075400e+01 2.000000e+01
    endloop
  endfacet
  facet normal 0.000000e+00 0.000000e+00 -1.000000e+00
    outer loop
      vertex 2.798500e+01 5.337100e+01 2.000000e+01
      vertex 2.733800e+01 5.329900e+01 2.000000e+01
      vertex 3.452100e+01 6.075400e+01 2.000000e+01
    endloop
  endfacet
  facet normal 0.000000e+00 0.000000e+00 -1.000000e+00
    outer loop
      vertex 1.861000e+01 5.070200e+01 2.000000e+01
      vertex -1.484700e+01 4.274600e+01 2.000000e+01
      vertex 1.987800e+01 5.148300e+01 2.000000e+01
    endloop
  endfacet
  facet normal 0.000000e+00 0.000000e+00 -1.000000e+00
    outer loop
      vertex 2.733800e+01 5.329900e+01 2.000000e+01
      vertex 2.440400e+01 5.283800e+01 2.000000e+01
      vertex 3.452100e+01 6.075400e+01 2.000000e+01
    endloop
  endfacet
  facet normal 0.000000e+00 0.000000e+00 -1.000000e+00
    outer loop
      vertex 2.142600e+01 5.210400e+01 2.000000e+01
      vertex -1.484700e+01 4.274600e+01 2.000000e+01
      vertex 2.187200e+01 5.224400e+01 2.000000e+01
    endloop
  endfacet
  facet normal 0.000000e+00 0.000000e+00 -1.000000e+00
    outer loop
      vertex 2.440400e+01 5.283800e+01 2.000000e+01
      vertex 2.187200e+01 5.224400e+01 2.000000e+01
      vertex 3.452100e+01 6.075400e+01 2.000000e+01
    endloop
  endfacet
  facet normal 0.000000e+00 0.000000e+00 -1.000000e+00
    outer loop
      vertex 2.102900e+01 5.197800e+01 2.000000e+01
      vertex -1.484700e+01 4.274600e+01 2.000000e+01
      vertex 2.142600e+01 5.210400e+01 2.000000e+01
    endloop
  endfacet
  facet normal 0.000000e+00 0.000000e+00 -1.000000e+00
    outer loop
      vertex 1.762100e+01 4.976200e+01 2.000000e+01
      vertex -1.484700e+01 4.274600e+01 2.000000e+01
      vertex 1.861000e+01 5.070200e+01 2.000000e+01
    endloop
  endfacet
  facet normal 0.000000e+00 0.000000e+00 -1.000000e+00
    outer loop
      vertex 1.705200e+01 4.895400e+01 2.000000e+01
      vertex -1.484700e+01 4.274600e+01 2.000000e+01
      vertex 1.762100e+01 4.976200e+01 2.000000e+01
    endloop
  endfacet
  facet normal 0.000000e+00 0.000000e+00 -1.000000e+00
    outer loop
      vertex 1.691100e+01 4.866200e+01 2.000000e+01
      vertex -1.484700e+01 4.274600e+01 2.000000e+01
      vertex 1.705200e+01 4.895400e+01 2.000000e+01
    endloop
  endfacet
  facet normal 0.000000e+00 0.000000e+00 -1.000000e+00
    outer loop
      vertex 1.484200e+01 -4.326300e+01 2.000000e+01
      vertex -1.606500e+01 -4.687200e+01 2.000000e+01
      vertex -1.574800e+01 -4.443800e+01 2.000000e+01
    endloop
  endfacet
  facet normal 0.000000e+00 0.000000e+00 -1.000000e+00
    outer loop
      vertex 1.672000e+01 4.826900e+01 2.000000e+01
      vertex -1.484700e+01 4.274600e+01 2.000000e+01
      vertex 1.691100e+01 4.866200e+01 2.000000e+01
    endloop
  endfacet
  facet normal 0.000000e+00 0.000000e+00 -1.000000e+00
    outer loop
      vertex -1.574800e+01 -4.443800e+01 2.000000e+01
      vertex -1.484700e+01 4.274600e+01 2.000000e+01
      vertex 1.672000e+01 4.826900e+01 2.000000e+01
    endloop
  endfacet
  facet normal 0.000000e+00 0.000000e+00 -1.000000e+00
    outer loop
      vertex 1.574000e+01 4.379500e+01 2.000000e+01
      vertex -1.574800e+01 -4.443800e+01 2.000000e+01
      vertex 1.604500e+01 4.614200e+01 2.000000e+01
    endloop
  endfacet
  facet normal 0.000000e+00 0.000000e+00 -1.000000e+00
    outer loop
      vertex 1.484200e+01 -4.326300e+01 2.000000e+01
      vertex -1.574800e+01 -4.443800e+01 2.000000e+01
      vertex 1.573600e+01 4.329200e+01 2.000000e+01
    endloop
  endfacet
  facet normal 0.000000e+00 0.000000e+00 -1.000000e+00
    outer loop
      vertex 1.484200e+01 -4.326300e+01 2.000000e+01
      vertex -1.676400e+01 -4.891400e+01 2.000000e+01
      vertex -1.606500e+01 -4.687200e+01 2.000000e+01
    endloop
  endfacet
  facet normal 0.000000e+00 0.000000e+00 -1.000000e+00
    outer loop
      vertex -1.574800e+01 -4.443800e+01 2.000000e+01
      vertex 1.574000e+01 4.379500e+01 2.000000e+01
      vertex 1.573600e+01 4.329200e+01 2.000000e+01
    endloop
  endfacet
  facet normal 0.000000e+00 0.000000e+00 -1.000000e+00
    outer loop
      vertex -1.696100e+01 -4.926400e+01 2.000000e+01
      vertex -1.676400e+01 -4.891400e+01 2.000000e+01
      vertex 1.484200e+01 -4.326300e+01 2.000000e+01
    endloop
  endfacet
  facet normal 0.000000e+00 0.000000e+00 -1.000000e+00
    outer loop
      vertex -2.377400e+01 -5.319800e+01 2.000000e+01
      vertex -2.163400e+01 -5.273300e+01 2.000000e+01
      vertex 1.510200e+01 -4.614000e+01 2.000000e+01
    endloop
  endfacet
  facet normal 0.000000e+00 0.000000e+00 -1.000000e+00
    outer loop
      vertex -2.163400e+01 -5.273300e+01 2.000000e+01
      vertex 1.483600e+01 -4.377900e+01 2.000000e+01
      vertex 1.510200e+01 -4.614000e+01 2.000000e+01
    endloop
  endfacet
  facet normal 0.000000e+00 0.000000e+00 -1.000000e+00
    outer loop
      vertex 1.609300e+01 -4.884900e+01 2.000000e+01
      vertex -2.377400e+01 -5.319800e+01 2.000000e+01
      vertex 1.594900e+01 -4.857100e+01 2.000000e+01
    endloop
  endfacet
  facet normal 0.000000e+00 0.000000e+00 -1.000000e+00
    outer loop
      vertex -2.377400e+01 -5.319800e+01 2.000000e+01
      vertex 1.575900e+01 -4.820300e+01 2.000000e+01
      vertex 1.594900e+01 -4.857100e+01 2.000000e+01
    endloop
  endfacet
  facet normal 0.000000e+00 0.000000e+00 -1.000000e+00
    outer loop
      vertex -2.684600e+01 -5.354000e+01 2.000000e+01
      vertex -2.377400e+01 -5.319800e+01 2.000000e+01
      vertex 1.609300e+01 -4.884900e+01 2.000000e+01
    endloop
  endfacet
  facet normal 0.000000e+00 0.000000e+00 -1.000000e+00
    outer loop
      vertex 1.885000e+01 -5.143400e+01 2.000000e+01
      vertex -2.684600e+01 -5.354000e+01 2.000000e+01
      vertex 1.761800e+01 -5.057900e+01 2.000000e+01
    endloop
  endfacet
  facet normal 0.000000e+00 0.000000e+00 -1.000000e+00
    outer loop
      vertex -2.684600e+01 -5.354000e+01 2.000000e+01
      vertex 1.665100e+01 -4.962400e+01 2.000000e+01
      vertex 1.761800e+01 -5.057900e+01 2.000000e+01
    endloop
  endfacet
  facet normal 0.000000e+00 0.000000e+00 -1.000000e+00
    outer loop
      vertex -2.759900e+01 -5.359000e+01 2.000000e+01
      vertex -2.684600e+01 -5.354000e+01 2.000000e+01
      vertex 1.885000e+01 -5.143400e+01 2.000000e+01
    endloop
  endfacet
  facet normal 0.000000e+00 0.000000e+00 -1.000000e+00
    outer loop
      vertex 1.885000e+01 -5.143400e+01 2.000000e+01
      vertex 1.996200e+01 -5.202400e+01 2.000000e+01
      vertex -3.445200e+01 -5.403600e+01 2.000000e+01
    endloop
  endfacet
  facet normal 0.000000e+00 0.000000e+00 -1.000000e+00
    outer loop
      vertex 1.996200e+01 -5.202400e+01 2.000000e+01
      vertex 2.034700e+01 -5.219100e+01 2.000000e+01
      vertex -3.445200e+01 -5.403600e+01 2.000000e+01
    endloop
  endfacet
  facet normal 0.000000e+00 0.000000e+00 -1.000000e+00
    outer loop
      vertex 2.034700e+01 -5.219100e+01 2.000000e+01
      vertex 2.064600e+01 -5.232300e+01 2.000000e+01
      vertex -3.445200e+01 -5.403600e+01 2.000000e+01
    endloop
  endfacet
  facet normal 0.000000e+00 0.000000e+00 -1.000000e+00
    outer loop
      vertex 2.064600e+01 -5.232300e+01 2.000000e+01
      vertex 2.273900e+01 -5.297900e+01 2.000000e+01
      vertex -3.445200e+01 -5.403600e+01 2.000000e+01
    endloop
  endfacet
  facet normal 0.000000e+00 0.000000e+00 -1.000000e+00
    outer loop
      vertex 2.273900e+01 -5.297900e+01 2.000000e+01
      vertex 2.562200e+01 -5.363000e+01 2.000000e+01
      vertex -3.445200e+01 -5.403600e+01 2.000000e+01
    endloop
  endfacet
  facet normal 0.000000e+00 0.000000e+00 -1.000000e+00
    outer loop
      vertex 2.562200e+01 -5.363000e+01 2.000000e+01
      vertex 2.631800e+01 -5.375900e+01 2.000000e+01
      vertex -3.445200e+01 -5.403600e+01 2.000000e+01
    endloop
  endfacet
  facet normal 0.000000e+00 0.000000e+00 -1.000000e+00
    outer loop
      vertex 2.631800e+01 -5.375900e+01 2.000000e+01
      vertex 2.701200e+01 -5.388700e+01 2.000000e+01
      vertex -3.445200e+01 -5.403600e+01 2.000000e+01
    endloop
  endfacet
  facet normal 0.000000e+00 0.000000e+00 -1.000000e+00
    outer loop
      vertex 2.701200e+01 -5.388700e+01 2.000000e+01
      vertex 3.015400e+01 -5.439000e+01 2.000000e+01
      vertex -3.445200e+01 -5.403600e+01 2.000000e+01
    endloop
  endfacet
  facet normal 0.000000e+00 0.000000e+00 -1.000000e+00
    outer loop
      vertex 3.015400e+01 -5.439000e+01 2.000000e+01
      vertex 3.285200e+01 -5.470200e+01 2.000000e+01
      vertex -3.445200e+01 -5.403600e+01 2.000000e+01
    endloop
  endfacet
  facet normal 0.000000e+00 0.000000e+00 -1.000000e+00
    outer loop
      vertex 3.285200e+01 -5.470200e+01 2.000000e+01
      vertex 3.332600e+01 -5.473600e+01 2.000000e+01
      vertex -3.445200e+01 -5.403600e+01 2.000000e+01
    endloop
  endfacet
  facet normal 0.000000e+00 0.000000e+00 -1.000000e+00
    outer loop
      vertex 3.332600e+01 -5.473600e+01 2.000000e+01
      vertex 3.325801e+01 -6.145400e+01 2.000000e+01
      vertex -3.445200e+01 -5.403600e+01 2.000000e+01
    endloop
  endfacet
  facet normal 0.000000e+00 0.000000e+00 -1.000000e+00
    outer loop
      vertex 3.325801e+01 -6.145400e+01 2.000000e+01
      vertex -3.452100e+01 -6.075300e+01 2.000000e+01
      vertex -3.445200e+01 -5.403600e+01 2.000000e+01
    endloop
  endfacet
  facet normal 0.000000e+00 0.000000e+00 -1.000000e+00
    outer loop
      vertex 2.863200e+01 5.344400e+01 2.000000e+01
      vertex 3.452100e+01 6.075400e+01 2.000000e+01
      vertex 3.154100e+01 5.375500e+01 2.000000e+01
    endloop
  endfacet
  facet normal -4.695121e-02 7.268042e-01 6.852382e-01
    outer loop
      vertex -3.406500e+01 -5.401100e+01 2.000000e+01
      vertex -3.445200e+01 -5.403600e+01 2.000000e+01
      vertex -3.406500e+01 -5.440176e+01 2.041450e+01
    endloop
  endfacet
  facet normal -4.701291e-02 7.268021e-01 6.852360e-01
    outer loop
      vertex -3.406500e+01 -5.440176e+01 2.041450e+01
      vertex -3.258451e+01 -5.580085e+01 2.200000e+01
      vertex -3.406500e+01 -5.401100e+01 2.000000e+01
    endloop
  endfacet
  facet normal -4.701291e-02 7.268021e-01 6.852360e-01
    outer loop
      vertex -3.406500e+01 -5.401100e+01 2.000000e+01
      vertex -3.258451e+01 -5.580085e+01 2.200000e+01
      vertex -3.157600e+01 -5.573562e+01 2.200000e+01
    endloop
  endfacet
  facet normal -4.701291e-02 7.268021e-01 6.852360e-01
    outer loop
      vertex -3.406500e+01 -5.401100e+01 2.000000e+01
      vertex -3.157600e+01 -5.573562e+01 2.200000e+01
      vertex -3.157600e+01 -5.385000e+01 2.000000e+01
    endloop
  endfacet
  facet normal 0.000000e+00 0.000000e+00 1.000000e+00
    outer loop
      vertex -3.258451e+01 -5.580085e+01 2.200000e+01
      vertex -3.261621e+01 -5.888708e+01 2.200000e+01
      vertex 3.139170e+01 -5.954908e+01 2.200000e+01
    endloop
  endfacet
  facet normal 0.000000e+00 0.000000e+00 1.000000e+00
    outer loop
      vertex 2.978610e+01 -5.623939e+01 2.200000e+01
      vertex -3.258451e+01 -5.580085e+01 2.200000e+01
      vertex 3.142320e+01 -5.642870e+01 2.200000e+01
    endloop
  endfacet
  facet normal 0.000000e+00 0.000000e+00 1.000000e+00
    outer loop
      vertex 3.142320e+01 -5.642870e+01 2.200000e+01
      vertex -3.258451e+01 -5.580085e+01 2.200000e+01
      vertex 3.139170e+01 -5.954908e+01 2.200000e+01
    endloop
  endfacet
  facet normal 0.000000e+00 0.000000e+00 1.000000e+00
    outer loop
      vertex 2.664410e+01 -5.573639e+01 2.200000e+01
      vertex -3.258451e+01 -5.580085e+01 2.200000e+01
      vertex 2.978610e+01 -5.623939e+01 2.200000e+01
    endloop
  endfacet
  facet normal 0.000000e+00 0.000000e+00 1.000000e+00
    outer loop
      vertex 2.595010e+01 -5.560839e+01 2.200000e+01
      vertex -3.258451e+01 -5.580085e+01 2.200000e+01
      vertex 2.664410e+01 -5.573639e+01 2.200000e+01
    endloop
  endfacet
  facet normal 0.000000e+00 0.000000e+00 1.000000e+00
    outer loop
      vertex 2.525410e+01 -5.547939e+01 2.200000e+01
      vertex -3.258451e+01 -5.580085e+01 2.200000e+01
      vertex 2.595010e+01 -5.560839e+01 2.200000e+01
    endloop
  endfacet
  facet normal 0.000000e+00 0.000000e+00 1.000000e+00
    outer loop
      vertex 2.237110e+01 -5.482839e+01 2.200000e+01
      vertex -3.258451e+01 -5.580085e+01 2.200000e+01
      vertex 2.525410e+01 -5.547939e+01 2.200000e+01
    endloop
  endfacet
  facet normal 0.000000e+00 0.000000e+00 1.000000e+00
    outer loop
      vertex 2.201740e+01 -5.472108e+01 2.200000e+01
      vertex -3.258451e+01 -5.580085e+01 2.200000e+01
      vertex 2.237110e+01 -5.482839e+01 2.200000e+01
    endloop
  endfacet
  facet normal 0.000000e+00 0.000000e+00 1.000000e+00
    outer loop
      vertex 1.992440e+01 -5.406508e+01 2.200000e+01
      vertex -3.258451e+01 -5.580085e+01 2.200000e+01
      vertex 2.201740e+01 -5.472108e+01 2.200000e+01
    endloop
  endfacet
  facet normal 0.000000e+00 0.000000e+00 1.000000e+00
    outer loop
      vertex 1.962540e+01 -5.393308e+01 2.200000e+01
      vertex -3.258451e+01 -5.580085e+01 2.200000e+01
      vertex 1.992440e+01 -5.406508e+01 2.200000e+01
    endloop
  endfacet
  facet normal 0.000000e+00 0.000000e+00 1.000000e+00
    outer loop
      vertex 1.924040e+01 -5.376608e+01 2.200000e+01
      vertex -3.258451e+01 -5.580085e+01 2.200000e+01
      vertex 1.962540e+01 -5.393308e+01 2.200000e+01
    endloop
  endfacet
  facet normal 0.000000e+00 0.000000e+00 1.000000e+00
    outer loop
      vertex 1.812840e+01 -5.317608e+01 2.200000e+01
      vertex -3.258451e+01 -5.580085e+01 2.200000e+01
      vertex 1.924040e+01 -5.376608e+01 2.200000e+01
    endloop
  endfacet
  facet normal 0.000000e+00 0.000000e+00 1.000000e+00
    outer loop
      vertex 1.780240e+01 -5.300183e+01 2.200000e+01
      vertex -3.258451e+01 -5.580085e+01 2.200000e+01
      vertex 1.812840e+01 -5.317608e+01 2.200000e+01
    endloop
  endfacet
  facet normal 0.000000e+00 0.000000e+00 1.000000e+00
    outer loop
      vertex -3.157600e+01 -5.573562e+01 2.200000e+01
      vertex -3.258451e+01 -5.580085e+01 2.200000e+01
      vertex 1.780240e+01 -5.300183e+01 2.200000e+01
    endloop
  endfacet
  facet normal 0.000000e+00 0.000000e+00 1.000000e+00
    outer loop
      vertex -2.835400e+01 -5.552462e+01 2.200000e+01
      vertex -3.157600e+01 -5.573562e+01 2.200000e+01
      vertex -2.759900e+01 -5.547562e+01 2.200000e+01
    endloop
  endfacet
  facet normal 0.000000e+00 0.000000e+00 1.000000e+00
    outer loop
      vertex -2.340610e+01 -5.504739e+01 2.200000e+01
      vertex 1.657040e+01 -5.214683e+01 2.200000e+01
      vertex 1.628470e+01 -5.191233e+01 2.200000e+01
    endloop
  endfacet
  facet normal 0.000000e+00 0.000000e+00 1.000000e+00
    outer loop
      vertex -2.340610e+01 -5.504739e+01 2.200000e+01
      vertex -2.647813e+01 -5.538939e+01 2.200000e+01
      vertex 1.657040e+01 -5.214683e+01 2.200000e+01
    endloop
  endfacet
  facet normal 0.000000e+00 0.000000e+00 1.000000e+00
    outer loop
      vertex -2.126610e+01 -5.458239e+01 2.200000e+01
      vertex 1.531770e+01 -5.095730e+01 2.200000e+01
      vertex 1.508320e+01 -5.067160e+01 2.200000e+01
    endloop
  endfacet
  facet normal 0.000000e+00 0.000000e+00 1.000000e+00
    outer loop
      vertex -2.024640e+01 -5.421408e+01 2.200000e+01
      vertex -2.062240e+01 -5.436308e+01 2.200000e+01
      vertex 1.452520e+01 -4.989660e+01 2.200000e+01
    endloop
  endfacet
  facet normal 0.000000e+00 0.000000e+00 1.000000e+00
    outer loop
      vertex -2.126610e+01 -5.458239e+01 2.200000e+01
      vertex -2.340610e+01 -5.504739e+01 2.200000e+01
      vertex 1.531770e+01 -5.095730e+01 2.200000e+01
    endloop
  endfacet
  facet normal 0.000000e+00 0.000000e+00 1.000000e+00
    outer loop
      vertex -1.914940e+01 -5.368108e+01 2.200000e+01
      vertex 1.420690e+01 -4.929260e+01 2.200000e+01
      vertex 1.401690e+01 -4.892460e+01 2.200000e+01
    endloop
  endfacet
  facet normal 0.000000e+00 0.000000e+00 1.000000e+00
    outer loop
      vertex -1.914940e+01 -5.368108e+01 2.200000e+01
      vertex 1.435090e+01 -4.957060e+01 2.200000e+01
      vertex 1.420690e+01 -4.929260e+01 2.200000e+01
    endloop
  endfacet
  facet normal 0.000000e+00 0.000000e+00 1.000000e+00
    outer loop
      vertex -1.760140e+01 -5.271983e+01 2.200000e+01
      vertex 1.335990e+01 -4.686160e+01 2.200000e+01
      vertex 1.325260e+01 -4.650790e+01 2.200000e+01
    endloop
  endfacet
  facet normal 0.000000e+00 0.000000e+00 1.000000e+00
    outer loop
      vertex -1.634670e+01 -5.159330e+01 2.200000e+01
      vertex -1.731570e+01 -5.248533e+01 2.200000e+01
      vertex 1.298660e+01 -4.414690e+01 2.200000e+01
    endloop
  endfacet
  facet normal 0.000000e+00 0.000000e+00 1.000000e+00
    outer loop
      vertex -1.611220e+01 -5.130760e+01 2.200000e+01
      vertex -1.634670e+01 -5.159330e+01 2.200000e+01
      vertex 1.295040e+01 -4.377900e+01 2.200000e+01
    endloop
  endfacet
  facet normal 0.000000e+00 0.000000e+00 1.000000e+00
    outer loop
      vertex -1.554320e+01 -5.057660e+01 2.200000e+01
      vertex -1.611220e+01 -5.130760e+01 2.200000e+01
      vertex 1.295640e+01 -4.326300e+01 2.200000e+01
    endloop
  endfacet
  facet normal 0.000000e+00 0.000000e+00 1.000000e+00
    outer loop
      vertex -1.760140e+01 -5.271983e+01 2.200000e+01
      vertex -1.882340e+01 -5.350683e+01 2.200000e+01
      vertex 1.335990e+01 -4.686160e+01 2.200000e+01
    endloop
  endfacet
  facet normal 0.000000e+00 0.000000e+00 1.000000e+00
    outer loop
      vertex -1.914940e+01 -5.368108e+01 2.200000e+01
      vertex -2.024640e+01 -5.421408e+01 2.200000e+01
      vertex 1.435090e+01 -4.957060e+01 2.200000e+01
    endloop
  endfacet
  facet normal 0.000000e+00 0.000000e+00 1.000000e+00
    outer loop
      vertex 1.530990e+01 4.967600e+01 2.200000e+01
      vertex 1.497790e+01 4.899100e+01 2.200000e+01
      vertex 1.516890e+01 4.938400e+01 2.200000e+01
    endloop
  endfacet
  facet normal 0.000000e+00 0.000000e+00 1.000000e+00
    outer loop
      vertex -3.139167e+01 5.954900e+01 2.200000e+01
      vertex 1.497790e+01 4.899100e+01 2.200000e+01
      vertex 1.530990e+01 4.967600e+01 2.200000e+01
    endloop
  endfacet
  facet normal 0.000000e+00 0.000000e+00 1.000000e+00
    outer loop
      vertex -3.139167e+01 5.954900e+01 2.200000e+01
      vertex 1.530990e+01 4.967600e+01 2.200000e+01
      vertex 1.548420e+01 5.000200e+01 2.200000e+01
    endloop
  endfacet
  facet normal 0.000000e+00 0.000000e+00 1.000000e+00
    outer loop
      vertex -3.139167e+01 5.954900e+01 2.200000e+01
      vertex 1.548420e+01 5.000200e+01 2.200000e+01
      vertex 1.605320e+01 5.081000e+01 2.200000e+01
    endloop
  endfacet
  facet normal 0.000000e+00 0.000000e+00 1.000000e+00
    outer loop
      vertex -3.139167e+01 5.954900e+01 2.200000e+01
      vertex 1.605320e+01 5.081000e+01 2.200000e+01
      vertex 1.628770e+01 5.109500e+01 2.200000e+01
    endloop
  endfacet
  facet normal 0.000000e+00 0.000000e+00 1.000000e+00
    outer loop
      vertex -3.139167e+01 5.954900e+01 2.200000e+01
      vertex 1.628770e+01 5.109500e+01 2.200000e+01
      vertex 1.727670e+01 5.203500e+01 2.200000e+01
    endloop
  endfacet
  facet normal 0.000000e+00 0.000000e+00 1.000000e+00
    outer loop
      vertex -3.139167e+01 5.954900e+01 2.200000e+01
      vertex 1.727670e+01 5.203500e+01 2.200000e+01
      vertex 1.756240e+01 5.227000e+01 2.200000e+01
    endloop
  endfacet
  facet normal 0.000000e+00 0.000000e+00 1.000000e+00
    outer loop
      vertex -3.139167e+01 5.954900e+01 2.200000e+01
      vertex 1.756240e+01 5.227000e+01 2.200000e+01
      vertex 1.883040e+01 5.305100e+01 2.200000e+01
    endloop
  endfacet
  facet normal 0.000000e+00 0.000000e+00 1.000000e+00
    outer loop
      vertex -3.139167e+01 5.954900e+01 2.200000e+01
      vertex 1.883040e+01 5.305100e+01 2.200000e+01
      vertex 1.915640e+01 5.322500e+01 2.200000e+01
    endloop
  endfacet
  facet normal 0.000000e+00 0.000000e+00 1.000000e+00
    outer loop
      vertex -3.139167e+01 5.954900e+01 2.200000e+01
      vertex 1.915640e+01 5.322500e+01 2.200000e+01
      vertex 2.030740e+01 5.372000e+01 2.200000e+01
    endloop
  endfacet
  facet normal 0.000000e+00 0.000000e+00 1.000000e+00
    outer loop
      vertex 3.261590e+01 5.888800e+01 2.200000e+01
      vertex 2.030740e+01 5.372000e+01 2.200000e+01
      vertex 2.070440e+01 5.384600e+01 2.200000e+01
    endloop
  endfacet
  facet normal 0.000000e+00 0.000000e+00 1.000000e+00
    outer loop
      vertex 3.261590e+01 5.888800e+01 2.200000e+01
      vertex 2.070440e+01 5.384600e+01 2.200000e+01
      vertex 2.115040e+01 5.398600e+01 2.200000e+01
    endloop
  endfacet
  facet normal 0.000000e+00 0.000000e+00 1.000000e+00
    outer loop
      vertex 3.261590e+01 5.888800e+01 2.200000e+01
      vertex 2.115040e+01 5.398600e+01 2.200000e+01
      vertex 2.150410e+01 5.409300e+01 2.200000e+01
    endloop
  endfacet
  facet normal 0.000000e+00 0.000000e+00 1.000000e+00
    outer loop
      vertex 3.261590e+01 5.888800e+01 2.200000e+01
      vertex 2.150410e+01 5.409300e+01 2.200000e+01
      vertex 2.403610e+01 5.468700e+01 2.200000e+01
    endloop
  endfacet
  facet normal 0.000000e+00 0.000000e+00 1.000000e+00
    outer loop
      vertex 3.261590e+01 5.888800e+01 2.200000e+01
      vertex 2.403610e+01 5.468700e+01 2.200000e+01
      vertex 2.697010e+01 5.514800e+01 2.200000e+01
    endloop
  endfacet
  facet normal 0.000000e+00 0.000000e+00 1.000000e+00
    outer loop
      vertex 2.826410e+01 5.529300e+01 2.200000e+01
      vertex 2.697010e+01 5.514800e+01 2.200000e+01
      vertex 2.761710e+01 5.522000e+01 2.200000e+01
    endloop
  endfacet
  facet normal 0.000000e+00 0.000000e+00 1.000000e+00
    outer loop
      vertex 3.261590e+01 5.888800e+01 2.200000e+01
      vertex 2.697010e+01 5.514800e+01 2.200000e+01
      vertex 2.826410e+01 5.529300e+01 2.200000e+01
    endloop
  endfacet
  facet normal 0.000000e+00 0.000000e+00 1.000000e+00
    outer loop
      vertex 3.261590e+01 5.888800e+01 2.200000e+01
      vertex 2.826410e+01 5.529300e+01 2.200000e+01
      vertex 3.117310e+01 5.560400e+01 2.200000e+01
    endloop
  endfacet
  facet normal 0.000000e+00 0.000000e+00 1.000000e+00
    outer loop
      vertex 3.261590e+01 5.888800e+01 2.200000e+01
      vertex 3.117310e+01 5.560400e+01 2.200000e+01
      vertex 3.154100e+01 5.564100e+01 2.200000e+01
    endloop
  endfacet
  facet normal 0.000000e+00 0.000000e+00 1.000000e+00
    outer loop
      vertex 3.261590e+01 5.888800e+01 2.200000e+01
      vertex 3.154100e+01 5.564100e+01 2.200000e+01
      vertex 3.258320e+01 5.574300e+01 2.200000e+01
    endloop
  endfacet
  facet normal 0.000000e+00 0.000000e+00 1.000000e+00
    outer loop
      vertex -3.139167e+01 5.954900e+01 2.200000e+01
      vertex 2.030740e+01 5.372000e+01 2.200000e+01
      vertex 3.261590e+01 5.888800e+01 2.200000e+01
    endloop
  endfacet
  facet normal 0.000000e+00 0.000000e+00 1.000000e+00
    outer loop
      vertex -3.139167e+01 5.954900e+01 2.200000e+01
      vertex -3.142407e+01 5.634900e+01 2.200000e+01
      vertex 1.497790e+01 4.899100e+01 2.200000e+01
    endloop
  endfacet
  facet normal 0.000000e+00 0.000000e+00 1.000000e+00
    outer loop
      vertex -3.142407e+01 5.634900e+01 2.200000e+01
      vertex -2.975713e+01 5.606900e+01 2.200000e+01
      vertex 1.497790e+01 4.899100e+01 2.200000e+01
    endloop
  endfacet
  facet normal 0.000000e+00 0.000000e+00 1.000000e+00
    outer loop
      vertex -2.975713e+01 5.606900e+01 2.200000e+01
      vertex -2.667013e+01 5.542400e+01 2.200000e+01
      vertex 1.497790e+01 4.899100e+01 2.200000e+01
    endloop
  endfacet
  facet normal 0.000000e+00 0.000000e+00 1.000000e+00
    outer loop
      vertex -2.667013e+01 5.542400e+01 2.200000e+01
      vertex -2.599713e+01 5.526500e+01 2.200000e+01
      vertex 1.497790e+01 4.899100e+01 2.200000e+01
    endloop
  endfacet
  facet normal 0.000000e+00 0.000000e+00 1.000000e+00
    outer loop
      vertex -2.599713e+01 5.526500e+01 2.200000e+01
      vertex -2.532413e+01 5.510800e+01 2.200000e+01
      vertex 1.497790e+01 4.899100e+01 2.200000e+01
    endloop
  endfacet
  facet normal 0.000000e+00 0.000000e+00 1.000000e+00
    outer loop
      vertex -2.532413e+01 5.510800e+01 2.200000e+01
      vertex -2.245410e+01 5.433500e+01 2.200000e+01
      vertex 1.497790e+01 4.899100e+01 2.200000e+01
    endloop
  endfacet
  facet normal 0.000000e+00 0.000000e+00 1.000000e+00
    outer loop
      vertex -2.245410e+01 5.433500e+01 2.200000e+01
      vertex -2.210040e+01 5.422800e+01 2.200000e+01
      vertex 1.497790e+01 4.899100e+01 2.200000e+01
    endloop
  endfacet
  facet normal 0.000000e+00 0.000000e+00 1.000000e+00
    outer loop
      vertex -2.210040e+01 5.422800e+01 2.200000e+01
      vertex -1.988940e+01 5.347700e+01 2.200000e+01
      vertex 1.497790e+01 4.899100e+01 2.200000e+01
    endloop
  endfacet
  facet normal 0.000000e+00 0.000000e+00 1.000000e+00
    outer loop
      vertex -1.988940e+01 5.347700e+01 2.200000e+01
      vertex -1.954640e+01 5.333000e+01 2.200000e+01
      vertex 1.497790e+01 4.899100e+01 2.200000e+01
    endloop
  endfacet
  facet normal 0.000000e+00 0.000000e+00 1.000000e+00
    outer loop
      vertex -1.954640e+01 5.333000e+01 2.200000e+01
      vertex -1.916340e+01 5.316400e+01 2.200000e+01
      vertex 1.497790e+01 4.899100e+01 2.200000e+01
    endloop
  endfacet
  facet normal 0.000000e+00 0.000000e+00 1.000000e+00
    outer loop
      vertex -1.916340e+01 5.316400e+01 2.200000e+01
      vertex -1.805240e+01 5.257200e+01 2.200000e+01
      vertex 1.497790e+01 4.899100e+01 2.200000e+01
    endloop
  endfacet
  facet normal 0.000000e+00 0.000000e+00 1.000000e+00
    outer loop
      vertex -1.805240e+01 5.257200e+01 2.200000e+01
      vertex -1.772640e+01 5.239800e+01 2.200000e+01
      vertex 1.497790e+01 4.899100e+01 2.200000e+01
    endloop
  endfacet
  facet normal 0.000000e+00 0.000000e+00 1.000000e+00
    outer loop
      vertex -1.772640e+01 5.239800e+01 2.200000e+01
      vertex -1.650340e+01 5.153500e+01 2.200000e+01
      vertex 1.497790e+01 4.899100e+01 2.200000e+01
    endloop
  endfacet
  facet normal 0.000000e+00 0.000000e+00 1.000000e+00
    outer loop
      vertex -1.650340e+01 5.153500e+01 2.200000e+01
      vertex -1.621770e+01 5.130000e+01 2.200000e+01
      vertex 1.497790e+01 4.899100e+01 2.200000e+01
    endloop
  endfacet
  facet normal 0.000000e+00 0.000000e+00 1.000000e+00
    outer loop
      vertex -1.621770e+01 5.130000e+01 2.200000e+01
      vertex -1.526370e+01 5.033100e+01 2.200000e+01
      vertex 1.497790e+01 4.899100e+01 2.200000e+01
    endloop
  endfacet
  facet normal 0.000000e+00 0.000000e+00 1.000000e+00
    outer loop
      vertex -1.526370e+01 5.033100e+01 2.200000e+01
      vertex -1.502920e+01 5.004600e+01 2.200000e+01
      vertex 1.497790e+01 4.899100e+01 2.200000e+01
    endloop
  endfacet
  facet normal 0.000000e+00 0.000000e+00 1.000000e+00
    outer loop
      vertex -1.502920e+01 5.004600e+01 2.200000e+01
      vertex -1.448320e+01 4.925800e+01 2.200000e+01
      vertex 1.497790e+01 4.899100e+01 2.200000e+01
    endloop
  endfacet
  facet normal 0.000000e+00 0.000000e+00 1.000000e+00
    outer loop
      vertex -1.448320e+01 4.925800e+01 2.200000e+01
      vertex -1.430890e+01 4.893200e+01 2.200000e+01
      vertex 1.497790e+01 4.899100e+01 2.200000e+01
    endloop
  endfacet
  facet normal 0.000000e+00 0.000000e+00 1.000000e+00
    outer loop
      vertex -1.430890e+01 4.893200e+01 2.200000e+01
      vertex -1.416990e+01 4.864700e+01 2.200000e+01
      vertex 1.497790e+01 4.899100e+01 2.200000e+01
    endloop
  endfacet
  facet normal 0.000000e+00 0.000000e+00 1.000000e+00
    outer loop
      vertex -1.416990e+01 4.864700e+01 2.200000e+01
      vertex -1.398790e+01 4.827200e+01 2.200000e+01
      vertex 1.497790e+01 4.899100e+01 2.200000e+01
    endloop
  endfacet
  facet normal 0.000000e+00 0.000000e+00 1.000000e+00
    outer loop
      vertex -1.398790e+01 4.827200e+01 2.200000e+01
      vertex -1.335690e+01 4.622700e+01 2.200000e+01
      vertex 1.497790e+01 4.899100e+01 2.200000e+01
    endloop
  endfacet
  facet normal 0.000000e+00 0.000000e+00 1.000000e+00
    outer loop
      vertex -1.335690e+01 4.622700e+01 2.200000e+01
      vertex -1.324960e+01 4.587300e+01 2.200000e+01
      vertex 1.497790e+01 4.899100e+01 2.200000e+01
    endloop
  endfacet
  facet normal 0.000000e+00 0.000000e+00 1.000000e+00
    outer loop
      vertex -1.324960e+01 4.587300e+01 2.200000e+01
      vertex -1.299360e+01 4.360300e+01 2.200000e+01
      vertex 1.497790e+01 4.899100e+01 2.200000e+01
    endloop
  endfacet
  facet normal 0.000000e+00 0.000000e+00 1.000000e+00
    outer loop
      vertex -1.299360e+01 4.360300e+01 2.200000e+01
      vertex -1.295740e+01 4.323500e+01 2.200000e+01
      vertex 1.497790e+01 4.899100e+01 2.200000e+01
    endloop
  endfacet
  facet normal 0.000000e+00 0.000000e+00 1.000000e+00
    outer loop
      vertex -1.295740e+01 4.323500e+01 2.200000e+01
      vertex -1.296140e+01 4.274600e+01 2.200000e+01
      vertex 1.497790e+01 4.899100e+01 2.200000e+01
    endloop
  endfacet
  facet normal 0.000000e+00 0.000000e+00 1.000000e+00
    outer loop
      vertex 1.385040e+01 4.329200e+01 2.200000e+01
      vertex -1.385740e+01 -4.389400e+01 2.200000e+01
      vertex 1.295640e+01 -4.326300e+01 2.200000e+01
    endloop
  endfacet
  facet normal 0.000000e+00 0.000000e+00 1.000000e+00
    outer loop
      vertex -1.385740e+01 -4.389400e+01 2.200000e+01
      vertex -1.386240e+01 -4.443800e+01 2.200000e+01
      vertex 1.295640e+01 -4.326300e+01 2.200000e+01
    endloop
  endfacet
  facet normal 0.000000e+00 0.000000e+00 1.000000e+00
    outer loop
      vertex -1.386240e+01 -4.443800e+01 2.200000e+01
      vertex -1.389860e+01 -4.480590e+01 2.200000e+01
      vertex 1.295640e+01 -4.326300e+01 2.200000e+01
    endloop
  endfacet
  facet normal 0.000000e+00 0.000000e+00 1.000000e+00
    outer loop
      vertex -1.389860e+01 -4.480590e+01 2.200000e+01
      vertex -1.421560e+01 -4.723990e+01 2.200000e+01
      vertex 1.295640e+01 -4.326300e+01 2.200000e+01
    endloop
  endfacet
  facet normal 0.000000e+00 0.000000e+00 1.000000e+00
    outer loop
      vertex -1.421560e+01 -4.723990e+01 2.200000e+01
      vertex -1.432290e+01 -4.759360e+01 2.200000e+01
      vertex 1.295640e+01 -4.326300e+01 2.200000e+01
    endloop
  endfacet
  facet normal 0.000000e+00 0.000000e+00 1.000000e+00
    outer loop
      vertex -1.432290e+01 -4.759360e+01 2.200000e+01
      vertex -1.502190e+01 -4.963560e+01 2.200000e+01
      vertex 1.295640e+01 -4.326300e+01 2.200000e+01
    endloop
  endfacet
  facet normal 0.000000e+00 0.000000e+00 1.000000e+00
    outer loop
      vertex -1.502190e+01 -4.963560e+01 2.200000e+01
      vertex -1.519620e+01 -4.996160e+01 2.200000e+01
      vertex 1.295640e+01 -4.326300e+01 2.200000e+01
    endloop
  endfacet
  facet normal 0.000000e+00 0.000000e+00 1.000000e+00
    outer loop
      vertex -1.519620e+01 -4.996160e+01 2.200000e+01
      vertex -1.539320e+01 -5.031160e+01 2.200000e+01
      vertex 1.295640e+01 -4.326300e+01 2.200000e+01
    endloop
  endfacet
  facet normal 0.000000e+00 0.000000e+00 1.000000e+00
    outer loop
      vertex -1.539320e+01 -5.031160e+01 2.200000e+01
      vertex -1.554320e+01 -5.057660e+01 2.200000e+01
      vertex 1.295640e+01 -4.326300e+01 2.200000e+01
    endloop
  endfacet
  facet normal 0.000000e+00 0.000000e+00 1.000000e+00
    outer loop
      vertex 1.295640e+01 -4.326300e+01 2.200000e+01
      vertex -1.611220e+01 -5.130760e+01 2.200000e+01
      vertex 1.295040e+01 -4.377900e+01 2.200000e+01
    endloop
  endfacet
  facet normal 0.000000e+00 0.000000e+00 1.000000e+00
    outer loop
      vertex 1.295040e+01 -4.377900e+01 2.200000e+01
      vertex -1.634670e+01 -5.159330e+01 2.200000e+01
      vertex 1.298660e+01 -4.414690e+01 2.200000e+01
    endloop
  endfacet
  facet normal 0.000000e+00 0.000000e+00 1.000000e+00
    outer loop
      vertex 1.298660e+01 -4.414690e+01 2.200000e+01
      vertex -1.731570e+01 -5.248533e+01 2.200000e+01
      vertex 1.325260e+01 -4.650790e+01 2.200000e+01
    endloop
  endfacet
  facet normal 0.000000e+00 0.000000e+00 1.000000e+00
    outer loop
      vertex -1.731570e+01 -5.248533e+01 2.200000e+01
      vertex -1.760140e+01 -5.271983e+01 2.200000e+01
      vertex 1.325260e+01 -4.650790e+01 2.200000e+01
    endloop
  endfacet
  facet normal 0.000000e+00 0.000000e+00 1.000000e+00
    outer loop
      vertex 1.335990e+01 -4.686160e+01 2.200000e+01
      vertex -1.882340e+01 -5.350683e+01 2.200000e+01
      vertex 1.401690e+01 -4.892460e+01 2.200000e+01
    endloop
  endfacet
  facet normal 0.000000e+00 0.000000e+00 1.000000e+00
    outer loop
      vertex -1.882340e+01 -5.350683e+01 2.200000e+01
      vertex -1.914940e+01 -5.368108e+01 2.200000e+01
      vertex 1.401690e+01 -4.892460e+01 2.200000e+01
    endloop
  endfacet
  facet normal 0.000000e+00 0.000000e+00 1.000000e+00
    outer loop
      vertex 1.435090e+01 -4.957060e+01 2.200000e+01
      vertex -2.024640e+01 -5.421408e+01 2.200000e+01
      vertex 1.452520e+01 -4.989660e+01 2.200000e+01
    endloop
  endfacet
  facet normal 0.000000e+00 0.000000e+00 1.000000e+00
    outer loop
      vertex 1.452520e+01 -4.989660e+01 2.200000e+01
      vertex -2.062240e+01 -5.436308e+01 2.200000e+01
      vertex 1.508320e+01 -5.067160e+01 2.200000e+01
    endloop
  endfacet
  facet normal 0.000000e+00 0.000000e+00 1.000000e+00
    outer loop
      vertex -2.062240e+01 -5.436308e+01 2.200000e+01
      vertex -2.091240e+01 -5.447508e+01 2.200000e+01
      vertex 1.508320e+01 -5.067160e+01 2.200000e+01
    endloop
  endfacet
  facet normal 0.000000e+00 0.000000e+00 1.000000e+00
    outer loop
      vertex -2.091240e+01 -5.447508e+01 2.200000e+01
      vertex -2.126610e+01 -5.458239e+01 2.200000e+01
      vertex 1.508320e+01 -5.067160e+01 2.200000e+01
    endloop
  endfacet
  facet normal 0.000000e+00 0.000000e+00 1.000000e+00
    outer loop
      vertex 1.531770e+01 -5.095730e+01 2.200000e+01
      vertex -2.340610e+01 -5.504739e+01 2.200000e+01
      vertex 1.628470e+01 -5.191233e+01 2.200000e+01
    endloop
  endfacet
  facet normal 0.000000e+00 0.000000e+00 1.000000e+00
    outer loop
      vertex 1.657040e+01 -5.214683e+01 2.200000e+01
      vertex -2.647813e+01 -5.538939e+01 2.200000e+01
      vertex 1.780240e+01 -5.300183e+01 2.200000e+01
    endloop
  endfacet
  facet normal 0.000000e+00 0.000000e+00 1.000000e+00
    outer loop
      vertex -2.647813e+01 -5.538939e+01 2.200000e+01
      vertex -2.684600e+01 -5.542562e+01 2.200000e+01
      vertex 1.780240e+01 -5.300183e+01 2.200000e+01
    endloop
  endfacet
  facet normal 0.000000e+00 0.000000e+00 1.000000e+00
    outer loop
      vertex -2.684600e+01 -5.542562e+01 2.200000e+01
      vertex -2.759900e+01 -5.547562e+01 2.200000e+01
      vertex 1.780240e+01 -5.300183e+01 2.200000e+01
    endloop
  endfacet
  facet normal 0.000000e+00 0.000000e+00 1.000000e+00
    outer loop
      vertex -2.759900e+01 -5.547562e+01 2.200000e+01
      vertex -3.157600e+01 -5.573562e+01 2.200000e+01
      vertex 1.780240e+01 -5.300183e+01 2.200000e+01
    endloop
  endfacet
  facet normal 0.000000e+00 0.000000e+00 1.000000e+00
    outer loop
      vertex -1.296140e+01 4.274600e+01 2.200000e+01
      vertex 1.430290e+01 4.686400e+01 2.200000e+01
      vertex 1.497790e+01 4.899100e+01 2.200000e+01
    endloop
  endfacet
  facet normal 0.000000e+00 0.000000e+00 1.000000e+00
    outer loop
      vertex -1.296140e+01 4.274600e+01 2.200000e+01
      vertex 1.419560e+01 4.651000e+01 2.200000e+01
      vertex 1.430290e+01 4.686400e+01 2.200000e+01
    endloop
  endfacet
  facet normal 0.000000e+00 0.000000e+00 1.000000e+00
    outer loop
      vertex -1.296140e+01 4.274600e+01 2.200000e+01
      vertex 1.389060e+01 4.416300e+01 2.200000e+01
      vertex 1.419560e+01 4.651000e+01 2.200000e+01
    endloop
  endfacet
  facet normal 0.000000e+00 0.000000e+00 1.000000e+00
    outer loop
      vertex -1.296140e+01 4.274600e+01 2.200000e+01
      vertex 1.385440e+01 4.379500e+01 2.200000e+01
      vertex 1.389060e+01 4.416300e+01 2.200000e+01
    endloop
  endfacet
  facet normal 0.000000e+00 0.000000e+00 1.000000e+00
    outer loop
      vertex -1.296140e+01 4.274600e+01 2.200000e+01
      vertex 1.385040e+01 4.329200e+01 2.200000e+01
      vertex 1.385440e+01 4.379500e+01 2.200000e+01
    endloop
  endfacet
  facet normal 0.000000e+00 0.000000e+00 1.000000e+00
    outer loop
      vertex -1.296140e+01 4.274600e+01 2.200000e+01
      vertex -1.385740e+01 -4.389400e+01 2.200000e+01
      vertex 1.385040e+01 4.329200e+01 2.200000e+01
    endloop
  endfacet
  facet normal 7.275869e-01 -7.364679e-03 6.859760e-01
    outer loop
      vertex 3.142320e+01 -5.642870e+01 2.200000e+01
      vertex 3.139170e+01 -5.954908e+01 2.200000e+01
      vertex 3.325801e+01 -6.145400e+01 2.000000e+01
    endloop
  endfacet
  facet normal 7.275869e-01 -7.364679e-03 6.859760e-01
    outer loop
      vertex 3.273840e+01 -5.527295e+01 2.061740e+01
      vertex 3.142320e+01 -5.642870e+01 2.200000e+01
      vertex 3.325801e+01 -6.145400e+01 2.000000e+01
    endloop
  endfacet
  facet normal 7.275869e-01 -7.364679e-03 6.859760e-01
    outer loop
      vertex 3.332600e+01 -5.473600e+01 2.000000e+01
      vertex 3.285200e+01 -5.517159e+01 2.049810e+01
      vertex 3.325801e+01 -6.145400e+01 2.000000e+01
    endloop
  endfacet
  facet normal 7.275869e-01 -7.364679e-03 6.859760e-01
    outer loop
      vertex 3.285200e+01 -5.517159e+01 2.049810e+01
      vertex 3.273840e+01 -5.527295e+01 2.061740e+01
      vertex 3.325801e+01 -6.145400e+01 2.000000e+01
    endloop
  endfacet
  facet normal 5.212029e-02 7.266179e-01 6.850619e-01
    outer loop
      vertex 3.285200e+01 -5.470200e+01 2.000000e+01
      vertex 3.285200e+01 -5.517159e+01 2.049810e+01
      vertex 3.332600e+01 -5.473600e+01 2.000000e+01
    endloop
  endfacet
  facet normal 7.147907e-02 7.257457e-01 6.842397e-01
    outer loop
      vertex 3.285200e+01 -5.470200e+01 2.000000e+01
      vertex 3.273840e+01 -5.527295e+01 2.061740e+01
      vertex 3.285200e+01 -5.517159e+01 2.049810e+01
    endloop
  endfacet
  facet normal 8.371412e-02 7.239122e-01 6.847942e-01
    outer loop
      vertex 2.978610e+01 -5.623939e+01 2.200000e+01
      vertex 3.142320e+01 -5.642870e+01 2.200000e+01
      vertex 3.015400e+01 -5.439000e+01 2.000000e+01
    endloop
  endfacet
  facet normal 8.371412e-02 7.239122e-01 6.847942e-01
    outer loop
      vertex 3.015400e+01 -5.439000e+01 2.000000e+01
      vertex 3.142320e+01 -5.642870e+01 2.200000e+01
      vertex 3.273840e+01 -5.527295e+01 2.061740e+01
    endloop
  endfacet
  facet normal 8.371412e-02 7.239122e-01 6.847942e-01
    outer loop
      vertex 3.015400e+01 -5.439000e+01 2.000000e+01
      vertex 3.273840e+01 -5.527295e+01 2.061740e+01
      vertex 3.285200e+01 -5.470200e+01 2.000000e+01
    endloop
  endfacet
  facet normal 1.150560e-01 7.186980e-01 6.857370e-01
    outer loop
      vertex 2.664410e+01 -5.573639e+01 2.200000e+01
      vertex 2.978610e+01 -5.623939e+01 2.200000e+01
      vertex 2.701200e+01 -5.388700e+01 2.000000e+01
    endloop
  endfacet
  facet normal 1.150560e-01 7.186980e-01 6.857370e-01
    outer loop
      vertex 2.701200e+01 -5.388700e+01 2.000000e+01
      vertex 2.978610e+01 -5.623939e+01 2.200000e+01
      vertex 3.015400e+01 -5.439000e+01 2.000000e+01
    endloop
  endfacet
  facet normal 1.319790e-01 7.155710e-01 6.859590e-01
    outer loop
      vertex 2.595010e+01 -5.560839e+01 2.200000e+01
      vertex 2.664410e+01 -5.573639e+01 2.200000e+01
      vertex 2.631800e+01 -5.375900e+01 2.000000e+01
    endloop
  endfacet
  facet normal 1.319790e-01 7.155710e-01 6.859590e-01
    outer loop
      vertex 2.631800e+01 -5.375900e+01 2.000000e+01
      vertex 2.664410e+01 -5.573639e+01 2.200000e+01
      vertex 2.701200e+01 -5.388700e+01 2.000000e+01
    endloop
  endfacet
  facet normal 1.326050e-01 7.154512e-01 6.859632e-01
    outer loop
      vertex 2.525410e+01 -5.547939e+01 2.200000e+01
      vertex 2.595010e+01 -5.560839e+01 2.200000e+01
      vertex 2.562200e+01 -5.363000e+01 2.000000e+01
    endloop
  endfacet
  facet normal 1.326050e-01 7.154512e-01 6.859632e-01
    outer loop
      vertex 2.562200e+01 -5.363000e+01 2.000000e+01
      vertex 2.595010e+01 -5.560839e+01 2.200000e+01
      vertex 2.631800e+01 -5.375900e+01 2.000000e+01
    endloop
  endfacet
  facet normal 1.602881e-01 7.098482e-01 6.858742e-01
    outer loop
      vertex 2.237110e+01 -5.482839e+01 2.200000e+01
      vertex 2.525410e+01 -5.547939e+01 2.200000e+01
      vertex 2.273900e+01 -5.297900e+01 2.000000e+01
    endloop
  endfacet
  facet normal 1.602881e-01 7.098482e-01 6.858742e-01
    outer loop
      vertex 2.273900e+01 -5.297900e+01 2.000000e+01
      vertex 2.525410e+01 -5.547939e+01 2.200000e+01
      vertex 2.562200e+01 -5.363000e+01 2.000000e+01
    endloop
  endfacet
  facet normal 2.116929e-01 6.978556e-01 6.842396e-01
    outer loop
      vertex 2.273900e+01 -5.297900e+01 2.000000e+01
      vertex 2.201740e+01 -5.472108e+01 2.200000e+01
      vertex 2.237110e+01 -5.482839e+01 2.200000e+01
    endloop
  endfacet
  facet normal 2.180180e-01 6.955960e-01 6.845540e-01
    outer loop
      vertex 1.992440e+01 -5.406508e+01 2.200000e+01
      vertex 2.201740e+01 -5.472108e+01 2.200000e+01
      vertex 2.064600e+01 -5.232300e+01 2.000000e+01
    endloop
  endfacet
  facet normal 2.180180e-01 6.955960e-01 6.845540e-01
    outer loop
      vertex 2.064600e+01 -5.232300e+01 2.000000e+01
      vertex 2.201740e+01 -5.472108e+01 2.200000e+01
      vertex 2.273900e+01 -5.297900e+01 2.000000e+01
    endloop
  endfacet
  facet normal 2.938930e-01 6.657109e-01 6.858979e-01
    outer loop
      vertex 2.034700e+01 -5.219100e+01 2.000000e+01
      vertex 1.962540e+01 -5.393308e+01 2.200000e+01
      vertex 1.992440e+01 -5.406508e+01 2.200000e+01
    endloop
  endfacet
  facet normal 2.938930e-01 6.657109e-01 6.858979e-01
    outer loop
      vertex 2.064600e+01 -5.232300e+01 2.000000e+01
      vertex 2.034700e+01 -5.219100e+01 2.000000e+01
      vertex 1.992440e+01 -5.406508e+01 2.200000e+01
    endloop
  endfacet
  facet normal 2.895642e-01 6.675574e-01 6.859444e-01
    outer loop
      vertex 1.996200e+01 -5.202400e+01 2.000000e+01
      vertex 1.924040e+01 -5.376608e+01 2.200000e+01
      vertex 1.962540e+01 -5.393308e+01 2.200000e+01
    endloop
  endfacet
  facet normal 2.895642e-01 6.675574e-01 6.859444e-01
    outer loop
      vertex 2.034700e+01 -5.219100e+01 2.000000e+01
      vertex 1.996200e+01 -5.202400e+01 2.000000e+01
      vertex 1.962540e+01 -5.393308e+01 2.200000e+01
    endloop
  endfacet
  facet normal 3.417480e-01 6.441090e-01 6.843479e-01
    outer loop
      vertex 1.885000e+01 -5.143400e+01 2.000000e+01
      vertex 1.812840e+01 -5.317608e+01 2.200000e+01
      vertex 1.924040e+01 -5.376608e+01 2.200000e+01
    endloop
  endfacet
  facet normal 3.417480e-01 6.441090e-01 6.843479e-01
    outer loop
      vertex 1.996200e+01 -5.202400e+01 2.000000e+01
      vertex 1.885000e+01 -5.143400e+01 2.000000e+01
      vertex 1.924040e+01 -5.376608e+01 2.200000e+01
    endloop
  endfacet
  facet normal 3.437700e-01 6.431469e-01 6.842399e-01
    outer loop
      vertex 1.885000e+01 -5.143400e+01 2.000000e+01
      vertex 1.780240e+01 -5.300183e+01 2.200000e+01
      vertex 1.812840e+01 -5.317608e+01 2.200000e+01
    endloop
  endfacet
  facet normal 4.148721e-01 5.978042e-01 6.859382e-01
    outer loop
      vertex 1.761800e+01 -5.057900e+01 2.000000e+01
      vertex 1.657040e+01 -5.214683e+01 2.200000e+01
      vertex 1.780240e+01 -5.300183e+01 2.200000e+01
    endloop
  endfacet
  facet normal 4.148721e-01 5.978042e-01 6.859382e-01
    outer loop
      vertex 1.885000e+01 -5.143400e+01 2.000000e+01
      vertex 1.761800e+01 -5.057900e+01 2.000000e+01
      vertex 1.780240e+01 -5.300183e+01 2.200000e+01
    endloop
  endfacet
  facet normal 4.626357e-01 5.637236e-01 6.842396e-01
    outer loop
      vertex 1.761800e+01 -5.057900e+01 2.000000e+01
      vertex 1.628470e+01 -5.191233e+01 2.200000e+01
      vertex 1.657040e+01 -5.214683e+01 2.200000e+01
    endloop
  endfacet
  facet normal 5.112780e-01 5.177031e-01 6.859871e-01
    outer loop
      vertex 1.665100e+01 -4.962400e+01 2.000000e+01
      vertex 1.531770e+01 -5.095730e+01 2.200000e+01
      vertex 1.628470e+01 -5.191233e+01 2.200000e+01
    endloop
  endfacet
  facet normal 5.112780e-01 5.177031e-01 6.859871e-01
    outer loop
      vertex 1.761800e+01 -5.057900e+01 2.000000e+01
      vertex 1.665100e+01 -4.962400e+01 2.000000e+01
      vertex 1.628470e+01 -5.191233e+01 2.200000e+01
    endloop
  endfacet
  facet normal 5.637236e-01 4.626357e-01 6.842396e-01
    outer loop
      vertex 1.665100e+01 -4.962400e+01 2.000000e+01
      vertex 1.508320e+01 -5.067160e+01 2.200000e+01
      vertex 1.531770e+01 -5.095730e+01 2.200000e+01
    endloop
  endfacet
  facet normal 5.906479e-01 4.252669e-01 6.857719e-01
    outer loop
      vertex 1.609300e+01 -4.884900e+01 2.000000e+01
      vertex 1.452520e+01 -4.989660e+01 2.200000e+01
      vertex 1.508320e+01 -5.067160e+01 2.200000e+01
    endloop
  endfacet
  facet normal 5.906479e-01 4.252669e-01 6.857719e-01
    outer loop
      vertex 1.665100e+01 -4.962400e+01 2.000000e+01
      vertex 1.609300e+01 -4.884900e+01 2.000000e+01
      vertex 1.508320e+01 -5.067160e+01 2.200000e+01
    endloop
  endfacet
  facet normal 6.431469e-01 3.437700e-01 6.842399e-01
    outer loop
      vertex 1.609300e+01 -4.884900e+01 2.000000e+01
      vertex 1.435090e+01 -4.957060e+01 2.200000e+01
      vertex 1.452520e+01 -4.989660e+01 2.200000e+01
    endloop
  endfacet
  facet normal 6.471809e-01 3.352310e-01 6.846730e-01
    outer loop
      vertex 1.594900e+01 -4.857100e+01 2.000000e+01
      vertex 1.420690e+01 -4.929260e+01 2.200000e+01
      vertex 1.435090e+01 -4.957060e+01 2.200000e+01
    endloop
  endfacet
  facet normal 6.471809e-01 3.352310e-01 6.846730e-01
    outer loop
      vertex 1.609300e+01 -4.884900e+01 2.000000e+01
      vertex 1.594900e+01 -4.857100e+01 2.000000e+01
      vertex 1.435090e+01 -4.957060e+01 2.200000e+01
    endloop
  endfacet
  facet normal 6.475915e-01 3.343543e-01 6.847135e-01
    outer loop
      vertex 1.575900e+01 -4.820300e+01 2.000000e+01
      vertex 1.401690e+01 -4.892460e+01 2.200000e+01
      vertex 1.420690e+01 -4.929260e+01 2.200000e+01
    endloop
  endfacet
  facet normal 6.475915e-01 3.343543e-01 6.847135e-01
    outer loop
      vertex 1.594900e+01 -4.857100e+01 2.000000e+01
      vertex 1.575900e+01 -4.820300e+01 2.000000e+01
      vertex 1.420690e+01 -4.929260e+01 2.200000e+01
    endloop
  endfacet
  facet normal 6.944598e-01 2.211629e-01 6.846988e-01
    outer loop
      vertex 1.510200e+01 -4.614000e+01 2.000000e+01
      vertex 1.335990e+01 -4.686160e+01 2.200000e+01
      vertex 1.401690e+01 -4.892460e+01 2.200000e+01
    endloop
  endfacet
  facet normal 6.944598e-01 2.211629e-01 6.846988e-01
    outer loop
      vertex 1.575900e+01 -4.820300e+01 2.000000e+01
      vertex 1.510200e+01 -4.614000e+01 2.000000e+01
      vertex 1.401690e+01 -4.892460e+01 2.200000e+01
    endloop
  endfacet
  facet normal 6.978556e-01 2.116929e-01 6.842396e-01
    outer loop
      vertex 1.510200e+01 -4.614000e+01 2.000000e+01
      vertex 1.325260e+01 -4.650790e+01 2.200000e+01
      vertex 1.335990e+01 -4.686160e+01 2.200000e+01
    endloop
  endfacet
  facet normal 7.242377e-01 8.159557e-02 6.847057e-01
    outer loop
      vertex 1.483600e+01 -4.377900e+01 2.000000e+01
      vertex 1.298660e+01 -4.414690e+01 2.200000e+01
      vertex 1.325260e+01 -4.650790e+01 2.200000e+01
    endloop
  endfacet
  facet normal 7.242377e-01 8.159557e-02 6.847057e-01
    outer loop
      vertex 1.510200e+01 -4.614000e+01 2.000000e+01
      vertex 1.483600e+01 -4.377900e+01 2.000000e+01
      vertex 1.325260e+01 -4.650790e+01 2.200000e+01
    endloop
  endfacet
  facet normal 7.257457e-01 7.147907e-02 6.842397e-01
    outer loop
      vertex 1.483600e+01 -4.377900e+01 2.000000e+01
      vertex 1.295040e+01 -4.377900e+01 2.200000e+01
      vertex 1.298660e+01 -4.414690e+01 2.200000e+01
    endloop
  endfacet
  facet normal 7.275808e-01 -8.460238e-03 6.859698e-01
    outer loop
      vertex 1.295640e+01 -4.326300e+01 2.200000e+01
      vertex 1.295040e+01 -4.377900e+01 2.200000e+01
      vertex 1.483600e+01 -4.377900e+01 2.000000e+01
    endloop
  endfacet
  facet normal 7.275808e-01 -8.460238e-03 6.859698e-01
    outer loop
      vertex 1.484200e+01 -4.326300e+01 2.000000e+01
      vertex 1.295640e+01 -4.326300e+01 2.200000e+01
      vertex 1.483600e+01 -4.377900e+01 2.000000e+01
    endloop
  endfacet
  facet normal 7.275862e-01 -7.515022e-03 6.859752e-01
    outer loop
      vertex 1.385040e+01 4.329200e+01 2.200000e+01
      vertex 1.295640e+01 -4.326300e+01 2.200000e+01
      vertex 1.484200e+01 -4.326300e+01 2.000000e+01
    endloop
  endfacet
  facet normal 7.275862e-01 -7.515022e-03 6.859752e-01
    outer loop
      vertex 1.573600e+01 4.329200e+01 2.000000e+01
      vertex 1.385040e+01 4.329200e+01 2.200000e+01
      vertex 1.484200e+01 -4.326300e+01 2.000000e+01
    endloop
  endfacet
  facet normal 7.275947e-01 -5.786038e-03 6.859828e-01
    outer loop
      vertex 1.385440e+01 4.379500e+01 2.200000e+01
      vertex 1.385040e+01 4.329200e+01 2.200000e+01
      vertex 1.573600e+01 4.329200e+01 2.000000e+01
    endloop
  endfacet
  facet normal 7.275947e-01 -5.786038e-03 6.859828e-01
    outer loop
      vertex 1.574000e+01 4.379500e+01 2.000000e+01
      vertex 1.385440e+01 4.379500e+01 2.200000e+01
      vertex 1.573600e+01 4.329200e+01 2.000000e+01
    endloop
  endfacet
  facet normal 7.257457e-01 -7.147907e-02 6.842397e-01
    outer loop
      vertex 1.389060e+01 4.416300e+01 2.200000e+01
      vertex 1.385440e+01 4.379500e+01 2.200000e+01
      vertex 1.574000e+01 4.379500e+01 2.000000e+01
    endloop
  endfacet
  facet normal 7.223050e-01 -9.386580e-02 6.851750e-01
    outer loop
      vertex 1.419560e+01 4.651000e+01 2.200000e+01
      vertex 1.389060e+01 4.416300e+01 2.200000e+01
      vertex 1.574000e+01 4.379500e+01 2.000000e+01
    endloop
  endfacet
  facet normal 7.223050e-01 -9.386580e-02 6.851750e-01
    outer loop
      vertex 1.604500e+01 4.614200e+01 2.000000e+01
      vertex 1.419560e+01 4.651000e+01 2.200000e+01
      vertex 1.574000e+01 4.379500e+01 2.000000e+01
    endloop
  endfacet
  facet normal 6.978556e-01 -2.116929e-01 6.842396e-01
    outer loop
      vertex 1.430290e+01 4.686400e+01 2.200000e+01
      vertex 1.419560e+01 4.651000e+01 2.200000e+01
      vertex 1.604500e+01 4.614200e+01 2.000000e+01
    endloop
  endfacet
  facet normal 6.947129e-01 -2.204660e-01 6.846669e-01
    outer loop
      vertex 1.497790e+01 4.899100e+01 2.200000e+01
      vertex 1.430290e+01 4.686400e+01 2.200000e+01
      vertex 1.604500e+01 4.614200e+01 2.000000e+01
    endloop
  endfacet
  facet normal 6.947129e-01 -2.204660e-01 6.846669e-01
    outer loop
      vertex 1.672000e+01 4.826900e+01 2.000000e+01
      vertex 1.497790e+01 4.899100e+01 2.200000e+01
      vertex 1.604500e+01 4.614200e+01 2.000000e+01
    endloop
  endfacet
  facet normal 6.549619e-01 -3.183150e-01 6.853470e-01
    outer loop
      vertex 1.516890e+01 4.938400e+01 2.200000e+01
      vertex 1.497790e+01 4.899100e+01 2.200000e+01
      vertex 1.672000e+01 4.826900e+01 2.000000e+01
    endloop
  endfacet
  facet normal 6.549619e-01 -3.183150e-01 6.853470e-01
    outer loop
      vertex 1.691100e+01 4.866200e+01 2.000000e+01
      vertex 1.516890e+01 4.938400e+01 2.200000e+01
      vertex 1.672000e+01 4.826900e+01 2.000000e+01
    endloop
  endfacet
  facet normal 6.557208e-01 -3.166319e-01 6.854008e-01
    outer loop
      vertex 1.530990e+01 4.967600e+01 2.200000e+01
      vertex 1.516890e+01 4.938400e+01 2.200000e+01
      vertex 1.691100e+01 4.866200e+01 2.000000e+01
    endloop
  endfacet
  facet normal 6.557208e-01 -3.166319e-01 6.854008e-01
    outer loop
      vertex 1.705200e+01 4.895400e+01 2.000000e+01
      vertex 1.530990e+01 4.967600e+01 2.200000e+01
      vertex 1.691100e+01 4.866200e+01 2.000000e+01
    endloop
  endfacet
  facet normal 6.431469e-01 -3.437700e-01 6.842399e-01
    outer loop
      vertex 1.548420e+01 5.000200e+01 2.200000e+01
      vertex 1.530990e+01 4.967600e+01 2.200000e+01
      vertex 1.705200e+01 4.895400e+01 2.000000e+01
    endloop
  endfacet
  facet normal 5.949842e-01 -4.189931e-01 6.858853e-01
    outer loop
      vertex 1.605320e+01 5.081000e+01 2.200000e+01
      vertex 1.548420e+01 5.000200e+01 2.200000e+01
      vertex 1.705200e+01 4.895400e+01 2.000000e+01
    endloop
  endfacet
  facet normal 5.949842e-01 -4.189931e-01 6.858853e-01
    outer loop
      vertex 1.762100e+01 4.976200e+01 2.000000e+01
      vertex 1.605320e+01 5.081000e+01 2.200000e+01
      vertex 1.705200e+01 4.895400e+01 2.000000e+01
    endloop
  endfacet
  facet normal 5.637236e-01 -4.626357e-01 6.842396e-01
    outer loop
      vertex 1.628770e+01 5.109500e+01 2.200000e+01
      vertex 1.605320e+01 5.081000e+01 2.200000e+01
      vertex 1.762100e+01 4.976200e+01 2.000000e+01
    endloop
  endfacet
  facet normal 5.013410e-01 -5.274751e-01 6.858771e-01
    outer loop
      vertex 1.727670e+01 5.203500e+01 2.200000e+01
      vertex 1.628770e+01 5.109500e+01 2.200000e+01
      vertex 1.762100e+01 4.976200e+01 2.000000e+01
    endloop
  endfacet
  facet normal 5.013410e-01 -5.274751e-01 6.858771e-01
    outer loop
      vertex 1.861000e+01 5.070200e+01 2.000000e+01
      vertex 1.727670e+01 5.203500e+01 2.200000e+01
      vertex 1.762100e+01 4.976200e+01 2.000000e+01
    endloop
  endfacet
  facet normal 4.626357e-01 -5.637236e-01 6.842396e-01
    outer loop
      vertex 1.756240e+01 5.227000e+01 2.200000e+01
      vertex 1.727670e+01 5.203500e+01 2.200000e+01
      vertex 1.861000e+01 5.070200e+01 2.000000e+01
    endloop
  endfacet
  facet normal 3.817049e-01 -6.197209e-01 6.857458e-01
    outer loop
      vertex 1.883040e+01 5.305100e+01 2.200000e+01
      vertex 1.756240e+01 5.227000e+01 2.200000e+01
      vertex 1.861000e+01 5.070200e+01 2.000000e+01
    endloop
  endfacet
  facet normal 3.817049e-01 -6.197209e-01 6.857458e-01
    outer loop
      vertex 1.987800e+01 5.148300e+01 2.000000e+01
      vertex 1.883040e+01 5.305100e+01 2.200000e+01
      vertex 1.861000e+01 5.070200e+01 2.000000e+01
    endloop
  endfacet
  facet normal 3.437700e-01 -6.431469e-01 6.842399e-01
    outer loop
      vertex 1.915640e+01 5.322500e+01 2.200000e+01
      vertex 1.883040e+01 5.305100e+01 2.200000e+01
      vertex 1.987800e+01 5.148300e+01 2.000000e+01
    endloop
  endfacet
  facet normal 2.874711e-01 -6.684442e-01 6.859612e-01
    outer loop
      vertex 2.030740e+01 5.372000e+01 2.200000e+01
      vertex 1.915640e+01 5.322500e+01 2.200000e+01
      vertex 1.987800e+01 5.148300e+01 2.000000e+01
    endloop
  endfacet
  facet normal 2.874711e-01 -6.684442e-01 6.859612e-01
    outer loop
      vertex 2.102900e+01 5.197800e+01 2.000000e+01
      vertex 2.030740e+01 5.372000e+01 2.200000e+01
      vertex 1.987800e+01 5.148300e+01 2.000000e+01
    endloop
  endfacet
  facet normal 2.204861e-01 -6.947052e-01 6.846682e-01
    outer loop
      vertex 2.070440e+01 5.384600e+01 2.200000e+01
      vertex 2.030740e+01 5.372000e+01 2.200000e+01
      vertex 2.102900e+01 5.197800e+01 2.000000e+01
    endloop
  endfacet
  facet normal 2.204861e-01 -6.947052e-01 6.846682e-01
    outer loop
      vertex 2.142600e+01 5.210400e+01 2.000000e+01
      vertex 2.070440e+01 5.384600e+01 2.200000e+01
      vertex 2.102900e+01 5.197800e+01 2.000000e+01
    endloop
  endfacet
  facet normal 2.183151e-01 -6.954892e-01 6.845682e-01
    outer loop
      vertex 2.115040e+01 5.398600e+01 2.200000e+01
      vertex 2.070440e+01 5.384600e+01 2.200000e+01
      vertex 2.142600e+01 5.210400e+01 2.000000e+01
    endloop
  endfacet
  facet normal 2.183151e-01 -6.954892e-01 6.845682e-01
    outer loop
      vertex 2.187200e+01 5.224400e+01 2.000000e+01
      vertex 2.115040e+01 5.398600e+01 2.200000e+01
      vertex 2.142600e+01 5.210400e+01 2.000000e+01
    endloop
  endfacet
  facet normal 2.116929e-01 -6.978556e-01 6.842396e-01
    outer loop
      vertex 2.150410e+01 5.409300e+01 2.200000e+01
      vertex 2.115040e+01 5.398600e+01 2.200000e+01
      vertex 2.187200e+01 5.224400e+01 2.000000e+01
    endloop
  endfacet
  facet normal 1.662281e-01 -7.085685e-01 6.857835e-01
    outer loop
      vertex 2.403610e+01 5.468700e+01 2.200000e+01
      vertex 2.150410e+01 5.409300e+01 2.200000e+01
      vertex 2.187200e+01 5.224400e+01 2.000000e+01
    endloop
  endfacet
  facet normal 1.662281e-01 -7.085685e-01 6.857835e-01
    outer loop
      vertex 2.440400e+01 5.283800e+01 2.000000e+01
      vertex 2.403610e+01 5.468700e+01 2.200000e+01
      vertex 2.187200e+01 5.224400e+01 2.000000e+01
    endloop
  endfacet
  facet normal 1.129820e-01 -7.190661e-01 6.856961e-01
    outer loop
      vertex 2.697010e+01 5.514800e+01 2.200000e+01
      vertex 2.403610e+01 5.468700e+01 2.200000e+01
      vertex 2.440400e+01 5.283800e+01 2.000000e+01
    endloop
  endfacet
  facet normal 1.129820e-01 -7.190661e-01 6.856961e-01
    outer loop
      vertex 2.733800e+01 5.329900e+01 2.000000e+01
      vertex 2.697010e+01 5.514800e+01 2.200000e+01
      vertex 2.440400e+01 5.283800e+01 2.000000e+01
    endloop
  endfacet
  facet normal 8.061185e-02 -7.243876e-01 6.846637e-01
    outer loop
      vertex 2.761710e+01 5.522000e+01 2.200000e+01
      vertex 2.697010e+01 5.514800e+01 2.200000e+01
      vertex 2.733800e+01 5.329900e+01 2.000000e+01
    endloop
  endfacet
  facet normal 8.061185e-02 -7.243876e-01 6.846637e-01
    outer loop
      vertex 2.798500e+01 5.337100e+01 2.000000e+01
      vertex 2.761710e+01 5.522000e+01 2.200000e+01
      vertex 2.733800e+01 5.329900e+01 2.000000e+01
    endloop
  endfacet
  facet normal 8.171257e-02 -7.242197e-01 6.847107e-01
    outer loop
      vertex 2.826410e+01 5.529300e+01 2.200000e+01
      vertex 2.761710e+01 5.522000e+01 2.200000e+01
      vertex 2.798500e+01 5.337100e+01 2.000000e+01
    endloop
  endfacet
  facet normal 8.171257e-02 -7.242197e-01 6.847107e-01
    outer loop
      vertex 2.863200e+01 5.344400e+01 2.000000e+01
      vertex 2.826410e+01 5.529300e+01 2.200000e+01
      vertex 2.798500e+01 5.337100e+01 2.000000e+01
    endloop
  endfacet
  facet normal 7.749435e-02 -7.248584e-01 6.845254e-01
    outer loop
      vertex 3.117310e+01 5.560400e+01 2.200000e+01
      vertex 2.826410e+01 5.529300e+01 2.200000e+01
      vertex 2.863200e+01 5.344400e+01 2.000000e+01
    endloop
  endfacet
  facet normal 7.749435e-02 -7.248584e-01 6.845254e-01
    outer loop
      vertex 3.154100e+01 5.375500e+01 2.000000e+01
      vertex 3.117310e+01 5.560400e+01 2.200000e+01
      vertex 2.863200e+01 5.344400e+01 2.000000e+01
    endloop
  endfacet
  facet normal 7.147907e-02 -7.257457e-01 6.842397e-01
    outer loop
      vertex 3.154100e+01 5.564100e+01 2.200000e+01
      vertex 3.117310e+01 5.560400e+01 2.200000e+01
      vertex 3.154100e+01 5.375500e+01 2.000000e+01
    endloop
  endfacet
  facet normal 7.114182e-02 -7.257633e-01 6.842563e-01
    outer loop
      vertex 3.154100e+01 5.564100e+01 2.200000e+01
      vertex 3.154100e+01 5.375500e+01 2.000000e+01
      vertex 3.402000e+01 5.399800e+01 2.000000e+01
    endloop
  endfacet
  facet normal 7.114182e-02 -7.257633e-01 6.842563e-01
    outer loop
      vertex 3.258320e+01 5.574300e+01 2.200000e+01
      vertex 3.154100e+01 5.564100e+01 2.200000e+01
      vertex 3.402000e+01 5.443300e+01 2.046150e+01
    endloop
  endfacet
  facet normal 7.114182e-02 -7.257633e-01 6.842563e-01
    outer loop
      vertex 3.402000e+01 5.443300e+01 2.046150e+01
      vertex 3.154100e+01 5.564100e+01 2.200000e+01
      vertex 3.402000e+01 5.399800e+01 2.000000e+01
    endloop
  endfacet
  facet normal 6.401942e-02 -7.261142e-01 6.845872e-01
    outer loop
      vertex 3.402000e+01 5.443300e+01 2.046150e+01
      vertex 3.402000e+01 5.399800e+01 2.000000e+01
      vertex 3.445100e+01 5.403600e+01 2.000000e+01
    endloop
  endfacet
  facet normal 7.275858e-01 -7.581278e-03 6.859748e-01
    outer loop
      vertex 3.261590e+01 5.888800e+01 2.200000e+01
      vertex 3.258320e+01 5.574300e+01 2.200000e+01
      vertex 3.402000e+01 5.443300e+01 2.046150e+01
    endloop
  endfacet
  facet normal 7.275858e-01 -7.581278e-03 6.859748e-01
    outer loop
      vertex 3.445100e+01 5.403600e+01 2.000000e+01
      vertex 3.261590e+01 5.888800e+01 2.200000e+01
      vertex 3.402000e+01 5.443300e+01 2.046150e+01
    endloop
  endfacet
  facet normal 7.275858e-01 -7.581278e-03 6.859748e-01
    outer loop
      vertex 3.445100e+01 5.403600e+01 2.000000e+01
      vertex 3.452100e+01 6.075400e+01 2.000000e+01
      vertex 3.261590e+01 5.888800e+01 2.200000e+01
    endloop
  endfacet
  facet normal 7.514282e-03 7.275862e-01 6.859752e-01
    outer loop
      vertex -3.325800e+01 6.145400e+01 2.000000e+01
      vertex -3.139167e+01 5.954900e+01 2.200000e+01
      vertex 3.452100e+01 6.075400e+01 2.000000e+01
    endloop
  endfacet
  facet normal 7.514282e-03 7.275862e-01 6.859752e-01
    outer loop
      vertex 3.452100e+01 6.075400e+01 2.000000e+01
      vertex -3.139167e+01 5.954900e+01 2.200000e+01
      vertex 3.261590e+01 5.888800e+01 2.200000e+01
    endloop
  endfacet
  facet normal -7.275869e-01 7.366869e-03 6.859760e-01
    outer loop
      vertex -3.332600e+01 5.473800e+01 2.000000e+01
      vertex -3.272349e+01 5.526200e+01 2.063340e+01
      vertex -3.325800e+01 6.145400e+01 2.000000e+01
    endloop
  endfacet
  facet normal -7.275869e-01 7.366869e-03 6.859760e-01
    outer loop
      vertex -3.325800e+01 6.145400e+01 2.000000e+01
      vertex -3.272349e+01 5.526200e+01 2.063340e+01
      vertex -3.142407e+01 5.634900e+01 2.200000e+01
    endloop
  endfacet
  facet normal -7.275869e-01 7.366869e-03 6.859760e-01
    outer loop
      vertex -3.325800e+01 6.145400e+01 2.000000e+01
      vertex -3.142407e+01 5.634900e+01 2.200000e+01
      vertex -3.139167e+01 5.954900e+01 2.200000e+01
    endloop
  endfacet
  facet normal -9.218060e-02 -7.225770e-01 6.851170e-01
    outer loop
      vertex -3.272349e+01 5.526200e+01 2.063340e+01
      vertex -3.332600e+01 5.473800e+01 2.000000e+01
      vertex -3.284000e+01 5.467600e+01 2.000000e+01
    endloop
  endfacet
  facet normal -1.205430e-01 -7.177082e-01 6.858312e-01
    outer loop
      vertex -3.272349e+01 5.526200e+01 2.063340e+01
      vertex -3.284000e+01 5.467600e+01 2.000000e+01
      vertex -3.012500e+01 5.422000e+01 2.000000e+01
    endloop
  endfacet
  facet normal -1.205430e-01 -7.177082e-01 6.858312e-01
    outer loop
      vertex -3.142407e+01 5.634900e+01 2.200000e+01
      vertex -3.272349e+01 5.526200e+01 2.063340e+01
      vertex -2.975713e+01 5.606900e+01 2.200000e+01
    endloop
  endfacet
  facet normal -1.205430e-01 -7.177082e-01 6.858312e-01
    outer loop
      vertex -2.975713e+01 5.606900e+01 2.200000e+01
      vertex -3.272349e+01 5.526200e+01 2.063340e+01
      vertex -3.012500e+01 5.422000e+01 2.000000e+01
    endloop
  endfacet
  facet normal -1.488159e-01 -7.122418e-01 6.859778e-01
    outer loop
      vertex -2.975713e+01 5.606900e+01 2.200000e+01
      vertex -3.012500e+01 5.422000e+01 2.000000e+01
      vertex -2.703800e+01 5.357500e+01 2.000000e+01
    endloop
  endfacet
  facet normal -1.488159e-01 -7.122418e-01 6.859778e-01
    outer loop
      vertex -2.667013e+01 5.542400e+01 2.200000e+01
      vertex -2.975713e+01 5.606900e+01 2.200000e+01
      vertex -2.703800e+01 5.357500e+01 2.000000e+01
    endloop
  endfacet
  facet normal -1.673460e-01 -7.083250e-01 6.857630e-01
    outer loop
      vertex -2.667013e+01 5.542400e+01 2.200000e+01
      vertex -2.703800e+01 5.357500e+01 2.000000e+01
      vertex -2.636500e+01 5.341600e+01 2.000000e+01
    endloop
  endfacet
  facet normal -1.673460e-01 -7.083250e-01 6.857630e-01
    outer loop
      vertex -2.599713e+01 5.526500e+01 2.200000e+01
      vertex -2.667013e+01 5.542400e+01 2.200000e+01
      vertex -2.636500e+01 5.341600e+01 2.000000e+01
    endloop
  endfacet
  facet normal -1.653420e-01 -7.087609e-01 6.857989e-01
    outer loop
      vertex -2.599713e+01 5.526500e+01 2.200000e+01
      vertex -2.636500e+01 5.341600e+01 2.000000e+01
      vertex -2.569200e+01 5.325900e+01 2.000000e+01
    endloop
  endfacet
  facet normal -1.653420e-01 -7.087609e-01 6.857989e-01
    outer loop
      vertex -2.532413e+01 5.510800e+01 2.200000e+01
      vertex -2.599713e+01 5.526500e+01 2.200000e+01
      vertex -2.569200e+01 5.325900e+01 2.000000e+01
    endloop
  endfacet
  facet normal -1.894271e-01 -7.033064e-01 6.851843e-01
    outer loop
      vertex -2.532413e+01 5.510800e+01 2.200000e+01
      vertex -2.569200e+01 5.325900e+01 2.000000e+01
      vertex -2.282200e+01 5.248600e+01 2.000000e+01
    endloop
  endfacet
  facet normal -1.894271e-01 -7.033064e-01 6.851843e-01
    outer loop
      vertex -2.245410e+01 5.433500e+01 2.200000e+01
      vertex -2.532413e+01 5.510800e+01 2.200000e+01
      vertex -2.282200e+01 5.248600e+01 2.000000e+01
    endloop
  endfacet
  facet normal -2.116929e-01 -6.978556e-01 6.842396e-01
    outer loop
      vertex -2.245410e+01 5.433500e+01 2.200000e+01
      vertex -2.282200e+01 5.248600e+01 2.000000e+01
      vertex -2.210040e+01 5.422800e+01 2.200000e+01
    endloop
  endfacet
  facet normal -2.342461e-01 -6.896392e-01 6.852202e-01
    outer loop
      vertex -2.210040e+01 5.422800e+01 2.200000e+01
      vertex -2.282200e+01 5.248600e+01 2.000000e+01
      vertex -2.061100e+01 5.173500e+01 2.000000e+01
    endloop
  endfacet
  facet normal -2.342461e-01 -6.896392e-01 6.852202e-01
    outer loop
      vertex -1.988940e+01 5.347700e+01 2.200000e+01
      vertex -2.210040e+01 5.422800e+01 2.200000e+01
      vertex -2.061100e+01 5.173500e+01 2.000000e+01
    endloop
  endfacet
  facet normal -2.866280e-01 -6.688001e-01 6.859671e-01
    outer loop
      vertex -1.988940e+01 5.347700e+01 2.200000e+01
      vertex -2.061100e+01 5.173500e+01 2.000000e+01
      vertex -2.026800e+01 5.158800e+01 2.000000e+01
    endloop
  endfacet
  facet normal -2.866280e-01 -6.688001e-01 6.859671e-01
    outer loop
      vertex -1.954640e+01 5.333000e+01 2.200000e+01
      vertex -1.988940e+01 5.347700e+01 2.200000e+01
      vertex -2.026800e+01 5.158800e+01 2.000000e+01
    endloop
  endfacet
  facet normal -2.893691e-01 -6.676402e-01 6.859462e-01
    outer loop
      vertex -1.954640e+01 5.333000e+01 2.200000e+01
      vertex -2.026800e+01 5.158800e+01 2.000000e+01
      vertex -1.988500e+01 5.142200e+01 2.000000e+01
    endloop
  endfacet
  facet normal -2.893691e-01 -6.676402e-01 6.859462e-01
    outer loop
      vertex -1.916340e+01 5.316400e+01 2.200000e+01
      vertex -1.954640e+01 5.333000e+01 2.200000e+01
      vertex -1.988500e+01 5.142200e+01 2.000000e+01
    endloop
  endfacet
  facet normal -3.429190e-01 -6.435521e-01 6.842861e-01
    outer loop
      vertex -1.916340e+01 5.316400e+01 2.200000e+01
      vertex -1.988500e+01 5.142200e+01 2.000000e+01
      vertex -1.877400e+01 5.083000e+01 2.000000e+01
    endloop
  endfacet
  facet normal -3.429190e-01 -6.435521e-01 6.842861e-01
    outer loop
      vertex -1.805240e+01 5.257200e+01 2.200000e+01
      vertex -1.916340e+01 5.316400e+01 2.200000e+01
      vertex -1.877400e+01 5.083000e+01 2.000000e+01
    endloop
  endfacet
  facet normal -3.437700e-01 -6.431469e-01 6.842399e-01
    outer loop
      vertex -1.805240e+01 5.257200e+01 2.200000e+01
      vertex -1.877400e+01 5.083000e+01 2.000000e+01
      vertex -1.772640e+01 5.239800e+01 2.200000e+01
    endloop
  endfacet
  facet normal -4.195670e-01 -5.945891e-01 6.858771e-01
    outer loop
      vertex -1.772640e+01 5.239800e+01 2.200000e+01
      vertex -1.877400e+01 5.083000e+01 2.000000e+01
      vertex -1.755100e+01 4.996700e+01 2.000000e+01
    endloop
  endfacet
  facet normal -4.195670e-01 -5.945891e-01 6.858771e-01
    outer loop
      vertex -1.650340e+01 5.153500e+01 2.200000e+01
      vertex -1.772640e+01 5.239800e+01 2.200000e+01
      vertex -1.755100e+01 4.996700e+01 2.000000e+01
    endloop
  endfacet
  facet normal -4.626357e-01 -5.637236e-01 6.842396e-01
    outer loop
      vertex -1.650340e+01 5.153500e+01 2.200000e+01
      vertex -1.755100e+01 4.996700e+01 2.000000e+01
      vertex -1.621770e+01 5.130000e+01 2.200000e+01
    endloop
  endfacet
  facet normal -5.185011e-01 -5.104741e-01 6.859832e-01
    outer loop
      vertex -1.621770e+01 5.130000e+01 2.200000e+01
      vertex -1.755100e+01 4.996700e+01 2.000000e+01
      vertex -1.659700e+01 4.899800e+01 2.000000e+01
    endloop
  endfacet
  facet normal -5.185011e-01 -5.104741e-01 6.859832e-01
    outer loop
      vertex -1.526370e+01 5.033100e+01 2.200000e+01
      vertex -1.621770e+01 5.130000e+01 2.200000e+01
      vertex -1.659700e+01 4.899800e+01 2.000000e+01
    endloop
  endfacet
  facet normal -5.637236e-01 -4.626357e-01 6.842396e-01
    outer loop
      vertex -1.526370e+01 5.033100e+01 2.200000e+01
      vertex -1.659700e+01 4.899800e+01 2.000000e+01
      vertex -1.502920e+01 5.004600e+01 2.200000e+01
    endloop
  endfacet
  facet normal -5.981086e-01 -4.144258e-01 6.859426e-01
    outer loop
      vertex -1.502920e+01 5.004600e+01 2.200000e+01
      vertex -1.659700e+01 4.899800e+01 2.000000e+01
      vertex -1.605100e+01 4.821000e+01 2.000000e+01
    endloop
  endfacet
  facet normal -5.981086e-01 -4.144258e-01 6.859426e-01
    outer loop
      vertex -1.448320e+01 4.925800e+01 2.200000e+01
      vertex -1.502920e+01 5.004600e+01 2.200000e+01
      vertex -1.605100e+01 4.821000e+01 2.000000e+01
    endloop
  endfacet
  facet normal -6.431469e-01 -3.437700e-01 6.842399e-01
    outer loop
      vertex -1.448320e+01 4.925800e+01 2.200000e+01
      vertex -1.605100e+01 4.821000e+01 2.000000e+01
      vertex -1.430890e+01 4.893200e+01 2.200000e+01
    endloop
  endfacet
  facet normal -6.545462e-01 -3.192351e-01 6.853162e-01
    outer loop
      vertex -1.430890e+01 4.893200e+01 2.200000e+01
      vertex -1.605100e+01 4.821000e+01 2.000000e+01
      vertex -1.591200e+01 4.792500e+01 2.000000e+01
    endloop
  endfacet
  facet normal -6.545462e-01 -3.192351e-01 6.853162e-01
    outer loop
      vertex -1.416990e+01 4.864700e+01 2.200000e+01
      vertex -1.430890e+01 4.893200e+01 2.200000e+01
      vertex -1.591200e+01 4.792500e+01 2.000000e+01
    endloop
  endfacet
  facet normal -6.551253e-01 -3.179542e-01 6.853583e-01
    outer loop
      vertex -1.416990e+01 4.864700e+01 2.200000e+01
      vertex -1.591200e+01 4.792500e+01 2.000000e+01
      vertex -1.573000e+01 4.755000e+01 2.000000e+01
    endloop
  endfacet
  facet normal -6.551253e-01 -3.179542e-01 6.853583e-01
    outer loop
      vertex -1.398790e+01 4.827200e+01 2.200000e+01
      vertex -1.416990e+01 4.864700e+01 2.200000e+01
      vertex -1.573000e+01 4.755000e+01 2.000000e+01
    endloop
  endfacet
  facet normal -6.966900e-01 -2.149690e-01 6.844059e-01
    outer loop
      vertex -1.573000e+01 4.755000e+01 2.000000e+01
      vertex -1.509900e+01 4.550500e+01 2.000000e+01
      vertex -1.398790e+01 4.827200e+01 2.200000e+01
    endloop
  endfacet
  facet normal -6.966900e-01 -2.149690e-01 6.844059e-01
    outer loop
      vertex -1.398790e+01 4.827200e+01 2.200000e+01
      vertex -1.509900e+01 4.550500e+01 2.000000e+01
      vertex -1.335690e+01 4.622700e+01 2.200000e+01
    endloop
  endfacet
  facet normal -6.978556e-01 -2.116929e-01 6.842396e-01
    outer loop
      vertex -1.335690e+01 4.622700e+01 2.200000e+01
      vertex -1.509900e+01 4.550500e+01 2.000000e+01
      vertex -1.324960e+01 4.587300e+01 2.200000e+01
    endloop
  endfacet
  facet normal -7.242253e-01 -8.167484e-02 6.847093e-01
    outer loop
      vertex -1.509900e+01 4.550500e+01 2.000000e+01
      vertex -1.484300e+01 4.323500e+01 2.000000e+01
      vertex -1.324960e+01 4.587300e+01 2.200000e+01
    endloop
  endfacet
  facet normal -7.242253e-01 -8.167484e-02 6.847093e-01
    outer loop
      vertex -1.324960e+01 4.587300e+01 2.200000e+01
      vertex -1.484300e+01 4.323500e+01 2.000000e+01
      vertex -1.299360e+01 4.360300e+01 2.200000e+01
    endloop
  endfacet
  facet normal -7.257457e-01 -7.147907e-02 6.842397e-01
    outer loop
      vertex -1.299360e+01 4.360300e+01 2.200000e+01
      vertex -1.484300e+01 4.323500e+01 2.000000e+01
      vertex -1.295740e+01 4.323500e+01 2.200000e+01
    endloop
  endfacet
  facet normal -7.275941e-01 5.951691e-03 6.859820e-01
    outer loop
      vertex -1.484700e+01 4.274600e+01 2.000000e+01
      vertex -1.296140e+01 4.274600e+01 2.200000e+01
      vertex -1.484300e+01 4.323500e+01 2.000000e+01
    endloop
  endfacet
  facet normal -7.275941e-01 5.951691e-03 6.859820e-01
    outer loop
      vertex -1.484300e+01 4.323500e+01 2.000000e+01
      vertex -1.296140e+01 4.274600e+01 2.200000e+01
      vertex -1.295740e+01 4.323500e+01 2.200000e+01
    endloop
  endfacet
  facet normal -7.275862e-01 7.524442e-03 6.859752e-01
    outer loop
      vertex -1.574300e+01 -4.389400e+01 2.000000e+01
      vertex -1.385740e+01 -4.389400e+01 2.200000e+01
      vertex -1.484700e+01 4.274600e+01 2.000000e+01
    endloop
  endfacet
  facet normal -7.275862e-01 7.524442e-03 6.859752e-01
    outer loop
      vertex -1.484700e+01 4.274600e+01 2.000000e+01
      vertex -1.385740e+01 -4.389400e+01 2.200000e+01
      vertex -1.296140e+01 4.274600e+01 2.200000e+01
    endloop
  endfacet
  facet normal -7.275908e-01 6.687409e-03 6.859788e-01
    outer loop
      vertex -1.574800e+01 -4.443800e+01 2.000000e+01
      vertex -1.386240e+01 -4.443800e+01 2.200000e+01
      vertex -1.574300e+01 -4.389400e+01 2.000000e+01
    endloop
  endfacet
  facet normal -7.275908e-01 6.687409e-03 6.859788e-01
    outer loop
      vertex -1.574300e+01 -4.389400e+01 2.000000e+01
      vertex -1.386240e+01 -4.443800e+01 2.200000e+01
      vertex -1.385740e+01 -4.389400e+01 2.200000e+01
    endloop
  endfacet
  facet normal -7.257457e-01 7.147907e-02 6.842397e-01
    outer loop
      vertex -1.386240e+01 -4.443800e+01 2.200000e+01
      vertex -1.574800e+01 -4.443800e+01 2.000000e+01
      vertex -1.389860e+01 -4.480590e+01 2.200000e+01
    endloop
  endfacet
  facet normal -7.222720e-01 9.406751e-02 6.851820e-01
    outer loop
      vertex -1.606500e+01 -4.687200e+01 2.000000e+01
      vertex -1.421560e+01 -4.723990e+01 2.200000e+01
      vertex -1.574800e+01 -4.443800e+01 2.000000e+01
    endloop
  endfacet
  facet normal -7.222720e-01 9.406751e-02 6.851820e-01
    outer loop
      vertex -1.574800e+01 -4.443800e+01 2.000000e+01
      vertex -1.421560e+01 -4.723990e+01 2.200000e+01
      vertex -1.389860e+01 -4.480590e+01 2.200000e+01
    endloop
  endfacet
  facet normal -6.978556e-01 2.116929e-01 6.842396e-01
    outer loop
      vertex -1.421560e+01 -4.723990e+01 2.200000e+01
      vertex -1.606500e+01 -4.687200e+01 2.000000e+01
      vertex -1.432290e+01 -4.759360e+01 2.200000e+01
    endloop
  endfacet
  facet normal -6.890329e-01 2.358640e-01 6.852750e-01
    outer loop
      vertex -1.676400e+01 -4.891400e+01 2.000000e+01
      vertex -1.502190e+01 -4.963560e+01 2.200000e+01
      vertex -1.606500e+01 -4.687200e+01 2.000000e+01
    endloop
  endfacet
  facet normal -6.890329e-01 2.358640e-01 6.852750e-01
    outer loop
      vertex -1.606500e+01 -4.687200e+01 2.000000e+01
      vertex -1.502190e+01 -4.963560e+01 2.200000e+01
      vertex -1.432290e+01 -4.759360e+01 2.200000e+01
    endloop
  endfacet
  facet normal -6.431469e-01 3.437700e-01 6.842399e-01
    outer loop
      vertex -1.502190e+01 -4.963560e+01 2.200000e+01
      vertex -1.676400e+01 -4.891400e+01 2.000000e+01
      vertex -1.519620e+01 -4.996160e+01 2.200000e+01
    endloop
  endfacet
  facet normal -6.349380e-01 3.573800e-01 6.849330e-01
    outer loop
      vertex -1.676400e+01 -4.891400e+01 2.000000e+01
      vertex -1.696100e+01 -4.926400e+01 2.000000e+01
      vertex -1.539320e+01 -5.031160e+01 2.200000e+01
    endloop
  endfacet
  facet normal -6.349380e-01 3.573800e-01 6.849330e-01
    outer loop
      vertex -1.519620e+01 -4.996160e+01 2.200000e+01
      vertex -1.676400e+01 -4.891400e+01 2.000000e+01
      vertex -1.539320e+01 -5.031160e+01 2.200000e+01
    endloop
  endfacet
  facet normal -6.340203e-01 3.588792e-01 6.849993e-01
    outer loop
      vertex -1.696100e+01 -4.926400e+01 2.000000e+01
      vertex -1.711100e+01 -4.952900e+01 2.000000e+01
      vertex -1.554320e+01 -5.057660e+01 2.200000e+01
    endloop
  endfacet
  facet normal -6.340203e-01 3.588792e-01 6.849993e-01
    outer loop
      vertex -1.539320e+01 -5.031160e+01 2.200000e+01
      vertex -1.696100e+01 -4.926400e+01 2.000000e+01
      vertex -1.554320e+01 -5.057660e+01 2.200000e+01
    endloop
  endfacet
  facet normal -5.748767e-01 4.474758e-01 6.850417e-01
    outer loop
      vertex -1.711100e+01 -4.952900e+01 2.000000e+01
      vertex -1.768000e+01 -5.026000e+01 2.000000e+01
      vertex -1.611220e+01 -5.130760e+01 2.200000e+01
    endloop
  endfacet
  facet normal -5.748767e-01 4.474758e-01 6.850417e-01
    outer loop
      vertex -1.554320e+01 -5.057660e+01 2.200000e+01
      vertex -1.711100e+01 -4.952900e+01 2.000000e+01
      vertex -1.611220e+01 -5.130760e+01 2.200000e+01
    endloop
  endfacet
  facet normal -5.637236e-01 4.626357e-01 6.842396e-01
    outer loop
      vertex -1.611220e+01 -5.130760e+01 2.200000e+01
      vertex -1.768000e+01 -5.026000e+01 2.000000e+01
      vertex -1.634670e+01 -5.159330e+01 2.200000e+01
    endloop
  endfacet
  facet normal -4.929848e-01 5.355408e-01 6.856837e-01
    outer loop
      vertex -1.768000e+01 -5.026000e+01 2.000000e+01
      vertex -1.864900e+01 -5.115200e+01 2.000000e+01
      vertex -1.731570e+01 -5.248533e+01 2.200000e+01
    endloop
  endfacet
  facet normal -4.929848e-01 5.355408e-01 6.856837e-01
    outer loop
      vertex -1.634670e+01 -5.159330e+01 2.200000e+01
      vertex -1.768000e+01 -5.026000e+01 2.000000e+01
      vertex -1.731570e+01 -5.248533e+01 2.200000e+01
    endloop
  endfacet
  facet normal -4.626357e-01 5.637236e-01 6.842396e-01
    outer loop
      vertex -1.731570e+01 -5.248533e+01 2.200000e+01
      vertex -1.864900e+01 -5.115200e+01 2.000000e+01
      vertex -1.760140e+01 -5.271983e+01 2.200000e+01
    endloop
  endfacet
  facet normal -3.939908e-01 6.117628e-01 6.859428e-01
    outer loop
      vertex -1.864900e+01 -5.115200e+01 2.000000e+01
      vertex -1.987100e+01 -5.193900e+01 2.000000e+01
      vertex -1.882340e+01 -5.350683e+01 2.200000e+01
    endloop
  endfacet
  facet normal -3.939908e-01 6.117628e-01 6.859428e-01
    outer loop
      vertex -1.760140e+01 -5.271983e+01 2.200000e+01
      vertex -1.864900e+01 -5.115200e+01 2.000000e+01
      vertex -1.882340e+01 -5.350683e+01 2.200000e+01
    endloop
  endfacet
  facet normal -3.437700e-01 6.431469e-01 6.842399e-01
    outer loop
      vertex -1.882340e+01 -5.350683e+01 2.200000e+01
      vertex -1.987100e+01 -5.193900e+01 2.000000e+01
      vertex -1.914940e+01 -5.368108e+01 2.200000e+01
    endloop
  endfacet
  facet normal -3.182430e-01 6.549950e-01 6.853489e-01
    outer loop
      vertex -1.987100e+01 -5.193900e+01 2.000000e+01
      vertex -2.096800e+01 -5.247200e+01 2.000000e+01
      vertex -2.024640e+01 -5.421408e+01 2.200000e+01
    endloop
  endfacet
  facet normal -3.182430e-01 6.549950e-01 6.853489e-01
    outer loop
      vertex -1.914940e+01 -5.368108e+01 2.200000e+01
      vertex -1.987100e+01 -5.193900e+01 2.000000e+01
      vertex -2.024640e+01 -5.421408e+01 2.200000e+01
    endloop
  endfacet
  facet normal -2.680690e-01 6.764690e-01 6.859509e-01
    outer loop
      vertex -2.096800e+01 -5.247200e+01 2.000000e+01
      vertex -2.134400e+01 -5.262100e+01 2.000000e+01
      vertex -2.062240e+01 -5.436308e+01 2.200000e+01
    endloop
  endfacet
  facet normal -2.680690e-01 6.764690e-01 6.859509e-01
    outer loop
      vertex -2.024640e+01 -5.421408e+01 2.200000e+01
      vertex -2.096800e+01 -5.247200e+01 2.000000e+01
      vertex -2.062240e+01 -5.436308e+01 2.200000e+01
    endloop
  endfacet
  facet normal -2.621720e-01 6.788390e-01 6.858889e-01
    outer loop
      vertex -2.134400e+01 -5.262100e+01 2.000000e+01
      vertex -2.163400e+01 -5.273300e+01 2.000000e+01
      vertex -2.091240e+01 -5.447508e+01 2.200000e+01
    endloop
  endfacet
  facet normal -2.621720e-01 6.788390e-01 6.858889e-01
    outer loop
      vertex -2.062240e+01 -5.436308e+01 2.200000e+01
      vertex -2.134400e+01 -5.262100e+01 2.000000e+01
      vertex -2.091240e+01 -5.447508e+01 2.200000e+01
    endloop
  endfacet
  facet normal -2.116929e-01 6.978556e-01 6.842396e-01
    outer loop
      vertex -2.091240e+01 -5.447508e+01 2.200000e+01
      vertex -2.163400e+01 -5.273300e+01 2.000000e+01
      vertex -2.126610e+01 -5.458239e+01 2.200000e+01
    endloop
  endfacet
  facet normal -1.545080e-01 7.110670e-01 6.859380e-01
    outer loop
      vertex -2.377400e+01 -5.319800e+01 2.000000e+01
      vertex -2.340610e+01 -5.504739e+01 2.200000e+01
      vertex -2.163400e+01 -5.273300e+01 2.000000e+01
    endloop
  endfacet
  facet normal -1.545080e-01 7.110670e-01 6.859380e-01
    outer loop
      vertex -2.163400e+01 -5.273300e+01 2.000000e+01
      vertex -2.340610e+01 -5.504739e+01 2.200000e+01
      vertex -2.126610e+01 -5.458239e+01 2.200000e+01
    endloop
  endfacet
  facet normal -8.064418e-02 7.243829e-01 6.846649e-01
    outer loop
      vertex -2.684600e+01 -5.354000e+01 2.000000e+01
      vertex -2.647813e+01 -5.538939e+01 2.200000e+01
      vertex -2.377400e+01 -5.319800e+01 2.000000e+01
    endloop
  endfacet
  facet normal -8.064418e-02 7.243829e-01 6.846649e-01
    outer loop
      vertex -2.377400e+01 -5.319800e+01 2.000000e+01
      vertex -2.647813e+01 -5.538939e+01 2.200000e+01
      vertex -2.340610e+01 -5.504739e+01 2.200000e+01
    endloop
  endfacet
  facet normal -7.147907e-02 7.257457e-01 6.842397e-01
    outer loop
      vertex -2.684600e+01 -5.354000e+01 2.000000e+01
      vertex -2.684600e+01 -5.542562e+01 2.200000e+01
      vertex -2.647813e+01 -5.538939e+01 2.200000e+01
    endloop
  endfacet
  facet normal -4.825761e-02 7.267591e-01 6.851951e-01
    outer loop
      vertex -2.759900e+01 -5.547562e+01 2.200000e+01
      vertex -2.684600e+01 -5.542562e+01 2.200000e+01
      vertex -2.759900e+01 -5.359000e+01 2.000000e+01
    endloop
  endfacet
  facet normal -4.825761e-02 7.267591e-01 6.851951e-01
    outer loop
      vertex -2.759900e+01 -5.359000e+01 2.000000e+01
      vertex -2.684600e+01 -5.542562e+01 2.200000e+01
      vertex -2.684600e+01 -5.354000e+01 2.000000e+01
    endloop
  endfacet
  facet normal -4.716959e-02 7.267969e-01 6.852309e-01
    outer loop
      vertex -2.835400e+01 -5.552462e+01 2.200000e+01
      vertex -2.759900e+01 -5.547562e+01 2.200000e+01
      vertex -2.835400e+01 -5.363900e+01 2.000000e+01
    endloop
  endfacet
  facet normal -4.716959e-02 7.267969e-01 6.852309e-01
    outer loop
      vertex -2.835400e+01 -5.363900e+01 2.000000e+01
      vertex -2.759900e+01 -5.547562e+01 2.200000e+01
      vertex -2.759900e+01 -5.359000e+01 2.000000e+01
    endloop
  endfacet
  facet normal -4.759501e-02 7.267821e-01 6.852171e-01
    outer loop
      vertex -3.157600e+01 -5.573562e+01 2.200000e+01
      vertex -2.835400e+01 -5.552462e+01 2.200000e+01
      vertex -3.157600e+01 -5.385000e+01 2.000000e+01
    endloop
  endfacet
  facet normal -4.759501e-02 7.267821e-01 6.852171e-01
    outer loop
      vertex -3.157600e+01 -5.385000e+01 2.000000e+01
      vertex -2.835400e+01 -5.552462e+01 2.200000e+01
      vertex -2.835400e+01 -5.363900e+01 2.000000e+01
    endloop
  endfacet
endsolid Default
