  0
SECTION
  2
HEADER
  9
$ACADVER
  1
AC1009
  9
$EXTMIN
 10
0.0
 20
0.0
 30
0.0
  9
$EXTMAX
 10
1000.0
 20
1000.0
 30
0.0
  9
$FILLMODE
 70
 0
  9
$SPLFRAME
 70
 1
  0
ENDSEC
  0
SECTION
  2
TABLES
  0
TABLE
  2
LAYER
 70
1
  0
LAYER
  2
0
 70
     0
 62
     7
  6
CONTINUOUS
  0
ENDTAB
  0
ENDSEC
  0
SECTION
  2
ENTITIES
  0
LINE
  8
0
 62
     0
 10
68.1316
 20
0.352778
 30
0.0
 11
0.352778
 21
1.0542
 31
0.0
  0
LINE
  8
0
 62
     0
 10
0.352778
 20
1.0542
 30
0.0
 11
0.421679
 21
7.77074
 31
0.0
  0
LINE
  8
0
 62
     0
 10
0.421679
 20
7.77074
 30
0.0
 11
0.808909
 21
7.79558
 31
0.0
  0
LINE
  8
0
 62
     0
 10
0.808909
 20
7.79558
 30
0.0
 11
3.29765
 21
7.9568
 31
0.0
  0
LINE
  8
0
 62
     0
 10
3.29765
 20
7.9568
 30
0.0
 11
6.51951
 21
8.16762
 31
0.0
  0
LINE
  8
0
 62
     0
 10
6.51951
 20
8.16762
 30
0.0
 11
7.27467
 21
8.21725
 31
0.0
  0
LINE
  8
0
 62
     0
 10
7.27467
 20
8.21725
 30
0.0
 11
8.02845
 21
8.26685
 31
0.0
  0
LINE
  8
0
 62
     0
 10
8.02845
 20
8.26685
 30
0.0
 11
11.1001
 21
8.60859
 31
0.0
  0
LINE
  8
0
 62
     0
 10
11.1001
 20
8.60859
 30
0.0
 11
13.2402
 21
9.0744
 31
0.0
  0
LINE
  8
0
 62
     0
 10
13.2402
 20
9.0744
 30
0.0
 11
13.5296
 21
9.18602
 31
0.0
  0
LINE
  8
0
 62
     0
 10
13.5296
 20
9.18602
 30
0.0
 11
13.9058
 21
9.33482
 31
0.0
  0
LINE
  8
0
 62
     0
 10
13.9058
 20
9.33482
 30
0.0
 11
15.0027
 21
9.86815
 31
0.0
  0
LINE
  8
0
 62
     0
 10
15.0027
 20
9.86815
 30
0.0
 11
16.225
 21
10.655
 31
0.0
  0
LINE
  8
0
 62
     0
 10
16.225
 20
10.655
 30
0.0
 11
17.1938
 21
11.5466
 31
0.0
  0
LINE
  8
0
 62
     0
 10
17.1938
 20
11.5466
 30
0.0
 11
17.7629
 21
12.2783
 31
0.0
  0
LINE
  8
0
 62
     0
 10
17.7629
 20
12.2783
 30
0.0
 11
17.9131
 21
12.5429
 31
0.0
  0
LINE
  8
0
 62
     0
 10
17.9131
 20
12.5429
 30
0.0
 11
18.1102
 21
12.8929
 31
0.0
  0
LINE
  8
0
 62
     0
 10
18.1102
 20
12.8929
 30
0.0
 11
18.8088
 21
14.9352
 31
0.0
  0
LINE
  8
0
 62
     0
 10
18.8088
 20
14.9352
 30
0.0
 11
19.1258
 21
17.3688
 31
0.0
  0
LINE
  8
0
 62
     0
 10
19.1258
 20
17.3688
 30
0.0
 11
19.1313
 21
17.9131
 31
0.0
  0
LINE
  8
0
 62
     0
 10
19.1313
 20
17.9131
 30
0.0
 11
20.027
 21
104.553
 31
0.0
  0
LINE
  8
0
 62
     0
 10
20.027
 20
104.553
 30
0.0
 11
20.0311
 21
105.042
 31
0.0
  0
LINE
  8
0
 62
     0
 10
20.0311
 20
105.042
 30
0.0
 11
19.7749
 21
107.312
 31
0.0
  0
LINE
  8
0
 62
     0
 10
19.7749
 20
107.312
 30
0.0
 11
19.1437
 21
109.357
 31
0.0
  0
LINE
  8
0
 62
     0
 10
19.1437
 20
109.357
 30
0.0
 11
18.9618
 21
109.732
 31
0.0
  0
LINE
  8
0
 62
     0
 10
18.9618
 20
109.732
 30
0.0
 11
18.8226
 21
110.017
 31
0.0
  0
LINE
  8
0
 62
     0
 10
18.8226
 20
110.017
 30
0.0
 11
18.2769
 21
110.805
 31
0.0
  0
LINE
  8
0
 62
     0
 10
18.2769
 20
110.805
 30
0.0
 11
17.3233
 21
111.774
 31
0.0
  0
LINE
  8
0
 62
     0
 10
17.3233
 20
111.774
 30
0.0
 11
16.0996
 21
112.637
 31
0.0
  0
LINE
  8
0
 62
     0
 10
16.0996
 20
112.637
 30
0.0
 11
14.9889
 21
113.229
 31
0.0
  0
LINE
  8
0
 62
     0
 10
14.9889
 20
113.229
 30
0.0
 11
14.6058
 21
113.395
 31
0.0
  0
LINE
  8
0
 62
     0
 10
14.6058
 20
113.395
 30
0.0
 11
14.2627
 21
113.542
 31
0.0
  0
LINE
  8
0
 62
     0
 10
14.2627
 20
113.542
 30
0.0
 11
12.0523
 21
114.293
 31
0.0
  0
LINE
  8
0
 62
     0
 10
12.0523
 20
114.293
 30
0.0
 11
9.18185
 21
115.066
 31
0.0
  0
LINE
  8
0
 62
     0
 10
9.18185
 20
115.066
 30
0.0
 11
8.50939
 21
115.223
 31
0.0
  0
LINE
  8
0
 62
     0
 10
8.50939
 20
115.223
 30
0.0
 11
7.83551
 21
115.382
 31
0.0
  0
LINE
  8
0
 62
     0
 10
7.83551
 20
115.382
 30
0.0
 11
4.74871
 21
116.027
 31
0.0
  0
LINE
  8
0
 62
     0
 10
4.74871
 20
116.027
 30
0.0
 11
2.03398
 21
116.483
 31
0.0
  0
LINE
  8
0
 62
     0
 10
2.03398
 20
116.483
 30
0.0
 11
1.54754
 21
116.545
 31
0.0
  0
LINE
  8
0
 62
     0
 10
1.54754
 20
116.545
 30
0.0
 11
1.61644
 21
123.261
 31
0.0
  0
LINE
  8
0
 62
     0
 10
1.61644
 20
123.261
 30
0.0
 11
69.3953
 21
122.561
 31
0.0
  0
LINE
  8
0
 62
     0
 10
69.3953
 20
122.561
 30
0.0
 11
69.3251
 21
115.843
 31
0.0
  0
LINE
  8
0
 62
     0
 10
69.3251
 20
115.843
 30
0.0
 11
68.8936
 21
115.805
 31
0.0
  0
LINE
  8
0
 62
     0
 10
68.8936
 20
115.805
 30
0.0
 11
66.4146
 21
115.562
 31
0.0
  0
LINE
  8
0
 62
     0
 10
66.4146
 20
115.562
 30
0.0
 11
63.5056
 21
115.251
 31
0.0
  0
LINE
  8
0
 62
     0
 10
63.5056
 20
115.251
 30
0.0
 11
62.8594
 21
115.178
 31
0.0
  0
LINE
  8
0
 62
     0
 10
62.8594
 20
115.178
 30
0.0
 11
62.2117
 21
115.106
 31
0.0
  0
LINE
  8
0
 62
     0
 10
62.2117
 20
115.106
 30
0.0
 11
59.2776
 21
114.645
 31
0.0
  0
LINE
  8
0
 62
     0
 10
59.2776
 20
114.645
 30
0.0
 11
56.7461
 21
114.051
 31
0.0
  0
LINE
  8
0
 62
     0
 10
56.7461
 20
114.051
 30
0.0
 11
56.2998
 21
113.911
 31
0.0
  0
LINE
  8
0
 62
     0
 10
56.2998
 20
113.911
 30
0.0
 11
55.9029
 21
113.785
 31
0.0
  0
LINE
  8
0
 62
     0
 10
55.9029
 20
113.785
 30
0.0
 11
54.7522
 21
113.29
 31
0.0
  0
LINE
  8
0
 62
     0
 10
54.7522
 20
113.29
 30
0.0
 11
53.4843
 21
112.509
 31
0.0
  0
LINE
  8
0
 62
     0
 10
53.4843
 20
112.509
 30
0.0
 11
52.4951
 21
111.569
 31
0.0
  0
LINE
  8
0
 62
     0
 10
52.4951
 20
111.569
 30
0.0
 11
51.9257
 21
110.761
 31
0.0
  0
LINE
  8
0
 62
     0
 10
51.9257
 20
110.761
 30
0.0
 11
51.7853
 21
110.469
 31
0.0
  0
LINE
  8
0
 62
     0
 10
51.7853
 20
110.469
 30
0.0
 11
51.5938
 21
110.076
 31
0.0
  0
LINE
  8
0
 62
     0
 10
51.5938
 20
110.076
 30
0.0
 11
50.9185
 21
107.949
 31
0.0
  0
LINE
  8
0
 62
     0
 10
50.9185
 20
107.949
 30
0.0
 11
50.6141
 21
105.602
 31
0.0
  0
LINE
  8
0
 62
     0
 10
50.6141
 20
105.602
 30
0.0
 11
50.6099
 21
105.099
 31
0.0
  0
LINE
  8
0
 62
     0
 10
50.6099
 20
105.099
 30
0.0
 11
49.7156
 21
18.5443
 31
0.0
  0
LINE
  8
0
 62
     0
 10
49.7156
 20
18.5443
 30
0.0
 11
49.7099
 21
18.0275
 31
0.0
  0
LINE
  8
0
 62
     0
 10
49.7099
 20
18.0275
 30
0.0
 11
49.9759
 21
15.6669
 31
0.0
  0
LINE
  8
0
 62
     0
 10
49.9759
 20
15.6669
 30
0.0
 11
50.6331
 21
13.604
 31
0.0
  0
LINE
  8
0
 62
     0
 10
50.6331
 20
13.604
 30
0.0
 11
50.8233
 21
13.236
 31
0.0
  0
LINE
  8
0
 62
     0
 10
50.8233
 20
13.236
 30
0.0
 11
50.9669
 21
12.9577
 31
0.0
  0
LINE
  8
0
 62
     0
 10
50.9669
 20
12.9577
 30
0.0
 11
51.525
 21
12.1833
 31
0.0
  0
LINE
  8
0
 62
     0
 10
51.525
 20
12.1833
 30
0.0
 11
52.4923
 21
11.2282
 31
0.0
  0
LINE
  8
0
 62
     0
 10
52.4923
 20
11.2282
 30
0.0
 11
53.7242
 21
10.3725
 31
0.0
  0
LINE
  8
0
 62
     0
 10
53.7242
 20
10.3725
 30
0.0
 11
54.8361
 21
9.7827
 31
0.0
  0
LINE
  8
0
 62
     0
 10
54.8361
 20
9.7827
 30
0.0
 11
55.2207
 21
9.61595
 31
0.0
  0
LINE
  8
0
 62
     0
 10
55.2207
 20
9.61595
 30
0.0
 11
55.5198
 21
9.48365
 31
0.0
  0
LINE
  8
0
 62
     0
 10
55.5198
 20
9.48365
 30
0.0
 11
57.6128
 21
8.8277
 31
0.0
  0
LINE
  8
0
 62
     0
 10
57.6128
 20
8.8277
 30
0.0
 11
60.4957
 21
8.17728
 31
0.0
  0
LINE
  8
0
 62
     0
 10
60.4957
 20
8.17728
 30
0.0
 11
61.1918
 21
8.04774
 31
0.0
  0
LINE
  8
0
 62
     0
 10
61.1918
 20
8.04774
 30
0.0
 11
61.8864
 21
7.91958
 31
0.0
  0
LINE
  8
0
 62
     0
 10
61.8864
 20
7.91958
 30
0.0
 11
65.0282
 21
7.41659
 31
0.0
  0
LINE
  8
0
 62
     0
 10
65.0282
 20
7.41659
 30
0.0
 11
67.7263
 21
7.10516
 31
0.0
  0
LINE
  8
0
 62
     0
 10
67.7263
 20
7.10516
 30
0.0
 11
68.2004
 21
7.07072
 31
0.0
  0
LINE
  8
0
 62
     0
 10
68.2004
 20
7.07072
 30
0.0
 11
68.1316
 21
0.352778
 31
0.0
  0
ENDSEC
  0
EOF
