solid OpenSCAD_Model
  facet normal -0.0103354 -0.999947 0
    outer loop
      vertex 0.353 2.308 20
      vertex 0.353 2.308 0
      vertex 52.888 1.765 0
    endloop
  endfacet
  facet normal -0.0103354 -0.999947 0
    outer loop
      vertex 52.888 1.765 20
      vertex 0.353 2.308 20
      vertex 52.888 1.765 0
    endloop
  endfacet
  facet normal 0 0 -1
    outer loop
      vertex 0.353 2.308 0
      vertex 0.422 9.026 0
      vertex 52.888 1.765 0
    endloop
  endfacet
  facet normal 0 0 -1
    outer loop
      vertex 52.888 1.765 0
      vertex 0.422 9.026 0
      vertex 0.981 9.063 0
    endloop
  endfacet
  facet normal 0 0 -1
    outer loop
      vertex 52.888 1.765 0
      vertex 0.981 9.063 0
      vertex 4.032 9.431 0
    endloop
  endfacet
  facet normal 0 0 -1
    outer loop
      vertex 4.032 9.431 0
      vertex 7.415 10.038 0
      vertex 52.888 1.765 0
    endloop
  endfacet
  facet normal 0 0 -1
    outer loop
      vertex 7.415 10.038 0
      vertex 8.143 10.195 0
      vertex 52.888 1.765 0
    endloop
  endfacet
  facet normal 0 0 -1
    outer loop
      vertex 8.143 10.195 0
      vertex 8.869 10.353 0
      vertex 52.888 1.765 0
    endloop
  endfacet
  facet normal 0 0 -1
    outer loop
      vertex 8.869 10.353 0
      vertex 12.149 11.413 0
      vertex 52.888 1.765 0
    endloop
  endfacet
  facet normal 0 0 -1
    outer loop
      vertex 12.149 11.413 0
      vertex 14.96 12.838 0
      vertex 52.888 1.765 0
    endloop
  endfacet
  facet normal 0 0 -1
    outer loop
      vertex 14.96 12.838 0
      vertex 15.452 13.177 0
      vertex 52.888 1.765 0
    endloop
  endfacet
  facet normal 0 0 -1
    outer loop
      vertex 15.452 13.177 0
      vertex 16.015 13.587 0
      vertex 52.888 1.765 0
    endloop
  endfacet
  facet normal 0 0 -1
    outer loop
      vertex 16.015 13.587 0
      vertex 18.316 16.28 0
      vertex 52.888 1.765 0
    endloop
  endfacet
  facet normal 0 0 -1
    outer loop
      vertex 18.316 16.28 0
      vertex 19.92 19.829 0
      vertex 52.888 1.765 0
    endloop
  endfacet
  facet normal 0 0 -1
    outer loop
      vertex 19.92 19.829 0
      vertex 20.137 20.665 0
      vertex 52.888 1.765 0
    endloop
  endfacet
  facet normal 0 0 -1
    outer loop
      vertex 20.137 20.665 0
      vertex 20.325 21.39 0
      vertex 52.888 1.765 0
    endloop
  endfacet
  facet normal 0 0 -1
    outer loop
      vertex 20.325 21.39 0
      vertex 20.713 23.607 0
      vertex 52.888 1.765 0
    endloop
  endfacet
  facet normal 0 0 -1
    outer loop
      vertex 40.506 12.164 0
      vertex 52.888 1.765 0
      vertex 37.893 13.663 0
    endloop
  endfacet
  facet normal 0 0 -1
    outer loop
      vertex 36.982 14.42 0
      vertex 21.143 27.405 0
      vertex 34.798 17.339 0
    endloop
  endfacet
  facet normal 0 0 -1
    outer loop
      vertex 32.8 22.935 0
      vertex 21.561 37.575 0
      vertex 32.396 25.273 0
    endloop
  endfacet
  facet normal 0 0 -1
    outer loop
      vertex 31.734 38.417 0
      vertex 22.167 96.168 0
      vertex 21.869 99.642 0
    endloop
  endfacet
  facet normal 0 0 -1
    outer loop
      vertex 20.909 103.602 0
      vertex 47.089 124.045 0
      vertex 21.124 102.961 0
    endloop
  endfacet
  facet normal 0 0 -1
    outer loop
      vertex 20.693 104.244 0
      vertex 47.089 124.045 0
      vertex 20.909 103.602 0
    endloop
  endfacet
  facet normal 0 0 -1
    outer loop
      vertex 19.233 107.184 0
      vertex 47.089 124.045 0
      vertex 20.693 104.244 0
    endloop
  endfacet
  facet normal 0 0 -1
    outer loop
      vertex 17.268 109.77 0
      vertex 47.089 124.045 0
      vertex 19.233 107.184 0
    endloop
  endfacet
  facet normal 0 0 -1
    outer loop
      vertex 16.8 110.234 0
      vertex 47.089 124.045 0
      vertex 17.268 109.77 0
    endloop
  endfacet
  facet normal 0 0 -1
    outer loop
      vertex 13.586 112.883 0
      vertex 1.1 124.521 0
      vertex 16.302 110.727 0
    endloop
  endfacet
  facet normal 0 0 -1
    outer loop
      vertex 10.564 114.627 0
      vertex 9.915 114.913 0
      vertex 9.265 115.2 0
    endloop
  endfacet
  facet normal 0 0 -1
    outer loop
      vertex 10.564 114.627 0
      vertex 1.1 124.521 0
      vertex 13.586 112.883 0
    endloop
  endfacet
  facet normal 0 0 -1
    outer loop
      vertex 9.265 115.2 0
      vertex 1.1 124.521 0
      vertex 10.564 114.627 0
    endloop
  endfacet
  facet normal 0 0 -1
    outer loop
      vertex 5.742 116.453 0
      vertex 1.1 124.521 0
      vertex 9.265 115.2 0
    endloop
  endfacet
  facet normal 0 0 -1
    outer loop
      vertex 1.859 117.465 0
      vertex 1.028 117.632 0
      vertex 1.1 124.521 0
    endloop
  endfacet
  facet normal 0 0 -1
    outer loop
      vertex 1.859 117.465 0
      vertex 1.1 124.521 0
      vertex 5.742 116.453 0
    endloop
  endfacet
  facet normal 0 0 -1
    outer loop
      vertex 16.302 110.727 0
      vertex 1.1 124.521 0
      vertex 47.089 124.045 0
    endloop
  endfacet
  facet normal 0 0 -1
    outer loop
      vertex 16.302 110.727 0
      vertex 47.089 124.045 0
      vertex 16.8 110.234 0
    endloop
  endfacet
  facet normal 0 0 -1
    outer loop
      vertex 31.734 38.417 0
      vertex 21.869 99.642 0
      vertex 32.326 95.775 0
    endloop
  endfacet
  facet normal 0 0 -1
    outer loop
      vertex 137.956 115.441 0
      vertex 144.924 123.034 0
      vertex 138.702 115.548 0
    endloop
  endfacet
  facet normal 0 0 -1
    outer loop
      vertex 133.679 114.301 0
      vertex 144.924 123.034 0
      vertex 137.207 115.335 0
    endloop
  endfacet
  facet normal 0 0 -1
    outer loop
      vertex 127.067 109.04 0
      vertex 112.857 100.296 0
      vertex 129.289 111.784 0
    endloop
  endfacet
  facet normal 0 0 -1
    outer loop
      vertex 112.445 102.596 0
      vertex 144.924 123.034 0
      vertex 112.857 100.296 0
    endloop
  endfacet
  facet normal 0 0 -1
    outer loop
      vertex 112.25 103.347 0
      vertex 144.924 123.034 0
      vertex 112.445 102.596 0
    endloop
  endfacet
  facet normal 0 0 -1
    outer loop
      vertex 112.014 104.247 0
      vertex 144.924 123.034 0
      vertex 112.25 103.347 0
    endloop
  endfacet
  facet normal 0 0 -1
    outer loop
      vertex 110.403 108.049 0
      vertex 144.924 123.034 0
      vertex 112.014 104.247 0
    endloop
  endfacet
  facet normal 0 0 -1
    outer loop
      vertex 108.208 110.925 0
      vertex 144.924 123.034 0
      vertex 110.403 108.049 0
    endloop
  endfacet
  facet normal 0 0 -1
    outer loop
      vertex 107.681 111.361 0
      vertex 144.924 123.034 0
      vertex 108.208 110.925 0
    endloop
  endfacet
  facet normal 0 0 -1
    outer loop
      vertex 104.599 113.235 0
      vertex 92.476 123.577 0
      vertex 107.268 111.695 0
    endloop
  endfacet
  facet normal 0 0 -1
    outer loop
      vertex 101.124 114.595 0
      vertex 100.31 114.84 0
      vertex 99.494 115.086 0
    endloop
  endfacet
  facet normal 0 0 -1
    outer loop
      vertex 101.124 114.595 0
      vertex 92.476 123.577 0
      vertex 104.599 113.235 0
    endloop
  endfacet
  facet normal 0 0 -1
    outer loop
      vertex 99.494 115.086 0
      vertex 92.476 123.577 0
      vertex 101.124 114.595 0
    endloop
  endfacet
  facet normal 0 0 -1
    outer loop
      vertex 95.887 116.082 0
      vertex 92.476 123.577 0
      vertex 99.494 115.086 0
    endloop
  endfacet
  facet normal 0 0 -1
    outer loop
      vertex 92.907 116.768 0
      vertex 92.407 116.859 0
      vertex 92.476 123.577 0
    endloop
  endfacet
  facet normal 0 0 -1
    outer loop
      vertex 92.907 116.768 0
      vertex 92.476 123.577 0
      vertex 95.887 116.082 0
    endloop
  endfacet
  facet normal 0 0 -1
    outer loop
      vertex 107.268 111.695 0
      vertex 92.476 123.577 0
      vertex 144.924 123.034 0
    endloop
  endfacet
  facet normal 0 0 -1
    outer loop
      vertex 107.268 111.695 0
      vertex 144.924 123.034 0
      vertex 107.681 111.361 0
    endloop
  endfacet
  facet normal 0 0 -1
    outer loop
      vertex 144.453 116.279 0
      vertex 144.924 123.034 0
      vertex 144.855 116.318 0
    endloop
  endfacet
  facet normal 0 0 -1
    outer loop
      vertex 32.326 95.775 0
      vertex 113.065 40.677 0
      vertex 122.812 0.353 0
    endloop
  endfacet
  facet normal 0 0 -1
    outer loop
      vertex 138.702 115.548 0
      vertex 144.924 123.034 0
      vertex 141.923 115.983 0
    endloop
  endfacet
  facet normal 0 0 -1
    outer loop
      vertex 137.207 115.335 0
      vertex 144.924 123.034 0
      vertex 137.956 115.441 0
    endloop
  endfacet
  facet normal 0 0 -1
    outer loop
      vertex 52.957 8.482 0
      vertex 52.888 1.765 0
      vertex 52.455 8.574 0
    endloop
  endfacet
  facet normal 0 0 -1
    outer loop
      vertex 124.147 97.292 0
      vertex 113.556 88.215 0
      vertex 124.604 101.101 0
    endloop
  endfacet
  facet normal 0 0 -1
    outer loop
      vertex 130.433 112.605 0
      vertex 144.924 123.034 0
      vertex 133.679 114.301 0
    endloop
  endfacet
  facet normal 0 0 -1
    outer loop
      vertex 112.857 100.296 0
      vertex 144.924 123.034 0
      vertex 130.433 112.605 0
    endloop
  endfacet
  facet normal 0 0 -1
    outer loop
      vertex 112.857 100.296 0
      vertex 130.433 112.605 0
      vertex 129.825 112.165 0
    endloop
  endfacet
  facet normal 0 0 -1
    outer loop
      vertex 112.857 100.296 0
      vertex 129.825 112.165 0
      vertex 129.289 111.784 0
    endloop
  endfacet
  facet normal 0 0 -1
    outer loop
      vertex 125.452 105.184 0
      vertex 113.276 96.543 0
      vertex 127.067 109.04 0
    endloop
  endfacet
  facet normal 0 0 -1
    outer loop
      vertex 112.857 100.296 0
      vertex 127.067 109.04 0
      vertex 113.276 96.543 0
    endloop
  endfacet
  facet normal 0 0 -1
    outer loop
      vertex 113.276 96.543 0
      vertex 125.452 105.184 0
      vertex 113.505 92.086 0
    endloop
  endfacet
  facet normal 0 0 -1
    outer loop
      vertex 125.452 105.184 0
      vertex 125.221 104.246 0
      vertex 113.505 92.086 0
    endloop
  endfacet
  facet normal 0 0 -1
    outer loop
      vertex 125.221 104.246 0
      vertex 125.028 103.47 0
      vertex 113.505 92.086 0
    endloop
  endfacet
  facet normal 0 0 -1
    outer loop
      vertex 124.147 97.292 0
      vertex 113.543 86.925 0
      vertex 113.556 88.215 0
    endloop
  endfacet
  facet normal 0 0 -1
    outer loop
      vertex 113.505 92.086 0
      vertex 124.604 101.101 0
      vertex 113.556 88.215 0
    endloop
  endfacet
  facet normal 0 0 -1
    outer loop
      vertex 122.812 0.353 0
      vertex 113.065 40.677 0
      vertex 123.715 87.682 0
    endloop
  endfacet
  facet normal 0 0 -1
    outer loop
      vertex 113.543 86.925 0
      vertex 124.147 97.292 0
      vertex 113.065 40.677 0
    endloop
  endfacet
  facet normal 0 0 -1
    outer loop
      vertex 124.147 97.292 0
      vertex 123.851 92.819 0
      vertex 113.065 40.677 0
    endloop
  endfacet
  facet normal 0 0 -1
    outer loop
      vertex 123.851 92.819 0
      vertex 123.727 88.966 0
      vertex 113.065 40.677 0
    endloop
  endfacet
  facet normal 0 0 -1
    outer loop
      vertex 123.727 88.966 0
      vertex 123.715 87.682 0
      vertex 113.065 40.677 0
    endloop
  endfacet
  facet normal 0 0 -1
    outer loop
      vertex 32.326 95.775 0
      vertex 47.089 124.045 0
      vertex 113.065 40.677 0
    endloop
  endfacet
  facet normal 0 0 -1
    outer loop
      vertex 21.124 102.961 0
      vertex 47.089 124.045 0
      vertex 32.326 95.775 0
    endloop
  endfacet
  facet normal 0 0 -1
    outer loop
      vertex 21.561 37.575 0
      vertex 22.16 95.45 0
      vertex 31.734 38.417 0
    endloop
  endfacet
  facet normal 0 0 -1
    outer loop
      vertex 21.561 37.575 0
      vertex 31.734 38.417 0
      vertex 31.72 37.163 0
    endloop
  endfacet
  facet normal 0 0 -1
    outer loop
      vertex 21.561 37.575 0
      vertex 31.72 37.163 0
      vertex 31.771 33.398 0
    endloop
  endfacet
  facet normal 0 0 -1
    outer loop
      vertex 21.561 37.575 0
      vertex 31.771 33.398 0
      vertex 31.991 29.016 0
    endloop
  endfacet
  facet normal 0 0 -1
    outer loop
      vertex 21.561 37.575 0
      vertex 31.991 29.016 0
      vertex 32.396 25.273 0
    endloop
  endfacet
  facet normal 0 0 -1
    outer loop
      vertex 21.426 32.061 0
      vertex 21.546 36.197 0
      vertex 32.8 22.935 0
    endloop
  endfacet
  facet normal 0 0 -1
    outer loop
      vertex 21.426 32.061 0
      vertex 32.8 22.935 0
      vertex 32.988 22.169 0
    endloop
  endfacet
  facet normal 0 0 -1
    outer loop
      vertex 21.426 32.061 0
      vertex 32.988 22.169 0
      vertex 33.214 21.241 0
    endloop
  endfacet
  facet normal 0 0 -1
    outer loop
      vertex 44.038 10.801 0
      vertex 52.888 1.765 0
      vertex 40.506 12.164 0
    endloop
  endfacet
  facet normal 0 0 -1
    outer loop
      vertex 21.143 27.405 0
      vertex 21.426 32.061 0
      vertex 34.798 17.339 0
    endloop
  endfacet
  facet normal 0 0 -1
    outer loop
      vertex 20.713 23.607 0
      vertex 21.143 27.405 0
      vertex 36.982 14.42 0
    endloop
  endfacet
  facet normal 0 0 -1
    outer loop
      vertex 20.713 23.607 0
      vertex 36.982 14.42 0
      vertex 37.51 13.983 0
    endloop
  endfacet
  facet normal 0 0 -1
    outer loop
      vertex 20.713 23.607 0
      vertex 37.51 13.983 0
      vertex 37.893 13.663 0
    endloop
  endfacet
  facet normal 0 0 -1
    outer loop
      vertex 20.713 23.607 0
      vertex 37.893 13.663 0
      vertex 52.888 1.765 0
    endloop
  endfacet
  facet normal 0 0 -1
    outer loop
      vertex 44.883 10.548 0
      vertex 52.888 1.765 0
      vertex 44.038 10.801 0
    endloop
  endfacet
  facet normal 0 0 -1
    outer loop
      vertex 34.798 17.339 0
      vertex 21.426 32.061 0
      vertex 33.214 21.241 0
    endloop
  endfacet
  facet normal 0 0 -1
    outer loop
      vertex 45.726 10.295 0
      vertex 52.888 1.765 0
      vertex 44.883 10.548 0
    endloop
  endfacet
  facet normal 0 0 -1
    outer loop
      vertex 49.433 9.273 0
      vertex 52.888 1.765 0
      vertex 45.726 10.295 0
    endloop
  endfacet
  facet normal 0 0 -1
    outer loop
      vertex 32.8 22.935 0
      vertex 21.546 36.197 0
      vertex 21.561 37.575 0
    endloop
  endfacet
  facet normal 0 0 -1
    outer loop
      vertex 52.455 8.574 0
      vertex 52.888 1.765 0
      vertex 49.433 9.273 0
    endloop
  endfacet
  facet normal 0 0 -1
    outer loop
      vertex 31.734 38.417 0
      vertex 22.16 95.45 0
      vertex 22.167 96.168 0
    endloop
  endfacet
  facet normal 0 0 -1
    outer loop
      vertex 21.869 99.642 0
      vertex 21.124 102.961 0
      vertex 32.326 95.775 0
    endloop
  endfacet
  facet normal 0 0 -1
    outer loop
      vertex 141.923 115.983 0
      vertex 144.924 123.034 0
      vertex 144.453 116.279 0
    endloop
  endfacet
  facet normal 0 0 -1
    outer loop
      vertex 32.326 95.775 0
      vertex 122.812 0.353 0
      vertex 107.483 0.511 0
    endloop
  endfacet
  facet normal 0 0 -1
    outer loop
      vertex 124.604 101.101 0
      vertex 113.505 92.086 0
      vertex 125.028 103.47 0
    endloop
  endfacet
  facet normal -0.999947 0.0102704 0
    outer loop
      vertex 0.353 2.308 0
      vertex 0.353 2.308 20
      vertex 0.422 9.026 0
    endloop
  endfacet
  facet normal -0.999947 0.0102704 0
    outer loop
      vertex 0.422 9.026 0
      vertex 0.353 2.308 20
      vertex 0.422 9.026 20
    endloop
  endfacet
  facet normal 0 0 1
    outer loop
      vertex 45.726 10.295 20
      vertex 44.883 10.548 20
      vertex 52.888 1.765 20
    endloop
  endfacet
  facet normal 0 0 1
    outer loop
      vertex 52.888 1.765 20
      vertex 52.957 8.482 20
      vertex 52.455 8.574 20
    endloop
  endfacet
  facet normal 0 0 1
    outer loop
      vertex 44.038 10.801 20
      vertex 40.506 12.164 20
      vertex 52.888 1.765 20
    endloop
  endfacet
  facet normal 0 0 1
    outer loop
      vertex 49.433 9.273 20
      vertex 52.888 1.765 20
      vertex 52.455 8.574 20
    endloop
  endfacet
  facet normal 0 0 1
    outer loop
      vertex 49.433 9.273 20
      vertex 45.726 10.295 20
      vertex 52.888 1.765 20
    endloop
  endfacet
  facet normal 0 0 1
    outer loop
      vertex 40.506 12.164 20
      vertex 37.893 13.663 20
      vertex 52.888 1.765 20
    endloop
  endfacet
  facet normal 0 0 1
    outer loop
      vertex 44.883 10.548 20
      vertex 44.038 10.801 20
      vertex 52.888 1.765 20
    endloop
  endfacet
  facet normal 0 0 1
    outer loop
      vertex 37.893 13.663 20
      vertex 20.713 23.607 20
      vertex 52.888 1.765 20
    endloop
  endfacet
  facet normal 0 0 1
    outer loop
      vertex 37.51 13.983 20
      vertex 36.982 14.42 20
      vertex 37.893 13.663 20
    endloop
  endfacet
  facet normal 0 0 1
    outer loop
      vertex 36.982 14.42 20
      vertex 21.143 27.405 20
      vertex 37.893 13.663 20
    endloop
  endfacet
  facet normal 0 0 1
    outer loop
      vertex 34.798 17.339 20
      vertex 21.426 32.061 20
      vertex 36.982 14.42 20
    endloop
  endfacet
  facet normal 0 0 1
    outer loop
      vertex 33.214 21.241 20
      vertex 21.561 37.575 20
      vertex 34.798 17.339 20
    endloop
  endfacet
  facet normal 0 0 1
    outer loop
      vertex 32.988 22.169 20
      vertex 32.8 22.935 20
      vertex 33.214 21.241 20
    endloop
  endfacet
  facet normal 0 0 1
    outer loop
      vertex 22.16 95.45 20
      vertex 31.991 29.016 20
      vertex 31.771 33.398 20
    endloop
  endfacet
  facet normal 0 0 1
    outer loop
      vertex 19.233 107.184 20
      vertex 20.693 104.244 20
      vertex 32.326 95.775 20
    endloop
  endfacet
  facet normal 0 0 1
    outer loop
      vertex 13.586 112.883 20
      vertex 16.302 110.727 20
      vertex 1.1 124.521 20
    endloop
  endfacet
  facet normal 0 0 1
    outer loop
      vertex 31.734 38.417 20
      vertex 32.326 95.775 20
      vertex 31.72 37.163 20
    endloop
  endfacet
  facet normal 0 0 1
    outer loop
      vertex 107.483 0.511 20
      vertex 122.812 0.353 20
      vertex 32.326 95.775 20
    endloop
  endfacet
  facet normal 0 0 1
    outer loop
      vertex 112.857 100.296 20
      vertex 113.276 96.543 20
      vertex 124.147 97.292 20
    endloop
  endfacet
  facet normal 0 0 1
    outer loop
      vertex 110.403 108.049 20
      vertex 112.014 104.247 20
      vertex 127.067 109.04 20
    endloop
  endfacet
  facet normal 0 0 1
    outer loop
      vertex 112.445 102.596 20
      vertex 112.857 100.296 20
      vertex 124.604 101.101 20
    endloop
  endfacet
  facet normal 0 0 1
    outer loop
      vertex 137.956 115.441 20
      vertex 138.702 115.548 20
      vertex 137.207 115.335 20
    endloop
  endfacet
  facet normal 0 0 1
    outer loop
      vertex 138.702 115.548 20
      vertex 144.924 123.034 20
      vertex 137.207 115.335 20
    endloop
  endfacet
  facet normal 0 0 1
    outer loop
      vertex 141.923 115.983 20
      vertex 144.924 123.034 20
      vertex 138.702 115.548 20
    endloop
  endfacet
  facet normal 0 0 1
    outer loop
      vertex 144.453 116.279 20
      vertex 144.924 123.034 20
      vertex 141.923 115.983 20
    endloop
  endfacet
  facet normal 0 0 1
    outer loop
      vertex 144.855 116.318 20
      vertex 144.924 123.034 20
      vertex 144.453 116.279 20
    endloop
  endfacet
  facet normal 0 0 1
    outer loop
      vertex 144.924 123.034 20
      vertex 92.476 123.577 20
      vertex 92.407 116.859 20
    endloop
  endfacet
  facet normal 0 0 1
    outer loop
      vertex 144.924 123.034 20
      vertex 92.407 116.859 20
      vertex 92.907 116.768 20
    endloop
  endfacet
  facet normal 0 0 1
    outer loop
      vertex 144.924 123.034 20
      vertex 92.907 116.768 20
      vertex 95.887 116.082 20
    endloop
  endfacet
  facet normal 0 0 1
    outer loop
      vertex 144.924 123.034 20
      vertex 95.887 116.082 20
      vertex 99.494 115.086 20
    endloop
  endfacet
  facet normal 0 0 1
    outer loop
      vertex 1.859 117.465 20
      vertex 5.742 116.453 20
      vertex 1.1 124.521 20
    endloop
  endfacet
  facet normal 0 0 1
    outer loop
      vertex 144.924 123.034 20
      vertex 99.494 115.086 20
      vertex 100.31 114.84 20
    endloop
  endfacet
  facet normal 0 0 1
    outer loop
      vertex 108.208 110.925 20
      vertex 133.679 114.301 20
      vertex 137.207 115.335 20
    endloop
  endfacet
  facet normal 0 0 1
    outer loop
      vertex 144.924 123.034 20
      vertex 100.31 114.84 20
      vertex 101.124 114.595 20
    endloop
  endfacet
  facet normal 0 0 1
    outer loop
      vertex 32.396 25.273 20
      vertex 21.561 37.575 20
      vertex 32.8 22.935 20
    endloop
  endfacet
  facet normal 0 0 1
    outer loop
      vertex 137.207 115.335 20
      vertex 144.924 123.034 20
      vertex 104.599 113.235 20
    endloop
  endfacet
  facet normal 0 0 1
    outer loop
      vertex 22.16 95.45 20
      vertex 21.561 37.575 20
      vertex 32.396 25.273 20
    endloop
  endfacet
  facet normal 0 0 1
    outer loop
      vertex 137.207 115.335 20
      vertex 104.599 113.235 20
      vertex 107.268 111.695 20
    endloop
  endfacet
  facet normal 0 0 1
    outer loop
      vertex 137.207 115.335 20
      vertex 107.268 111.695 20
      vertex 107.681 111.361 20
    endloop
  endfacet
  facet normal 0 0 1
    outer loop
      vertex 137.207 115.335 20
      vertex 107.681 111.361 20
      vertex 108.208 110.925 20
    endloop
  endfacet
  facet normal 0 0 1
    outer loop
      vertex 112.014 104.247 20
      vertex 112.25 103.347 20
      vertex 125.452 105.184 20
    endloop
  endfacet
  facet normal 0 0 1
    outer loop
      vertex 127.067 109.04 20
      vertex 129.289 111.784 20
      vertex 110.403 108.049 20
    endloop
  endfacet
  facet normal 0 0 1
    outer loop
      vertex 112.25 103.347 20
      vertex 112.445 102.596 20
      vertex 125.221 104.246 20
    endloop
  endfacet
  facet normal 0 0 1
    outer loop
      vertex 125.452 105.184 20
      vertex 127.067 109.04 20
      vertex 112.014 104.247 20
    endloop
  endfacet
  facet normal 0 0 1
    outer loop
      vertex 112.445 102.596 20
      vertex 124.604 101.101 20
      vertex 125.028 103.47 20
    endloop
  endfacet
  facet normal 0 0 1
    outer loop
      vertex 125.221 104.246 20
      vertex 125.452 105.184 20
      vertex 112.25 103.347 20
    endloop
  endfacet
  facet normal 0 0 1
    outer loop
      vertex 113.505 92.086 20
      vertex 113.556 88.215 20
      vertex 123.715 87.682 20
    endloop
  endfacet
  facet normal 0 0 1
    outer loop
      vertex 125.028 103.47 20
      vertex 125.221 104.246 20
      vertex 112.445 102.596 20
    endloop
  endfacet
  facet normal 0 0 1
    outer loop
      vertex 113.276 96.543 20
      vertex 113.505 92.086 20
      vertex 123.851 92.819 20
    endloop
  endfacet
  facet normal 0 0 1
    outer loop
      vertex 124.147 97.292 20
      vertex 124.604 101.101 20
      vertex 112.857 100.296 20
    endloop
  endfacet
  facet normal 0 0 1
    outer loop
      vertex 113.505 92.086 20
      vertex 123.715 87.682 20
      vertex 123.727 88.966 20
    endloop
  endfacet
  facet normal 0 0 1
    outer loop
      vertex 123.851 92.819 20
      vertex 124.147 97.292 20
      vertex 113.276 96.543 20
    endloop
  endfacet
  facet normal 0 0 1
    outer loop
      vertex 123.727 88.966 20
      vertex 123.851 92.819 20
      vertex 113.505 92.086 20
    endloop
  endfacet
  facet normal 0 0 1
    outer loop
      vertex 122.812 0.353 20
      vertex 123.715 87.682 20
      vertex 113.556 88.215 20
    endloop
  endfacet
  facet normal 0 0 1
    outer loop
      vertex 122.812 0.353 20
      vertex 113.556 88.215 20
      vertex 113.543 86.925 20
    endloop
  endfacet
  facet normal 0 0 1
    outer loop
      vertex 122.812 0.353 20
      vertex 113.065 40.677 20
      vertex 32.326 95.775 20
    endloop
  endfacet
  facet normal 0 0 1
    outer loop
      vertex 122.812 0.353 20
      vertex 113.543 86.925 20
      vertex 113.065 40.677 20
    endloop
  endfacet
  facet normal 0 0 1
    outer loop
      vertex 21.546 36.197 20
      vertex 21.426 32.061 20
      vertex 34.798 17.339 20
    endloop
  endfacet
  facet normal 0 0 1
    outer loop
      vertex 22.16 95.45 20
      vertex 32.396 25.273 20
      vertex 31.991 29.016 20
    endloop
  endfacet
  facet normal 0 0 1
    outer loop
      vertex 1.1 124.521 20
      vertex 1.028 117.632 20
      vertex 1.859 117.465 20
    endloop
  endfacet
  facet normal 0 0 1
    outer loop
      vertex 9.265 115.2 20
      vertex 1.1 124.521 20
      vertex 5.742 116.453 20
    endloop
  endfacet
  facet normal 0 0 1
    outer loop
      vertex 21.869 99.642 20
      vertex 22.167 96.168 20
      vertex 31.72 37.163 20
    endloop
  endfacet
  facet normal 0 0 1
    outer loop
      vertex 9.915 114.913 20
      vertex 1.1 124.521 20
      vertex 9.265 115.2 20
    endloop
  endfacet
  facet normal 0 0 1
    outer loop
      vertex 10.564 114.627 20
      vertex 1.1 124.521 20
      vertex 9.915 114.913 20
    endloop
  endfacet
  facet normal 0 0 1
    outer loop
      vertex 13.586 112.883 20
      vertex 1.1 124.521 20
      vertex 10.564 114.627 20
    endloop
  endfacet
  facet normal 0 0 1
    outer loop
      vertex 47.089 124.045 20
      vertex 16.302 110.727 20
      vertex 32.326 95.775 20
    endloop
  endfacet
  facet normal 0 0 1
    outer loop
      vertex 47.089 124.045 20
      vertex 1.1 124.521 20
      vertex 16.302 110.727 20
    endloop
  endfacet
  facet normal 0 0 1
    outer loop
      vertex 16.302 110.727 20
      vertex 16.8 110.234 20
      vertex 32.326 95.775 20
    endloop
  endfacet
  facet normal 0 0 1
    outer loop
      vertex 16.8 110.234 20
      vertex 17.268 109.77 20
      vertex 32.326 95.775 20
    endloop
  endfacet
  facet normal 0 0 1
    outer loop
      vertex 17.268 109.77 20
      vertex 19.233 107.184 20
      vertex 32.326 95.775 20
    endloop
  endfacet
  facet normal 0 0 1
    outer loop
      vertex 22.16 95.45 20
      vertex 31.771 33.398 20
      vertex 31.72 37.163 20
    endloop
  endfacet
  facet normal 0 0 1
    outer loop
      vertex 32.326 95.775 20
      vertex 20.693 104.244 20
      vertex 20.909 103.602 20
    endloop
  endfacet
  facet normal 0 0 1
    outer loop
      vertex 22.167 96.168 20
      vertex 22.16 95.45 20
      vertex 31.72 37.163 20
    endloop
  endfacet
  facet normal 0 0 1
    outer loop
      vertex 32.326 95.775 20
      vertex 20.909 103.602 20
      vertex 21.124 102.961 20
    endloop
  endfacet
  facet normal 0 0 1
    outer loop
      vertex 32.326 95.775 20
      vertex 21.869 99.642 20
      vertex 31.72 37.163 20
    endloop
  endfacet
  facet normal 0 0 1
    outer loop
      vertex 32.326 95.775 20
      vertex 21.124 102.961 20
      vertex 21.869 99.642 20
    endloop
  endfacet
  facet normal 0 0 1
    outer loop
      vertex 20.325 21.39 20
      vertex 20.137 20.665 20
      vertex 52.888 1.765 20
    endloop
  endfacet
  facet normal 0 0 1
    outer loop
      vertex 21.561 37.575 20
      vertex 21.546 36.197 20
      vertex 34.798 17.339 20
    endloop
  endfacet
  facet normal 0 0 1
    outer loop
      vertex 20.137 20.665 20
      vertex 19.92 19.829 20
      vertex 52.888 1.765 20
    endloop
  endfacet
  facet normal 0 0 1
    outer loop
      vertex 21.426 32.061 20
      vertex 21.143 27.405 20
      vertex 36.982 14.42 20
    endloop
  endfacet
  facet normal 0 0 1
    outer loop
      vertex 21.143 27.405 20
      vertex 20.713 23.607 20
      vertex 37.893 13.663 20
    endloop
  endfacet
  facet normal 0 0 1
    outer loop
      vertex 20.713 23.607 20
      vertex 20.325 21.39 20
      vertex 52.888 1.765 20
    endloop
  endfacet
  facet normal 0 0 1
    outer loop
      vertex 19.92 19.829 20
      vertex 18.316 16.28 20
      vertex 52.888 1.765 20
    endloop
  endfacet
  facet normal 0 0 1
    outer loop
      vertex 18.316 16.28 20
      vertex 16.015 13.587 20
      vertex 52.888 1.765 20
    endloop
  endfacet
  facet normal 0 0 1
    outer loop
      vertex 16.015 13.587 20
      vertex 15.452 13.177 20
      vertex 52.888 1.765 20
    endloop
  endfacet
  facet normal 0 0 1
    outer loop
      vertex 15.452 13.177 20
      vertex 14.96 12.838 20
      vertex 52.888 1.765 20
    endloop
  endfacet
  facet normal 0 0 1
    outer loop
      vertex 14.96 12.838 20
      vertex 12.149 11.413 20
      vertex 52.888 1.765 20
    endloop
  endfacet
  facet normal 0 0 1
    outer loop
      vertex 12.149 11.413 20
      vertex 8.869 10.353 20
      vertex 52.888 1.765 20
    endloop
  endfacet
  facet normal 0 0 1
    outer loop
      vertex 8.869 10.353 20
      vertex 8.143 10.195 20
      vertex 52.888 1.765 20
    endloop
  endfacet
  facet normal 0 0 1
    outer loop
      vertex 8.143 10.195 20
      vertex 7.415 10.038 20
      vertex 52.888 1.765 20
    endloop
  endfacet
  facet normal 0 0 1
    outer loop
      vertex 7.415 10.038 20
      vertex 4.032 9.431 20
      vertex 52.888 1.765 20
    endloop
  endfacet
  facet normal 0 0 1
    outer loop
      vertex 4.032 9.431 20
      vertex 0.981 9.063 20
      vertex 52.888 1.765 20
    endloop
  endfacet
  facet normal 0 0 1
    outer loop
      vertex 0.981 9.063 20
      vertex 0.422 9.026 20
      vertex 52.888 1.765 20
    endloop
  endfacet
  facet normal 0 0 1
    outer loop
      vertex 0.422 9.026 20
      vertex 0.353 2.308 20
      vertex 52.888 1.765 20
    endloop
  endfacet
  facet normal 0 0 1
    outer loop
      vertex 32.8 22.935 20
      vertex 21.561 37.575 20
      vertex 33.214 21.241 20
    endloop
  endfacet
  facet normal 0 0 1
    outer loop
      vertex 101.124 114.595 20
      vertex 104.599 113.235 20
      vertex 144.924 123.034 20
    endloop
  endfacet
  facet normal 0 0 1
    outer loop
      vertex 108.208 110.925 20
      vertex 130.433 112.605 20
      vertex 133.679 114.301 20
    endloop
  endfacet
  facet normal 0 0 1
    outer loop
      vertex 108.208 110.925 20
      vertex 129.825 112.165 20
      vertex 130.433 112.605 20
    endloop
  endfacet
  facet normal 0 0 1
    outer loop
      vertex 108.208 110.925 20
      vertex 129.289 111.784 20
      vertex 129.825 112.165 20
    endloop
  endfacet
  facet normal 0 0 1
    outer loop
      vertex 108.208 110.925 20
      vertex 110.403 108.049 20
      vertex 129.289 111.784 20
    endloop
  endfacet
  facet normal 0 0 1
    outer loop
      vertex 113.065 40.677 20
      vertex 47.089 124.045 20
      vertex 32.326 95.775 20
    endloop
  endfacet
  facet normal 0.999947 -0.0102719 0
    outer loop
      vertex 52.888 1.765 20
      vertex 52.888 1.765 0
      vertex 52.957 8.482 0
    endloop
  endfacet
  facet normal 0.999947 -0.0102719 0
    outer loop
      vertex 52.957 8.482 20
      vertex 52.888 1.765 20
      vertex 52.957 8.482 0
    endloop
  endfacet
  facet normal 0.180265 0.983618 0
    outer loop
      vertex 52.455 8.574 0
      vertex 52.455 8.574 20
      vertex 52.957 8.482 0
    endloop
  endfacet
  facet normal 0.180265 0.983618 0
    outer loop
      vertex 52.957 8.482 0
      vertex 52.455 8.574 20
      vertex 52.957 8.482 20
    endloop
  endfacet
  facet normal 0.225354 0.974277 0
    outer loop
      vertex 49.433 9.273 0
      vertex 49.433 9.273 20
      vertex 52.455 8.574 0
    endloop
  endfacet
  facet normal 0.225354 0.974277 0
    outer loop
      vertex 52.455 8.574 0
      vertex 49.433 9.273 20
      vertex 52.455 8.574 20
    endloop
  endfacet
  facet normal 0.265779 0.964034 0
    outer loop
      vertex 45.726 10.295 0
      vertex 45.726 10.295 20
      vertex 49.433 9.273 0
    endloop
  endfacet
  facet normal 0.265779 0.964034 0
    outer loop
      vertex 49.433 9.273 0
      vertex 45.726 10.295 20
      vertex 49.433 9.273 20
    endloop
  endfacet
  facet normal 0.287452 0.957795 0
    outer loop
      vertex 44.883 10.548 0
      vertex 44.883 10.548 20
      vertex 45.726 10.295 0
    endloop
  endfacet
  facet normal 0.287452 0.957795 0
    outer loop
      vertex 45.726 10.295 0
      vertex 44.883 10.548 20
      vertex 45.726 10.295 20
    endloop
  endfacet
  facet normal 0.286828 0.957982 0
    outer loop
      vertex 44.038 10.801 0
      vertex 44.038 10.801 20
      vertex 44.883 10.548 0
    endloop
  endfacet
  facet normal 0.286828 0.957982 0
    outer loop
      vertex 44.883 10.548 0
      vertex 44.038 10.801 20
      vertex 44.883 10.548 20
    endloop
  endfacet
  facet normal 0.360023 0.932943 0
    outer loop
      vertex 40.506 12.164 0
      vertex 40.506 12.164 20
      vertex 44.038 10.801 0
    endloop
  endfacet
  facet normal 0.360023 0.932943 0
    outer loop
      vertex 44.038 10.801 0
      vertex 40.506 12.164 20
      vertex 44.038 10.801 20
    endloop
  endfacet
  facet normal 0.497604 0.867404 0
    outer loop
      vertex 37.893 13.663 0
      vertex 37.893 13.663 20
      vertex 40.506 12.164 0
    endloop
  endfacet
  facet normal 0.497604 0.867404 0
    outer loop
      vertex 40.506 12.164 0
      vertex 37.893 13.663 20
      vertex 40.506 12.164 20
    endloop
  endfacet
  facet normal 0.641169 0.767399 0
    outer loop
      vertex 37.51 13.983 0
      vertex 37.51 13.983 20
      vertex 37.893 13.663 0
    endloop
  endfacet
  facet normal 0.641169 0.767399 0
    outer loop
      vertex 37.893 13.663 0
      vertex 37.51 13.983 20
      vertex 37.893 13.663 20
    endloop
  endfacet
  facet normal 0.637598 0.77037 0
    outer loop
      vertex 36.982 14.42 0
      vertex 36.982 14.42 20
      vertex 37.51 13.983 0
    endloop
  endfacet
  facet normal 0.637598 0.77037 0
    outer loop
      vertex 37.51 13.983 0
      vertex 36.982 14.42 20
      vertex 37.51 13.983 20
    endloop
  endfacet
  facet normal 0.800691 0.599078 0
    outer loop
      vertex 36.982 14.42 0
      vertex 34.798 17.339 0
      vertex 34.798 17.339 20
    endloop
  endfacet
  facet normal 0.800691 0.599078 0
    outer loop
      vertex 36.982 14.42 20
      vertex 36.982 14.42 0
      vertex 34.798 17.339 20
    endloop
  endfacet
  facet normal 0.926565 0.376135 0
    outer loop
      vertex 34.798 17.339 0
      vertex 33.214 21.241 0
      vertex 33.214 21.241 20
    endloop
  endfacet
  facet normal 0.926565 0.376135 0
    outer loop
      vertex 34.798 17.339 20
      vertex 34.798 17.339 0
      vertex 33.214 21.241 20
    endloop
  endfacet
  facet normal 0.971603 0.236619 0
    outer loop
      vertex 33.214 21.241 0
      vertex 32.988 22.169 0
      vertex 32.988 22.169 20
    endloop
  endfacet
  facet normal 0.971603 0.236619 0
    outer loop
      vertex 33.214 21.241 20
      vertex 33.214 21.241 0
      vertex 32.988 22.169 20
    endloop
  endfacet
  facet normal 0.971178 0.238357 0
    outer loop
      vertex 32.988 22.169 0
      vertex 32.8 22.935 0
      vertex 32.8 22.935 20
    endloop
  endfacet
  facet normal 0.971178 0.238357 0
    outer loop
      vertex 32.988 22.169 20
      vertex 32.988 22.169 0
      vertex 32.8 22.935 20
    endloop
  endfacet
  facet normal 0.985397 0.170274 0
    outer loop
      vertex 32.8 22.935 0
      vertex 32.396 25.273 0
      vertex 32.396 25.273 20
    endloop
  endfacet
  facet normal 0.985397 0.170274 0
    outer loop
      vertex 32.8 22.935 20
      vertex 32.8 22.935 0
      vertex 32.396 25.273 20
    endloop
  endfacet
  facet normal 0.994197 0.107574 0
    outer loop
      vertex 32.396 25.273 0
      vertex 31.991 29.016 0
      vertex 31.991 29.016 20
    endloop
  endfacet
  facet normal 0.994197 0.107574 0
    outer loop
      vertex 32.396 25.273 20
      vertex 32.396 25.273 0
      vertex 31.991 29.016 20
    endloop
  endfacet
  facet normal 0.998742 0.0501422 0
    outer loop
      vertex 31.991 29.016 0
      vertex 31.771 33.398 0
      vertex 31.771 33.398 20
    endloop
  endfacet
  facet normal 0.998742 0.0501422 0
    outer loop
      vertex 31.991 29.016 20
      vertex 31.991 29.016 0
      vertex 31.771 33.398 20
    endloop
  endfacet
  facet normal 0.999908 0.0135446 0
    outer loop
      vertex 31.771 33.398 0
      vertex 31.72 37.163 0
      vertex 31.72 37.163 20
    endloop
  endfacet
  facet normal 0.999908 0.0135446 0
    outer loop
      vertex 31.771 33.398 20
      vertex 31.771 33.398 0
      vertex 31.72 37.163 20
    endloop
  endfacet
  facet normal 0.999938 -0.0111636 0
    outer loop
      vertex 31.72 37.163 20
      vertex 31.72 37.163 0
      vertex 31.734 38.417 0
    endloop
  endfacet
  facet normal 0.999938 -0.0111636 0
    outer loop
      vertex 31.734 38.417 20
      vertex 31.72 37.163 20
      vertex 31.734 38.417 0
    endloop
  endfacet
  facet normal 0.999947 -0.0103206 0
    outer loop
      vertex 31.734 38.417 20
      vertex 31.734 38.417 0
      vertex 32.326 95.775 0
    endloop
  endfacet
  facet normal 0.999947 -0.0103206 0
    outer loop
      vertex 32.326 95.775 20
      vertex 31.734 38.417 20
      vertex 32.326 95.775 0
    endloop
  endfacet
  facet normal -0.785089 -0.619383 0
    outer loop
      vertex 32.326 95.775 0
      vertex 107.483 0.511 0
      vertex 32.326 95.775 20
    endloop
  endfacet
  facet normal -0.785089 -0.619383 0
    outer loop
      vertex 32.326 95.775 20
      vertex 107.483 0.511 0
      vertex 107.483 0.511 20
    endloop
  endfacet
  facet normal -0.0103067 -0.999947 0
    outer loop
      vertex 107.483 0.511 20
      vertex 107.483 0.511 0
      vertex 122.812 0.353 0
    endloop
  endfacet
  facet normal -0.0103067 -0.999947 0
    outer loop
      vertex 122.812 0.353 20
      vertex 107.483 0.511 20
      vertex 122.812 0.353 0
    endloop
  endfacet
  facet normal 0.999947 -0.0103397 0
    outer loop
      vertex 122.812 0.353 20
      vertex 122.812 0.353 0
      vertex 123.715 87.682 0
    endloop
  endfacet
  facet normal 0.999947 -0.0103397 0
    outer loop
      vertex 123.715 87.682 20
      vertex 122.812 0.353 20
      vertex 123.715 87.682 0
    endloop
  endfacet
  facet normal 0.999956 -0.00934539 0
    outer loop
      vertex 123.715 87.682 20
      vertex 123.715 87.682 0
      vertex 123.727 88.966 0
    endloop
  endfacet
  facet normal 0.999956 -0.00934539 0
    outer loop
      vertex 123.727 88.966 20
      vertex 123.715 87.682 20
      vertex 123.727 88.966 0
    endloop
  endfacet
  facet normal 0.999483 -0.0321661 0
    outer loop
      vertex 123.727 88.966 20
      vertex 123.727 88.966 0
      vertex 123.851 92.819 0
    endloop
  endfacet
  facet normal 0.999483 -0.0321661 0
    outer loop
      vertex 123.851 92.819 20
      vertex 123.727 88.966 20
      vertex 123.851 92.819 0
    endloop
  endfacet
  facet normal 0.997818 -0.0660304 0
    outer loop
      vertex 123.851 92.819 20
      vertex 123.851 92.819 0
      vertex 124.147 97.292 0
    endloop
  endfacet
  facet normal 0.997818 -0.0660304 0
    outer loop
      vertex 124.147 97.292 20
      vertex 123.851 92.819 20
      vertex 124.147 97.292 0
    endloop
  endfacet
  facet normal 0.992879 -0.119125 0
    outer loop
      vertex 124.147 97.292 20
      vertex 124.147 97.292 0
      vertex 124.604 101.101 0
    endloop
  endfacet
  facet normal 0.992879 -0.119125 0
    outer loop
      vertex 124.604 101.101 20
      vertex 124.147 97.292 20
      vertex 124.604 101.101 0
    endloop
  endfacet
  facet normal 0.984358 -0.176179 0
    outer loop
      vertex 124.604 101.101 20
      vertex 124.604 101.101 0
      vertex 125.028 103.47 0
    endloop
  endfacet
  facet normal 0.984358 -0.176179 0
    outer loop
      vertex 125.028 103.47 20
      vertex 124.604 101.101 20
      vertex 125.028 103.47 0
    endloop
  endfacet
  facet normal 0.970436 -0.241358 0
    outer loop
      vertex 125.028 103.47 20
      vertex 125.028 103.47 0
      vertex 125.221 104.246 0
    endloop
  endfacet
  facet normal 0.970436 -0.241358 0
    outer loop
      vertex 125.221 104.246 20
      vertex 125.028 103.47 20
      vertex 125.221 104.246 0
    endloop
  endfacet
  facet normal 0.970989 -0.239124 0
    outer loop
      vertex 125.221 104.246 20
      vertex 125.221 104.246 0
      vertex 125.452 105.184 0
    endloop
  endfacet
  facet normal 0.970989 -0.239124 0
    outer loop
      vertex 125.452 105.184 20
      vertex 125.221 104.246 20
      vertex 125.452 105.184 0
    endloop
  endfacet
  facet normal 0.922368 -0.386313 0
    outer loop
      vertex 125.452 105.184 20
      vertex 125.452 105.184 0
      vertex 127.067 109.04 0
    endloop
  endfacet
  facet normal 0.922368 -0.386313 0
    outer loop
      vertex 127.067 109.04 20
      vertex 125.452 105.184 20
      vertex 127.067 109.04 0
    endloop
  endfacet
  facet normal 0.777153 -0.629312 0
    outer loop
      vertex 127.067 109.04 20
      vertex 127.067 109.04 0
      vertex 129.289 111.784 0
    endloop
  endfacet
  facet normal 0.777153 -0.629312 0
    outer loop
      vertex 129.289 111.784 20
      vertex 127.067 109.04 20
      vertex 129.289 111.784 0
    endloop
  endfacet
  facet normal 0.579367 -0.815067 0
    outer loop
      vertex 129.289 111.784 20
      vertex 129.289 111.784 0
      vertex 129.825 112.165 0
    endloop
  endfacet
  facet normal 0.579367 -0.815067 0
    outer loop
      vertex 129.825 112.165 20
      vertex 129.289 111.784 20
      vertex 129.825 112.165 0
    endloop
  endfacet
  facet normal 0.586269 -0.810117 0
    outer loop
      vertex 129.825 112.165 20
      vertex 129.825 112.165 0
      vertex 130.433 112.605 0
    endloop
  endfacet
  facet normal 0.586269 -0.810117 0
    outer loop
      vertex 130.433 112.605 20
      vertex 129.825 112.165 20
      vertex 130.433 112.605 0
    endloop
  endfacet
  facet normal 0.463088 -0.886312 0
    outer loop
      vertex 130.433 112.605 20
      vertex 130.433 112.605 0
      vertex 133.679 114.301 0
    endloop
  endfacet
  facet normal 0.463088 -0.886312 0
    outer loop
      vertex 133.679 114.301 20
      vertex 130.433 112.605 20
      vertex 133.679 114.301 0
    endloop
  endfacet
  facet normal 0.281253 -0.959634 0
    outer loop
      vertex 133.679 114.301 20
      vertex 133.679 114.301 0
      vertex 137.207 115.335 0
    endloop
  endfacet
  facet normal 0.281253 -0.959634 0
    outer loop
      vertex 137.207 115.335 20
      vertex 133.679 114.301 20
      vertex 137.207 115.335 0
    endloop
  endfacet
  facet normal 0.140126 -0.990134 0
    outer loop
      vertex 137.207 115.335 20
      vertex 137.207 115.335 0
      vertex 137.956 115.441 0
    endloop
  endfacet
  facet normal 0.140126 -0.990134 0
    outer loop
      vertex 137.956 115.441 20
      vertex 137.207 115.335 20
      vertex 137.956 115.441 0
    endloop
  endfacet
  facet normal 0.141979 -0.98987 0
    outer loop
      vertex 137.956 115.441 20
      vertex 137.956 115.441 0
      vertex 138.702 115.548 0
    endloop
  endfacet
  facet normal 0.141979 -0.98987 0
    outer loop
      vertex 138.702 115.548 20
      vertex 137.956 115.441 20
      vertex 138.702 115.548 0
    endloop
  endfacet
  facet normal 0.133836 -0.991003 0
    outer loop
      vertex 138.702 115.548 20
      vertex 138.702 115.548 0
      vertex 141.923 115.983 0
    endloop
  endfacet
  facet normal 0.133836 -0.991003 0
    outer loop
      vertex 141.923 115.983 20
      vertex 138.702 115.548 20
      vertex 141.923 115.983 0
    endloop
  endfacet
  facet normal 0.116203 -0.993225 0
    outer loop
      vertex 141.923 115.983 20
      vertex 141.923 115.983 0
      vertex 144.453 116.279 0
    endloop
  endfacet
  facet normal 0.116203 -0.993225 0
    outer loop
      vertex 144.453 116.279 20
      vertex 141.923 115.983 20
      vertex 144.453 116.279 0
    endloop
  endfacet
  facet normal 0.0965616 -0.995327 0
    outer loop
      vertex 144.453 116.279 20
      vertex 144.453 116.279 0
      vertex 144.855 116.318 0
    endloop
  endfacet
  facet normal 0.0965616 -0.995327 0
    outer loop
      vertex 144.855 116.318 20
      vertex 144.453 116.279 20
      vertex 144.855 116.318 0
    endloop
  endfacet
  facet normal 0.999947 -0.0102734 0
    outer loop
      vertex 144.855 116.318 20
      vertex 144.855 116.318 0
      vertex 144.924 123.034 0
    endloop
  endfacet
  facet normal 0.999947 -0.0102734 0
    outer loop
      vertex 144.924 123.034 20
      vertex 144.855 116.318 20
      vertex 144.924 123.034 0
    endloop
  endfacet
  facet normal 0.0103526 0.999946 0
    outer loop
      vertex 92.476 123.577 0
      vertex 92.476 123.577 20
      vertex 144.924 123.034 0
    endloop
  endfacet
  facet normal 0.0103526 0.999946 0
    outer loop
      vertex 144.924 123.034 0
      vertex 92.476 123.577 20
      vertex 144.924 123.034 20
    endloop
  endfacet
  facet normal -0.999947 0.0102704 0
    outer loop
      vertex 92.407 116.859 0
      vertex 92.407 116.859 20
      vertex 92.476 123.577 0
    endloop
  endfacet
  facet normal -0.999947 0.0102704 0
    outer loop
      vertex 92.476 123.577 0
      vertex 92.407 116.859 20
      vertex 92.476 123.577 20
    endloop
  endfacet
  facet normal -0.179059 -0.983838 0
    outer loop
      vertex 92.407 116.859 20
      vertex 92.407 116.859 0
      vertex 92.907 116.768 0
    endloop
  endfacet
  facet normal -0.179059 -0.983838 0
    outer loop
      vertex 92.907 116.768 20
      vertex 92.407 116.859 20
      vertex 92.907 116.768 0
    endloop
  endfacet
  facet normal -0.224334 -0.974512 0
    outer loop
      vertex 92.907 116.768 20
      vertex 92.907 116.768 0
      vertex 95.887 116.082 0
    endloop
  endfacet
  facet normal -0.224334 -0.974512 0
    outer loop
      vertex 95.887 116.082 20
      vertex 92.907 116.768 20
      vertex 95.887 116.082 0
    endloop
  endfacet
  facet normal -0.266169 -0.963926 0
    outer loop
      vertex 95.887 116.082 20
      vertex 95.887 116.082 0
      vertex 99.494 115.086 0
    endloop
  endfacet
  facet normal -0.266169 -0.963926 0
    outer loop
      vertex 99.494 115.086 20
      vertex 95.887 116.082 20
      vertex 99.494 115.086 0
    endloop
  endfacet
  facet normal -0.288639 -0.957438 0
    outer loop
      vertex 99.494 115.086 20
      vertex 99.494 115.086 0
      vertex 100.31 114.84 0
    endloop
  endfacet
  facet normal -0.288639 -0.957438 0
    outer loop
      vertex 100.31 114.84 20
      vertex 99.494 115.086 20
      vertex 100.31 114.84 0
    endloop
  endfacet
  facet normal -0.288211 -0.957567 0
    outer loop
      vertex 100.31 114.84 20
      vertex 100.31 114.84 0
      vertex 101.124 114.595 0
    endloop
  endfacet
  facet normal -0.288211 -0.957567 0
    outer loop
      vertex 101.124 114.595 20
      vertex 100.31 114.84 20
      vertex 101.124 114.595 0
    endloop
  endfacet
  facet normal -0.36445 -0.931223 0
    outer loop
      vertex 101.124 114.595 20
      vertex 101.124 114.595 0
      vertex 104.599 113.235 0
    endloop
  endfacet
  facet normal -0.36445 -0.931223 0
    outer loop
      vertex 104.599 113.235 20
      vertex 101.124 114.595 20
      vertex 104.599 113.235 0
    endloop
  endfacet
  facet normal -0.499769 -0.866159 0
    outer loop
      vertex 104.599 113.235 20
      vertex 104.599 113.235 0
      vertex 107.268 111.695 0
    endloop
  endfacet
  facet normal -0.499769 -0.866159 0
    outer loop
      vertex 107.268 111.695 20
      vertex 104.599 113.235 20
      vertex 107.268 111.695 0
    endloop
  endfacet
  facet normal -0.628819 -0.777552 0
    outer loop
      vertex 107.268 111.695 20
      vertex 107.268 111.695 0
      vertex 107.681 111.361 0
    endloop
  endfacet
  facet normal -0.628819 -0.777552 0
    outer loop
      vertex 107.681 111.361 20
      vertex 107.268 111.695 20
      vertex 107.681 111.361 0
    endloop
  endfacet
  facet normal -0.637448 -0.770493 0
    outer loop
      vertex 107.681 111.361 20
      vertex 107.681 111.361 0
      vertex 108.208 110.925 0
    endloop
  endfacet
  facet normal -0.637448 -0.770493 0
    outer loop
      vertex 108.208 110.925 20
      vertex 107.681 111.361 20
      vertex 108.208 110.925 0
    endloop
  endfacet
  facet normal -0.79493 -0.606701 0
    outer loop
      vertex 108.208 110.925 0
      vertex 110.403 108.049 0
      vertex 108.208 110.925 20
    endloop
  endfacet
  facet normal -0.79493 -0.606701 0
    outer loop
      vertex 108.208 110.925 20
      vertex 110.403 108.049 0
      vertex 110.403 108.049 20
    endloop
  endfacet
  facet normal -0.920753 -0.390146 0
    outer loop
      vertex 110.403 108.049 0
      vertex 112.014 104.247 0
      vertex 110.403 108.049 20
    endloop
  endfacet
  facet normal -0.920753 -0.390146 0
    outer loop
      vertex 110.403 108.049 20
      vertex 112.014 104.247 0
      vertex 112.014 104.247 20
    endloop
  endfacet
  facet normal -0.967297 -0.253647 0
    outer loop
      vertex 112.014 104.247 0
      vertex 112.25 103.347 0
      vertex 112.014 104.247 20
    endloop
  endfacet
  facet normal -0.967297 -0.253647 0
    outer loop
      vertex 112.014 104.247 20
      vertex 112.25 103.347 0
      vertex 112.25 103.347 20
    endloop
  endfacet
  facet normal -0.967904 -0.25132 0
    outer loop
      vertex 112.25 103.347 0
      vertex 112.445 102.596 0
      vertex 112.25 103.347 20
    endloop
  endfacet
  facet normal -0.967904 -0.25132 0
    outer loop
      vertex 112.25 103.347 20
      vertex 112.445 102.596 0
      vertex 112.445 102.596 20
    endloop
  endfacet
  facet normal -0.984332 -0.176324 0
    outer loop
      vertex 112.445 102.596 0
      vertex 112.857 100.296 0
      vertex 112.445 102.596 20
    endloop
  endfacet
  facet normal -0.984332 -0.176324 0
    outer loop
      vertex 112.445 102.596 20
      vertex 112.857 100.296 0
      vertex 112.857 100.296 20
    endloop
  endfacet
  facet normal -0.993825 -0.110955 0
    outer loop
      vertex 112.857 100.296 0
      vertex 113.276 96.543 0
      vertex 112.857 100.296 20
    endloop
  endfacet
  facet normal -0.993825 -0.110955 0
    outer loop
      vertex 112.857 100.296 20
      vertex 113.276 96.543 0
      vertex 113.276 96.543 20
    endloop
  endfacet
  facet normal -0.998683 -0.0513122 0
    outer loop
      vertex 113.276 96.543 0
      vertex 113.505 92.086 0
      vertex 113.276 96.543 20
    endloop
  endfacet
  facet normal -0.998683 -0.0513122 0
    outer loop
      vertex 113.276 96.543 20
      vertex 113.505 92.086 0
      vertex 113.505 92.086 20
    endloop
  endfacet
  facet normal -0.999913 -0.0131737 0
    outer loop
      vertex 113.505 92.086 0
      vertex 113.556 88.215 0
      vertex 113.505 92.086 20
    endloop
  endfacet
  facet normal -0.999913 -0.0131737 0
    outer loop
      vertex 113.505 92.086 20
      vertex 113.556 88.215 0
      vertex 113.556 88.215 20
    endloop
  endfacet
  facet normal -0.999949 0.010077 0
    outer loop
      vertex 113.543 86.925 0
      vertex 113.543 86.925 20
      vertex 113.556 88.215 0
    endloop
  endfacet
  facet normal -0.999949 0.010077 0
    outer loop
      vertex 113.556 88.215 0
      vertex 113.543 86.925 20
      vertex 113.556 88.215 20
    endloop
  endfacet
  facet normal -0.999947 0.010335 0
    outer loop
      vertex 113.065 40.677 0
      vertex 113.065 40.677 20
      vertex 113.543 86.925 0
    endloop
  endfacet
  facet normal -0.999947 0.010335 0
    outer loop
      vertex 113.543 86.925 0
      vertex 113.065 40.677 20
      vertex 113.543 86.925 20
    endloop
  endfacet
  facet normal 0.784154 0.620566 0
    outer loop
      vertex 113.065 40.677 0
      vertex 47.089 124.045 0
      vertex 47.089 124.045 20
    endloop
  endfacet
  facet normal 0.784154 0.620566 0
    outer loop
      vertex 113.065 40.677 20
      vertex 113.065 40.677 0
      vertex 47.089 124.045 20
    endloop
  endfacet
  facet normal 0.0103497 0.999946 0
    outer loop
      vertex 1.1 124.521 0
      vertex 1.1 124.521 20
      vertex 47.089 124.045 0
    endloop
  endfacet
  facet normal 0.0103497 0.999946 0
    outer loop
      vertex 47.089 124.045 0
      vertex 1.1 124.521 20
      vertex 47.089 124.045 20
    endloop
  endfacet
  facet normal -0.999945 0.0104509 0
    outer loop
      vertex 1.028 117.632 0
      vertex 1.028 117.632 20
      vertex 1.1 124.521 0
    endloop
  endfacet
  facet normal -0.999945 0.0104509 0
    outer loop
      vertex 1.1 124.521 0
      vertex 1.028 117.632 20
      vertex 1.1 124.521 20
    endloop
  endfacet
  facet normal -0.197024 -0.980399 0
    outer loop
      vertex 1.028 117.632 20
      vertex 1.028 117.632 0
      vertex 1.859 117.465 0
    endloop
  endfacet
  facet normal -0.197024 -0.980399 0
    outer loop
      vertex 1.859 117.465 20
      vertex 1.028 117.632 20
      vertex 1.859 117.465 0
    endloop
  endfacet
  facet normal -0.252199 -0.967675 0
    outer loop
      vertex 1.859 117.465 20
      vertex 1.859 117.465 0
      vertex 5.742 116.453 0
    endloop
  endfacet
  facet normal -0.252199 -0.967675 0
    outer loop
      vertex 5.742 116.453 20
      vertex 1.859 117.465 20
      vertex 5.742 116.453 0
    endloop
  endfacet
  facet normal -0.335099 -0.942183 0
    outer loop
      vertex 5.742 116.453 20
      vertex 5.742 116.453 0
      vertex 9.265 115.2 0
    endloop
  endfacet
  facet normal -0.335099 -0.942183 0
    outer loop
      vertex 9.265 115.2 20
      vertex 5.742 116.453 20
      vertex 9.265 115.2 0
    endloop
  endfacet
  facet normal -0.403917 -0.914795 0
    outer loop
      vertex 9.265 115.2 20
      vertex 9.265 115.2 0
      vertex 9.915 114.913 0
    endloop
  endfacet
  facet normal -0.403917 -0.914795 0
    outer loop
      vertex 9.915 114.913 20
      vertex 9.265 115.2 20
      vertex 9.915 114.913 0
    endloop
  endfacet
  facet normal -0.403258 -0.915086 0
    outer loop
      vertex 9.915 114.913 20
      vertex 9.915 114.913 0
      vertex 10.564 114.627 0
    endloop
  endfacet
  facet normal -0.403258 -0.915086 0
    outer loop
      vertex 10.564 114.627 20
      vertex 9.915 114.913 20
      vertex 10.564 114.627 0
    endloop
  endfacet
  facet normal -0.499838 -0.866119 0
    outer loop
      vertex 10.564 114.627 20
      vertex 10.564 114.627 0
      vertex 13.586 112.883 0
    endloop
  endfacet
  facet normal -0.499838 -0.866119 0
    outer loop
      vertex 13.586 112.883 20
      vertex 10.564 114.627 20
      vertex 13.586 112.883 0
    endloop
  endfacet
  facet normal -0.621736 -0.783226 0
    outer loop
      vertex 13.586 112.883 20
      vertex 13.586 112.883 0
      vertex 16.302 110.727 0
    endloop
  endfacet
  facet normal -0.621736 -0.783226 0
    outer loop
      vertex 16.302 110.727 20
      vertex 13.586 112.883 20
      vertex 16.302 110.727 0
    endloop
  endfacet
  facet normal -0.70353 -0.710665 0
    outer loop
      vertex 16.302 110.727 20
      vertex 16.302 110.727 0
      vertex 16.8 110.234 0
    endloop
  endfacet
  facet normal -0.70353 -0.710665 0
    outer loop
      vertex 16.8 110.234 20
      vertex 16.302 110.727 20
      vertex 16.8 110.234 0
    endloop
  endfacet
  facet normal -0.704066 -0.710135 0
    outer loop
      vertex 16.8 110.234 20
      vertex 16.8 110.234 0
      vertex 17.268 109.77 0
    endloop
  endfacet
  facet normal -0.704066 -0.710135 0
    outer loop
      vertex 17.268 109.77 20
      vertex 16.8 110.234 20
      vertex 17.268 109.77 0
    endloop
  endfacet
  facet normal -0.796216 -0.605013 0
    outer loop
      vertex 17.268 109.77 0
      vertex 19.233 107.184 0
      vertex 17.268 109.77 20
    endloop
  endfacet
  facet normal -0.796216 -0.605013 0
    outer loop
      vertex 17.268 109.77 20
      vertex 19.233 107.184 0
      vertex 19.233 107.184 20
    endloop
  endfacet
  facet normal -0.895642 -0.444775 0
    outer loop
      vertex 19.233 107.184 0
      vertex 20.693 104.244 0
      vertex 19.233 107.184 20
    endloop
  endfacet
  facet normal -0.895642 -0.444775 0
    outer loop
      vertex 19.233 107.184 20
      vertex 20.693 104.244 0
      vertex 20.693 104.244 20
    endloop
  endfacet
  facet normal -0.947794 -0.318884 0
    outer loop
      vertex 20.693 104.244 0
      vertex 20.909 103.602 0
      vertex 20.693 104.244 20
    endloop
  endfacet
  facet normal -0.947794 -0.318884 0
    outer loop
      vertex 20.693 104.244 20
      vertex 20.909 103.602 0
      vertex 20.909 103.602 20
    endloop
  endfacet
  facet normal -0.94809 -0.318002 0
    outer loop
      vertex 20.909 103.602 0
      vertex 21.124 102.961 0
      vertex 20.909 103.602 20
    endloop
  endfacet
  facet normal -0.94809 -0.318002 0
    outer loop
      vertex 20.909 103.602 20
      vertex 21.124 102.961 0
      vertex 21.124 102.961 20
    endloop
  endfacet
  facet normal -0.975721 -0.219015 0
    outer loop
      vertex 21.124 102.961 0
      vertex 21.869 99.642 0
      vertex 21.124 102.961 20
    endloop
  endfacet
  facet normal -0.975721 -0.219015 0
    outer loop
      vertex 21.124 102.961 20
      vertex 21.869 99.642 0
      vertex 21.869 99.642 20
    endloop
  endfacet
  facet normal -0.996341 -0.0854662 0
    outer loop
      vertex 21.869 99.642 0
      vertex 22.167 96.168 0
      vertex 21.869 99.642 20
    endloop
  endfacet
  facet normal -0.996341 -0.0854662 0
    outer loop
      vertex 21.869 99.642 20
      vertex 22.167 96.168 0
      vertex 22.167 96.168 20
    endloop
  endfacet
  facet normal -0.999952 0.00974884 0
    outer loop
      vertex 22.16 95.45 0
      vertex 22.16 95.45 20
      vertex 22.167 96.168 0
    endloop
  endfacet
  facet normal -0.999952 0.00974884 0
    outer loop
      vertex 22.167 96.168 0
      vertex 22.16 95.45 20
      vertex 22.167 96.168 20
    endloop
  endfacet
  facet normal -0.999946 0.0103493 0
    outer loop
      vertex 21.561 37.575 0
      vertex 21.561 37.575 20
      vertex 22.16 95.45 0
    endloop
  endfacet
  facet normal -0.999946 0.0103493 0
    outer loop
      vertex 22.16 95.45 0
      vertex 21.561 37.575 20
      vertex 22.16 95.45 20
    endloop
  endfacet
  facet normal -0.999941 0.0108847 0
    outer loop
      vertex 21.546 36.197 0
      vertex 21.546 36.197 20
      vertex 21.561 37.575 0
    endloop
  endfacet
  facet normal -0.999941 0.0108847 0
    outer loop
      vertex 21.561 37.575 0
      vertex 21.546 36.197 20
      vertex 21.561 37.575 20
    endloop
  endfacet
  facet normal -0.999579 0.0290013 0
    outer loop
      vertex 21.426 32.061 0
      vertex 21.426 32.061 20
      vertex 21.546 36.197 0
    endloop
  endfacet
  facet normal -0.999579 0.0290013 0
    outer loop
      vertex 21.546 36.197 0
      vertex 21.426 32.061 20
      vertex 21.546 36.197 20
    endloop
  endfacet
  facet normal -0.998158 0.0606698 0
    outer loop
      vertex 21.143 27.405 0
      vertex 21.143 27.405 20
      vertex 21.426 32.061 0
    endloop
  endfacet
  facet normal -0.998158 0.0606698 0
    outer loop
      vertex 21.426 32.061 0
      vertex 21.143 27.405 20
      vertex 21.426 32.061 20
    endloop
  endfacet
  facet normal -0.993652 0.112499 0
    outer loop
      vertex 20.713 23.607 0
      vertex 20.713 23.607 20
      vertex 21.143 27.405 0
    endloop
  endfacet
  facet normal -0.993652 0.112499 0
    outer loop
      vertex 21.143 27.405 0
      vertex 20.713 23.607 20
      vertex 21.143 27.405 20
    endloop
  endfacet
  facet normal -0.985029 0.172391 0
    outer loop
      vertex 20.325 21.39 0
      vertex 20.325 21.39 20
      vertex 20.713 23.607 0
    endloop
  endfacet
  facet normal -0.985029 0.172391 0
    outer loop
      vertex 20.713 23.607 0
      vertex 20.325 21.39 20
      vertex 20.713 23.607 20
    endloop
  endfacet
  facet normal -0.967985 0.251008 0
    outer loop
      vertex 20.137 20.665 0
      vertex 20.137 20.665 20
      vertex 20.325 21.39 0
    endloop
  endfacet
  facet normal -0.967985 0.251008 0
    outer loop
      vertex 20.325 21.39 0
      vertex 20.137 20.665 20
      vertex 20.325 21.39 20
    endloop
  endfacet
  facet normal -0.967924 0.251243 0
    outer loop
      vertex 19.92 19.829 0
      vertex 19.92 19.829 20
      vertex 20.137 20.665 0
    endloop
  endfacet
  facet normal -0.967924 0.251243 0
    outer loop
      vertex 20.137 20.665 0
      vertex 19.92 19.829 20
      vertex 20.137 20.665 20
    endloop
  endfacet
  facet normal -0.911252 0.411848 0
    outer loop
      vertex 18.316 16.28 0
      vertex 18.316 16.28 20
      vertex 19.92 19.829 0
    endloop
  endfacet
  facet normal -0.911252 0.411848 0
    outer loop
      vertex 19.92 19.829 0
      vertex 18.316 16.28 20
      vertex 19.92 19.829 20
    endloop
  endfacet
  facet normal -0.760272 0.649605 0
    outer loop
      vertex 16.015 13.587 0
      vertex 16.015 13.587 20
      vertex 18.316 16.28 0
    endloop
  endfacet
  facet normal -0.760272 0.649605 0
    outer loop
      vertex 18.316 16.28 0
      vertex 16.015 13.587 20
      vertex 18.316 16.28 20
    endloop
  endfacet
  facet normal -0.588684 0.808363 0
    outer loop
      vertex 15.452 13.177 0
      vertex 15.452 13.177 20
      vertex 16.015 13.587 0
    endloop
  endfacet
  facet normal -0.588684 0.808363 0
    outer loop
      vertex 16.015 13.587 0
      vertex 15.452 13.177 20
      vertex 16.015 13.587 20
    endloop
  endfacet
  facet normal -0.567381 0.823455 0
    outer loop
      vertex 14.96 12.838 0
      vertex 14.96 12.838 20
      vertex 15.452 13.177 0
    endloop
  endfacet
  facet normal -0.567381 0.823455 0
    outer loop
      vertex 15.452 13.177 0
      vertex 14.96 12.838 20
      vertex 15.452 13.177 20
    endloop
  endfacet
  facet normal -0.452157 0.891939 0
    outer loop
      vertex 12.149 11.413 0
      vertex 12.149 11.413 20
      vertex 14.96 12.838 0
    endloop
  endfacet
  facet normal -0.452157 0.891939 0
    outer loop
      vertex 14.96 12.838 0
      vertex 12.149 11.413 20
      vertex 14.96 12.838 20
    endloop
  endfacet
  facet normal -0.307511 0.951544 0
    outer loop
      vertex 8.869 10.353 0
      vertex 8.869 10.353 20
      vertex 12.149 11.413 0
    endloop
  endfacet
  facet normal -0.307511 0.951544 0
    outer loop
      vertex 12.149 11.413 0
      vertex 8.869 10.353 20
      vertex 12.149 11.413 20
    endloop
  endfacet
  facet normal -0.212653 0.977128 0
    outer loop
      vertex 8.143 10.195 0
      vertex 8.143 10.195 20
      vertex 8.869 10.353 0
    endloop
  endfacet
  facet normal -0.212653 0.977128 0
    outer loop
      vertex 8.869 10.353 0
      vertex 8.143 10.195 20
      vertex 8.869 10.353 20
    endloop
  endfacet
  facet normal -0.210813 0.977526 0
    outer loop
      vertex 7.415 10.038 0
      vertex 7.415 10.038 20
      vertex 8.143 10.195 0
    endloop
  endfacet
  facet normal -0.210813 0.977526 0
    outer loop
      vertex 8.143 10.195 0
      vertex 7.415 10.038 20
      vertex 8.143 10.195 20
    endloop
  endfacet
  facet normal -0.176606 0.984282 0
    outer loop
      vertex 4.032 9.431 0
      vertex 4.032 9.431 20
      vertex 7.415 10.038 0
    endloop
  endfacet
  facet normal -0.176606 0.984282 0
    outer loop
      vertex 7.415 10.038 0
      vertex 4.032 9.431 20
      vertex 7.415 10.038 20
    endloop
  endfacet
  facet normal -0.119748 0.992804 0
    outer loop
      vertex 0.981 9.063 0
      vertex 0.981 9.063 20
      vertex 4.032 9.431 0
    endloop
  endfacet
  facet normal -0.119748 0.992804 0
    outer loop
      vertex 4.032 9.431 0
      vertex 0.981 9.063 20
      vertex 4.032 9.431 20
    endloop
  endfacet
  facet normal -0.0660451 0.997817 0
    outer loop
      vertex 0.422 9.026 0
      vertex 0.422 9.026 20
      vertex 0.981 9.063 0
    endloop
  endfacet
  facet normal -0.0660451 0.997817 0
    outer loop
      vertex 0.981 9.063 0
      vertex 0.422 9.026 20
      vertex 0.981 9.063 20
    endloop
  endfacet
endsolid OpenSCAD_Model
