solid OpenSCAD_Model
  facet normal -0.727587 0.00747298 0.685975
    outer loop
      vertex 0.353 2.308 20
      vertex 2.25778 4.17393 22
      vertex 0.422 9.026 20
    endloop
  endfacet
  facet normal -0.727587 0.00747298 0.685975
    outer loop
      vertex 1.11811 8.37369 20.7454
      vertex 2.25778 4.17393 22
      vertex 2.29017 7.32715 22
    endloop
  endfacet
  facet normal -0.727587 0.00747298 0.685975
    outer loop
      vertex 0.981 8.49858 20.5987
      vertex 2.25778 4.17393 22
      vertex 1.11811 8.37369 20.7454
    endloop
  endfacet
  facet normal -0.727587 0.00747298 0.685975
    outer loop
      vertex 0.422 9.026 20
      vertex 2.25778 4.17393 22
      vertex 0.981 8.49858 20.5987
    endloop
  endfacet
  facet normal -0.00752031 -0.727586 0.685975
    outer loop
      vertex 2.25778 4.17393 22
      vertex 0.353 2.308 20
      vertex 52.888 1.765 20
    endloop
  endfacet
  facet normal -0.00752031 -0.727586 0.685975
    outer loop
      vertex 51.022 3.66991 22
      vertex 2.25778 4.17393 22
      vertex 52.888 1.765 20
    endloop
  endfacet
  facet normal 0 0 -1
    outer loop
      vertex 52.888 1.765 20
      vertex 8.869 10.353 20
      vertex 52.957 8.482 20
    endloop
  endfacet
  facet normal 0 0 -1
    outer loop
      vertex 52.888 1.765 20
      vertex 8.143 10.195 20
      vertex 8.869 10.353 20
    endloop
  endfacet
  facet normal 0 0 -1
    outer loop
      vertex 52.888 1.765 20
      vertex 7.415 10.038 20
      vertex 8.143 10.195 20
    endloop
  endfacet
  facet normal 0 0 -1
    outer loop
      vertex 52.888 1.765 20
      vertex 4.032 9.431 20
      vertex 7.415 10.038 20
    endloop
  endfacet
  facet normal 0 0 -1
    outer loop
      vertex 52.888 1.765 20
      vertex 0.981 9.063 20
      vertex 4.032 9.431 20
    endloop
  endfacet
  facet normal 0 0 -1
    outer loop
      vertex 32.326 95.775 20
      vertex 22.16 95.45 20
      vertex 47.089 124.045 20
    endloop
  endfacet
  facet normal 0 0 -1
    outer loop
      vertex 22.16 95.45 20
      vertex 22.167 96.168 20
      vertex 47.089 124.045 20
    endloop
  endfacet
  facet normal 0 0 -1
    outer loop
      vertex 22.167 96.168 20
      vertex 21.869 99.642 20
      vertex 47.089 124.045 20
    endloop
  endfacet
  facet normal 0 0 -1
    outer loop
      vertex 21.869 99.642 20
      vertex 21.124 102.961 20
      vertex 47.089 124.045 20
    endloop
  endfacet
  facet normal 0 0 -1
    outer loop
      vertex 21.124 102.961 20
      vertex 20.909 103.602 20
      vertex 47.089 124.045 20
    endloop
  endfacet
  facet normal 0 0 -1
    outer loop
      vertex 20.909 103.602 20
      vertex 20.693 104.244 20
      vertex 47.089 124.045 20
    endloop
  endfacet
  facet normal 0 0 -1
    outer loop
      vertex 20.693 104.244 20
      vertex 19.233 107.184 20
      vertex 47.089 124.045 20
    endloop
  endfacet
  facet normal 0 0 -1
    outer loop
      vertex 19.233 107.184 20
      vertex 17.268 109.77 20
      vertex 47.089 124.045 20
    endloop
  endfacet
  facet normal 0 0 -1
    outer loop
      vertex 17.268 109.77 20
      vertex 16.8 110.234 20
      vertex 47.089 124.045 20
    endloop
  endfacet
  facet normal 0 0 -1
    outer loop
      vertex 47.089 124.045 20
      vertex 16.302 110.727 20
      vertex 1.1 124.521 20
    endloop
  endfacet
  facet normal 0 0 -1
    outer loop
      vertex 16.302 110.727 20
      vertex 13.586 112.883 20
      vertex 1.1 124.521 20
    endloop
  endfacet
  facet normal 0 0 -1
    outer loop
      vertex 13.586 112.883 20
      vertex 10.564 114.627 20
      vertex 1.1 124.521 20
    endloop
  endfacet
  facet normal 0 0 -1
    outer loop
      vertex 10.564 114.627 20
      vertex 9.915 114.913 20
      vertex 9.265 115.2 20
    endloop
  endfacet
  facet normal 0 0 -1
    outer loop
      vertex 10.564 114.627 20
      vertex 9.265 115.2 20
      vertex 1.1 124.521 20
    endloop
  endfacet
  facet normal 0 0 -1
    outer loop
      vertex 9.265 115.2 20
      vertex 5.742 116.453 20
      vertex 1.1 124.521 20
    endloop
  endfacet
  facet normal 0 0 -1
    outer loop
      vertex 1.1 124.521 20
      vertex 1.859 117.465 20
      vertex 1.028 117.632 20
    endloop
  endfacet
  facet normal 0 0 -1
    outer loop
      vertex 5.742 116.453 20
      vertex 1.859 117.465 20
      vertex 1.1 124.521 20
    endloop
  endfacet
  facet normal 0 0 -1
    outer loop
      vertex 16.8 110.234 20
      vertex 16.302 110.727 20
      vertex 47.089 124.045 20
    endloop
  endfacet
  facet normal 0 0 -1
    outer loop
      vertex 130.433 112.605 20
      vertex 112.857 100.296 20
      vertex 144.924 123.034 20
    endloop
  endfacet
  facet normal 0 0 -1
    outer loop
      vertex 112.857 100.296 20
      vertex 112.445 102.596 20
      vertex 144.924 123.034 20
    endloop
  endfacet
  facet normal 0 0 -1
    outer loop
      vertex 112.445 102.596 20
      vertex 112.25 103.347 20
      vertex 144.924 123.034 20
    endloop
  endfacet
  facet normal 0 0 -1
    outer loop
      vertex 112.25 103.347 20
      vertex 112.014 104.247 20
      vertex 144.924 123.034 20
    endloop
  endfacet
  facet normal 0 0 -1
    outer loop
      vertex 112.014 104.247 20
      vertex 110.403 108.049 20
      vertex 144.924 123.034 20
    endloop
  endfacet
  facet normal 0 0 -1
    outer loop
      vertex 110.403 108.049 20
      vertex 108.208 110.925 20
      vertex 144.924 123.034 20
    endloop
  endfacet
  facet normal 0 0 -1
    outer loop
      vertex 108.208 110.925 20
      vertex 107.681 111.361 20
      vertex 144.924 123.034 20
    endloop
  endfacet
  facet normal 0 0 -1
    outer loop
      vertex 144.924 123.034 20
      vertex 107.268 111.695 20
      vertex 92.476 123.577 20
    endloop
  endfacet
  facet normal 0 0 -1
    outer loop
      vertex 107.268 111.695 20
      vertex 104.599 113.235 20
      vertex 92.476 123.577 20
    endloop
  endfacet
  facet normal 0 0 -1
    outer loop
      vertex 104.599 113.235 20
      vertex 101.124 114.595 20
      vertex 92.476 123.577 20
    endloop
  endfacet
  facet normal 0 0 -1
    outer loop
      vertex 101.124 114.595 20
      vertex 100.31 114.84 20
      vertex 99.494 115.086 20
    endloop
  endfacet
  facet normal 0 0 -1
    outer loop
      vertex 101.124 114.595 20
      vertex 99.494 115.086 20
      vertex 92.476 123.577 20
    endloop
  endfacet
  facet normal 0 0 -1
    outer loop
      vertex 99.494 115.086 20
      vertex 95.887 116.082 20
      vertex 92.476 123.577 20
    endloop
  endfacet
  facet normal 0 0 -1
    outer loop
      vertex 95.887 116.082 20
      vertex 92.907 116.768 20
      vertex 92.476 123.577 20
    endloop
  endfacet
  facet normal 0 0 -1
    outer loop
      vertex 92.907 116.768 20
      vertex 92.407 116.859 20
      vertex 92.476 123.577 20
    endloop
  endfacet
  facet normal 0 0 -1
    outer loop
      vertex 107.681 111.361 20
      vertex 107.268 111.695 20
      vertex 144.924 123.034 20
    endloop
  endfacet
  facet normal 0 0 -1
    outer loop
      vertex 32.326 95.775 20
      vertex 47.089 124.045 20
      vertex 113.065 40.677 20
    endloop
  endfacet
  facet normal 0 0 -1
    outer loop
      vertex 32.326 95.775 20
      vertex 113.065 40.677 20
      vertex 122.812 0.353 20
    endloop
  endfacet
  facet normal 0 0 -1
    outer loop
      vertex 144.855 116.318 20
      vertex 144.453 116.279 20
      vertex 144.924 123.034 20
    endloop
  endfacet
  facet normal 0 0 -1
    outer loop
      vertex 122.812 0.353 20
      vertex 113.065 40.677 20
      vertex 123.715 87.682 20
    endloop
  endfacet
  facet normal 0 0 -1
    outer loop
      vertex 137.956 115.441 20
      vertex 144.924 123.034 20
      vertex 138.702 115.548 20
    endloop
  endfacet
  facet normal 0 0 -1
    outer loop
      vertex 141.923 115.983 20
      vertex 138.702 115.548 20
      vertex 144.924 123.034 20
    endloop
  endfacet
  facet normal 0 0 -1
    outer loop
      vertex 124.147 97.292 20
      vertex 113.543 86.925 20
      vertex 113.556 88.215 20
    endloop
  endfacet
  facet normal 0 0 -1
    outer loop
      vertex 133.679 114.301 20
      vertex 144.924 123.034 20
      vertex 137.207 115.335 20
    endloop
  endfacet
  facet normal 0 0 -1
    outer loop
      vertex 124.147 97.292 20
      vertex 113.556 88.215 20
      vertex 124.604 101.101 20
    endloop
  endfacet
  facet normal 0 0 -1
    outer loop
      vertex 137.956 115.441 20
      vertex 137.207 115.335 20
      vertex 144.924 123.034 20
    endloop
  endfacet
  facet normal 0 0 -1
    outer loop
      vertex 125.452 105.184 20
      vertex 113.276 96.543 20
      vertex 127.067 109.04 20
    endloop
  endfacet
  facet normal 0 0 -1
    outer loop
      vertex 127.067 109.04 20
      vertex 112.857 100.296 20
      vertex 129.289 111.784 20
    endloop
  endfacet
  facet normal 0 0 -1
    outer loop
      vertex 129.825 112.165 20
      vertex 112.857 100.296 20
      vertex 130.433 112.605 20
    endloop
  endfacet
  facet normal 0 0 -1
    outer loop
      vertex 133.679 114.301 20
      vertex 130.433 112.605 20
      vertex 144.924 123.034 20
    endloop
  endfacet
  facet normal 0 0 -1
    outer loop
      vertex 129.289 111.784 20
      vertex 112.857 100.296 20
      vertex 129.825 112.165 20
    endloop
  endfacet
  facet normal 0 0 -1
    outer loop
      vertex 113.276 96.543 20
      vertex 112.857 100.296 20
      vertex 127.067 109.04 20
    endloop
  endfacet
  facet normal 0 0 -1
    outer loop
      vertex 113.505 92.086 20
      vertex 113.276 96.543 20
      vertex 125.452 105.184 20
    endloop
  endfacet
  facet normal 0 0 -1
    outer loop
      vertex 113.505 92.086 20
      vertex 125.452 105.184 20
      vertex 125.221 104.246 20
    endloop
  endfacet
  facet normal 0 0 -1
    outer loop
      vertex 113.505 92.086 20
      vertex 125.221 104.246 20
      vertex 125.028 103.47 20
    endloop
  endfacet
  facet normal 0 0 -1
    outer loop
      vertex 113.556 88.215 20
      vertex 113.505 92.086 20
      vertex 124.604 101.101 20
    endloop
  endfacet
  facet normal 0 0 -1
    outer loop
      vertex 113.065 40.677 20
      vertex 113.543 86.925 20
      vertex 124.147 97.292 20
    endloop
  endfacet
  facet normal 0 0 -1
    outer loop
      vertex 113.065 40.677 20
      vertex 124.147 97.292 20
      vertex 123.851 92.819 20
    endloop
  endfacet
  facet normal 0 0 -1
    outer loop
      vertex 113.065 40.677 20
      vertex 123.851 92.819 20
      vertex 123.727 88.966 20
    endloop
  endfacet
  facet normal 0 0 -1
    outer loop
      vertex 113.065 40.677 20
      vertex 123.727 88.966 20
      vertex 123.715 87.682 20
    endloop
  endfacet
  facet normal 0 0 -1
    outer loop
      vertex 21.561 37.575 20
      vertex 22.16 95.45 20
      vertex 32.326 95.775 20
    endloop
  endfacet
  facet normal 0 0 -1
    outer loop
      vertex 52.888 1.765 20
      vertex 0.422 9.026 20
      vertex 0.981 9.063 20
    endloop
  endfacet
  facet normal 0 0 -1
    outer loop
      vertex 31.72 37.163 20
      vertex 19.92 19.829 20
      vertex 31.734 38.417 20
    endloop
  endfacet
  facet normal 0 0 -1
    outer loop
      vertex 31.771 33.398 20
      vertex 19.92 19.829 20
      vertex 31.72 37.163 20
    endloop
  endfacet
  facet normal 0 0 -1
    outer loop
      vertex 31.991 29.016 20
      vertex 19.92 19.829 20
      vertex 31.771 33.398 20
    endloop
  endfacet
  facet normal 0 0 -1
    outer loop
      vertex 32.396 25.273 20
      vertex 19.92 19.829 20
      vertex 31.991 29.016 20
    endloop
  endfacet
  facet normal 0 0 -1
    outer loop
      vertex 32.8 22.935 20
      vertex 19.92 19.829 20
      vertex 32.396 25.273 20
    endloop
  endfacet
  facet normal 0 0 -1
    outer loop
      vertex 18.316 16.28 20
      vertex 19.92 19.829 20
      vertex 32.988 22.169 20
    endloop
  endfacet
  facet normal 0 0 -1
    outer loop
      vertex 18.316 16.28 20
      vertex 32.988 22.169 20
      vertex 33.214 21.241 20
    endloop
  endfacet
  facet normal 0 0 -1
    outer loop
      vertex 8.869 10.353 20
      vertex 34.798 17.339 20
      vertex 36.982 14.42 20
    endloop
  endfacet
  facet normal 0 0 -1
    outer loop
      vertex 8.869 10.353 20
      vertex 36.982 14.42 20
      vertex 37.51 13.983 20
    endloop
  endfacet
  facet normal 0 0 -1
    outer loop
      vertex 8.869 10.353 20
      vertex 37.51 13.983 20
      vertex 37.893 13.663 20
    endloop
  endfacet
  facet normal 0 0 -1
    outer loop
      vertex 8.869 10.353 20
      vertex 37.893 13.663 20
      vertex 40.506 12.164 20
    endloop
  endfacet
  facet normal 0 0 -1
    outer loop
      vertex 8.869 10.353 20
      vertex 40.506 12.164 20
      vertex 44.038 10.801 20
    endloop
  endfacet
  facet normal 0 0 -1
    outer loop
      vertex 8.869 10.353 20
      vertex 44.038 10.801 20
      vertex 44.883 10.548 20
    endloop
  endfacet
  facet normal 0 0 -1
    outer loop
      vertex 8.869 10.353 20
      vertex 44.883 10.548 20
      vertex 45.726 10.295 20
    endloop
  endfacet
  facet normal 0 0 -1
    outer loop
      vertex 8.869 10.353 20
      vertex 45.726 10.295 20
      vertex 49.433 9.273 20
    endloop
  endfacet
  facet normal 0 0 -1
    outer loop
      vertex 8.869 10.353 20
      vertex 49.433 9.273 20
      vertex 52.455 8.574 20
    endloop
  endfacet
  facet normal 0 0 -1
    outer loop
      vertex 8.869 10.353 20
      vertex 52.455 8.574 20
      vertex 52.957 8.482 20
    endloop
  endfacet
  facet normal 0 0 -1
    outer loop
      vertex 52.888 1.765 20
      vertex 0.353 2.308 20
      vertex 0.422 9.026 20
    endloop
  endfacet
  facet normal 0 0 -1
    outer loop
      vertex 141.923 115.983 20
      vertex 144.924 123.034 20
      vertex 144.453 116.279 20
    endloop
  endfacet
  facet normal 0 0 -1
    outer loop
      vertex 32.326 95.775 20
      vertex 122.812 0.353 20
      vertex 107.483 0.511 20
    endloop
  endfacet
  facet normal 0 0 -1
    outer loop
      vertex 124.604 101.101 20
      vertex 113.505 92.086 20
      vertex 125.028 103.47 20
    endloop
  endfacet
  facet normal 0 0 -1
    outer loop
      vertex 34.798 17.339 20
      vertex 8.869 10.353 20
      vertex 12.149 11.413 20
    endloop
  endfacet
  facet normal 0 0 -1
    outer loop
      vertex 34.798 17.339 20
      vertex 12.149 11.413 20
      vertex 14.96 12.838 20
    endloop
  endfacet
  facet normal 0 0 -1
    outer loop
      vertex 34.798 17.339 20
      vertex 14.96 12.838 20
      vertex 15.452 13.177 20
    endloop
  endfacet
  facet normal 0 0 -1
    outer loop
      vertex 34.798 17.339 20
      vertex 15.452 13.177 20
      vertex 16.015 13.587 20
    endloop
  endfacet
  facet normal 0 0 -1
    outer loop
      vertex 34.798 17.339 20
      vertex 16.015 13.587 20
      vertex 18.316 16.28 20
    endloop
  endfacet
  facet normal 0 0 -1
    outer loop
      vertex 34.798 17.339 20
      vertex 18.316 16.28 20
      vertex 33.214 21.241 20
    endloop
  endfacet
  facet normal 0 0 -1
    outer loop
      vertex 32.988 22.169 20
      vertex 19.92 19.829 20
      vertex 32.8 22.935 20
    endloop
  endfacet
  facet normal 0 0 -1
    outer loop
      vertex 31.734 38.417 20
      vertex 19.92 19.829 20
      vertex 20.137 20.665 20
    endloop
  endfacet
  facet normal 0 0 -1
    outer loop
      vertex 31.734 38.417 20
      vertex 20.137 20.665 20
      vertex 20.325 21.39 20
    endloop
  endfacet
  facet normal 0 0 -1
    outer loop
      vertex 31.734 38.417 20
      vertex 20.325 21.39 20
      vertex 20.713 23.607 20
    endloop
  endfacet
  facet normal 0 0 -1
    outer loop
      vertex 31.734 38.417 20
      vertex 20.713 23.607 20
      vertex 21.143 27.405 20
    endloop
  endfacet
  facet normal 0 0 -1
    outer loop
      vertex 31.734 38.417 20
      vertex 21.143 27.405 20
      vertex 21.426 32.061 20
    endloop
  endfacet
  facet normal 0 0 -1
    outer loop
      vertex 31.734 38.417 20
      vertex 21.426 32.061 20
      vertex 21.546 36.197 20
    endloop
  endfacet
  facet normal 0 0 -1
    outer loop
      vertex 31.734 38.417 20
      vertex 21.546 36.197 20
      vertex 21.561 37.575 20
    endloop
  endfacet
  facet normal 0 0 -1
    outer loop
      vertex 31.734 38.417 20
      vertex 21.561 37.575 20
      vertex 32.326 95.775 20
    endloop
  endfacet
  facet normal -0.0481043 0.726765 0.6852
    outer loop
      vertex 0.981 9.063 20
      vertex 0.422 9.026 20
      vertex 0.981 8.49858 20.5987
    endloop
  endfacet
  facet normal -0.0714791 0.725746 0.68424
    outer loop
      vertex 0.981 9.063 20
      vertex 0.981 8.49858 20.5987
      vertex 1.11811 8.37369 20.7454
    endloop
  endfacet
  facet normal -0.0872491 0.723361 0.684935
    outer loop
      vertex 0.981 9.063 20
      vertex 1.11811 8.37369 20.7454
      vertex 4.032 9.431 20
    endloop
  endfacet
  facet normal -0.0872491 0.723361 0.684935
    outer loop
      vertex 4.032 9.431 20
      vertex 1.11811 8.37369 20.7454
      vertex 2.29017 7.32715 22
    endloop
  endfacet
  facet normal -0.0872491 0.723361 0.684935
    outer loop
      vertex 4.032 9.431 20
      vertex 2.29017 7.32715 22
      vertex 4.39987 7.58161 22
    endloop
  endfacet
  facet normal 0 0 1
    outer loop
      vertex 2.29017 7.32715 22
      vertex 2.25778 4.17393 22
      vertex 51.022 3.66991 22
    endloop
  endfacet
  facet normal 0 0 1
    outer loop
      vertex 49.0651 7.42361 22
      vertex 2.29017 7.32715 22
      vertex 51.0558 6.96317 22
    endloop
  endfacet
  facet normal 0 0 1
    outer loop
      vertex 51.0558 6.96317 22
      vertex 2.29017 7.32715 22
      vertex 51.022 3.66991 22
    endloop
  endfacet
  facet normal 0 0 1
    outer loop
      vertex 22.6511 104.324 22
      vertex 22.8661 103.683 22
      vertex 30.5839 96.4966 22
    endloop
  endfacet
  facet normal 0 0 1
    outer loop
      vertex 45.3581 8.44561 22
      vertex 2.29017 7.32715 22
      vertex 49.0651 7.42361 22
    endloop
  endfacet
  facet normal 0 0 1
    outer loop
      vertex 44.5151 8.69861 22
      vertex 2.29017 7.32715 22
      vertex 45.3581 8.44561 22
    endloop
  endfacet
  facet normal 0 0 1
    outer loop
      vertex 43.6701 8.95161 22
      vertex 2.29017 7.32715 22
      vertex 44.5151 8.69861 22
    endloop
  endfacet
  facet normal 0 0 1
    outer loop
      vertex 43.3164 9.05892 22
      vertex 2.29017 7.32715 22
      vertex 43.6701 8.95161 22
    endloop
  endfacet
  facet normal 0 0 1
    outer loop
      vertex 39.7844 10.4219 22
      vertex 2.29017 7.32715 22
      vertex 43.3164 9.05892 22
    endloop
  endfacet
  facet normal 0 0 1
    outer loop
      vertex 39.4584 10.5962 22
      vertex 2.29017 7.32715 22
      vertex 39.7844 10.4219 22
    endloop
  endfacet
  facet normal 0 0 1
    outer loop
      vertex 4.39987 7.58161 22
      vertex 2.29017 7.32715 22
      vertex 39.4584 10.5962 22
    endloop
  endfacet
  facet normal 0 0 1
    outer loop
      vertex 7.78287 8.18861 22
      vertex 36.8454 12.0952 22
      vertex 36.5597 12.3297 22
    endloop
  endfacet
  facet normal 0 0 1
    outer loop
      vertex 8.51087 8.34561 22
      vertex 7.78287 8.18861 22
      vertex 36.1767 12.6497 22
    endloop
  endfacet
  facet normal 0 0 1
    outer loop
      vertex 9.59059 8.61092 22
      vertex 9.23687 8.50361 22
      vertex 35.6487 13.0867 22
    endloop
  endfacet
  facet normal 0 0 1
    outer loop
      vertex 12.8706 9.67092 22
      vertex 9.59059 8.61092 22
      vertex 35.4142 13.3724 22
    endloop
  endfacet
  facet normal 0 0 1
    outer loop
      vertex 16.4996 11.6092 22
      vertex 16.0076 11.2702 22
      vertex 33.2302 16.2914 22
    endloop
  endfacet
  facet normal 0 0 1
    outer loop
      vertex 17.0626 12.0192 22
      vertex 16.4996 11.6092 22
      vertex 33.0559 16.6174 22
    endloop
  endfacet
  facet normal 0 0 1
    outer loop
      vertex 20.0581 15.5584 22
      vertex 19.8838 15.2324 22
      vertex 31.4719 20.5194 22
    endloop
  endfacet
  facet normal 0 0 1
    outer loop
      vertex 7.78287 8.18861 22
      vertex 4.39987 7.58161 22
      vertex 36.8454 12.0952 22
    endloop
  endfacet
  facet normal 0 0 1
    outer loop
      vertex 21.6621 19.1074 22
      vertex 31.1386 21.8011 22
      vertex 30.9506 22.5671 22
    endloop
  endfacet
  facet normal 0 0 1
    outer loop
      vertex 21.7694 19.4611 22
      vertex 21.6621 19.1074 22
      vertex 30.5466 24.9051 22
    endloop
  endfacet
  facet normal 0 0 1
    outer loop
      vertex 21.6621 19.1074 22
      vertex 31.3646 20.8731 22
      vertex 31.1386 21.8011 22
    endloop
  endfacet
  facet normal 0 0 1
    outer loop
      vertex 22.5624 23.2391 22
      vertex 30.1416 28.6481 22
      vertex 30.1054 29.016 22
    endloop
  endfacet
  facet normal 0 0 1
    outer loop
      vertex 22.9924 27.0371 22
      vertex 22.5624 23.2391 22
      vertex 29.8854 33.398 22
    endloop
  endfacet
  facet normal 0 0 1
    outer loop
      vertex 22.5624 23.2391 22
      vertex 22.1744 21.0221 22
      vertex 30.1416 28.6481 22
    endloop
  endfacet
  facet normal 0 0 1
    outer loop
      vertex 23.3116 32.061 22
      vertex 29.8344 37.163 22
      vertex 29.8484 38.417 22
    endloop
  endfacet
  facet normal 0 0 1
    outer loop
      vertex 23.3116 32.061 22
      vertex 23.0286 27.405 22
      vertex 29.8344 37.163 22
    endloop
  endfacet
  facet normal 0 0 1
    outer loop
      vertex 21.6621 19.1074 22
      vertex 20.0581 15.5584 22
      vertex 31.3646 20.8731 22
    endloop
  endfacet
  facet normal 0 0 1
    outer loop
      vertex 22.6511 104.324 22
      vertex 30.5839 96.4966 22
      vertex 30.7582 96.8226 22
    endloop
  endfacet
  facet normal 0 0 1
    outer loop
      vertex 46.1769 122.169 22
      vertex 30.7582 96.8226 22
      vertex 30.9927 97.1083 22
    endloop
  endfacet
  facet normal 0 0 1
    outer loop
      vertex 46.1769 122.169 22
      vertex 30.9927 97.1083 22
      vertex 31.2784 97.3428 22
    endloop
  endfacet
  facet normal 0 0 1
    outer loop
      vertex 46.1769 122.169 22
      vertex 31.2784 97.3428 22
      vertex 31.6044 97.5171 22
    endloop
  endfacet
  facet normal 0 0 1
    outer loop
      vertex 114.706 100.664 22
      vertex 115.125 96.9109 22
      vertex 122.261 97.292 22
    endloop
  endfacet
  facet normal 0 0 1
    outer loop
      vertex 111.732 39.3437 22
      vertex 111.497 39.6294 22
      vertex 33.6593 97.1083 22
    endloop
  endfacet
  facet normal 0 0 1
    outer loop
      vertex 120.946 2.25785 22
      vertex 33.6593 97.1083 22
      vertex 33.8938 96.8226 22
    endloop
  endfacet
  facet normal 0 0 1
    outer loop
      vertex 120.946 2.25785 22
      vertex 33.8938 96.8226 22
      vertex 108.397 2.3872 22
    endloop
  endfacet
  facet normal 0 0 1
    outer loop
      vertex 112.017 39.1092 22
      vertex 33.6593 97.1083 22
      vertex 120.946 2.25785 22
    endloop
  endfacet
  facet normal 0 0 1
    outer loop
      vertex 115.162 96.543 22
      vertex 115.391 92.086 22
      vertex 121.965 92.819 22
    endloop
  endfacet
  facet normal 0 0 1
    outer loop
      vertex 114.706 100.664 22
      vertex 122.261 97.292 22
      vertex 122.298 97.6599 22
    endloop
  endfacet
  facet normal 0 0 1
    outer loop
      vertex 114.294 102.964 22
      vertex 114.706 100.664 22
      vertex 122.755 101.469 22
    endloop
  endfacet
  facet normal 0 0 1
    outer loop
      vertex 114.099 103.715 22
      vertex 114.294 102.964 22
      vertex 123.179 103.838 22
    endloop
  endfacet
  facet normal 0 0 1
    outer loop
      vertex 113.863 104.615 22
      vertex 114.099 103.715 22
      vertex 123.372 104.614 22
    endloop
  endfacet
  facet normal 0 0 1
    outer loop
      vertex 113.756 104.969 22
      vertex 113.863 104.615 22
      vertex 123.603 105.552 22
    endloop
  endfacet
  facet normal 0 0 1
    outer loop
      vertex 112.145 108.771 22
      vertex 125.325 109.762 22
      vertex 125.499 110.088 22
    endloop
  endfacet
  facet normal 0 0 1
    outer loop
      vertex 112.145 108.771 22
      vertex 123.71 105.906 22
      vertex 125.325 109.762 22
    endloop
  endfacet
  facet normal 0 0 1
    outer loop
      vertex 112.145 108.771 22
      vertex 113.756 104.969 22
      vertex 123.71 105.906 22
    endloop
  endfacet
  facet normal 0 0 1
    outer loop
      vertex 115.391 92.086 22
      vertex 121.829 87.682 22
      vertex 121.841 88.966 22
    endloop
  endfacet
  facet normal 0 0 1
    outer loop
      vertex 115.391 92.086 22
      vertex 115.442 88.215 22
      vertex 121.829 87.682 22
    endloop
  endfacet
  facet normal 0 0 1
    outer loop
      vertex 109.776 111.973 22
      vertex 132.957 116.043 22
      vertex 133.311 116.15 22
    endloop
  endfacet
  facet normal 0 0 1
    outer loop
      vertex 138.334 117.397 22
      vertex 136.839 117.184 22
      vertex 137.588 117.29 22
    endloop
  endfacet
  facet normal 0 0 1
    outer loop
      vertex 143.019 121.168 22
      vertex 136.839 117.184 22
      vertex 138.334 117.397 22
    endloop
  endfacet
  facet normal 0 0 1
    outer loop
      vertex 143.019 121.168 22
      vertex 138.334 117.397 22
      vertex 141.555 117.832 22
    endloop
  endfacet
  facet normal 0 0 1
    outer loop
      vertex 143.019 121.168 22
      vertex 141.555 117.832 22
      vertex 142.987 118 22
    endloop
  endfacet
  facet normal 0 0 1
    outer loop
      vertex 109.541 112.258 22
      vertex 109.776 111.973 22
      vertex 136.839 117.184 22
    endloop
  endfacet
  facet normal 0 0 1
    outer loop
      vertex 94.3421 121.672 22
      vertex 94.3082 118.38 22
      vertex 143.019 121.168 22
    endloop
  endfacet
  facet normal 0 0 1
    outer loop
      vertex 2.92929 119.131 22
      vertex 6.10987 118.302 22
      vertex 2.96571 122.616 22
    endloop
  endfacet
  facet normal 0 0 1
    outer loop
      vertex 94.3082 118.38 22
      vertex 96.2549 117.931 22
      vertex 143.019 121.168 22
    endloop
  endfacet
  facet normal 0 0 1
    outer loop
      vertex 96.2549 117.931 22
      vertex 99.8619 116.935 22
      vertex 143.019 121.168 22
    endloop
  endfacet
  facet normal 0 0 1
    outer loop
      vertex 6.46359 118.195 22
      vertex 9.98659 116.942 22
      vertex 2.96571 122.616 22
    endloop
  endfacet
  facet normal 0 0 1
    outer loop
      vertex 99.8619 116.935 22
      vertex 100.678 116.689 22
      vertex 143.019 121.168 22
    endloop
  endfacet
  facet normal 0 0 1
    outer loop
      vertex 100.678 116.689 22
      vertex 101.492 116.444 22
      vertex 143.019 121.168 22
    endloop
  endfacet
  facet normal 0 0 1
    outer loop
      vertex 101.492 116.444 22
      vertex 101.846 116.337 22
      vertex 143.019 121.168 22
    endloop
  endfacet
  facet normal 0 0 1
    outer loop
      vertex 101.846 116.337 22
      vertex 105.321 114.977 22
      vertex 143.019 121.168 22
    endloop
  endfacet
  facet normal 0 0 1
    outer loop
      vertex 105.321 114.977 22
      vertex 105.647 114.803 22
      vertex 143.019 121.168 22
    endloop
  endfacet
  facet normal 0 0 1
    outer loop
      vertex 143.019 121.168 22
      vertex 108.316 113.263 22
      vertex 136.839 117.184 22
    endloop
  endfacet
  facet normal 0 0 1
    outer loop
      vertex 108.316 113.263 22
      vertex 108.729 112.929 22
      vertex 136.839 117.184 22
    endloop
  endfacet
  facet normal 0 0 1
    outer loop
      vertex 108.729 112.929 22
      vertex 109.014 112.694 22
      vertex 136.839 117.184 22
    endloop
  endfacet
  facet normal 0 0 1
    outer loop
      vertex 109.014 112.694 22
      vertex 109.541 112.258 22
      vertex 136.839 117.184 22
    endloop
  endfacet
  facet normal 0 0 1
    outer loop
      vertex 136.839 117.184 22
      vertex 109.776 111.973 22
      vertex 133.311 116.15 22
    endloop
  endfacet
  facet normal 0 0 1
    outer loop
      vertex 127.721 112.832 22
      vertex 111.971 109.097 22
      vertex 125.499 110.088 22
    endloop
  endfacet
  facet normal 0 0 1
    outer loop
      vertex 111.971 109.097 22
      vertex 112.145 108.771 22
      vertex 125.499 110.088 22
    endloop
  endfacet
  facet normal 0 0 1
    outer loop
      vertex 123.71 105.906 22
      vertex 113.756 104.969 22
      vertex 123.603 105.552 22
    endloop
  endfacet
  facet normal 0 0 1
    outer loop
      vertex 123.603 105.552 22
      vertex 113.863 104.615 22
      vertex 123.372 104.614 22
    endloop
  endfacet
  facet normal 0 0 1
    outer loop
      vertex 123.372 104.614 22
      vertex 114.099 103.715 22
      vertex 123.179 103.838 22
    endloop
  endfacet
  facet normal 0 0 1
    outer loop
      vertex 123.179 103.838 22
      vertex 114.294 102.964 22
      vertex 122.755 101.469 22
    endloop
  endfacet
  facet normal 0 0 1
    outer loop
      vertex 122.755 101.469 22
      vertex 114.706 100.664 22
      vertex 122.298 97.6599 22
    endloop
  endfacet
  facet normal 0 0 1
    outer loop
      vertex 122.261 97.292 22
      vertex 115.125 96.9109 22
      vertex 121.965 92.819 22
    endloop
  endfacet
  facet normal 0 0 1
    outer loop
      vertex 115.125 96.9109 22
      vertex 115.162 96.543 22
      vertex 121.965 92.819 22
    endloop
  endfacet
  facet normal 0 0 1
    outer loop
      vertex 121.965 92.819 22
      vertex 115.391 92.086 22
      vertex 121.841 88.966 22
    endloop
  endfacet
  facet normal 0 0 1
    outer loop
      vertex 121.829 87.682 22
      vertex 115.442 88.215 22
      vertex 120.946 2.25785 22
    endloop
  endfacet
  facet normal 0 0 1
    outer loop
      vertex 115.442 88.215 22
      vertex 115.429 86.925 22
      vertex 120.946 2.25785 22
    endloop
  endfacet
  facet normal 0 0 1
    outer loop
      vertex 115.429 86.925 22
      vertex 114.951 40.677 22
      vertex 120.946 2.25785 22
    endloop
  endfacet
  facet normal 0 0 1
    outer loop
      vertex 114.951 40.677 22
      vertex 114.914 40.3091 22
      vertex 120.946 2.25785 22
    endloop
  endfacet
  facet normal 0 0 1
    outer loop
      vertex 114.914 40.3091 22
      vertex 114.807 39.9554 22
      vertex 120.946 2.25785 22
    endloop
  endfacet
  facet normal 0 0 1
    outer loop
      vertex 114.807 39.9554 22
      vertex 114.633 39.6294 22
      vertex 120.946 2.25785 22
    endloop
  endfacet
  facet normal 0 0 1
    outer loop
      vertex 114.633 39.6294 22
      vertex 114.398 39.3437 22
      vertex 120.946 2.25785 22
    endloop
  endfacet
  facet normal 0 0 1
    outer loop
      vertex 114.398 39.3437 22
      vertex 114.113 39.1092 22
      vertex 120.946 2.25785 22
    endloop
  endfacet
  facet normal 0 0 1
    outer loop
      vertex 114.113 39.1092 22
      vertex 113.787 38.9349 22
      vertex 120.946 2.25785 22
    endloop
  endfacet
  facet normal 0 0 1
    outer loop
      vertex 113.787 38.9349 22
      vertex 113.433 38.8276 22
      vertex 120.946 2.25785 22
    endloop
  endfacet
  facet normal 0 0 1
    outer loop
      vertex 113.433 38.8276 22
      vertex 113.065 38.7914 22
      vertex 120.946 2.25785 22
    endloop
  endfacet
  facet normal 0 0 1
    outer loop
      vertex 113.065 38.7914 22
      vertex 112.697 38.8276 22
      vertex 120.946 2.25785 22
    endloop
  endfacet
  facet normal 0 0 1
    outer loop
      vertex 112.697 38.8276 22
      vertex 112.343 38.9349 22
      vertex 120.946 2.25785 22
    endloop
  endfacet
  facet normal 0 0 1
    outer loop
      vertex 112.343 38.9349 22
      vertex 112.017 39.1092 22
      vertex 120.946 2.25785 22
    endloop
  endfacet
  facet normal 0 0 1
    outer loop
      vertex 111.732 39.3437 22
      vertex 33.6593 97.1083 22
      vertex 112.017 39.1092 22
    endloop
  endfacet
  facet normal 0 0 1
    outer loop
      vertex 18.6013 111.103 22
      vertex 30.7582 96.8226 22
      vertex 46.1769 122.169 22
    endloop
  endfacet
  facet normal 0 0 1
    outer loop
      vertex 24.0456 95.45 22
      vertex 30.4766 96.1429 22
      vertex 30.5839 96.4966 22
    endloop
  endfacet
  facet normal 0 0 1
    outer loop
      vertex 22.9734 103.329 22
      vertex 23.7184 100.01 22
      vertex 30.5839 96.4966 22
    endloop
  endfacet
  facet normal 0 0 1
    outer loop
      vertex 2.96571 122.616 22
      vertex 6.10987 118.302 22
      vertex 6.46359 118.195 22
    endloop
  endfacet
  facet normal 0 0 1
    outer loop
      vertex 2.96571 122.616 22
      vertex 9.98659 116.942 22
      vertex 46.1769 122.169 22
    endloop
  endfacet
  facet normal 0 0 1
    outer loop
      vertex 9.98659 116.942 22
      vertex 10.6366 116.655 22
      vertex 46.1769 122.169 22
    endloop
  endfacet
  facet normal 0 0 1
    outer loop
      vertex 10.6366 116.655 22
      vertex 11.2856 116.369 22
      vertex 46.1769 122.169 22
    endloop
  endfacet
  facet normal 0 0 1
    outer loop
      vertex 22.4351 104.966 22
      vertex 22.6511 104.324 22
      vertex 30.7582 96.8226 22
    endloop
  endfacet
  facet normal 0 0 1
    outer loop
      vertex 11.2856 116.369 22
      vertex 11.6116 116.195 22
      vertex 46.1769 122.169 22
    endloop
  endfacet
  facet normal 0 0 1
    outer loop
      vertex 24.0456 95.45 22
      vertex 30.4404 95.775 22
      vertex 30.4766 96.1429 22
    endloop
  endfacet
  facet normal 0 0 1
    outer loop
      vertex 11.6116 116.195 22
      vertex 14.6336 114.451 22
      vertex 46.1769 122.169 22
    endloop
  endfacet
  facet normal 0 0 1
    outer loop
      vertex 24.0456 95.45 22
      vertex 23.4466 37.575 22
      vertex 30.4404 95.775 22
    endloop
  endfacet
  facet normal 0 0 1
    outer loop
      vertex 14.6336 114.451 22
      vertex 17.3496 112.295 22
      vertex 46.1769 122.169 22
    endloop
  endfacet
  facet normal 0 0 1
    outer loop
      vertex 17.3496 112.295 22
      vertex 17.6353 112.06 22
      vertex 46.1769 122.169 22
    endloop
  endfacet
  facet normal 0 0 1
    outer loop
      vertex 17.6353 112.06 22
      vertex 18.1333 111.567 22
      vertex 46.1769 122.169 22
    endloop
  endfacet
  facet normal 0 0 1
    outer loop
      vertex 18.1333 111.567 22
      vertex 18.6013 111.103 22
      vertex 46.1769 122.169 22
    endloop
  endfacet
  facet normal 0 0 1
    outer loop
      vertex 18.8358 110.818 22
      vertex 30.7582 96.8226 22
      vertex 18.6013 111.103 22
    endloop
  endfacet
  facet normal 0 0 1
    outer loop
      vertex 20.9751 107.906 22
      vertex 30.7582 96.8226 22
      vertex 20.8008 108.232 22
    endloop
  endfacet
  facet normal 0 0 1
    outer loop
      vertex 22.8661 103.683 22
      vertex 22.9734 103.329 22
      vertex 30.5839 96.4966 22
    endloop
  endfacet
  facet normal 0 0 1
    outer loop
      vertex 18.8358 110.818 22
      vertex 20.8008 108.232 22
      vertex 30.7582 96.8226 22
    endloop
  endfacet
  facet normal 0 0 1
    outer loop
      vertex 20.9751 107.906 22
      vertex 22.4351 104.966 22
      vertex 30.7582 96.8226 22
    endloop
  endfacet
  facet normal 0 0 1
    outer loop
      vertex 23.7184 100.01 22
      vertex 23.7546 99.642 22
      vertex 30.5839 96.4966 22
    endloop
  endfacet
  facet normal 0 0 1
    outer loop
      vertex 23.7546 99.642 22
      vertex 24.0526 96.168 22
      vertex 30.5839 96.4966 22
    endloop
  endfacet
  facet normal 0 0 1
    outer loop
      vertex 24.0526 96.168 22
      vertex 24.0456 95.45 22
      vertex 30.5839 96.4966 22
    endloop
  endfacet
  facet normal 0 0 1
    outer loop
      vertex 30.4404 95.775 22
      vertex 23.4466 37.575 22
      vertex 29.8484 38.417 22
    endloop
  endfacet
  facet normal 0 0 1
    outer loop
      vertex 23.4466 37.575 22
      vertex 23.4316 36.197 22
      vertex 29.8484 38.417 22
    endloop
  endfacet
  facet normal 0 0 1
    outer loop
      vertex 23.4316 36.197 22
      vertex 23.3116 32.061 22
      vertex 29.8484 38.417 22
    endloop
  endfacet
  facet normal 0 0 1
    outer loop
      vertex 29.8344 37.163 22
      vertex 23.0286 27.405 22
      vertex 29.8854 33.398 22
    endloop
  endfacet
  facet normal 0 0 1
    outer loop
      vertex 23.0286 27.405 22
      vertex 22.9924 27.0371 22
      vertex 29.8854 33.398 22
    endloop
  endfacet
  facet normal 0 0 1
    outer loop
      vertex 29.8854 33.398 22
      vertex 22.5624 23.2391 22
      vertex 30.1054 29.016 22
    endloop
  endfacet
  facet normal 0 0 1
    outer loop
      vertex 30.1416 28.6481 22
      vertex 22.1744 21.0221 22
      vertex 30.5466 24.9051 22
    endloop
  endfacet
  facet normal 0 0 1
    outer loop
      vertex 22.1744 21.0221 22
      vertex 21.9864 20.2971 22
      vertex 30.5466 24.9051 22
    endloop
  endfacet
  facet normal 0 0 1
    outer loop
      vertex 21.9864 20.2971 22
      vertex 21.7694 19.4611 22
      vertex 30.5466 24.9051 22
    endloop
  endfacet
  facet normal 0 0 1
    outer loop
      vertex 30.5466 24.9051 22
      vertex 21.6621 19.1074 22
      vertex 30.9506 22.5671 22
    endloop
  endfacet
  facet normal 0 0 1
    outer loop
      vertex 31.3646 20.8731 22
      vertex 20.0581 15.5584 22
      vertex 31.4719 20.5194 22
    endloop
  endfacet
  facet normal 0 0 1
    outer loop
      vertex 31.4719 20.5194 22
      vertex 19.8838 15.2324 22
      vertex 33.0559 16.6174 22
    endloop
  endfacet
  facet normal 0 0 1
    outer loop
      vertex 19.8838 15.2324 22
      vertex 19.6493 14.9467 22
      vertex 33.0559 16.6174 22
    endloop
  endfacet
  facet normal 0 0 1
    outer loop
      vertex 19.6493 14.9467 22
      vertex 17.3483 12.2537 22
      vertex 33.0559 16.6174 22
    endloop
  endfacet
  facet normal 0 0 1
    outer loop
      vertex 17.3483 12.2537 22
      vertex 17.0626 12.0192 22
      vertex 33.0559 16.6174 22
    endloop
  endfacet
  facet normal 0 0 1
    outer loop
      vertex 33.0559 16.6174 22
      vertex 16.4996 11.6092 22
      vertex 33.2302 16.2914 22
    endloop
  endfacet
  facet normal 0 0 1
    outer loop
      vertex 33.2302 16.2914 22
      vertex 16.0076 11.2702 22
      vertex 35.4142 13.3724 22
    endloop
  endfacet
  facet normal 0 0 1
    outer loop
      vertex 16.0076 11.2702 22
      vertex 15.6816 11.0959 22
      vertex 35.4142 13.3724 22
    endloop
  endfacet
  facet normal 0 0 1
    outer loop
      vertex 15.6816 11.0959 22
      vertex 12.8706 9.67092 22
      vertex 35.4142 13.3724 22
    endloop
  endfacet
  facet normal 0 0 1
    outer loop
      vertex 35.4142 13.3724 22
      vertex 9.59059 8.61092 22
      vertex 35.6487 13.0867 22
    endloop
  endfacet
  facet normal 0 0 1
    outer loop
      vertex 35.6487 13.0867 22
      vertex 9.23687 8.50361 22
      vertex 36.1767 12.6497 22
    endloop
  endfacet
  facet normal 0 0 1
    outer loop
      vertex 9.23687 8.50361 22
      vertex 8.51087 8.34561 22
      vertex 36.1767 12.6497 22
    endloop
  endfacet
  facet normal 0 0 1
    outer loop
      vertex 36.1767 12.6497 22
      vertex 7.78287 8.18861 22
      vertex 36.5597 12.3297 22
    endloop
  endfacet
  facet normal 0 0 1
    outer loop
      vertex 36.8454 12.0952 22
      vertex 4.39987 7.58161 22
      vertex 39.4584 10.5962 22
    endloop
  endfacet
  facet normal 0 0 1
    outer loop
      vertex 105.647 114.803 22
      vertex 108.316 113.263 22
      vertex 143.019 121.168 22
    endloop
  endfacet
  facet normal 0 0 1
    outer loop
      vertex 109.776 111.973 22
      vertex 129.711 114.347 22
      vertex 132.957 116.043 22
    endloop
  endfacet
  facet normal 0 0 1
    outer loop
      vertex 109.776 111.973 22
      vertex 129.385 114.173 22
      vertex 129.711 114.347 22
    endloop
  endfacet
  facet normal 0 0 1
    outer loop
      vertex 109.776 111.973 22
      vertex 128.777 113.733 22
      vertex 129.385 114.173 22
    endloop
  endfacet
  facet normal 0 0 1
    outer loop
      vertex 109.776 111.973 22
      vertex 128.241 113.352 22
      vertex 128.777 113.733 22
    endloop
  endfacet
  facet normal 0 0 1
    outer loop
      vertex 109.776 111.973 22
      vertex 127.956 113.117 22
      vertex 128.241 113.352 22
    endloop
  endfacet
  facet normal 0 0 1
    outer loop
      vertex 109.776 111.973 22
      vertex 127.721 112.832 22
      vertex 127.956 113.117 22
    endloop
  endfacet
  facet normal 0 0 1
    outer loop
      vertex 109.776 111.973 22
      vertex 111.971 109.097 22
      vertex 127.721 112.832 22
    endloop
  endfacet
  facet normal 0 0 1
    outer loop
      vertex 111.497 39.6294 22
      vertex 33.3736 97.3428 22
      vertex 33.6593 97.1083 22
    endloop
  endfacet
  facet normal 0 0 1
    outer loop
      vertex 31.9581 97.6244 22
      vertex 46.1769 122.169 22
      vertex 31.6044 97.5171 22
    endloop
  endfacet
  facet normal 0 0 1
    outer loop
      vertex 32.326 97.6606 22
      vertex 46.1769 122.169 22
      vertex 31.9581 97.6244 22
    endloop
  endfacet
  facet normal 0 0 1
    outer loop
      vertex 32.6939 97.6244 22
      vertex 46.1769 122.169 22
      vertex 32.326 97.6606 22
    endloop
  endfacet
  facet normal 0 0 1
    outer loop
      vertex 33.0476 97.5171 22
      vertex 46.1769 122.169 22
      vertex 32.6939 97.6244 22
    endloop
  endfacet
  facet normal 0 0 1
    outer loop
      vertex 33.3736 97.3428 22
      vertex 46.1769 122.169 22
      vertex 33.0476 97.5171 22
    endloop
  endfacet
  facet normal 0 0 1
    outer loop
      vertex 111.497 39.6294 22
      vertex 46.1769 122.169 22
      vertex 33.3736 97.3428 22
    endloop
  endfacet
  facet normal 0.727587 -0.00747409 0.685975
    outer loop
      vertex 51.0558 6.96317 22
      vertex 51.022 3.66991 22
      vertex 52.888 1.765 20
    endloop
  endfacet
  facet normal 0.727587 -0.00747409 0.685975
    outer loop
      vertex 52.3346 7.96874 20.6546
      vertex 51.0558 6.96317 22
      vertex 52.888 1.765 20
    endloop
  endfacet
  facet normal 0.727587 -0.00747409 0.685975
    outer loop
      vertex 52.957 8.482 20
      vertex 52.3346 7.96874 20.6546
      vertex 52.888 1.765 20
    endloop
  endfacet
  facet normal 0.131169 0.715726 0.685953
    outer loop
      vertex 52.455 8.574 20
      vertex 52.3346 7.96874 20.6546
      vertex 52.957 8.482 20
    endloop
  endfacet
  facet normal 0.164006 0.70905 0.68582
    outer loop
      vertex 49.0651 7.42361 22
      vertex 51.0558 6.96317 22
      vertex 49.433 9.273 20
    endloop
  endfacet
  facet normal 0.164006 0.70905 0.68582
    outer loop
      vertex 49.433 9.273 20
      vertex 51.0558 6.96317 22
      vertex 52.3346 7.96874 20.6546
    endloop
  endfacet
  facet normal 0.164006 0.70905 0.68582
    outer loop
      vertex 49.433 9.273 20
      vertex 52.3346 7.96874 20.6546
      vertex 52.455 8.574 20
    endloop
  endfacet
  facet normal 0.193623 0.702309 0.685034
    outer loop
      vertex 45.3581 8.44561 22
      vertex 49.0651 7.42361 22
      vertex 45.726 10.295 20
    endloop
  endfacet
  facet normal 0.193623 0.702309 0.685034
    outer loop
      vertex 45.726 10.295 20
      vertex 49.0651 7.42361 22
      vertex 49.433 9.273 20
    endloop
  endfacet
  facet normal 0.209598 0.698385 0.684344
    outer loop
      vertex 44.5151 8.69861 22
      vertex 45.3581 8.44561 22
      vertex 44.883 10.548 20
    endloop
  endfacet
  facet normal 0.209598 0.698385 0.684344
    outer loop
      vertex 44.883 10.548 20
      vertex 45.3581 8.44561 22
      vertex 45.726 10.295 20
    endloop
  endfacet
  facet normal 0.209137 0.698501 0.684367
    outer loop
      vertex 43.6701 8.95161 22
      vertex 44.5151 8.69861 22
      vertex 44.038 10.801 20
    endloop
  endfacet
  facet normal 0.209137 0.698501 0.684367
    outer loop
      vertex 44.038 10.801 20
      vertex 44.5151 8.69861 22
      vertex 44.883 10.548 20
    endloop
  endfacet
  facet normal 0.211693 0.697856 0.68424
    outer loop
      vertex 44.038 10.801 20
      vertex 43.3164 9.05892 22
      vertex 43.6701 8.95161 22
    endloop
  endfacet
  facet normal 0.261992 0.678911 0.685886
    outer loop
      vertex 40.506 12.164 20
      vertex 39.7844 10.4219 22
      vertex 43.3164 9.05892 22
    endloop
  endfacet
  facet normal 0.261992 0.678911 0.685886
    outer loop
      vertex 44.038 10.801 20
      vertex 40.506 12.164 20
      vertex 43.3164 9.05892 22
    endloop
  endfacet
  facet normal 0.34377 0.643147 0.68424
    outer loop
      vertex 40.506 12.164 20
      vertex 39.4584 10.5962 22
      vertex 39.7844 10.4219 22
    endloop
  endfacet
  facet normal 0.362457 0.63182 0.685148
    outer loop
      vertex 37.893 13.663 20
      vertex 36.8454 12.0952 22
      vertex 39.4584 10.5962 22
    endloop
  endfacet
  facet normal 0.362457 0.63182 0.685148
    outer loop
      vertex 40.506 12.164 20
      vertex 37.893 13.663 20
      vertex 39.4584 10.5962 22
    endloop
  endfacet
  facet normal 0.462636 0.563724 0.68424
    outer loop
      vertex 37.893 13.663 20
      vertex 36.5597 12.3297 22
      vertex 36.8454 12.0952 22
    endloop
  endfacet
  facet normal 0.467396 0.559415 0.684541
    outer loop
      vertex 37.51 13.983 20
      vertex 36.1767 12.6497 22
      vertex 36.5597 12.3297 22
    endloop
  endfacet
  facet normal 0.467396 0.559415 0.684541
    outer loop
      vertex 37.893 13.663 20
      vertex 37.51 13.983 20
      vertex 36.5597 12.3297 22
    endloop
  endfacet
  facet normal 0.464886 0.561692 0.684385
    outer loop
      vertex 36.982 14.42 20
      vertex 35.6487 13.0867 22
      vertex 36.1767 12.6497 22
    endloop
  endfacet
  facet normal 0.464886 0.561692 0.684385
    outer loop
      vertex 37.51 13.983 20
      vertex 36.982 14.42 20
      vertex 36.1767 12.6497 22
    endloop
  endfacet
  facet normal 0.563724 0.462636 0.68424
    outer loop
      vertex 36.982 14.42 20
      vertex 35.4142 13.3724 22
      vertex 35.6487 13.0867 22
    endloop
  endfacet
  facet normal 0.582978 0.436185 0.685478
    outer loop
      vertex 34.798 17.339 20
      vertex 33.2302 16.2914 22
      vertex 35.4142 13.3724 22
    endloop
  endfacet
  facet normal 0.582978 0.436185 0.685478
    outer loop
      vertex 36.982 14.42 20
      vertex 34.798 17.339 20
      vertex 35.4142 13.3724 22
    endloop
  endfacet
  facet normal 0.643147 0.34377 0.68424
    outer loop
      vertex 34.798 17.339 20
      vertex 33.0559 16.6174 22
      vertex 33.2302 16.2914 22
    endloop
  endfacet
  facet normal 0.674183 0.273682 0.685985
    outer loop
      vertex 33.214 21.241 20
      vertex 31.4719 20.5194 22
      vertex 33.0559 16.6174 22
    endloop
  endfacet
  facet normal 0.674183 0.273682 0.685985
    outer loop
      vertex 34.798 17.339 20
      vertex 33.214 21.241 20
      vertex 33.0559 16.6174 22
    endloop
  endfacet
  facet normal 0.697856 0.211693 0.68424
    outer loop
      vertex 33.214 21.241 20
      vertex 31.3646 20.8731 22
      vertex 31.4719 20.5194 22
    endloop
  endfacet
  facet normal 0.707246 0.172239 0.685666
    outer loop
      vertex 32.988 22.169 20
      vertex 31.1386 21.8011 22
      vertex 31.3646 20.8731 22
    endloop
  endfacet
  facet normal 0.707246 0.172239 0.685666
    outer loop
      vertex 33.214 21.241 20
      vertex 32.988 22.169 20
      vertex 31.3646 20.8731 22
    endloop
  endfacet
  facet normal 0.706962 0.17351 0.685637
    outer loop
      vertex 32.8 22.935 20
      vertex 30.9506 22.5671 22
      vertex 31.1386 21.8011 22
    endloop
  endfacet
  facet normal 0.706962 0.17351 0.685637
    outer loop
      vertex 32.988 22.169 20
      vertex 32.8 22.935 20
      vertex 31.1386 21.8011 22
    endloop
  endfacet
  facet normal 0.717089 0.123911 0.685879
    outer loop
      vertex 32.396 25.273 20
      vertex 30.5466 24.9051 22
      vertex 30.9506 22.5671 22
    endloop
  endfacet
  facet normal 0.717089 0.123911 0.685879
    outer loop
      vertex 32.8 22.935 20
      vertex 32.396 25.273 20
      vertex 30.9506 22.5671 22
    endloop
  endfacet
  facet normal 0.72472 0.0784161 0.684567
    outer loop
      vertex 31.991 29.016 20
      vertex 30.1416 28.6481 22
      vertex 30.5466 24.9051 22
    endloop
  endfacet
  facet normal 0.72472 0.0784161 0.684567
    outer loop
      vertex 32.396 25.273 20
      vertex 31.991 29.016 20
      vertex 30.5466 24.9051 22
    endloop
  endfacet
  facet normal 0.725746 0.0714791 0.68424
    outer loop
      vertex 31.991 29.016 20
      vertex 30.1054 29.016 22
      vertex 30.1416 28.6481 22
    endloop
  endfacet
  facet normal 0.727122 0.0365054 0.685537
    outer loop
      vertex 31.771 33.398 20
      vertex 29.8854 33.398 22
      vertex 30.1054 29.016 22
    endloop
  endfacet
  facet normal 0.727122 0.0365054 0.685537
    outer loop
      vertex 31.991 29.016 20
      vertex 31.771 33.398 20
      vertex 30.1054 29.016 22
    endloop
  endfacet
  facet normal 0.727572 0.00985555 0.685961
    outer loop
      vertex 31.72 37.163 20
      vertex 29.8344 37.163 22
      vertex 29.8854 33.398 22
    endloop
  endfacet
  facet normal 0.727572 0.00985555 0.685961
    outer loop
      vertex 31.771 33.398 20
      vertex 31.72 37.163 20
      vertex 29.8854 33.398 22
    endloop
  endfacet
  facet normal 0.727583 -0.00812293 0.685972
    outer loop
      vertex 29.8484 38.417 22
      vertex 29.8344 37.163 22
      vertex 31.72 37.163 20
    endloop
  endfacet
  facet normal 0.727583 -0.00812293 0.685972
    outer loop
      vertex 31.734 38.417 20
      vertex 29.8484 38.417 22
      vertex 31.72 37.163 20
    endloop
  endfacet
  facet normal 0.727586 -0.00750952 0.685975
    outer loop
      vertex 30.4404 95.775 22
      vertex 29.8484 38.417 22
      vertex 31.734 38.417 20
    endloop
  endfacet
  facet normal 0.727586 -0.00750952 0.685975
    outer loop
      vertex 32.326 95.775 20
      vertex 30.4404 95.775 22
      vertex 31.734 38.417 20
    endloop
  endfacet
  facet normal 0.725746 -0.0714791 0.68424
    outer loop
      vertex 30.4766 96.1429 22
      vertex 30.4404 95.775 22
      vertex 32.326 95.775 20
    endloop
  endfacet
  facet normal 0.697856 -0.211693 0.68424
    outer loop
      vertex 30.5839 96.4966 22
      vertex 30.4766 96.1429 22
      vertex 32.326 95.775 20
    endloop
  endfacet
  facet normal 0.643147 -0.34377 0.68424
    outer loop
      vertex 30.7582 96.8226 22
      vertex 30.5839 96.4966 22
      vertex 32.326 95.775 20
    endloop
  endfacet
  facet normal 0.563724 -0.462636 0.68424
    outer loop
      vertex 30.9927 97.1083 22
      vertex 30.7582 96.8226 22
      vertex 32.326 95.775 20
    endloop
  endfacet
  facet normal 0.462636 -0.563724 0.68424
    outer loop
      vertex 31.2784 97.3428 22
      vertex 30.9927 97.1083 22
      vertex 32.326 95.775 20
    endloop
  endfacet
  facet normal 0.34377 -0.643147 0.68424
    outer loop
      vertex 31.6044 97.5171 22
      vertex 31.2784 97.3428 22
      vertex 32.326 95.775 20
    endloop
  endfacet
  facet normal 0.211693 -0.697856 0.68424
    outer loop
      vertex 31.9581 97.6244 22
      vertex 31.6044 97.5171 22
      vertex 32.326 95.775 20
    endloop
  endfacet
  facet normal 0.0714791 -0.725746 0.68424
    outer loop
      vertex 32.326 97.6606 22
      vertex 31.9581 97.6244 22
      vertex 32.326 95.775 20
    endloop
  endfacet
  facet normal -0.0714791 -0.725746 0.68424
    outer loop
      vertex 32.326 97.6606 22
      vertex 32.326 95.775 20
      vertex 32.6939 97.6244 22
    endloop
  endfacet
  facet normal -0.211693 -0.697856 0.68424
    outer loop
      vertex 32.6939 97.6244 22
      vertex 32.326 95.775 20
      vertex 33.0476 97.5171 22
    endloop
  endfacet
  facet normal -0.34377 -0.643147 0.68424
    outer loop
      vertex 33.0476 97.5171 22
      vertex 32.326 95.775 20
      vertex 33.3736 97.3428 22
    endloop
  endfacet
  facet normal -0.462636 -0.563724 0.68424
    outer loop
      vertex 33.3736 97.3428 22
      vertex 32.326 95.775 20
      vertex 33.6593 97.1083 22
    endloop
  endfacet
  facet normal -0.563724 -0.462636 0.68424
    outer loop
      vertex 33.6593 97.1083 22
      vertex 32.326 95.775 20
      vertex 33.8938 96.8226 22
    endloop
  endfacet
  facet normal -0.572073 -0.451328 0.684862
    outer loop
      vertex 33.8938 96.8226 22
      vertex 32.326 95.775 20
      vertex 107.483 0.511 20
    endloop
  endfacet
  facet normal -0.572073 -0.451328 0.684862
    outer loop
      vertex 108.397 2.3872 22
      vertex 33.8938 96.8226 22
      vertex 107.483 0.511 20
    endloop
  endfacet
  facet normal -0.00749942 -0.727586 0.685975
    outer loop
      vertex 108.397 2.3872 22
      vertex 107.483 0.511 20
      vertex 122.812 0.353 20
    endloop
  endfacet
  facet normal -0.00749942 -0.727586 0.685975
    outer loop
      vertex 120.946 2.25785 22
      vertex 108.397 2.3872 22
      vertex 122.812 0.353 20
    endloop
  endfacet
  facet normal 0.727586 -0.00752339 0.685975
    outer loop
      vertex 121.829 87.682 22
      vertex 120.946 2.25785 22
      vertex 122.812 0.353 20
    endloop
  endfacet
  facet normal 0.727586 -0.00752339 0.685975
    outer loop
      vertex 123.715 87.682 20
      vertex 121.829 87.682 22
      vertex 122.812 0.353 20
    endloop
  endfacet
  facet normal 0.72759 -0.00679991 0.685978
    outer loop
      vertex 121.841 88.966 22
      vertex 121.829 87.682 22
      vertex 123.715 87.682 20
    endloop
  endfacet
  facet normal 0.72759 -0.00679991 0.685978
    outer loop
      vertex 123.727 88.966 20
      vertex 121.841 88.966 22
      vertex 123.715 87.682 20
    endloop
  endfacet
  facet normal 0.727407 -0.0234099 0.685806
    outer loop
      vertex 121.965 92.819 22
      vertex 121.841 88.966 22
      vertex 123.727 88.966 20
    endloop
  endfacet
  facet normal 0.727407 -0.0234099 0.685806
    outer loop
      vertex 123.851 92.819 20
      vertex 121.965 92.819 22
      vertex 123.727 88.966 20
    endloop
  endfacet
  facet normal 0.726765 -0.0480935 0.685201
    outer loop
      vertex 122.261 97.292 22
      vertex 121.965 92.819 22
      vertex 123.851 92.819 20
    endloop
  endfacet
  facet normal 0.726765 -0.0480935 0.685201
    outer loop
      vertex 124.147 97.292 20
      vertex 122.261 97.292 22
      vertex 123.851 92.819 20
    endloop
  endfacet
  facet normal 0.725746 -0.0714791 0.68424
    outer loop
      vertex 122.298 97.6599 22
      vertex 122.261 97.292 22
      vertex 124.147 97.292 20
    endloop
  endfacet
  facet normal 0.723432 -0.0867967 0.684918
    outer loop
      vertex 122.755 101.469 22
      vertex 122.298 97.6599 22
      vertex 124.147 97.292 20
    endloop
  endfacet
  facet normal 0.723432 -0.0867967 0.684918
    outer loop
      vertex 124.604 101.101 20
      vertex 122.755 101.469 22
      vertex 124.147 97.292 20
    endloop
  endfacet
  facet normal 0.716288 -0.1282 0.685927
    outer loop
      vertex 123.179 103.838 22
      vertex 122.755 101.469 22
      vertex 124.604 101.101 20
    endloop
  endfacet
  facet normal 0.716288 -0.1282 0.685927
    outer loop
      vertex 125.028 103.47 20
      vertex 123.179 103.838 22
      vertex 124.604 101.101 20
    endloop
  endfacet
  facet normal 0.706469 -0.175707 0.685586
    outer loop
      vertex 123.372 104.614 22
      vertex 123.179 103.838 22
      vertex 125.028 103.47 20
    endloop
  endfacet
  facet normal 0.706469 -0.175707 0.685586
    outer loop
      vertex 125.221 104.246 20
      vertex 123.372 104.614 22
      vertex 125.028 103.47 20
    endloop
  endfacet
  facet normal 0.706837 -0.174072 0.685625
    outer loop
      vertex 123.603 105.552 22
      vertex 123.372 104.614 22
      vertex 125.221 104.246 20
    endloop
  endfacet
  facet normal 0.706837 -0.174072 0.685625
    outer loop
      vertex 125.452 105.184 20
      vertex 123.603 105.552 22
      vertex 125.221 104.246 20
    endloop
  endfacet
  facet normal 0.697856 -0.211693 0.68424
    outer loop
      vertex 123.71 105.906 22
      vertex 123.603 105.552 22
      vertex 125.452 105.184 20
    endloop
  endfacet
  facet normal 0.671123 -0.281085 0.685992
    outer loop
      vertex 125.325 109.762 22
      vertex 123.71 105.906 22
      vertex 125.452 105.184 20
    endloop
  endfacet
  facet normal 0.671123 -0.281085 0.685992
    outer loop
      vertex 127.067 109.04 20
      vertex 125.325 109.762 22
      vertex 125.452 105.184 20
    endloop
  endfacet
  facet normal 0.643147 -0.34377 0.68424
    outer loop
      vertex 125.499 110.088 22
      vertex 125.325 109.762 22
      vertex 127.067 109.04 20
    endloop
  endfacet
  facet normal 0.566579 -0.458796 0.684467
    outer loop
      vertex 127.721 112.832 22
      vertex 125.499 110.088 22
      vertex 127.067 109.04 20
    endloop
  endfacet
  facet normal 0.566579 -0.458796 0.684467
    outer loop
      vertex 129.289 111.784 20
      vertex 127.721 112.832 22
      vertex 127.067 109.04 20
    endloop
  endfacet
  facet normal 0.563724 -0.462636 0.68424
    outer loop
      vertex 127.956 113.117 22
      vertex 127.721 112.832 22
      vertex 129.289 111.784 20
    endloop
  endfacet
  facet normal 0.462636 -0.563724 0.68424
    outer loop
      vertex 128.241 113.352 22
      vertex 127.956 113.117 22
      vertex 129.289 111.784 20
    endloop
  endfacet
  facet normal 0.421634 -0.593165 0.685843
    outer loop
      vertex 128.777 113.733 22
      vertex 128.241 113.352 22
      vertex 129.289 111.784 20
    endloop
  endfacet
  facet normal 0.421634 -0.593165 0.685843
    outer loop
      vertex 129.825 112.165 20
      vertex 128.777 113.733 22
      vertex 129.289 111.784 20
    endloop
  endfacet
  facet normal 0.426713 -0.58964 0.68574
    outer loop
      vertex 129.385 114.173 22
      vertex 128.777 113.733 22
      vertex 129.825 112.165 20
    endloop
  endfacet
  facet normal 0.426713 -0.58964 0.68574
    outer loop
      vertex 130.433 112.605 20
      vertex 129.385 114.173 22
      vertex 129.825 112.165 20
    endloop
  endfacet
  facet normal 0.34377 -0.643147 0.68424
    outer loop
      vertex 129.711 114.347 22
      vertex 129.385 114.173 22
      vertex 130.433 112.605 20
    endloop
  endfacet
  facet normal 0.337571 -0.646083 0.68456
    outer loop
      vertex 132.957 116.043 22
      vertex 129.711 114.347 22
      vertex 130.433 112.605 20
    endloop
  endfacet
  facet normal 0.337571 -0.646083 0.68456
    outer loop
      vertex 133.679 114.301 20
      vertex 132.957 116.043 22
      vertex 130.433 112.605 20
    endloop
  endfacet
  facet normal 0.211693 -0.697856 0.68424
    outer loop
      vertex 133.311 116.15 22
      vertex 132.957 116.043 22
      vertex 133.679 114.301 20
    endloop
  endfacet
  facet normal 0.205021 -0.69953 0.684561
    outer loop
      vertex 136.839 117.184 22
      vertex 133.311 116.15 22
      vertex 133.679 114.301 20
    endloop
  endfacet
  facet normal 0.205021 -0.69953 0.684561
    outer loop
      vertex 137.207 115.335 20
      vertex 136.839 117.184 22
      vertex 133.679 114.301 20
    endloop
  endfacet
  facet normal 0.102031 -0.720955 0.685429
    outer loop
      vertex 137.588 117.29 22
      vertex 136.839 117.184 22
      vertex 137.207 115.335 20
    endloop
  endfacet
  facet normal 0.102031 -0.720955 0.685429
    outer loop
      vertex 137.956 115.441 20
      vertex 137.588 117.29 22
      vertex 137.207 115.335 20
    endloop
  endfacet
  facet normal 0.103375 -0.720728 0.685467
    outer loop
      vertex 138.334 117.397 22
      vertex 137.588 117.29 22
      vertex 137.956 115.441 20
    endloop
  endfacet
  facet normal 0.103375 -0.720728 0.685467
    outer loop
      vertex 138.702 115.548 20
      vertex 138.334 117.397 22
      vertex 137.956 115.441 20
    endloop
  endfacet
  facet normal 0.0974686 -0.721715 0.685293
    outer loop
      vertex 141.555 117.832 22
      vertex 138.334 117.397 22
      vertex 138.702 115.548 20
    endloop
  endfacet
  facet normal 0.0974686 -0.721715 0.685293
    outer loop
      vertex 141.923 115.983 20
      vertex 141.555 117.832 22
      vertex 138.702 115.548 20
    endloop
  endfacet
  facet normal 0.0846774 -0.723763 0.684834
    outer loop
      vertex 142.987 118 22
      vertex 141.555 117.832 22
      vertex 141.923 115.983 20
    endloop
  endfacet
  facet normal 0.0846774 -0.723763 0.684834
    outer loop
      vertex 144.354 116.775 20.5359
      vertex 142.987 118 22
      vertex 144.453 116.279 20
    endloop
  endfacet
  facet normal 0.0846774 -0.723763 0.684834
    outer loop
      vertex 144.453 116.279 20
      vertex 142.987 118 22
      vertex 141.923 115.983 20
    endloop
  endfacet
  facet normal 0.0714791 -0.725746 0.68424
    outer loop
      vertex 144.453 116.685 20.4304
      vertex 144.354 116.775 20.5359
      vertex 144.453 116.279 20
    endloop
  endfacet
  facet normal 0.0704135 -0.725801 0.684292
    outer loop
      vertex 144.453 116.685 20.4304
      vertex 144.453 116.279 20
      vertex 144.855 116.318 20
    endloop
  endfacet
  facet normal 0.727587 -0.0074752 0.685975
    outer loop
      vertex 143.019 121.168 22
      vertex 142.987 118 22
      vertex 144.354 116.775 20.5359
    endloop
  endfacet
  facet normal 0.727587 -0.0074752 0.685975
    outer loop
      vertex 144.453 116.685 20.4304
      vertex 143.019 121.168 22
      vertex 144.354 116.775 20.5359
    endloop
  endfacet
  facet normal 0.727587 -0.0074752 0.685975
    outer loop
      vertex 144.453 116.685 20.4304
      vertex 144.855 116.318 20
      vertex 143.019 121.168 22
    endloop
  endfacet
  facet normal 0.727587 -0.0074752 0.685975
    outer loop
      vertex 144.855 116.318 20
      vertex 144.924 123.034 20
      vertex 143.019 121.168 22
    endloop
  endfacet
  facet normal 0.00753278 0.727586 0.685975
    outer loop
      vertex 92.476 123.577 20
      vertex 94.3421 121.672 22
      vertex 144.924 123.034 20
    endloop
  endfacet
  facet normal 0.00753278 0.727586 0.685975
    outer loop
      vertex 144.924 123.034 20
      vertex 94.3421 121.672 22
      vertex 143.019 121.168 22
    endloop
  endfacet
  facet normal -0.727587 0.00747298 0.685975
    outer loop
      vertex 92.407 116.859 20
      vertex 93.0269 117.371 20.6519
      vertex 92.476 123.577 20
    endloop
  endfacet
  facet normal -0.727587 0.00747298 0.685975
    outer loop
      vertex 92.476 123.577 20
      vertex 93.0269 117.371 20.6519
      vertex 94.3082 118.38 22
    endloop
  endfacet
  facet normal -0.727587 0.00747298 0.685975
    outer loop
      vertex 92.476 123.577 20
      vertex 94.3082 118.38 22
      vertex 94.3421 121.672 22
    endloop
  endfacet
  facet normal -0.130292 -0.715892 0.685946
    outer loop
      vertex 93.0269 117.371 20.6519
      vertex 92.407 116.859 20
      vertex 92.907 116.768 20
    endloop
  endfacet
  facet normal -0.163261 -0.709211 0.685832
    outer loop
      vertex 93.0269 117.371 20.6519
      vertex 92.907 116.768 20
      vertex 95.887 116.082 20
    endloop
  endfacet
  facet normal -0.163261 -0.709211 0.685832
    outer loop
      vertex 94.3082 118.38 22
      vertex 93.0269 117.371 20.6519
      vertex 96.2549 117.931 22
    endloop
  endfacet
  facet normal -0.163261 -0.709211 0.685832
    outer loop
      vertex 96.2549 117.931 22
      vertex 93.0269 117.371 20.6519
      vertex 95.887 116.082 20
    endloop
  endfacet
  facet normal -0.19391 -0.702241 0.685024
    outer loop
      vertex 96.2549 117.931 22
      vertex 95.887 116.082 20
      vertex 99.494 115.086 20
    endloop
  endfacet
  facet normal -0.19391 -0.702241 0.685024
    outer loop
      vertex 99.8619 116.935 22
      vertex 96.2549 117.931 22
      vertex 99.494 115.086 20
    endloop
  endfacet
  facet normal -0.210476 -0.698164 0.684301
    outer loop
      vertex 99.8619 116.935 22
      vertex 99.494 115.086 20
      vertex 100.31 114.84 20
    endloop
  endfacet
  facet normal -0.210476 -0.698164 0.684301
    outer loop
      vertex 100.678 116.689 22
      vertex 99.8619 116.935 22
      vertex 100.31 114.84 20
    endloop
  endfacet
  facet normal -0.210159 -0.698244 0.684316
    outer loop
      vertex 100.678 116.689 22
      vertex 100.31 114.84 20
      vertex 101.124 114.595 20
    endloop
  endfacet
  facet normal -0.210159 -0.698244 0.684316
    outer loop
      vertex 101.492 116.444 22
      vertex 100.678 116.689 22
      vertex 101.124 114.595 20
    endloop
  endfacet
  facet normal -0.211693 -0.697856 0.68424
    outer loop
      vertex 101.492 116.444 22
      vertex 101.124 114.595 20
      vertex 101.846 116.337 22
    endloop
  endfacet
  facet normal -0.2652 -0.677626 0.685924
    outer loop
      vertex 101.846 116.337 22
      vertex 101.124 114.595 20
      vertex 104.599 113.235 20
    endloop
  endfacet
  facet normal -0.2652 -0.677626 0.685924
    outer loop
      vertex 105.321 114.977 22
      vertex 101.846 116.337 22
      vertex 104.599 113.235 20
    endloop
  endfacet
  facet normal -0.34377 -0.643147 0.68424
    outer loop
      vertex 105.321 114.977 22
      vertex 104.599 113.235 20
      vertex 105.647 114.803 22
    endloop
  endfacet
  facet normal -0.364005 -0.630863 0.685209
    outer loop
      vertex 105.647 114.803 22
      vertex 104.599 113.235 20
      vertex 107.268 111.695 20
    endloop
  endfacet
  facet normal -0.364005 -0.630863 0.685209
    outer loop
      vertex 108.316 113.263 22
      vertex 105.647 114.803 22
      vertex 107.268 111.695 20
    endloop
  endfacet
  facet normal -0.458424 -0.566854 0.684488
    outer loop
      vertex 108.316 113.263 22
      vertex 107.268 111.695 20
      vertex 107.681 111.361 20
    endloop
  endfacet
  facet normal -0.458424 -0.566854 0.684488
    outer loop
      vertex 108.729 112.929 22
      vertex 108.316 113.263 22
      vertex 107.681 111.361 20
    endloop
  endfacet
  facet normal -0.462636 -0.563724 0.68424
    outer loop
      vertex 108.729 112.929 22
      vertex 107.681 111.361 20
      vertex 109.014 112.694 22
    endloop
  endfacet
  facet normal -0.46478 -0.561787 0.684379
    outer loop
      vertex 109.014 112.694 22
      vertex 107.681 111.361 20
      vertex 108.208 110.925 20
    endloop
  endfacet
  facet normal -0.46478 -0.561787 0.684379
    outer loop
      vertex 109.541 112.258 22
      vertex 109.014 112.694 22
      vertex 108.208 110.925 20
    endloop
  endfacet
  facet normal -0.563724 -0.462636 0.68424
    outer loop
      vertex 109.541 112.258 22
      vertex 108.208 110.925 20
      vertex 109.776 111.973 22
    endloop
  endfacet
  facet normal -0.578934 -0.44185 0.685276
    outer loop
      vertex 109.776 111.973 22
      vertex 108.208 110.925 20
      vertex 110.403 108.049 20
    endloop
  endfacet
  facet normal -0.578934 -0.44185 0.685276
    outer loop
      vertex 111.971 109.097 22
      vertex 109.776 111.973 22
      vertex 110.403 108.049 20
    endloop
  endfacet
  facet normal -0.643147 -0.34377 0.68424
    outer loop
      vertex 111.971 109.097 22
      vertex 110.403 108.049 20
      vertex 112.145 108.771 22
    endloop
  endfacet
  facet normal -0.669957 -0.283877 0.685982
    outer loop
      vertex 112.145 108.771 22
      vertex 110.403 108.049 20
      vertex 112.014 104.247 20
    endloop
  endfacet
  facet normal -0.669957 -0.283877 0.685982
    outer loop
      vertex 113.756 104.969 22
      vertex 112.145 108.771 22
      vertex 112.014 104.247 20
    endloop
  endfacet
  facet normal -0.697856 -0.211693 0.68424
    outer loop
      vertex 113.756 104.969 22
      vertex 112.014 104.247 20
      vertex 113.863 104.615 22
    endloop
  endfacet
  facet normal -0.70441 -0.184712 0.685338
    outer loop
      vertex 112.014 104.247 20
      vertex 112.25 103.347 20
      vertex 113.863 104.615 22
    endloop
  endfacet
  facet normal -0.70441 -0.184712 0.685338
    outer loop
      vertex 113.863 104.615 22
      vertex 112.25 103.347 20
      vertex 114.099 103.715 22
    endloop
  endfacet
  facet normal -0.704805 -0.183005 0.685389
    outer loop
      vertex 112.25 103.347 20
      vertex 112.445 102.596 20
      vertex 114.099 103.715 22
    endloop
  endfacet
  facet normal -0.704805 -0.183005 0.685389
    outer loop
      vertex 114.099 103.715 22
      vertex 112.445 102.596 20
      vertex 114.294 102.964 22
    endloop
  endfacet
  facet normal -0.716268 -0.128305 0.685928
    outer loop
      vertex 112.445 102.596 20
      vertex 112.857 100.296 20
      vertex 114.294 102.964 22
    endloop
  endfacet
  facet normal -0.716268 -0.128305 0.685928
    outer loop
      vertex 114.294 102.964 22
      vertex 112.857 100.296 20
      vertex 114.706 100.664 22
    endloop
  endfacet
  facet normal -0.724348 -0.0808692 0.684675
    outer loop
      vertex 112.857 100.296 20
      vertex 113.276 96.543 20
      vertex 114.706 100.664 22
    endloop
  endfacet
  facet normal -0.724348 -0.0808692 0.684675
    outer loop
      vertex 114.706 100.664 22
      vertex 113.276 96.543 20
      vertex 115.125 96.9109 22
    endloop
  endfacet
  facet normal -0.725746 -0.0714791 0.68424
    outer loop
      vertex 115.125 96.9109 22
      vertex 113.276 96.543 20
      vertex 115.162 96.543 22
    endloop
  endfacet
  facet normal -0.727099 -0.0373582 0.685515
    outer loop
      vertex 113.276 96.543 20
      vertex 113.505 92.086 20
      vertex 115.162 96.543 22
    endloop
  endfacet
  facet normal -0.727099 -0.0373582 0.685515
    outer loop
      vertex 115.162 96.543 22
      vertex 113.505 92.086 20
      vertex 115.391 92.086 22
    endloop
  endfacet
  facet normal -0.727573 -0.0095857 0.685963
    outer loop
      vertex 113.505 92.086 20
      vertex 113.556 88.215 20
      vertex 115.391 92.086 22
    endloop
  endfacet
  facet normal -0.727573 -0.0095857 0.685963
    outer loop
      vertex 115.391 92.086 22
      vertex 113.556 88.215 20
      vertex 115.442 88.215 22
    endloop
  endfacet
  facet normal -0.727587 0.00733228 0.685976
    outer loop
      vertex 113.543 86.925 20
      vertex 115.429 86.925 22
      vertex 113.556 88.215 20
    endloop
  endfacet
  facet normal -0.727587 0.00733228 0.685976
    outer loop
      vertex 113.556 88.215 20
      vertex 115.429 86.925 22
      vertex 115.442 88.215 22
    endloop
  endfacet
  facet normal -0.727586 0.00752003 0.685975
    outer loop
      vertex 113.065 40.677 20
      vertex 114.951 40.677 22
      vertex 113.543 86.925 20
    endloop
  endfacet
  facet normal -0.727586 0.00752003 0.685975
    outer loop
      vertex 113.543 86.925 20
      vertex 114.951 40.677 22
      vertex 115.429 86.925 22
    endloop
  endfacet
  facet normal -0.725746 0.0714791 0.68424
    outer loop
      vertex 114.951 40.677 22
      vertex 113.065 40.677 20
      vertex 114.914 40.3091 22
    endloop
  endfacet
  facet normal -0.697856 0.211693 0.68424
    outer loop
      vertex 114.914 40.3091 22
      vertex 113.065 40.677 20
      vertex 114.807 39.9554 22
    endloop
  endfacet
  facet normal -0.643147 0.34377 0.68424
    outer loop
      vertex 114.807 39.9554 22
      vertex 113.065 40.677 20
      vertex 114.633 39.6294 22
    endloop
  endfacet
  facet normal -0.563724 0.462636 0.68424
    outer loop
      vertex 114.633 39.6294 22
      vertex 113.065 40.677 20
      vertex 114.398 39.3437 22
    endloop
  endfacet
  facet normal -0.462636 0.563724 0.68424
    outer loop
      vertex 114.398 39.3437 22
      vertex 113.065 40.677 20
      vertex 114.113 39.1092 22
    endloop
  endfacet
  facet normal -0.34377 0.643147 0.68424
    outer loop
      vertex 114.113 39.1092 22
      vertex 113.065 40.677 20
      vertex 113.787 38.9349 22
    endloop
  endfacet
  facet normal -0.211693 0.697856 0.68424
    outer loop
      vertex 113.787 38.9349 22
      vertex 113.065 40.677 20
      vertex 113.433 38.8276 22
    endloop
  endfacet
  facet normal -0.0714791 0.725746 0.68424
    outer loop
      vertex 113.065 40.677 20
      vertex 113.065 38.7914 22
      vertex 113.433 38.8276 22
    endloop
  endfacet
  facet normal 0.0714791 0.725746 0.68424
    outer loop
      vertex 113.065 40.677 20
      vertex 112.697 38.8276 22
      vertex 113.065 38.7914 22
    endloop
  endfacet
  facet normal 0.211693 0.697856 0.68424
    outer loop
      vertex 113.065 40.677 20
      vertex 112.343 38.9349 22
      vertex 112.697 38.8276 22
    endloop
  endfacet
  facet normal 0.34377 0.643147 0.68424
    outer loop
      vertex 113.065 40.677 20
      vertex 112.017 39.1092 22
      vertex 112.343 38.9349 22
    endloop
  endfacet
  facet normal 0.462636 0.563724 0.68424
    outer loop
      vertex 113.065 40.677 20
      vertex 111.732 39.3437 22
      vertex 112.017 39.1092 22
    endloop
  endfacet
  facet normal 0.563724 0.462636 0.68424
    outer loop
      vertex 113.065 40.677 20
      vertex 111.497 39.6294 22
      vertex 111.732 39.3437 22
    endloop
  endfacet
  facet normal 0.571424 0.452215 0.684818
    outer loop
      vertex 47.089 124.045 20
      vertex 46.1769 122.169 22
      vertex 111.497 39.6294 22
    endloop
  endfacet
  facet normal 0.571424 0.452215 0.684818
    outer loop
      vertex 113.065 40.677 20
      vertex 47.089 124.045 20
      vertex 111.497 39.6294 22
    endloop
  endfacet
  facet normal 0.00753074 0.727586 0.685975
    outer loop
      vertex 1.1 124.521 20
      vertex 2.96571 122.616 22
      vertex 47.089 124.045 20
    endloop
  endfacet
  facet normal 0.00753074 0.727586 0.685975
    outer loop
      vertex 47.089 124.045 20
      vertex 2.96571 122.616 22
      vertex 46.1769 122.169 22
    endloop
  endfacet
  facet normal -0.727586 0.00760432 0.685974
    outer loop
      vertex 1.028 117.632 20
      vertex 2.0583 118.467 21.0835
      vertex 1.1 124.521 20
    endloop
  endfacet
  facet normal -0.727586 0.00760432 0.685974
    outer loop
      vertex 1.1 124.521 20
      vertex 2.0583 118.467 21.0835
      vertex 2.92929 119.131 22
    endloop
  endfacet
  facet normal -0.727586 0.00760432 0.685974
    outer loop
      vertex 1.1 124.521 20
      vertex 2.92929 119.131 22
      vertex 2.96571 122.616 22
    endloop
  endfacet
  facet normal -0.143356 -0.713345 0.685994
    outer loop
      vertex 2.0583 118.467 21.0835
      vertex 1.028 117.632 20
      vertex 1.859 117.465 20
    endloop
  endfacet
  facet normal -0.18365 -0.704656 0.68537
    outer loop
      vertex 2.0583 118.467 21.0835
      vertex 1.859 117.465 20
      vertex 5.742 116.453 20
    endloop
  endfacet
  facet normal -0.18365 -0.704656 0.68537
    outer loop
      vertex 2.92929 119.131 22
      vertex 2.0583 118.467 21.0835
      vertex 6.10987 118.302 22
    endloop
  endfacet
  facet normal -0.18365 -0.704656 0.68537
    outer loop
      vertex 6.10987 118.302 22
      vertex 2.0583 118.467 21.0835
      vertex 5.742 116.453 20
    endloop
  endfacet
  facet normal -0.211693 -0.697856 0.68424
    outer loop
      vertex 6.10987 118.302 22
      vertex 5.742 116.453 20
      vertex 6.46359 118.195 22
    endloop
  endfacet
  facet normal -0.24397 -0.685958 0.685522
    outer loop
      vertex 6.46359 118.195 22
      vertex 5.742 116.453 20
      vertex 9.265 115.2 20
    endloop
  endfacet
  facet normal -0.24397 -0.685958 0.685522
    outer loop
      vertex 9.98659 116.942 22
      vertex 6.46359 118.195 22
      vertex 9.265 115.2 20
    endloop
  endfacet
  facet normal -0.29393 -0.665695 0.685897
    outer loop
      vertex 9.98659 116.942 22
      vertex 9.265 115.2 20
      vertex 9.915 114.913 20
    endloop
  endfacet
  facet normal -0.29393 -0.665695 0.685897
    outer loop
      vertex 10.6366 116.655 22
      vertex 9.98659 116.942 22
      vertex 9.915 114.913 20
    endloop
  endfacet
  facet normal -0.293448 -0.665901 0.685903
    outer loop
      vertex 10.6366 116.655 22
      vertex 9.915 114.913 20
      vertex 10.564 114.627 20
    endloop
  endfacet
  facet normal -0.293448 -0.665901 0.685903
    outer loop
      vertex 11.2856 116.369 22
      vertex 10.6366 116.655 22
      vertex 10.564 114.627 20
    endloop
  endfacet
  facet normal -0.34377 -0.643147 0.68424
    outer loop
      vertex 11.2856 116.369 22
      vertex 10.564 114.627 20
      vertex 11.6116 116.195 22
    endloop
  endfacet
  facet normal -0.364054 -0.630833 0.685211
    outer loop
      vertex 11.6116 116.195 22
      vertex 10.564 114.627 20
      vertex 13.586 112.883 20
    endloop
  endfacet
  facet normal -0.364054 -0.630833 0.685211
    outer loop
      vertex 14.6336 114.451 22
      vertex 11.6116 116.195 22
      vertex 13.586 112.883 20
    endloop
  endfacet
  facet normal -0.453094 -0.570781 0.684774
    outer loop
      vertex 14.6336 114.451 22
      vertex 13.586 112.883 20
      vertex 16.302 110.727 20
    endloop
  endfacet
  facet normal -0.453094 -0.570781 0.684774
    outer loop
      vertex 17.3496 112.295 22
      vertex 14.6336 114.451 22
      vertex 16.302 110.727 20
    endloop
  endfacet
  facet normal -0.462636 -0.563724 0.68424
    outer loop
      vertex 17.3496 112.295 22
      vertex 16.302 110.727 20
      vertex 17.6353 112.06 22
    endloop
  endfacet
  facet normal -0.511896 -0.517088 0.68599
    outer loop
      vertex 17.6353 112.06 22
      vertex 16.302 110.727 20
      vertex 16.8 110.234 20
    endloop
  endfacet
  facet normal -0.511896 -0.517088 0.68599
    outer loop
      vertex 18.1333 111.567 22
      vertex 17.6353 112.06 22
      vertex 16.8 110.234 20
    endloop
  endfacet
  facet normal -0.512285 -0.516701 0.685991
    outer loop
      vertex 18.1333 111.567 22
      vertex 16.8 110.234 20
      vertex 17.268 109.77 20
    endloop
  endfacet
  facet normal -0.512285 -0.516701 0.685991
    outer loop
      vertex 18.6013 111.103 22
      vertex 18.1333 111.567 22
      vertex 17.268 109.77 20
    endloop
  endfacet
  facet normal -0.563724 -0.462636 0.68424
    outer loop
      vertex 18.6013 111.103 22
      vertex 17.268 109.77 20
      vertex 18.8358 110.818 22
    endloop
  endfacet
  facet normal -0.579835 -0.440594 0.685324
    outer loop
      vertex 18.8358 110.818 22
      vertex 17.268 109.77 20
      vertex 19.233 107.184 20
    endloop
  endfacet
  facet normal -0.579835 -0.440594 0.685324
    outer loop
      vertex 20.8008 108.232 22
      vertex 18.8358 110.818 22
      vertex 19.233 107.184 20
    endloop
  endfacet
  facet normal -0.643147 -0.34377 0.68424
    outer loop
      vertex 20.8008 108.232 22
      vertex 19.233 107.184 20
      vertex 20.9751 107.906 22
    endloop
  endfacet
  facet normal -0.652389 -0.323976 0.685148
    outer loop
      vertex 20.9751 107.906 22
      vertex 19.233 107.184 20
      vertex 20.693 104.244 20
    endloop
  endfacet
  facet normal -0.652389 -0.323976 0.685148
    outer loop
      vertex 22.4351 104.966 22
      vertex 20.9751 107.906 22
      vertex 20.693 104.244 20
    endloop
  endfacet
  facet normal -0.690375 -0.232276 0.68515
    outer loop
      vertex 20.693 104.244 20
      vertex 20.909 103.602 20
      vertex 22.4351 104.966 22
    endloop
  endfacet
  facet normal -0.690375 -0.232276 0.68515
    outer loop
      vertex 22.4351 104.966 22
      vertex 20.909 103.602 20
      vertex 22.6511 104.324 22
    endloop
  endfacet
  facet normal -0.690611 -0.23164 0.685127
    outer loop
      vertex 20.909 103.602 20
      vertex 21.124 102.961 20
      vertex 22.6511 104.324 22
    endloop
  endfacet
  facet normal -0.690611 -0.23164 0.685127
    outer loop
      vertex 22.6511 104.324 22
      vertex 21.124 102.961 20
      vertex 22.8661 103.683 22
    endloop
  endfacet
  facet normal -0.697856 -0.211693 0.68424
    outer loop
      vertex 22.8661 103.683 22
      vertex 21.124 102.961 20
      vertex 22.9734 103.329 22
    endloop
  endfacet
  facet normal -0.710041 -0.15938 0.685886
    outer loop
      vertex 21.124 102.961 20
      vertex 21.869 99.642 20
      vertex 22.9734 103.329 22
    endloop
  endfacet
  facet normal -0.710041 -0.15938 0.685886
    outer loop
      vertex 22.9734 103.329 22
      vertex 21.869 99.642 20
      vertex 23.7184 100.01 22
    endloop
  endfacet
  facet normal -0.725746 -0.0714791 0.68424
    outer loop
      vertex 23.7184 100.01 22
      vertex 21.869 99.642 20
      vertex 23.7546 99.642 22
    endloop
  endfacet
  facet normal -0.726194 -0.062293 0.684662
    outer loop
      vertex 21.869 99.642 20
      vertex 22.167 96.168 20
      vertex 23.7546 99.642 22
    endloop
  endfacet
  facet normal -0.726194 -0.062293 0.684662
    outer loop
      vertex 23.7546 99.642 22
      vertex 22.167 96.168 20
      vertex 24.0526 96.168 22
    endloop
  endfacet
  facet normal -0.727589 0.00709348 0.685977
    outer loop
      vertex 22.16 95.45 20
      vertex 24.0456 95.45 22
      vertex 22.167 96.168 20
    endloop
  endfacet
  facet normal -0.727589 0.00709348 0.685977
    outer loop
      vertex 22.167 96.168 20
      vertex 24.0456 95.45 22
      vertex 24.0526 96.168 22
    endloop
  endfacet
  facet normal -0.727586 0.00753044 0.685975
    outer loop
      vertex 21.561 37.575 20
      vertex 23.4466 37.575 22
      vertex 22.16 95.45 20
    endloop
  endfacet
  facet normal -0.727586 0.00753044 0.685975
    outer loop
      vertex 22.16 95.45 20
      vertex 23.4466 37.575 22
      vertex 24.0456 95.45 22
    endloop
  endfacet
  facet normal -0.727584 0.00792 0.685973
    outer loop
      vertex 21.546 36.197 20
      vertex 23.4316 36.197 22
      vertex 21.561 37.575 20
    endloop
  endfacet
  facet normal -0.727584 0.00792 0.685973
    outer loop
      vertex 21.561 37.575 20
      vertex 23.4316 36.197 22
      vertex 23.4466 37.575 22
    endloop
  endfacet
  facet normal -0.727445 0.0211057 0.685842
    outer loop
      vertex 21.426 32.061 20
      vertex 23.3116 32.061 22
      vertex 21.546 36.197 20
    endloop
  endfacet
  facet normal -0.727445 0.0211057 0.685842
    outer loop
      vertex 21.546 36.197 20
      vertex 23.3116 32.061 22
      vertex 23.4316 36.197 22
    endloop
  endfacet
  facet normal -0.726896 0.0441821 0.685324
    outer loop
      vertex 21.143 27.405 20
      vertex 23.0286 27.405 22
      vertex 21.426 32.061 20
    endloop
  endfacet
  facet normal -0.726896 0.0441821 0.685324
    outer loop
      vertex 21.426 32.061 20
      vertex 23.0286 27.405 22
      vertex 23.3116 32.061 22
    endloop
  endfacet
  facet normal -0.725746 0.0714791 0.68424
    outer loop
      vertex 23.0286 27.405 22
      vertex 21.143 27.405 20
      vertex 22.9924 27.0371 22
    endloop
  endfacet
  facet normal -0.724177 0.0819895 0.684723
    outer loop
      vertex 20.713 23.607 20
      vertex 22.5624 23.2391 22
      vertex 21.143 27.405 20
    endloop
  endfacet
  facet normal -0.724177 0.0819895 0.684723
    outer loop
      vertex 21.143 27.405 20
      vertex 22.5624 23.2391 22
      vertex 22.9924 27.0371 22
    endloop
  endfacet
  facet normal -0.716803 0.125449 0.685898
    outer loop
      vertex 20.325 21.39 20
      vertex 22.1744 21.0221 22
      vertex 20.713 23.607 20
    endloop
  endfacet
  facet normal -0.716803 0.125449 0.685898
    outer loop
      vertex 20.713 23.607 20
      vertex 22.1744 21.0221 22
      vertex 22.5624 23.2391 22
    endloop
  endfacet
  facet normal -0.704858 0.182777 0.685396
    outer loop
      vertex 20.137 20.665 20
      vertex 21.9864 20.2971 22
      vertex 20.325 21.39 20
    endloop
  endfacet
  facet normal -0.704858 0.182777 0.685396
    outer loop
      vertex 20.325 21.39 20
      vertex 21.9864 20.2971 22
      vertex 22.1744 21.0221 22
    endloop
  endfacet
  facet normal -0.704818 0.182949 0.685391
    outer loop
      vertex 19.92 19.829 20
      vertex 21.7694 19.4611 22
      vertex 20.137 20.665 20
    endloop
  endfacet
  facet normal -0.704818 0.182949 0.685391
    outer loop
      vertex 20.137 20.665 20
      vertex 21.7694 19.4611 22
      vertex 21.9864 20.2971 22
    endloop
  endfacet
  facet normal -0.697856 0.211693 0.68424
    outer loop
      vertex 21.7694 19.4611 22
      vertex 19.92 19.829 20
      vertex 21.6621 19.1074 22
    endloop
  endfacet
  facet normal -0.663191 0.299735 0.685811
    outer loop
      vertex 19.92 19.829 20
      vertex 18.316 16.28 20
      vertex 20.0581 15.5584 22
    endloop
  endfacet
  facet normal -0.663191 0.299735 0.685811
    outer loop
      vertex 21.6621 19.1074 22
      vertex 19.92 19.829 20
      vertex 20.0581 15.5584 22
    endloop
  endfacet
  facet normal -0.643147 0.34377 0.68424
    outer loop
      vertex 20.0581 15.5584 22
      vertex 18.316 16.28 20
      vertex 19.8838 15.2324 22
    endloop
  endfacet
  facet normal -0.563724 0.462636 0.68424
    outer loop
      vertex 19.8838 15.2324 22
      vertex 18.316 16.28 20
      vertex 19.6493 14.9467 22
    endloop
  endfacet
  facet normal -0.553978 0.473339 0.684878
    outer loop
      vertex 18.316 16.28 20
      vertex 16.015 13.587 20
      vertex 17.3483 12.2537 22
    endloop
  endfacet
  facet normal -0.553978 0.473339 0.684878
    outer loop
      vertex 19.6493 14.9467 22
      vertex 18.316 16.28 20
      vertex 17.3483 12.2537 22
    endloop
  endfacet
  facet normal -0.462636 0.563724 0.68424
    outer loop
      vertex 17.3483 12.2537 22
      vertex 16.015 13.587 20
      vertex 17.0626 12.0192 22
    endloop
  endfacet
  facet normal -0.428495 0.588396 0.685698
    outer loop
      vertex 16.015 13.587 20
      vertex 15.452 13.177 20
      vertex 16.4996 11.6092 22
    endloop
  endfacet
  facet normal -0.428495 0.588396 0.685698
    outer loop
      vertex 17.0626 12.0192 22
      vertex 16.015 13.587 20
      vertex 16.4996 11.6092 22
    endloop
  endfacet
  facet normal -0.41285 0.599181 0.685957
    outer loop
      vertex 15.452 13.177 20
      vertex 14.96 12.838 20
      vertex 16.0076 11.2702 22
    endloop
  endfacet
  facet normal -0.41285 0.599181 0.685957
    outer loop
      vertex 16.4996 11.6092 22
      vertex 15.452 13.177 20
      vertex 16.0076 11.2702 22
    endloop
  endfacet
  facet normal -0.34377 0.643147 0.68424
    outer loop
      vertex 16.0076 11.2702 22
      vertex 14.96 12.838 20
      vertex 15.6816 11.0959 22
    endloop
  endfacet
  facet normal -0.329445 0.649874 0.68493
    outer loop
      vertex 14.96 12.838 20
      vertex 12.149 11.413 20
      vertex 12.8706 9.67092 22
    endloop
  endfacet
  facet normal -0.329445 0.649874 0.68493
    outer loop
      vertex 15.6816 11.0959 22
      vertex 14.96 12.838 20
      vertex 12.8706 9.67092 22
    endloop
  endfacet
  facet normal -0.224085 0.693396 0.684827
    outer loop
      vertex 8.869 10.353 20
      vertex 9.59059 8.61092 22
      vertex 12.149 11.413 20
    endloop
  endfacet
  facet normal -0.224085 0.693396 0.684827
    outer loop
      vertex 12.149 11.413 20
      vertex 9.59059 8.61092 22
      vertex 12.8706 9.67092 22
    endloop
  endfacet
  facet normal -0.211693 0.697856 0.68424
    outer loop
      vertex 9.59059 8.61092 22
      vertex 8.869 10.353 20
      vertex 9.23687 8.50361 22
    endloop
  endfacet
  facet normal -0.15474 0.711019 0.685936
    outer loop
      vertex 8.143 10.195 20
      vertex 8.51087 8.34561 22
      vertex 8.869 10.353 20
    endloop
  endfacet
  facet normal -0.15474 0.711019 0.685936
    outer loop
      vertex 8.869 10.353 20
      vertex 8.51087 8.34561 22
      vertex 9.23687 8.50361 22
    endloop
  endfacet
  facet normal -0.153398 0.711298 0.685948
    outer loop
      vertex 7.415 10.038 20
      vertex 7.78287 8.18861 22
      vertex 8.143 10.195 20
    endloop
  endfacet
  facet normal -0.153398 0.711298 0.685948
    outer loop
      vertex 8.143 10.195 20
      vertex 7.78287 8.18861 22
      vertex 8.51087 8.34561 22
    endloop
  endfacet
  facet normal -0.128511 0.71623 0.68593
    outer loop
      vertex 4.032 9.431 20
      vertex 4.39987 7.58161 22
      vertex 7.415 10.038 20
    endloop
  endfacet
  facet normal -0.128511 0.71623 0.68593
    outer loop
      vertex 7.415 10.038 20
      vertex 4.39987 7.58161 22
      vertex 7.78287 8.18861 22
    endloop
  endfacet
endsolid OpenSCAD_Model
