  0
SECTION
  2
HEADER
  9
$ACADVER
  1
AC1009
  9
$EXTMIN
 10
0.0
 20
0.0
 30
0.0
  9
$EXTMAX
 10
1000.0
 20
1000.0
 30
0.0
  9
$FILLMODE
 70
 0
  9
$SPLFRAME
 70
 1
  0
ENDSEC
  0
SECTION
  2
TABLES
  0
TABLE
  2
LAYER
 70
1
  0
LAYER
  2
0
 70
     0
 62
     7
  6
CONTINUOUS
  0
ENDTAB
  0
ENDSEC
  0
SECTION
  2
ENTITIES
  0
LINE
  8
0
 62
     0
 10
144.855
 20
116.318
 30
0.0
 11
144.453
 21
116.279
 31
0.0
  0
LINE
  8
0
 62
     0
 10
144.453
 20
116.279
 30
0.0
 11
141.923
 21
115.983
 31
0.0
  0
LINE
  8
0
 62
     0
 10
141.923
 20
115.983
 30
0.0
 11
138.702
 21
115.548
 31
0.0
  0
LINE
  8
0
 62
     0
 10
138.702
 20
115.548
 30
0.0
 11
137.956
 21
115.441
 31
0.0
  0
LINE
  8
0
 62
     0
 10
137.956
 20
115.441
 30
0.0
 11
137.207
 21
115.335
 31
0.0
  0
LINE
  8
0
 62
     0
 10
137.207
 20
115.335
 30
0.0
 11
133.679
 21
114.301
 31
0.0
  0
LINE
  8
0
 62
     0
 10
133.679
 20
114.301
 30
0.0
 11
130.433
 21
112.605
 31
0.0
  0
LINE
  8
0
 62
     0
 10
130.433
 20
112.605
 30
0.0
 11
129.825
 21
112.165
 31
0.0
  0
LINE
  8
0
 62
     0
 10
129.825
 20
112.165
 30
0.0
 11
129.289
 21
111.784
 31
0.0
  0
LINE
  8
0
 62
     0
 10
129.289
 20
111.784
 30
0.0
 11
127.067
 21
109.04
 31
0.0
  0
LINE
  8
0
 62
     0
 10
127.067
 20
109.04
 30
0.0
 11
125.452
 21
105.184
 31
0.0
  0
LINE
  8
0
 62
     0
 10
125.452
 20
105.184
 30
0.0
 11
125.221
 21
104.246
 31
0.0
  0
LINE
  8
0
 62
     0
 10
125.221
 20
104.246
 30
0.0
 11
125.028
 21
103.47
 31
0.0
  0
LINE
  8
0
 62
     0
 10
125.028
 20
103.47
 30
0.0
 11
124.604
 21
101.101
 31
0.0
  0
LINE
  8
0
 62
     0
 10
124.604
 20
101.101
 30
0.0
 11
124.147
 21
97.2922
 31
0.0
  0
LINE
  8
0
 62
     0
 10
124.147
 20
97.2922
 30
0.0
 11
123.851
 21
92.819
 31
0.0
  0
LINE
  8
0
 62
     0
 10
123.851
 20
92.819
 30
0.0
 11
123.727
 21
88.9663
 31
0.0
  0
LINE
  8
0
 62
     0
 10
123.727
 20
88.9663
 30
0.0
 11
123.715
 21
87.6819
 31
0.0
  0
LINE
  8
0
 62
     0
 10
123.715
 20
87.6819
 30
0.0
 11
122.812
 21
0.352778
 31
0.0
  0
LINE
  8
0
 62
     0
 10
122.812
 20
0.352778
 30
0.0
 11
107.483
 21
0.511253
 31
0.0
  0
LINE
  8
0
 62
     0
 10
107.483
 20
0.511253
 30
0.0
 11
32.326
 21
95.7749
 31
0.0
  0
LINE
  8
0
 62
     0
 10
32.326
 20
95.7749
 30
0.0
 11
31.7335
 21
38.4168
 31
0.0
  0
LINE
  8
0
 62
     0
 10
31.7335
 20
38.4168
 30
0.0
 11
31.7197
 21
37.163
 31
0.0
  0
LINE
  8
0
 62
     0
 10
31.7197
 20
37.163
 30
0.0
 11
31.7707
 21
33.3981
 31
0.0
  0
LINE
  8
0
 62
     0
 10
31.7707
 20
33.3981
 30
0.0
 11
31.9912
 21
29.016
 31
0.0
  0
LINE
  8
0
 62
     0
 10
31.9912
 20
29.016
 30
0.0
 11
32.3963
 21
25.2732
 31
0.0
  0
LINE
  8
0
 62
     0
 10
32.3963
 20
25.2732
 30
0.0
 11
32.8001
 21
22.9347
 31
0.0
  0
LINE
  8
0
 62
     0
 10
32.8001
 20
22.9347
 30
0.0
 11
32.9875
 21
22.1685
 31
0.0
  0
LINE
  8
0
 62
     0
 10
32.9875
 20
22.1685
 30
0.0
 11
33.2135
 21
21.2411
 31
0.0
  0
LINE
  8
0
 62
     0
 10
33.2135
 20
21.2411
 30
0.0
 11
34.7982
 21
17.3385
 31
0.0
  0
LINE
  8
0
 62
     0
 10
34.7982
 20
17.3385
 30
0.0
 11
36.9824
 21
14.4198
 31
0.0
  0
LINE
  8
0
 62
     0
 10
36.9824
 20
14.4198
 30
0.0
 11
37.5102
 21
13.9829
 31
0.0
  0
LINE
  8
0
 62
     0
 10
37.5102
 20
13.9829
 30
0.0
 11
37.8933
 21
13.6633
 31
0.0
  0
LINE
  8
0
 62
     0
 10
37.8933
 20
13.6633
 30
0.0
 11
40.5059
 21
12.164
 31
0.0
  0
LINE
  8
0
 62
     0
 10
40.5059
 20
12.164
 30
0.0
 11
44.038
 21
10.8011
 31
0.0
  0
LINE
  8
0
 62
     0
 10
44.038
 20
10.8011
 30
0.0
 11
44.8829
 21
10.5475
 31
0.0
  0
LINE
  8
0
 62
     0
 10
44.8829
 20
10.5475
 30
0.0
 11
45.726
 21
10.2953
 31
0.0
  0
LINE
  8
0
 62
     0
 10
45.726
 20
10.2953
 30
0.0
 11
49.433
 21
9.27283
 31
0.0
  0
LINE
  8
0
 62
     0
 10
49.433
 20
9.27283
 30
0.0
 11
52.4549
 21
8.57416
 31
0.0
  0
LINE
  8
0
 62
     0
 10
52.4549
 20
8.57416
 30
0.0
 11
52.9565
 21
8.48184
 31
0.0
  0
LINE
  8
0
 62
     0
 10
52.9565
 20
8.48184
 30
0.0
 11
52.8877
 21
1.76527
 31
0.0
  0
LINE
  8
0
 62
     0
 10
52.8877
 20
1.76527
 30
0.0
 11
0.352778
 21
2.30821
 31
0.0
  0
LINE
  8
0
 62
     0
 10
0.352778
 20
2.30821
 30
0.0
 11
0.421679
 21
9.02614
 31
0.0
  0
LINE
  8
0
 62
     0
 10
0.421679
 20
9.02614
 30
0.0
 11
0.981163
 21
9.06336
 31
0.0
  0
LINE
  8
0
 62
     0
 10
0.981163
 20
9.06336
 30
0.0
 11
4.03214
 21
9.4313
 31
0.0
  0
LINE
  8
0
 62
     0
 10
4.03214
 20
9.4313
 30
0.0
 11
7.41521
 21
10.0376
 31
0.0
  0
LINE
  8
0
 62
     0
 10
7.41521
 20
10.0376
 30
0.0
 11
8.14282
 21
10.1947
 31
0.0
  0
LINE
  8
0
 62
     0
 10
8.14282
 20
10.1947
 30
0.0
 11
8.86905
 21
10.3532
 31
0.0
  0
LINE
  8
0
 62
     0
 10
8.86905
 20
10.3532
 30
0.0
 11
12.1488
 21
11.4129
 31
0.0
  0
LINE
  8
0
 62
     0
 10
12.1488
 20
11.4129
 30
0.0
 11
14.96
 21
12.8378
 31
0.0
  0
LINE
  8
0
 62
     0
 10
14.96
 20
12.8378
 30
0.0
 11
15.4519
 21
13.1768
 31
0.0
  0
LINE
  8
0
 62
     0
 10
15.4519
 20
13.1768
 30
0.0
 11
16.0155
 21
13.5874
 31
0.0
  0
LINE
  8
0
 62
     0
 10
16.0155
 20
13.5874
 30
0.0
 11
18.3155
 21
16.2801
 31
0.0
  0
LINE
  8
0
 62
     0
 10
18.3155
 20
16.2801
 30
0.0
 11
19.9195
 21
19.8286
 31
0.0
  0
LINE
  8
0
 62
     0
 10
19.9195
 20
19.8286
 30
0.0
 11
20.1373
 21
20.6651
 31
0.0
  0
LINE
  8
0
 62
     0
 10
20.1373
 20
20.6651
 30
0.0
 11
20.3247
 21
21.3899
 31
0.0
  0
LINE
  8
0
 62
     0
 10
20.3247
 20
21.3899
 30
0.0
 11
20.7133
 21
23.6072
 31
0.0
  0
LINE
  8
0
 62
     0
 10
20.7133
 20
23.6072
 30
0.0
 11
21.1432
 21
27.405
 31
0.0
  0
LINE
  8
0
 62
     0
 10
21.1432
 20
27.405
 30
0.0
 11
21.4257
 21
32.0614
 31
0.0
  0
LINE
  8
0
 62
     0
 10
21.4257
 20
32.0614
 30
0.0
 11
21.5456
 21
36.1968
 31
0.0
  0
LINE
  8
0
 62
     0
 10
21.5456
 20
36.1968
 30
0.0
 11
21.5608
 21
37.5751
 31
0.0
  0
LINE
  8
0
 62
     0
 10
21.5608
 20
37.5751
 30
0.0
 11
22.1602
 21
95.4497
 31
0.0
  0
LINE
  8
0
 62
     0
 10
22.1602
 20
95.4497
 30
0.0
 11
22.1671
 21
96.1679
 31
0.0
  0
LINE
  8
0
 62
     0
 10
22.1671
 20
96.1679
 30
0.0
 11
21.8695
 21
99.6417
 31
0.0
  0
LINE
  8
0
 62
     0
 10
21.8695
 20
99.6417
 30
0.0
 11
21.1239
 21
102.961
 31
0.0
  0
LINE
  8
0
 62
     0
 10
21.1239
 20
102.961
 30
0.0
 11
20.909
 21
103.602
 31
0.0
  0
LINE
  8
0
 62
     0
 10
20.909
 20
103.602
 30
0.0
 11
20.6926
 21
104.244
 31
0.0
  0
LINE
  8
0
 62
     0
 10
20.6926
 20
104.244
 30
0.0
 11
19.2333
 21
107.184
 31
0.0
  0
LINE
  8
0
 62
     0
 10
19.2333
 20
107.184
 30
0.0
 11
17.2682
 21
109.77
 31
0.0
  0
LINE
  8
0
 62
     0
 10
17.2682
 20
109.77
 30
0.0
 11
16.7997
 21
110.234
 31
0.0
  0
LINE
  8
0
 62
     0
 10
16.7997
 20
110.234
 30
0.0
 11
16.3022
 21
110.727
 31
0.0
  0
LINE
  8
0
 62
     0
 10
16.3022
 20
110.727
 30
0.0
 11
13.5861
 21
112.883
 31
0.0
  0
LINE
  8
0
 62
     0
 10
13.5861
 20
112.883
 30
0.0
 11
10.564
 21
114.627
 31
0.0
  0
LINE
  8
0
 62
     0
 10
10.564
 20
114.627
 30
0.0
 11
9.915
 21
114.913
 31
0.0
  0
LINE
  8
0
 62
     0
 10
9.915
 20
114.913
 30
0.0
 11
9.26454
 21
115.2
 31
0.0
  0
LINE
  8
0
 62
     0
 10
9.26454
 20
115.2
 30
0.0
 11
5.74227
 21
116.453
 31
0.0
  0
LINE
  8
0
 62
     0
 10
5.74227
 20
116.453
 30
0.0
 11
1.85897
 21
117.465
 31
0.0
  0
LINE
  8
0
 62
     0
 10
1.85897
 20
117.465
 30
0.0
 11
1.02802
 21
117.632
 31
0.0
  0
LINE
  8
0
 62
     0
 10
1.02802
 20
117.632
 30
0.0
 11
1.09968
 21
124.521
 31
0.0
  0
LINE
  8
0
 62
     0
 10
1.09968
 20
124.521
 30
0.0
 11
47.0888
 21
124.045
 31
0.0
  0
LINE
  8
0
 62
     0
 10
47.0888
 20
124.045
 30
0.0
 11
113.065
 21
40.677
 31
0.0
  0
LINE
  8
0
 62
     0
 10
113.065
 20
40.677
 30
0.0
 11
113.543
 21
86.9251
 31
0.0
  0
LINE
  8
0
 62
     0
 10
113.543
 20
86.9251
 30
0.0
 11
113.556
 21
88.2153
 31
0.0
  0
LINE
  8
0
 62
     0
 10
113.556
 20
88.2153
 30
0.0
 11
113.505
 21
92.0859
 31
0.0
  0
LINE
  8
0
 62
     0
 10
113.505
 20
92.0859
 30
0.0
 11
113.276
 21
96.5426
 31
0.0
  0
LINE
  8
0
 62
     0
 10
113.276
 20
96.5426
 30
0.0
 11
112.857
 21
100.296
 31
0.0
  0
LINE
  8
0
 62
     0
 10
112.857
 20
100.296
 30
0.0
 11
112.445
 21
102.596
 31
0.0
  0
LINE
  8
0
 62
     0
 10
112.445
 20
102.596
 30
0.0
 11
112.25
 21
103.347
 31
0.0
  0
LINE
  8
0
 62
     0
 10
112.25
 20
103.347
 30
0.0
 11
112.014
 21
104.247
 31
0.0
  0
LINE
  8
0
 62
     0
 10
112.014
 20
104.247
 30
0.0
 11
110.403
 21
108.049
 31
0.0
  0
LINE
  8
0
 62
     0
 10
110.403
 20
108.049
 30
0.0
 11
108.208
 21
110.925
 31
0.0
  0
LINE
  8
0
 62
     0
 10
108.208
 20
110.925
 30
0.0
 11
107.681
 21
111.361
 31
0.0
  0
LINE
  8
0
 62
     0
 10
107.681
 20
111.361
 30
0.0
 11
107.268
 21
111.695
 31
0.0
  0
LINE
  8
0
 62
     0
 10
107.268
 20
111.695
 30
0.0
 11
104.599
 21
113.235
 31
0.0
  0
LINE
  8
0
 62
     0
 10
104.599
 20
113.235
 30
0.0
 11
101.124
 21
114.595
 31
0.0
  0
LINE
  8
0
 62
     0
 10
101.124
 20
114.595
 30
0.0
 11
100.31
 21
114.84
 31
0.0
  0
LINE
  8
0
 62
     0
 10
100.31
 20
114.84
 30
0.0
 11
99.4943
 21
115.086
 31
0.0
  0
LINE
  8
0
 62
     0
 10
99.4943
 20
115.086
 30
0.0
 11
95.8868
 21
116.082
 31
0.0
  0
LINE
  8
0
 62
     0
 10
95.8868
 20
116.082
 30
0.0
 11
92.9072
 21
116.768
 31
0.0
  0
LINE
  8
0
 62
     0
 10
92.9072
 20
116.768
 30
0.0
 11
92.407
 21
116.859
 31
0.0
  0
LINE
  8
0
 62
     0
 10
92.407
 20
116.859
 30
0.0
 11
92.4761
 21
123.577
 31
0.0
  0
LINE
  8
0
 62
     0
 10
92.4761
 20
123.577
 30
0.0
 11
144.924
 21
123.034
 31
0.0
  0
LINE
  8
0
 62
     0
 10
144.924
 20
123.034
 30
0.0
 11
144.855
 21
116.318
 31
0.0
  0
ENDSEC
  0
EOF
