  0
SECTION
  2
HEADER
  9
$ACADVER
  1
AC1009
  9
$EXTMIN
 10
0.0
 20
0.0
 30
0.0
  9
$EXTMAX
 10
1000.0
 20
1000.0
 30
0.0
  9
$FILLMODE
 70
 0
  9
$SPLFRAME
 70
 1
  0
ENDSEC
  0
SECTION
  2
TABLES
  0
TABLE
  2
LAYER
 70
1
  0
LAYER
  2
0
 70
     0
 62
     7
  6
CONTINUOUS
  0
ENDTAB
  0
ENDSEC
  0
SECTION
  2
ENTITIES
  0
LINE
  8
0
 62
     0
 10
113.597
 20
111.831
 30
0.0
 11
114.711
 21
110.792
 31
0.0
  0
LINE
  8
0
 62
     0
 10
114.711
 20
110.792
 30
0.0
 11
117.839
 21
107.437
 31
0.0
  0
LINE
  8
0
 62
     0
 10
117.839
 20
107.437
 30
0.0
 11
121.608
 21
102.618
 31
0.0
  0
LINE
  8
0
 62
     0
 10
121.608
 20
102.618
 30
0.0
 11
124.905
 21
97.3737
 31
0.0
  0
LINE
  8
0
 62
     0
 10
124.905
 20
97.3737
 30
0.0
 11
127.092
 21
93.1513
 31
0.0
  0
LINE
  8
0
 62
     0
 10
127.092
 20
93.1513
 30
0.0
 11
127.729
 21
91.7028
 31
0.0
  0
LINE
  8
0
 62
     0
 10
127.729
 20
91.7028
 30
0.0
 11
128.381
 21
90.2215
 31
0.0
  0
LINE
  8
0
 62
     0
 10
128.381
 20
90.2215
 30
0.0
 11
129.983
 21
85.6188
 31
0.0
  0
LINE
  8
0
 62
     0
 10
129.983
 20
85.6188
 30
0.0
 11
131.572
 21
79.1312
 31
0.0
  0
LINE
  8
0
 62
     0
 10
131.572
 20
79.1312
 30
0.0
 11
132.494
 21
72.2422
 31
0.0
  0
LINE
  8
0
 62
     0
 10
132.494
 20
72.2422
 30
0.0
 11
132.769
 21
66.7727
 31
0.0
  0
LINE
  8
0
 62
     0
 10
132.769
 20
66.7727
 30
0.0
 11
132.751
 21
64.9496
 31
0.0
  0
LINE
  8
0
 62
     0
 10
132.751
 20
64.9496
 30
0.0
 11
132.733
 21
63.3017
 31
0.0
  0
LINE
  8
0
 62
     0
 10
132.733
 20
63.3017
 30
0.0
 11
132.402
 21
58.36
 31
0.0
  0
LINE
  8
0
 62
     0
 10
132.402
 20
58.36
 30
0.0
 11
131.495
 21
51.9356
 31
0.0
  0
LINE
  8
0
 62
     0
 10
131.495
 20
51.9356
 30
0.0
 11
130.03
 21
45.6791
 31
0.0
  0
LINE
  8
0
 62
     0
 10
130.03
 20
45.6791
 30
0.0
 11
128.582
 21
41.0863
 31
0.0
  0
LINE
  8
0
 62
     0
 10
128.582
 20
41.0863
 30
0.0
 11
128.009
 21
39.5898
 31
0.0
  0
LINE
  8
0
 62
     0
 10
128.009
 20
39.5898
 30
0.0
 11
127.442
 21
38.1152
 31
0.0
  0
LINE
  8
0
 62
     0
 10
127.442
 20
38.1152
 30
0.0
 11
125.461
 21
33.7978
 31
0.0
  0
LINE
  8
0
 62
     0
 10
125.461
 20
33.7978
 30
0.0
 11
122.423
 21
28.4289
 31
0.0
  0
LINE
  8
0
 62
     0
 10
122.423
 20
28.4289
 30
0.0
 11
118.894
 21
23.4859
 31
0.0
  0
LINE
  8
0
 62
     0
 10
118.894
 20
23.4859
 30
0.0
 11
115.937
 21
20.0394
 31
0.0
  0
LINE
  8
0
 62
     0
 10
115.937
 20
20.0394
 30
0.0
 11
114.876
 21
18.9673
 31
0.0
  0
LINE
  8
0
 62
     0
 10
114.876
 20
18.9673
 30
0.0
 11
113.763
 21
17.8566
 31
0.0
  0
LINE
  8
0
 62
     0
 10
113.763
 20
17.8566
 30
0.0
 11
110.202
 21
14.745
 31
0.0
  0
LINE
  8
0
 62
     0
 10
110.202
 20
14.745
 30
0.0
 11
105.147
 21
11.0257
 31
0.0
  0
LINE
  8
0
 62
     0
 10
105.147
 20
11.0257
 30
0.0
 11
99.7081
 21
7.81209
 31
0.0
  0
LINE
  8
0
 62
     0
 10
99.7081
 20
7.81209
 30
0.0
 11
95.3714
 21
5.70784
 31
0.0
  0
LINE
  8
0
 62
     0
 10
95.3714
 20
5.70784
 30
0.0
 11
93.8886
 21
5.10148
 31
0.0
  0
LINE
  8
0
 62
     0
 10
93.8886
 20
5.10148
 30
0.0
 11
92.3519
 21
4.47449
 31
0.0
  0
LINE
  8
0
 62
     0
 10
92.3519
 20
4.47449
 30
0.0
 11
87.5937
 21
2.96278
 31
0.0
  0
LINE
  8
0
 62
     0
 10
87.5937
 20
2.96278
 30
0.0
 11
80.7364
 21
1.45934
 31
0.0
  0
LINE
  8
0
 62
     0
 10
80.7364
 20
1.45934
 30
0.0
 11
73.3143
 21
0.591178
 31
0.0
  0
LINE
  8
0
 62
     0
 10
73.3143
 20
0.591178
 30
0.0
 11
67.3241
 21
0.337619
 31
0.0
  0
LINE
  8
0
 62
     0
 10
67.3241
 20
0.337619
 30
0.0
 11
65.3302
 21
0.358288
 31
0.0
  0
LINE
  8
0
 62
     0
 10
65.3302
 20
0.358288
 30
0.0
 11
63.6834
 21
0.376206
 31
0.0
  0
LINE
  8
0
 62
     0
 10
63.6834
 20
0.376206
 30
0.0
 11
58.7484
 21
0.701421
 31
0.0
  0
LINE
  8
0
 62
     0
 10
58.7484
 20
0.701421
 30
0.0
 11
52.3572
 21
1.59163
 31
0.0
  0
LINE
  8
0
 62
     0
 10
52.3572
 20
1.59163
 30
0.0
 11
46.1546
 21
3.02755
 31
0.0
  0
LINE
  8
0
 62
     0
 10
46.1546
 20
3.02755
 30
0.0
 11
41.6183
 21
4.44832
 31
0.0
  0
LINE
  8
0
 62
     0
 10
41.6183
 20
4.44832
 30
0.0
 11
40.1408
 21
5.01191
 31
0.0
  0
LINE
  8
0
 62
     0
 10
40.1408
 20
5.01191
 30
0.0
 11
38.6789
 21
5.57004
 31
0.0
  0
LINE
  8
0
 62
     0
 10
38.6789
 20
5.57004
 30
0.0
 11
34.4013
 21
7.51583
 31
0.0
  0
LINE
  8
0
 62
     0
 10
34.4013
 20
7.51583
 30
0.0
 11
29.0215
 21
10.5103
 31
0.0
  0
LINE
  8
0
 62
     0
 10
29.0215
 20
10.5103
 30
0.0
 11
24.0027
 21
13.9967
 31
0.0
  0
LINE
  8
0
 62
     0
 10
24.0027
 20
13.9967
 30
0.0
 11
20.457
 21
16.9251
 31
0.0
  0
LINE
  8
0
 62
     0
 10
20.457
 20
16.9251
 30
0.0
 11
19.3449
 21
17.9737
 31
0.0
  0
LINE
  8
0
 62
     0
 10
19.3449
 20
17.9737
 30
0.0
 11
18.2397
 21
19.0045
 31
0.0
  0
LINE
  8
0
 62
     0
 10
18.2397
 20
19.0045
 30
0.0
 11
15.1419
 21
22.3297
 31
0.0
  0
LINE
  8
0
 62
     0
 10
15.1419
 20
22.3297
 30
0.0
 11
11.4074
 21
27.1225
 31
0.0
  0
LINE
  8
0
 62
     0
 10
11.4074
 20
27.1225
 30
0.0
 11
8.14006
 21
32.3508
 31
0.0
  0
LINE
  8
0
 62
     0
 10
8.14006
 20
32.3508
 30
0.0
 11
5.97105
 21
36.5704
 31
0.0
  0
LINE
  8
0
 62
     0
 10
5.97105
 20
36.5704
 30
0.0
 11
5.34127
 21
38.016
 31
0.0
  0
LINE
  8
0
 62
     0
 10
5.34127
 20
38.016
 30
0.0
 11
4.69773
 21
39.4917
 31
0.0
  0
LINE
  8
0
 62
     0
 10
4.69773
 20
39.4917
 30
0.0
 11
3.10472
 21
44.0627
 31
0.0
  0
LINE
  8
0
 62
     0
 10
3.10472
 20
44.0627
 30
0.0
 11
1.52824
 21
50.4377
 31
0.0
  0
LINE
  8
0
 62
     0
 10
1.52824
 20
50.4377
 30
0.0
 11
0.611851
 21
57.1391
 31
0.0
  0
LINE
  8
0
 62
     0
 10
0.611851
 20
57.1391
 30
0.0
 11
0.338998
 21
62.4099
 31
0.0
  0
LINE
  8
0
 62
     0
 10
0.338998
 20
62.4099
 30
0.0
 11
0.356912
 21
64.1657
 31
0.0
  0
LINE
  8
0
 62
     0
 10
0.356912
 20
64.1657
 30
0.0
 11
0.374826
 21
65.9956
 31
0.0
  0
LINE
  8
0
 62
     0
 10
0.374826
 20
65.9956
 30
0.0
 11
0.752408
 21
71.4802
 31
0.0
  0
LINE
  8
0
 62
     0
 10
0.752408
 20
71.4802
 30
0.0
 11
1.78456
 21
78.438
 31
0.0
  0
LINE
  8
0
 62
     0
 10
1.78456
 20
78.438
 30
0.0
 11
3.45474
 21
85.0403
 31
0.0
  0
LINE
  8
0
 62
     0
 10
3.45474
 20
85.0403
 30
0.0
 11
5.10148
 21
89.7601
 31
0.0
  0
LINE
  8
0
 62
     0
 10
5.10148
 20
89.7601
 30
0.0
 11
5.76157
 21
91.2841
 31
0.0
  0
LINE
  8
0
 62
     0
 10
5.76157
 20
91.2841
 30
0.0
 11
6.40652
 21
92.7763
 31
0.0
  0
LINE
  8
0
 62
     0
 10
6.40652
 20
92.7763
 30
0.0
 11
8.62376
 21
97.131
 31
0.0
  0
LINE
  8
0
 62
     0
 10
8.62376
 20
97.131
 30
0.0
 11
11.9614
 21
102.536
 31
0.0
  0
LINE
  8
0
 62
     0
 10
11.9614
 20
102.536
 30
0.0
 11
15.7716
 21
107.501
 31
0.0
  0
LINE
  8
0
 62
     0
 10
15.7716
 20
107.501
 30
0.0
 11
18.9315
 21
110.951
 31
0.0
  0
LINE
  8
0
 62
     0
 10
18.9315
 20
110.951
 30
0.0
 11
20.0587
 21
112.024
 31
0.0
  0
LINE
  8
0
 62
     0
 10
20.0587
 20
112.024
 30
0.0
 11
21.1735
 21
113.075
 31
0.0
  0
LINE
  8
0
 62
     0
 10
21.1735
 20
113.075
 30
0.0
 11
24.7427
 21
115.994
 31
0.0
  0
LINE
  8
0
 62
     0
 10
24.7427
 20
115.994
 30
0.0
 11
29.8359
 21
119.469
 31
0.0
  0
LINE
  8
0
 62
     0
 10
29.8359
 20
119.469
 30
0.0
 11
35.3385
 21
122.451
 31
0.0
  0
LINE
  8
0
 62
     0
 10
35.3385
 20
122.451
 30
0.0
 11
39.7468
 21
124.389
 31
0.0
  0
LINE
  8
0
 62
     0
 10
39.7468
 20
124.389
 30
0.0
 11
41.2517
 21
124.938
 31
0.0
  0
LINE
  8
0
 62
     0
 10
41.2517
 20
124.938
 30
0.0
 11
42.7785
 21
125.498
 31
0.0
  0
LINE
  8
0
 62
     0
 10
42.7785
 20
125.498
 30
0.0
 11
47.4652
 21
126.891
 31
0.0
  0
LINE
  8
0
 62
     0
 10
47.4652
 20
126.891
 30
0.0
 11
53.8716
 21
128.265
 31
0.0
  0
LINE
  8
0
 62
     0
 10
53.8716
 20
128.265
 30
0.0
 11
60.4725
 21
129.06
 31
0.0
  0
LINE
  8
0
 62
     0
 10
60.4725
 20
129.06
 30
0.0
 11
65.5683
 21
129.296
 31
0.0
  0
LINE
  8
0
 62
     0
 10
65.5683
 20
129.296
 30
0.0
 11
67.2663
 21
129.278
 31
0.0
  0
LINE
  8
0
 62
     0
 10
67.2663
 20
129.278
 30
0.0
 11
68.9501
 21
129.261
 31
0.0
  0
LINE
  8
0
 62
     0
 10
68.9501
 20
129.261
 30
0.0
 11
74.0033
 21
128.929
 31
0.0
  0
LINE
  8
0
 62
     0
 10
74.0033
 20
128.929
 30
0.0
 11
80.5272
 21
128.022
 31
0.0
  0
LINE
  8
0
 62
     0
 10
80.5272
 20
128.022
 30
0.0
 11
86.8345
 21
126.556
 31
0.0
  0
LINE
  8
0
 62
     0
 10
86.8345
 20
126.556
 30
0.0
 11
91.4301
 21
125.109
 31
0.0
  0
LINE
  8
0
 62
     0
 10
91.4301
 20
125.109
 30
0.0
 11
92.9266
 21
124.533
 31
0.0
  0
LINE
  8
0
 62
     0
 10
92.9266
 20
124.533
 30
0.0
 11
94.3956
 21
123.968
 31
0.0
  0
LINE
  8
0
 62
     0
 10
94.3956
 20
123.968
 30
0.0
 11
98.7062
 21
122.014
 31
0.0
  0
LINE
  8
0
 62
     0
 10
98.7062
 20
122.014
 30
0.0
 11
104.078
 21
119.057
 31
0.0
  0
LINE
  8
0
 62
     0
 10
104.078
 20
119.057
 30
0.0
 11
109.041
 21
115.663
 31
0.0
  0
LINE
  8
0
 62
     0
 10
109.041
 20
115.663
 30
0.0
 11
112.509
 21
112.843
 31
0.0
  0
LINE
  8
0
 62
     0
 10
112.509
 20
112.843
 30
0.0
 11
113.597
 21
111.831
 31
0.0
  0
LINE
  8
0
 62
     0
 10
90.5591
 20
24.6448
 30
0.0
 11
91.2178
 21
25.9443
 31
0.0
  0
LINE
  8
0
 62
     0
 10
91.2178
 20
25.9443
 30
0.0
 11
93.9821
 21
32.9654
 31
0.0
  0
LINE
  8
0
 62
     0
 10
93.9821
 20
32.9654
 30
0.0
 11
96.0356
 21
40.6823
 31
0.0
  0
LINE
  8
0
 62
     0
 10
96.0356
 20
40.6823
 30
0.0
 11
96.3401
 21
42.3291
 31
0.0
  0
LINE
  8
0
 62
     0
 10
96.3401
 20
42.3291
 30
0.0
 11
96.6431
 21
43.9773
 31
0.0
  0
LINE
  8
0
 62
     0
 10
96.6431
 20
43.9773
 30
0.0
 11
97.7403
 21
52.8655
 31
0.0
  0
LINE
  8
0
 62
     0
 10
97.7403
 20
52.8655
 30
0.0
 11
98.2719
 21
62.6223
 31
0.0
  0
LINE
  8
0
 62
     0
 10
98.2719
 20
62.6223
 30
0.0
 11
98.2941
 21
64.703
 31
0.0
  0
LINE
  8
0
 62
     0
 10
98.2941
 20
64.703
 30
0.0
 11
98.3121
 21
66.4697
 31
0.0
  0
LINE
  8
0
 62
     0
 10
98.3121
 20
66.4697
 30
0.0
 11
98.0253
 21
75.1611
 31
0.0
  0
LINE
  8
0
 62
     0
 10
98.0253
 20
75.1611
 30
0.0
 11
97.233
 21
83.6704
 31
0.0
  0
LINE
  8
0
 62
     0
 10
97.233
 20
83.6704
 30
0.0
 11
97.0001
 21
85.3447
 31
0.0
  0
LINE
  8
0
 62
     0
 10
97.0001
 20
85.3447
 30
0.0
 11
96.7659
 21
87.0204
 31
0.0
  0
LINE
  8
0
 62
     0
 10
96.7659
 20
87.0204
 30
0.0
 11
95.0641
 21
94.8503
 31
0.0
  0
LINE
  8
0
 62
     0
 10
95.0641
 20
94.8503
 30
0.0
 11
92.6497
 21
101.957
 31
0.0
  0
LINE
  8
0
 62
     0
 10
92.6497
 20
101.957
 30
0.0
 11
92.0612
 21
103.269
 31
0.0
  0
LINE
  8
0
 62
     0
 10
92.0612
 20
103.269
 30
0.0
 11
91.4576
 21
104.582
 31
0.0
  0
LINE
  8
0
 62
     0
 10
91.4576
 20
104.582
 30
0.0
 11
87.8279
 21
110.375
 31
0.0
  0
LINE
  8
0
 62
     0
 10
87.8279
 20
110.375
 30
0.0
 11
83.3836
 21
115.145
 31
0.0
  0
LINE
  8
0
 62
     0
 10
83.3836
 20
115.145
 30
0.0
 11
82.3736
 21
115.944
 31
0.0
  0
LINE
  8
0
 62
     0
 10
82.3736
 20
115.944
 30
0.0
 11
81.6211
 21
116.539
 31
0.0
  0
LINE
  8
0
 62
     0
 10
81.6211
 20
116.539
 30
0.0
 11
79.1475
 21
118.051
 31
0.0
  0
LINE
  8
0
 62
     0
 10
79.1475
 20
118.051
 30
0.0
 11
75.5414
 21
119.568
 31
0.0
  0
LINE
  8
0
 62
     0
 10
75.5414
 20
119.568
 30
0.0
 11
71.5504
 21
120.497
 31
0.0
  0
LINE
  8
0
 62
     0
 10
71.5504
 20
120.497
 30
0.0
 11
68.2706
 21
120.826
 31
0.0
  0
LINE
  8
0
 62
     0
 10
68.2706
 20
120.826
 30
0.0
 11
67.1781
 21
120.837
 31
0.0
  0
LINE
  8
0
 62
     0
 10
67.1781
 20
120.837
 30
0.0
 11
65.3464
 21
120.857
 31
0.0
  0
LINE
  8
0
 62
     0
 10
65.3464
 20
120.857
 30
0.0
 11
59.8428
 21
119.991
 31
0.0
  0
LINE
  8
0
 62
     0
 10
59.8428
 20
119.991
 30
0.0
 11
53.424
 21
117.288
 31
0.0
  0
LINE
  8
0
 62
     0
 10
53.424
 20
117.288
 30
0.0
 11
47.9242
 21
112.729
 31
0.0
  0
LINE
  8
0
 62
     0
 10
47.9242
 20
112.729
 30
0.0
 11
44.3011
 21
108.022
 31
0.0
  0
LINE
  8
0
 62
     0
 10
44.3011
 20
108.022
 30
0.0
 11
43.3419
 21
106.313
 31
0.0
  0
LINE
  8
0
 62
     0
 10
43.3419
 20
106.313
 30
0.0
 11
42.2589
 21
104.385
 31
0.0
  0
LINE
  8
0
 62
     0
 10
42.2589
 20
104.385
 30
0.0
 11
39.715
 21
98.2031
 31
0.0
  0
LINE
  8
0
 62
     0
 10
39.715
 20
98.2031
 30
0.0
 11
37.0858
 21
88.5596
 31
0.0
  0
LINE
  8
0
 62
     0
 10
37.0858
 20
88.5596
 30
0.0
 11
35.4513
 21
77.3825
 31
0.0
  0
LINE
  8
0
 62
     0
 10
35.4513
 20
77.3825
 30
0.0
 11
34.8464
 21
67.849
 31
0.0
  0
LINE
  8
0
 62
     0
 10
34.8464
 20
67.849
 30
0.0
 11
34.8148
 21
64.6698
 31
0.0
  0
LINE
  8
0
 62
     0
 10
34.8148
 20
64.6698
 30
0.0
 11
34.7941
 21
62.7613
 31
0.0
  0
LINE
  8
0
 62
     0
 10
34.7941
 20
62.7613
 30
0.0
 11
35.1414
 21
53.534
 31
0.0
  0
LINE
  8
0
 62
     0
 10
35.1414
 20
53.534
 30
0.0
 11
36.0796
 21
44.7326
 31
0.0
  0
LINE
  8
0
 62
     0
 10
36.0796
 20
44.7326
 30
0.0
 11
36.3569
 21
43.0347
 31
0.0
  0
LINE
  8
0
 62
     0
 10
36.3569
 20
43.0347
 30
0.0
 11
36.6324
 21
41.3385
 31
0.0
  0
LINE
  8
0
 62
     0
 10
36.6324
 20
41.3385
 30
0.0
 11
38.53
 21
33.496
 31
0.0
  0
LINE
  8
0
 62
     0
 10
38.53
 20
33.496
 30
0.0
 11
41.1095
 21
26.5066
 31
0.0
  0
LINE
  8
0
 62
     0
 10
41.1095
 20
26.5066
 30
0.0
 11
41.7283
 21
25.236
 31
0.0
  0
LINE
  8
0
 62
     0
 10
41.7283
 20
25.236
 30
0.0
 11
42.3609
 21
23.953
 31
0.0
  0
LINE
  8
0
 62
     0
 10
42.3609
 20
23.953
 30
0.0
 11
46.0498
 21
18.3775
 31
0.0
  0
LINE
  8
0
 62
     0
 10
46.0498
 20
18.3775
 30
0.0
 11
50.4391
 21
13.9278
 31
0.0
  0
LINE
  8
0
 62
     0
 10
50.4391
 20
13.9278
 30
0.0
 11
51.423
 21
13.2071
 31
0.0
  0
LINE
  8
0
 62
     0
 10
51.423
 20
13.2071
 30
0.0
 11
52.1561
 21
12.6697
 31
0.0
  0
LINE
  8
0
 62
     0
 10
52.1561
 20
12.6697
 30
0.0
 11
54.5469
 21
11.3096
 31
0.0
  0
LINE
  8
0
 62
     0
 10
54.5469
 20
11.3096
 30
0.0
 11
58.021
 21
9.94117
 31
0.0
  0
LINE
  8
0
 62
     0
 10
58.021
 20
9.94117
 30
0.0
 11
61.8451
 21
9.10195
 31
0.0
  0
LINE
  8
0
 62
     0
 10
61.8451
 20
9.10195
 30
0.0
 11
64.976
 21
8.8029
 31
0.0
  0
LINE
  8
0
 62
     0
 10
64.976
 20
8.8029
 30
0.0
 11
66.0206
 21
8.79189
 31
0.0
  0
LINE
  8
0
 62
     0
 10
66.0206
 20
8.79189
 30
0.0
 11
67.0472
 21
8.78223
 31
0.0
  0
LINE
  8
0
 62
     0
 10
67.0472
 20
8.78223
 30
0.0
 11
70.134
 21
9.01926
 31
0.0
  0
LINE
  8
0
 62
     0
 10
70.134
 20
9.01926
 30
0.0
 11
73.9539
 21
9.78821
 31
0.0
  0
LINE
  8
0
 62
     0
 10
73.9539
 20
9.78821
 30
0.0
 11
77.4774
 21
11.0973
 31
0.0
  0
LINE
  8
0
 62
     0
 10
77.4774
 20
11.0973
 30
0.0
 11
79.9412
 21
12.4216
 31
0.0
  0
LINE
  8
0
 62
     0
 10
79.9412
 20
12.4216
 30
0.0
 11
80.705
 21
12.9467
 31
0.0
  0
LINE
  8
0
 62
     0
 10
80.705
 20
12.9467
 30
0.0
 11
81.4709
 21
13.4758
 31
0.0
  0
LINE
  8
0
 62
     0
 10
81.4709
 20
13.4758
 30
0.0
 11
83.6302
 21
15.2701
 31
0.0
  0
LINE
  8
0
 62
     0
 10
83.6302
 20
15.2701
 30
0.0
 11
86.2471
 21
17.9944
 31
0.0
  0
LINE
  8
0
 62
     0
 10
86.2471
 20
17.9944
 30
0.0
 11
88.5567
 21
21.1198
 31
0.0
  0
LINE
  8
0
 62
     0
 10
88.5567
 20
21.1198
 30
0.0
 11
90.11
 21
23.7395
 31
0.0
  0
LINE
  8
0
 62
     0
 10
90.11
 20
23.7395
 30
0.0
 11
90.5591
 21
24.6448
 31
0.0
  0
ENDSEC
  0
EOF
